<?xml version="1.0" encoding="utf-8" ?>
<svg xmlns="http://www.w3.org/2000/svg" xmlns:xlink="http://www.w3.org/1999/xlink" width="1820" height="1024">
	<path fill="#118A95" d="M0 0L1818.44 0C1820.58 3.35778 1819.99 8.22266 1820 12.0828L1820 742.336L1820.01 943.951L1820 997.417C1819.99 1004.76 1820.98 1013.76 1819.75 1020.9C1819.56 1022.02 1819.05 1023.05 1818.44 1024L0 1024L0 0Z"/>
	<path fill="#13C19E" d="M416.031 176.817C413.013 172.887 410.257 169.217 410.945 163.963C411.33 161.015 413.019 158.693 415.419 157.021C418.44 154.916 422.809 154.289 426.372 155.019C429.366 155.633 432.364 157.225 433.936 159.936C435.556 162.731 435.186 165.921 434.257 168.865C433.081 172.595 431.01 174.732 428.187 177.257C423.334 178.716 420.667 178.481 416.031 176.817Z"/>
	<path fill="#FEFEFE" d="M372.489 625.84C374.763 625.643 377.044 625.493 379.298 625.97C382.858 626.722 386.153 629.152 388.018 632.262C390.013 635.59 390.345 639.378 389.34 643.083C387.947 648.22 384.674 650.716 380.216 653.201C377.738 653.402 375.287 653.384 372.847 652.853C369.24 652.068 365.803 649.523 363.93 646.348C361.996 643.067 361.721 639.15 362.855 635.552C364.46 630.456 368 628.266 372.489 625.84Z"/>
	<path fill="#FEFEFE" d="M1577.99 828.888C1582.55 828.214 1586.42 828.258 1590.42 830.856C1593.79 833.042 1596.31 836.684 1596.99 840.656C1597.58 844.033 1596.9 847.501 1594.92 850.316C1592.35 853.981 1588.99 855.566 1584.71 856.394C1583.34 857.02 1581.67 856.767 1580.21 856.568C1576.65 856.082 1573.69 854.702 1571.55 851.689C1569.05 848.156 1568.48 843.383 1569.33 839.203C1570.38 834.081 1573.87 831.599 1577.99 828.888Z"/>
	<path fill="#FEFEFE" d="M343.207 179.666C345.731 179.511 348.458 179.239 350.915 179.955C354.69 181.054 358.171 183.803 360.011 187.29C361.858 190.791 362.086 194.876 360.861 198.617C359.174 203.769 355.767 206.127 351.14 208.512C349.16 208.556 347.067 208.65 345.109 208.32C340.997 207.628 337.03 205.297 334.741 201.768C332.626 198.509 332.263 194.671 333.186 190.97C334.603 185.293 338.419 182.537 343.207 179.666Z"/>
	<path fill="#FEFEFE" d="M487.108 134.275C489.758 134.363 492.293 134.478 494.796 135.438Q495.503 135.709 496.179 136.05Q496.854 136.39 497.493 136.797Q498.131 137.204 498.726 137.672Q499.32 138.141 499.865 138.667Q500.409 139.192 500.898 139.77Q501.387 140.348 501.816 140.972Q502.244 141.596 502.608 142.259Q502.972 142.923 503.268 143.62Q503.539 144.281 503.744 144.965Q503.948 145.649 504.085 146.351Q504.222 147.052 504.29 147.763Q504.357 148.474 504.355 149.188Q504.353 149.902 504.281 150.613Q504.209 151.324 504.067 152.024Q503.926 152.724 503.717 153.407Q503.508 154.09 503.233 154.749C501.142 159.764 497.65 161.714 492.849 163.774C490.261 163.725 487.377 163.811 484.938 162.855C481.268 161.417 478.058 158.387 476.456 154.786Q476.163 154.133 475.938 153.453Q475.713 152.773 475.558 152.074Q475.403 151.375 475.32 150.664Q475.237 149.953 475.227 149.237Q475.216 148.521 475.279 147.807Q475.342 147.094 475.476 146.391Q475.611 145.687 475.816 145.001Q476.022 144.316 476.296 143.654C478.419 138.561 482.167 136.23 487.108 134.275Z"/>
	<path fill="#06487C" d="M416.031 176.817C420.667 178.481 423.334 178.716 428.187 177.257C427.318 219.878 428.602 262.496 428.195 305.108C424.476 305.455 420.598 305.182 416.859 305.115C416.254 293.531 416.743 281.692 416.722 270.069C416.665 239.02 417.199 207.842 416.031 176.817Z"/>
	<path fill="#016F96" d="M480.262 722.54C480.043 722.592 479.825 722.649 479.605 722.698C471.866 724.416 460.329 723.088 452.269 723.055L387.315 722.775L329.437 722.743C320.565 722.76 311.347 723.478 302.515 722.896C299.889 722.724 297.786 721.941 295.56 720.545C294.165 718.365 294.114 718.341 294.488 715.789C295.668 714.131 296.816 713.06 298.704 712.232C300.778 711.322 302.91 710.881 305.174 710.829C322.632 710.427 476.193 709.989 480.821 711.755C479.358 714.75 478.26 716.977 479.387 720.372C479.634 721.115 479.942 721.827 480.262 722.54Z"/>
	<path fill="#28A9A6" d="M604.322 145.065C621.02 143.938 638.095 144.628 654.838 144.687L654.845 185.274L638.755 185.418C628.104 185.607 613.457 187.551 603.356 184.114C598.066 182.314 593.64 178.806 591.279 173.667Q591.073 173.216 590.89 172.756Q590.708 172.296 590.548 171.827Q590.388 171.358 590.252 170.882Q590.116 170.406 590.004 169.923Q589.892 169.441 589.804 168.954Q589.717 168.466 589.653 167.975Q589.59 167.484 589.551 166.99Q589.512 166.496 589.498 166.001Q589.484 165.506 589.495 165.011Q589.506 164.516 589.541 164.022Q589.577 163.528 589.637 163.036Q589.697 162.545 589.782 162.057Q589.866 161.569 589.975 161.085Q590.084 160.602 590.217 160.125Q590.35 159.648 590.507 159.178Q590.663 158.708 590.843 158.247C593.349 151.679 598.125 147.937 604.322 145.065Z"/>
	<path fill="#28A9A6" d="M1577.29 288.774C1598.17 287.946 1619.09 289.095 1639.95 288.341C1642.1 293.081 1642.51 324.71 1640.7 329.802C1640.47 330.448 1640.16 330.99 1639.82 331.581C1619.15 331.425 1598.38 330.915 1577.73 331.528C1577.96 331.009 1577.98 330.997 1578.2 330.385C1580.35 324.302 1580.06 294.874 1577.29 288.774Z"/>
	<path fill="#28A9A6" d="M1595.25 379.111C1610.97 378.625 1626.89 379.31 1642.62 379.542C1643.72 381.246 1643.87 382.932 1643.95 384.916C1644.54 399.645 1644.1 414.61 1644.12 429.364C1644.14 437.802 1645 447.09 1643.89 455.396C1643.73 456.551 1643.22 457.4 1642.46 458.245C1635.37 460.453 1603.51 458.845 1594.11 458.829C1597.59 452.35 1595.61 390.835 1595.25 379.111Z"/>
	<path fill="#28A9A6" d="M1576.86 207.126C1608.77 208.668 1640.94 206.92 1672.89 207.565C1675.06 212.014 1675.38 244.394 1673.61 249.215C1673.39 249.8 1673.11 250.274 1672.78 250.803L1576.93 250.783C1577.12 250.294 1577.33 249.809 1577.5 249.309C1579.29 243.985 1579.22 211.92 1576.86 207.126Z"/>
	<path fill="#28A9A6" d="M389.376 750.635C406.311 751.14 423.299 750.976 440.243 751.067Q439.965 788.428 440.087 825.79C440.093 838.039 441.003 850.944 439.691 863.08L388.758 863.037C388.223 838.265 388.62 813.405 388.618 788.624C388.617 777.896 386.957 760.521 389.376 750.635Z"/>
	<path fill="#28A9A6" d="M199.172 816.176L349.622 816.036L349.504 862.876L199.186 863.086L199.172 816.176Z"/>
	<path fill="#06487C" d="M655.651 214.437C655.037 196.502 655.709 178.421 655.641 160.467C655.592 147.729 653.991 132.615 656.153 120.163C656.978 115.404 659.018 111.137 662.05 107.39C667.249 100.965 674.352 96.9578 682.641 96.1974C704.618 94.1815 727.879 95.6285 749.968 95.6533L880.534 95.9221L1018.47 95.7626C1041.78 95.7236 1065.92 94.4835 1089.13 96.0222C1096.29 96.497 1103.34 97.0627 1109.03 101.829C1116.58 108.154 1120.57 115.855 1121.36 125.588C1122.46 139.213 1121.63 153.353 1121.78 167.04C1121.93 180.853 1123.28 196.029 1121.87 209.746C1121.69 211.506 1121.08 212.833 1119.93 214.189C1116.39 214.712 1112.26 214.254 1108.66 214.195C1108.93 213.168 1108.97 212.204 1109.01 211.153C1109.76 193.596 1109.2 175.773 1109.2 158.19C1109.19 147.27 1110.42 134.695 1108.49 124.026C1107.76 120.049 1105.7 116.106 1102.92 113.186C1098.6 108.645 1088.91 108.512 1082.97 108.455L824.082 108.365L733.887 108.395C718.166 108.406 701.884 107.505 686.238 108.813C681.243 109.23 677.164 109.754 673.529 113.521C666.365 120.943 668.157 134.467 668.265 144.006C668.329 157.767 668.109 171.59 668.486 185.342C668.734 194.934 669.154 204.823 668.324 214.391L668.21 283.649C668.208 296.796 669.666 311.761 666.989 324.587C665.812 330.226 662.778 335.294 658.735 339.355C655.073 343.034 650.867 345.57 645.744 346.561C630.783 349.454 613.318 347.645 597.991 347.64C564.035 347.627 530.041 347.235 496.089 347.561L495.88 336.043L591.164 335.924C607.331 335.956 624.647 337.307 640.684 335.552C644.224 334.229 648.094 332.559 650.758 329.803C653.393 327.077 654.779 323.586 655.358 319.886C657.097 308.778 655.872 296.126 655.839 284.852L655.651 214.437Z"/>
	<path fill="#28A9A6" d="M146.64 644.449L268.719 644.51Q269.211 710.732 268.959 776.955L146.432 777.074Q146.136 710.761 146.64 644.449Z"/>
	<path fill="#FEFEFE" d="M496.079 305.166C496.929 279.041 503.948 254.136 522.954 235.354C531.513 226.895 541.983 220.318 553.616 217.053C573.217 211.552 631.652 214.338 655.651 214.437L655.839 284.852C655.872 296.126 657.097 308.778 655.358 319.886C654.779 323.586 653.393 327.077 650.758 329.803C648.094 332.559 644.224 334.229 640.684 335.552C624.647 337.307 607.331 335.956 591.164 335.924L495.88 336.043Q462.039 336.33 428.198 335.993Q427.993 320.792 428.393 305.595C450.75 304.378 473.662 305.242 496.079 305.166Z"/>
	<path fill="#71D5A7" d="M428.393 305.595C450.75 304.378 473.662 305.242 496.079 305.166L496.115 335.49Q542.973 334.9 589.835 335.054C606.518 335.052 624.099 334.008 640.684 335.552C624.647 337.307 607.331 335.956 591.164 335.924L495.88 336.043Q462.039 336.33 428.198 335.993Q427.993 320.792 428.393 305.595Z"/>
	<path fill="#25CBD0" d="M1393.65 747.58L1519.76 747.536C1520.75 749.205 1521.06 750.53 1521.17 752.448C1522.77 782.751 1521.33 813.881 1521.34 844.261C1521.34 853.837 1522.85 884.146 1520.86 891.731C1520.65 892.546 1520.29 893.208 1519.85 893.92L1393.53 894.198C1394.33 892.92 1394.79 891.774 1394.92 890.271C1395.64 882.086 1396.07 814.861 1394.72 809.684C1394.51 808.903 1394.13 808.176 1393.71 807.492L1344.5 807.187C1335.37 807.138 1325.71 806.556 1316.64 807.48L1316.05 806.873C1305.49 804.641 1277.03 806.274 1265.02 806.273L1135.58 806.254C1136.43 803.281 1136.71 799.928 1137.35 796.867C1149.55 794.732 1163 797.171 1175.45 796.289L1176.33 796.223C1195.27 796.104 1308.38 797.91 1316.58 795.288C1325.39 797.25 1335.93 796.226 1344.98 796.129Q1369.3 795.707 1393.63 795.679C1396.03 791.559 1396.34 755.629 1394.81 750.104C1394.56 749.198 1394.14 748.374 1393.65 747.58Z"/>
	<path fill="#D4ECED" d="M496.281 472.023C496.222 466.221 496.291 460.482 496.618 454.689C497.751 469.543 493.924 515.115 496.583 524.3L496.066 524.462C496.152 528.18 496.599 532.278 496.132 535.956L496.617 536.136C495.719 555.42 495.884 575.337 496.551 594.633L496.004 594.482C487.349 592.175 428.983 594.035 413.56 594.032L146.115 594.054L145.828 472.109C158.611 471.299 171.841 471.959 184.677 471.951L259.832 471.928L496.281 472.023Z"/>
	<path fill="#25CBD0" d="M302.927 524.562L423.377 524.211C447.585 524.202 471.874 523.751 496.066 524.462C496.152 528.18 496.599 532.278 496.132 535.956C431.829 537.196 367.223 536.121 302.901 535.899C303.251 532.143 303.026 528.329 302.927 524.562Z"/>
	<path fill="#F97948" d="M302.901 535.899C302.316 538.022 301.716 540.164 300.94 542.226C297.776 550.644 290.369 559.113 281.999 562.607C273.972 565.958 264.551 565.239 256.683 561.787C248.326 558.121 241.515 551.428 238.348 542.796C235.209 534.239 235.715 523.854 239.725 515.658C243.572 507.795 250.893 502.213 259.079 499.411C267.428 496.553 277.311 497.247 285.181 501.242C294.87 506.16 299.778 514.524 302.927 524.562C303.026 528.329 303.251 532.143 302.901 535.899Z"/>
	<path fill="#28A9A6" d="M668.265 144.006C668.157 134.467 666.365 120.943 673.529 113.521C677.164 109.754 681.243 109.23 686.238 108.813C701.884 107.505 718.166 108.406 733.887 108.395L824.082 108.365L1082.97 108.455C1088.91 108.512 1098.6 108.645 1102.92 113.186C1105.7 116.106 1107.76 120.049 1108.49 124.026C1110.42 134.695 1109.19 147.27 1109.2 158.19C1109.2 175.773 1109.76 193.596 1109.01 211.153C1108.97 212.204 1108.93 213.168 1108.66 214.195C1066.08 215.098 1023.35 214.511 980.75 214.475C876.634 214.385 772.431 213.342 668.324 214.391C669.154 204.823 668.734 194.934 668.486 185.342C668.109 171.59 668.329 157.767 668.265 144.006Z"/>
	<path fill="#25CBD0" d="M888.55 139.779C893.192 139.461 898.292 140.454 902.368 142.722C908.079 145.901 912.014 151.062 913.749 157.346C915.464 163.556 914.95 170.553 911.608 176.147C907.439 183.125 901.68 185.685 894.08 187.64C888.763 187.856 884.305 187.605 879.572 184.927Q879.044 184.627 878.532 184.301Q878.02 183.974 877.525 183.622Q877.031 183.27 876.555 182.892Q876.079 182.515 875.623 182.114Q875.167 181.713 874.732 181.29Q874.297 180.866 873.884 180.42Q873.471 179.975 873.082 179.509Q872.692 179.043 872.327 178.557Q871.962 178.072 871.622 177.568Q871.283 177.065 870.969 176.545Q870.656 176.025 870.369 175.489Q870.082 174.954 869.823 174.404Q869.565 173.855 869.334 173.293Q869.104 172.731 868.903 172.158Q868.701 171.585 868.53 171.002Q868.358 170.42 868.216 169.829C866.629 163.471 867.57 156.487 871.057 150.902C875.243 144.198 881.063 141.402 888.55 139.779Z"/>
	<path fill="#FEFEFE" d="M751.133 140.627C755.484 140.156 760.362 139.787 764.558 141.215C771.238 143.488 776.734 148.037 779.701 154.499Q779.944 155.027 780.16 155.566Q780.377 156.105 780.565 156.655Q780.754 157.205 780.915 157.763Q781.075 158.321 781.207 158.887Q781.34 159.453 781.443 160.025Q781.547 160.597 781.621 161.173Q781.695 161.749 781.741 162.329Q781.786 162.908 781.802 163.489Q781.818 164.07 781.804 164.651Q781.791 165.232 781.748 165.811Q781.705 166.391 781.633 166.967Q781.561 167.544 781.46 168.116Q781.358 168.688 781.228 169.255Q781.099 169.821 780.94 170.38Q780.782 170.939 780.595 171.489Q780.409 172.04 780.195 172.58C777.35 179.905 771.74 184.077 764.759 187.063C759.73 187.933 754.229 188.064 749.409 186.202Q748.856 185.994 748.314 185.758Q747.772 185.523 747.243 185.261Q746.713 184.998 746.198 184.71Q745.682 184.421 745.182 184.107Q744.681 183.793 744.197 183.455Q743.713 183.116 743.246 182.754Q742.779 182.391 742.331 182.006Q741.883 181.621 741.455 181.213Q741.027 180.806 740.62 180.378Q740.213 179.95 739.828 179.502Q739.443 179.053 739.08 178.587Q738.718 178.12 738.38 177.636Q738.041 177.151 737.727 176.65Q737.413 176.15 737.125 175.634Q736.837 175.118 736.575 174.589Q736.312 174.059 736.077 173.517C733.452 167.533 733.214 160.502 735.676 154.424C738.705 146.948 744.007 143.658 751.133 140.627Z"/>
	<path fill="#13C19E" d="M668.265 144.006C680.981 143.859 701.303 140.985 711.071 150.667Q711.731 151.334 712.321 152.063Q712.912 152.793 713.427 153.577Q713.942 154.361 714.376 155.193Q714.811 156.024 715.161 156.895Q715.511 157.766 715.773 158.667Q716.034 159.568 716.205 160.491Q716.376 161.413 716.454 162.349Q716.533 163.284 716.518 164.222C716.485 169.761 714.381 175.24 710.343 179.086C701.236 187.761 682.814 186.44 670.957 185.682C670.107 185.628 669.322 185.493 668.486 185.342C668.109 171.59 668.329 157.767 668.265 144.006Z"/>
	<path fill="#FEFEFE" d="M822.443 139.867C826.426 139.827 830.96 140.202 834.623 141.844Q835.173 142.094 835.71 142.371Q836.247 142.648 836.769 142.953Q837.291 143.257 837.797 143.588Q838.302 143.918 838.791 144.274Q839.279 144.63 839.749 145.01Q840.219 145.39 840.668 145.794Q841.118 146.197 841.547 146.623Q841.975 147.049 842.382 147.496Q842.788 147.943 843.171 148.411Q843.554 148.878 843.913 149.364Q844.272 149.85 844.606 150.354Q844.939 150.858 845.247 151.378Q845.555 151.898 845.836 152.433Q846.116 152.968 846.37 153.517Q846.623 154.066 846.848 154.627Q847.073 155.187 847.269 155.759Q847.472 156.332 847.645 156.914Q847.818 157.497 847.962 158.087Q848.106 158.677 848.22 159.274Q848.333 159.871 848.417 160.473Q848.5 161.075 848.553 161.68Q848.605 162.286 848.627 162.893Q848.649 163.5 848.641 164.108Q848.632 164.715 848.593 165.322Q848.553 165.928 848.483 166.531Q848.413 167.135 848.313 167.734Q848.212 168.333 848.081 168.927Q847.951 169.52 847.79 170.106Q847.63 170.692 847.44 171.27Q847.25 171.847 847.031 172.413Q846.812 172.98 846.564 173.535Q846.317 174.09 846.042 174.632C842.253 182.021 836.265 185.352 828.642 187.844C822.219 187.921 817.156 187.537 811.649 183.945Q811.144 183.615 810.656 183.261Q810.169 182.906 809.7 182.527Q809.231 182.148 808.781 181.746Q808.332 181.344 807.904 180.919Q807.475 180.495 807.068 180.05Q806.662 179.604 806.278 179.139Q805.895 178.674 805.535 178.19Q805.176 177.706 804.841 177.204Q804.506 176.702 804.197 176.184Q803.888 175.667 803.606 175.134Q803.324 174.601 803.068 174.054Q802.813 173.508 802.586 172.949Q802.359 172.391 802.16 171.822Q801.961 171.252 801.791 170.673Q801.621 170.095 801.481 169.508Q801.341 168.922 801.23 168.329C800.033 162.034 801.218 155.356 804.891 150.061C809.156 143.912 815.325 141.22 822.443 139.867Z"/>
	<path fill="#FEFEFE" d="M951.983 140.613C957.064 140.183 961.982 139.974 966.764 142.048Q967.333 142.289 967.888 142.558Q968.444 142.828 968.985 143.125Q969.526 143.423 970.052 143.747Q970.577 144.072 971.085 144.423Q971.593 144.774 972.082 145.151Q972.572 145.527 973.041 145.928Q973.511 146.329 973.959 146.754Q974.408 147.179 974.834 147.625Q975.26 148.072 975.663 148.54Q976.066 149.008 976.445 149.496Q976.823 149.984 977.177 150.491Q977.53 150.998 977.857 151.522Q978.183 152.046 978.483 152.586Q978.783 153.126 979.054 153.68Q979.326 154.235 979.569 154.803Q979.812 155.371 980.026 155.95Q980.239 156.517 980.423 157.094Q980.607 157.672 980.762 158.257Q980.917 158.843 981.042 159.436Q981.167 160.028 981.263 160.627Q981.358 161.225 981.423 161.827Q981.488 162.43 981.523 163.034Q981.558 163.639 981.562 164.245Q981.566 164.851 981.54 165.456Q981.514 166.062 981.457 166.665Q981.401 167.268 981.314 167.867Q981.227 168.467 981.11 169.061Q980.993 169.656 980.846 170.244Q980.7 170.832 980.524 171.411Q980.348 171.991 980.143 172.561Q979.938 173.131 979.705 173.69Q979.471 174.249 979.21 174.796C975.827 181.731 970.155 185.359 963.08 187.791C958.397 188.367 953.785 188.553 949.292 186.869C942.972 184.501 937.85 179.87 935.149 173.651Q934.915 173.122 934.707 172.582Q934.5 172.042 934.32 171.492Q934.141 170.942 933.99 170.383Q933.838 169.825 933.716 169.259Q933.593 168.694 933.499 168.123Q933.405 167.552 933.34 166.977Q933.276 166.402 933.24 165.825Q933.205 165.247 933.199 164.669Q933.193 164.09 933.216 163.512Q933.24 162.934 933.293 162.358Q933.346 161.782 933.428 161.209Q933.51 160.636 933.621 160.068Q933.732 159.5 933.871 158.939Q934.011 158.378 934.179 157.824Q934.347 157.27 934.544 156.726Q934.74 156.182 934.963 155.648C938.232 147.818 944.413 143.711 951.983 140.613Z"/>
	<path fill="#13C19E" d="M1005.16 143.128C1032.34 142.648 1059.92 141.873 1087.06 142.964C1087.13 143.098 1087.2 143.233 1087.27 143.366C1087.66 144.089 1088.06 144.836 1088.25 145.643C1089.19 149.71 1089.59 176.878 1088.31 180.368C1088.05 181.094 1087.29 181.996 1086.87 182.674C1079.71 184.684 1017.77 183.089 1005.06 183.05L1005.16 143.128Z"/>
	<path fill="#71D5A7" d="M227.264 306.218C236.778 284.393 252.494 267.676 274.252 257.745Q275.262 257.294 276.283 256.867Q277.304 256.441 278.335 256.039Q279.366 255.638 280.407 255.262Q281.448 254.886 282.497 254.536Q283.547 254.185 284.604 253.86Q285.662 253.536 286.728 253.237Q287.793 252.938 288.865 252.666Q289.938 252.393 291.016 252.147Q292.095 251.901 293.179 251.681Q294.264 251.461 295.353 251.268Q296.443 251.075 297.537 250.908Q298.63 250.742 299.728 250.602Q300.826 250.462 301.926 250.349Q303.027 250.237 304.13 250.151Q305.233 250.065 306.338 250.006Q307.443 249.947 308.549 249.915Q309.655 249.884 310.761 249.879Q311.868 249.874 312.974 249.896Q314.08 249.919 315.185 249.968Q316.291 250.017 317.395 250.094Q318.498 250.17 319.6 250.273Q320.702 250.377 321.8 250.507Q322.899 250.637 323.994 250.794Q325.09 250.951 326.181 251.135Q327.272 251.319 328.358 251.529Q329.444 251.74 330.525 251.977Q331.606 252.214 332.68 252.477Q333.755 252.741 334.823 253.03Q335.891 253.32 336.951 253.635Q338.012 253.951 339.064 254.292Q340.117 254.633 341.161 255.001Q342.204 255.368 343.239 255.76C366.888 264.612 383.424 282.172 393.708 304.926C400.602 304.89 410.094 303.703 416.651 305.543L416.859 305.115C420.598 305.182 424.476 305.455 428.195 305.108L428.393 305.595Q427.993 320.792 428.198 335.993Q462.039 336.331 495.88 336.043L496.089 347.561L496.172 365.274C495.887 385.318 495.534 405.705 496.345 425.729L496.486 435.717L496.649 436.465Q496.414 445.577 496.618 454.689C496.291 460.482 496.222 466.221 496.281 472.023L259.832 471.928L184.677 471.951C171.841 471.959 158.611 471.299 145.828 472.109C144.831 416.894 146.235 361.389 146.404 306.15L227.264 306.218Z"/>
	<path fill="#71D5A7" d="M416.704 336.047L428.198 335.993Q462.039 336.331 495.88 336.043L496.089 347.561L496.172 365.274C495.887 385.318 495.534 405.705 496.345 425.729L496.486 435.717C494.226 437.028 491 436.786 488.428 436.851C481.145 437.034 473.821 436.755 466.534 436.717C452.404 436.643 437.676 438.22 426.565 427.454C421.717 422.756 418.725 416.695 417.228 410.157C413.85 395.412 416.372 363.401 416.167 346.771Q407.485 346.842 398.805 346.677L399.029 336.089L416.704 336.047Z"/>
	<path fill="#13C19E" d="M416.704 336.047L428.198 335.993Q462.039 336.331 495.88 336.043L496.089 347.561Q462.142 347.685 428.195 347.461C428.088 362.358 426.094 394.84 428.675 407.549C429.5 411.609 431.093 415.376 434.019 418.372C444.343 428.937 466.553 425.908 480.29 425.832L496.345 425.729L496.486 435.717C494.226 437.028 491 436.786 488.428 436.851C481.145 437.034 473.821 436.755 466.534 436.717C452.404 436.643 437.676 438.22 426.565 427.454C421.717 422.756 418.725 416.695 417.228 410.157C413.85 395.412 416.372 363.401 416.167 346.771Q407.485 346.842 398.805 346.677L399.029 336.089L416.704 336.047Z"/>
	<path fill="#D4ECED" d="M227.264 306.218C236.778 284.393 252.494 267.676 274.252 257.745Q275.262 257.294 276.283 256.867Q277.304 256.441 278.335 256.039Q279.366 255.638 280.407 255.262Q281.448 254.886 282.497 254.536Q283.547 254.185 284.604 253.86Q285.662 253.536 286.728 253.237Q287.793 252.938 288.865 252.666Q289.938 252.393 291.016 252.147Q292.095 251.901 293.179 251.681Q294.264 251.461 295.353 251.268Q296.443 251.075 297.537 250.908Q298.63 250.742 299.728 250.602Q300.826 250.462 301.926 250.349Q303.027 250.237 304.13 250.151Q305.233 250.065 306.338 250.006Q307.443 249.947 308.549 249.915Q309.655 249.884 310.761 249.879Q311.868 249.874 312.974 249.896Q314.08 249.919 315.185 249.968Q316.291 250.017 317.395 250.094Q318.498 250.17 319.6 250.273Q320.702 250.377 321.8 250.507Q322.899 250.637 323.994 250.794Q325.09 250.951 326.181 251.135Q327.272 251.319 328.358 251.529Q329.444 251.74 330.525 251.977Q331.606 252.214 332.68 252.477Q333.755 252.741 334.823 253.03Q335.891 253.32 336.951 253.635Q338.012 253.951 339.064 254.292Q340.117 254.633 341.161 255.001Q342.204 255.368 343.239 255.76C366.888 264.612 383.424 282.172 393.708 304.926C400.602 304.89 410.094 303.703 416.651 305.543L416.859 305.115C420.598 305.182 424.476 305.455 428.195 305.108L428.393 305.595Q427.993 320.792 428.198 335.993L416.704 336.047L399.029 336.089L398.805 346.677L398.291 346.751C398.209 354.486 395.973 362.823 393.342 370.065Q392.985 371.064 392.602 372.053Q392.22 373.043 391.813 374.022Q391.406 375.002 390.975 375.971Q390.544 376.94 390.089 377.898Q389.633 378.856 389.154 379.803Q388.675 380.749 388.173 381.683Q387.67 382.617 387.144 383.538Q386.618 384.459 386.07 385.367Q385.521 386.275 384.95 387.169Q384.378 388.062 383.785 388.942Q383.191 389.821 382.576 390.685Q381.961 391.549 381.324 392.397Q380.688 393.246 380.03 394.078Q379.373 394.91 378.694 395.725Q378.016 396.541 377.318 397.339Q376.619 398.137 375.901 398.918Q375.183 399.698 374.445 400.461Q373.708 401.223 372.952 401.967Q372.195 402.71 371.421 403.435Q370.646 404.159 369.854 404.864Q369.061 405.569 368.251 406.254Q367.441 406.939 366.614 407.603Q365.788 408.267 364.945 408.911Q364.101 409.554 363.242 410.176Q362.383 410.798 361.509 411.399Q360.635 411.999 359.746 412.578Q358.857 413.156 357.954 413.712Q357.051 414.268 356.134 414.801Q355.217 415.335 354.287 415.845Q353.357 416.355 352.415 416.841Q351.473 417.328 350.519 417.791Q349.564 418.254 348.599 418.693Q347.597 419.158 346.583 419.598Q345.57 420.038 344.546 420.453Q343.522 420.869 342.489 421.259Q341.455 421.65 340.412 422.015Q339.37 422.38 338.318 422.72Q337.267 423.06 336.208 423.374Q335.149 423.689 334.082 423.977Q333.016 424.266 331.943 424.528Q330.869 424.791 329.79 425.027Q328.711 425.263 327.626 425.474Q326.542 425.684 325.452 425.868Q324.363 426.051 323.269 426.209Q322.176 426.366 321.079 426.497Q319.982 426.628 318.882 426.732Q317.782 426.836 316.68 426.913Q315.578 426.991 314.474 427.041Q313.37 427.092 312.266 427.116Q311.161 427.14 310.056 427.137Q308.951 427.134 307.847 427.104Q306.743 427.074 305.639 427.018Q304.536 426.961 303.434 426.878Q302.333 426.795 301.233 426.685Q300.134 426.575 299.038 426.438Q297.941 426.301 296.849 426.138Q295.756 425.975 294.667 425.785Q293.579 425.596 292.495 425.38Q291.412 425.164 290.334 424.922Q289.256 424.68 288.184 424.411Q287.112 424.143 286.048 423.849Q284.983 423.555 283.925 423.235Q282.868 422.915 281.818 422.569Q280.769 422.224 279.728 421.853Q278.698 421.487 277.677 421.095Q276.656 420.704 275.645 420.287Q274.635 419.87 273.635 419.427Q272.635 418.985 271.646 418.518Q270.657 418.05 269.681 417.559Q268.704 417.067 267.74 416.551Q266.776 416.034 265.826 415.494Q264.875 414.954 263.938 414.39Q263.001 413.826 262.079 413.239Q261.156 412.652 260.249 412.042Q259.342 411.432 258.45 410.799Q257.558 410.167 256.682 409.512Q255.806 408.857 254.947 408.181Q254.088 407.504 253.246 406.807Q252.404 406.109 251.58 405.39Q250.756 404.671 249.95 403.932Q249.144 403.193 248.357 402.434Q247.57 401.675 246.802 400.896Q246.034 400.118 245.286 399.32Q244.538 398.523 243.81 397.707Q243.082 396.891 242.375 396.057Q241.668 395.223 240.982 394.371Q240.296 393.52 239.631 392.651Q238.967 391.783 238.324 390.898Q237.681 390.013 237.061 389.112Q236.441 388.212 235.843 387.296Q235.246 386.38 234.671 385.449Q234.097 384.519 233.546 383.574Q232.995 382.629 232.468 381.671Q231.941 380.713 231.438 379.742Q230.935 378.771 230.457 377.787Q229.979 376.804 229.525 375.809C219.286 353.634 218.794 329.052 227.264 306.218Z"/>
	<path fill="#25CBD0" d="M352.212 336.011C367.808 336.05 383.435 336.3 399.029 336.089L398.805 346.677L398.291 346.751L351.923 346.825C351.798 343.19 351.966 339.638 352.212 336.011Z"/>
	<path fill="#71D5A7" d="M393.708 304.926C400.602 304.89 410.094 303.703 416.651 305.543L416.859 305.115C420.598 305.182 424.476 305.455 428.195 305.108L428.393 305.595Q427.993 320.792 428.198 335.993L416.704 336.047L399.029 336.089C398.63 325.31 396.806 315.228 393.708 304.926Z"/>
	<path fill="#28A9A6" d="M416.859 305.115C420.598 305.182 424.476 305.455 428.195 305.108L428.393 305.595Q427.993 320.792 428.198 335.993L416.704 336.047L416.651 305.543L416.859 305.115Z"/>
	<path fill="#25CBD0" d="M351.923 346.825C350.442 353.162 347.864 358.989 343.886 364.159C336.878 373.266 326.192 379.647 314.76 381.12Q313.683 381.249 312.601 381.324Q311.518 381.399 310.434 381.421Q309.349 381.442 308.265 381.41Q307.181 381.378 306.099 381.292Q305.018 381.207 303.942 381.068Q302.866 380.929 301.798 380.736Q300.731 380.544 299.674 380.3Q298.617 380.055 297.573 379.758Q296.53 379.461 295.503 379.113Q294.475 378.765 293.466 378.367Q292.457 377.969 291.469 377.521Q290.481 377.073 289.516 376.577Q288.551 376.081 287.612 375.537Q286.673 374.994 285.762 374.405Q284.851 373.816 283.97 373.183Q283.089 372.549 282.241 371.873Q281.369 371.175 280.533 370.435Q279.698 369.695 278.9 368.914Q278.102 368.133 277.344 367.313Q276.586 366.493 275.87 365.636Q275.154 364.779 274.482 363.888Q273.81 362.996 273.183 362.072Q272.557 361.148 271.977 360.194Q271.397 359.24 270.865 358.258Q270.334 357.276 269.852 356.269Q269.37 355.261 268.94 354.231Q268.509 353.201 268.13 352.151Q267.751 351.1 267.426 350.032Q267.1 348.964 266.828 347.881Q266.556 346.798 266.338 345.703Q266.12 344.608 265.958 343.503Q265.795 342.398 265.688 341.287C264.528 329.851 268.004 318.874 275.377 310.08Q276.08 309.234 276.826 308.424Q277.571 307.615 278.356 306.844Q279.142 306.074 279.965 305.344Q280.788 304.614 281.648 303.927Q282.507 303.24 283.4 302.597Q284.293 301.954 285.217 301.357Q286.141 300.76 287.095 300.211Q288.048 299.662 289.028 299.161Q290.008 298.661 291.012 298.211Q292.016 297.761 293.041 297.363Q294.066 296.964 295.111 296.618Q296.155 296.272 297.215 295.979Q298.276 295.686 299.35 295.447Q300.424 295.208 301.508 295.024Q302.593 294.84 303.686 294.711Q304.778 294.582 305.876 294.509Q306.948 294.431 308.023 294.405Q309.098 294.38 310.173 294.407Q311.248 294.435 312.32 294.515Q313.392 294.595 314.459 294.728Q315.526 294.861 316.585 295.046Q317.644 295.231 318.693 295.468Q319.741 295.705 320.777 295.993Q321.813 296.281 322.833 296.62Q323.854 296.959 324.856 297.348Q325.859 297.736 326.841 298.174Q327.823 298.611 328.783 299.096Q329.742 299.581 330.677 300.113Q331.612 300.645 332.519 301.222Q333.426 301.799 334.304 302.419Q335.182 303.04 336.028 303.704Q336.874 304.367 337.687 305.071C346.95 313.119 351.418 323.92 352.212 336.011C351.966 339.638 351.798 343.19 351.923 346.825Z"/>
	<path fill="#71D5A7" d="M1488 482.549L1671.89 482.248C1673 484.08 1673.26 485.546 1673.35 487.658C1674.05 503.702 1673.56 519.967 1673.59 536.042L1673.89 626.092Q1674.1 656.03 1673.99 685.969C1673.96 692.504 1675.05 701.905 1673.47 708.119C1673.27 708.92 1672.93 709.558 1672.5 710.255L1403.97 710.268C1390.88 710.279 1325.42 708.761 1317.34 710.998L1317 709.295C1319.21 700.279 1317.57 679.113 1317.57 668.711C1317.55 645.68 1318.74 621.912 1317.15 598.966L1317.73 598.71C1317.44 595.161 1317.65 591.464 1317.67 587.897L1316.83 587.619C1318.76 582.853 1318.65 518.192 1316.66 511.942C1349.34 510.433 1382.87 512.002 1415.65 512.071C1428.38 512.098 1441.71 512.928 1454.37 511.476C1465.2 510.232 1475.74 504.08 1482.45 495.483C1484.96 492.26 1488.53 486.78 1488 482.549Z"/>
	<path fill="#13C19E" d="M1440.03 587.406Q1461.48 587.646 1482.93 587.532C1484.54 589.411 1485.03 591.853 1484.72 594.296C1484.58 595.333 1484.29 596.292 1483.92 597.266L1482.35 598.338L1447.36 598.389C1434.44 597.385 1420.91 598.431 1407.94 598.489C1377.88 598.625 1347.78 599.005 1317.73 598.71C1317.44 595.161 1317.65 591.464 1317.67 587.897C1346.17 587.239 1374.75 587.598 1403.26 587.569C1415.12 587.556 1428.3 588.638 1440.03 587.406Z"/>
	<path fill="#D4ECED" d="M1440.03 587.406C1440.1 587.239 1440.18 587.074 1440.25 586.905C1443.26 579.779 1443.6 570.532 1445.84 562.91C1452.74 539.41 1472.64 520.493 1494.86 510.995Q1495.79 510.593 1496.74 510.215Q1497.68 509.836 1498.63 509.482Q1499.59 509.127 1500.55 508.796Q1501.51 508.466 1502.48 508.159Q1503.45 507.852 1504.42 507.57Q1505.4 507.288 1506.38 507.03Q1507.37 506.772 1508.36 506.539Q1509.35 506.306 1510.34 506.098Q1511.34 505.89 1512.34 505.706Q1513.33 505.523 1514.34 505.365Q1515.34 505.206 1516.35 505.073Q1517.36 504.94 1518.37 504.832Q1519.38 504.725 1520.39 504.642Q1521.41 504.56 1522.42 504.502Q1523.44 504.445 1524.45 504.413Q1525.47 504.382 1526.48 504.375Q1527.5 504.369 1528.52 504.388Q1529.53 504.407 1530.55 504.452Q1531.56 504.496 1532.58 504.566Q1533.59 504.636 1534.61 504.731Q1535.62 504.826 1536.63 504.947Q1537.64 505.067 1538.64 505.213Q1539.65 505.358 1540.65 505.529Q1541.65 505.7 1542.65 505.896Q1543.65 506.092 1544.64 506.312Q1545.63 506.533 1546.62 506.778Q1547.6 507.024 1548.58 507.294Q1549.56 507.564 1550.54 507.858Q1551.51 508.153 1552.48 508.472Q1553.44 508.79 1554.4 509.133Q1555.35 509.476 1556.3 509.842Q1557.25 510.209 1558.19 510.599C1579.6 519.305 1597.65 535.821 1606.64 557.302Q1607.06 558.297 1607.46 559.302Q1607.86 560.307 1608.24 561.321Q1608.61 562.336 1608.96 563.36Q1609.31 564.383 1609.63 565.415Q1609.95 566.447 1610.25 567.487Q1610.55 568.527 1610.82 569.574Q1611.09 570.621 1611.33 571.674Q1611.58 572.728 1611.8 573.787Q1612.02 574.846 1612.21 575.91Q1612.4 576.974 1612.56 578.043Q1612.73 579.112 1612.87 580.184Q1613.01 581.257 1613.12 582.332Q1613.23 583.408 1613.31 584.486Q1613.4 585.564 1613.46 586.644Q1613.52 587.724 1613.55 588.805Q1613.58 589.886 1613.58 590.967Q1613.58 592.049 1613.56 593.13Q1613.54 594.211 1613.49 595.291Q1613.44 596.372 1613.36 597.45Q1613.28 598.529 1613.18 599.605Q1613.08 600.682 1612.95 601.755Q1612.81 602.829 1612.66 603.898Q1612.5 604.968 1612.31 606.034Q1612.13 607.099 1611.92 608.16Q1611.71 609.221 1611.47 610.276Q1611.23 611.331 1610.97 612.38Q1610.71 613.428 1610.42 614.47Q1610.13 615.512 1609.81 616.547Q1609.5 617.581 1609.16 618.607Q1608.81 619.633 1608.45 620.65Q1608.08 621.668 1607.69 622.676Q1607.3 623.683 1606.88 624.681Q1606.48 625.643 1606.06 626.595Q1605.64 627.546 1605.19 628.487Q1604.75 629.428 1604.28 630.358Q1603.81 631.287 1603.32 632.205Q1602.83 633.123 1602.32 634.028Q1601.8 634.934 1601.27 635.826Q1600.73 636.718 1600.17 637.597Q1599.62 638.475 1599.04 639.34Q1598.46 640.205 1597.86 641.055Q1597.26 641.905 1596.63 642.739Q1596.01 643.574 1595.37 644.393Q1594.73 645.213 1594.07 646.016Q1593.4 646.818 1592.72 647.605Q1592.04 648.391 1591.34 649.16Q1590.64 649.929 1589.92 650.681Q1589.2 651.432 1588.46 652.166Q1587.72 652.899 1586.96 653.614Q1586.21 654.329 1585.43 655.025Q1584.66 655.721 1583.87 656.397Q1583.08 657.074 1582.27 657.731Q1581.46 658.387 1580.64 659.024Q1579.82 659.66 1578.98 660.276Q1578.14 660.892 1577.28 661.487Q1576.43 662.082 1575.56 662.655Q1574.69 663.229 1573.81 663.78Q1572.93 664.332 1572.03 664.862Q1571.14 665.392 1570.23 665.899Q1569.32 666.406 1568.4 666.891Q1567.48 667.376 1566.54 667.837Q1565.61 668.299 1564.67 668.738Q1563.72 669.176 1562.77 669.591Q1561.81 670.006 1560.85 670.397C1540.29 678.95 1514.09 678.965 1493.54 670.41Q1492.59 670.006 1491.64 669.579Q1490.7 669.153 1489.77 668.703Q1488.83 668.253 1487.91 667.781Q1486.99 667.309 1486.08 666.814Q1485.17 666.32 1484.27 665.803Q1483.37 665.287 1482.49 664.749Q1481.6 664.21 1480.73 663.651Q1479.86 663.091 1479 662.511Q1478.14 661.93 1477.3 661.329Q1476.46 660.727 1475.63 660.106Q1474.8 659.484 1473.98 658.842Q1473.17 658.201 1472.37 657.539Q1471.58 656.878 1470.8 656.198Q1470.01 655.517 1469.25 654.818Q1468.49 654.119 1467.74 653.401Q1466.99 652.684 1466.26 651.948Q1465.53 651.212 1464.82 650.459Q1464.11 649.706 1463.42 648.936Q1462.72 648.166 1462.05 647.379Q1461.38 646.592 1460.72 645.789Q1460.07 644.986 1459.43 644.167Q1458.8 643.348 1458.18 642.515Q1457.57 641.681 1456.98 640.832Q1456.38 639.983 1455.81 639.121Q1455.23 638.258 1454.68 637.381Q1454.13 636.505 1453.6 635.615Q1453.07 634.725 1452.56 633.823Q1452.05 632.921 1451.56 632.006Q1451.08 631.092 1450.61 630.166Q1450.15 629.24 1449.71 628.303Q1449.26 627.365 1448.84 626.418Q1448.43 625.47 1448.03 624.513C1444.95 616.914 1441.91 607.91 1441.21 599.721C1442.86 598.215 1445.16 598.556 1447.36 598.389L1482.35 598.338L1483.92 597.266C1484.29 596.292 1484.58 595.333 1484.72 594.296C1485.03 591.853 1484.54 589.411 1482.93 587.532Q1461.48 587.646 1440.03 587.406Z"/>
	<path fill="#25CBD0" d="M1482.93 587.532C1483.05 587.427 1483.17 587.328 1483.28 587.219C1486.05 584.544 1486.96 579.052 1488.38 575.479C1495.03 558.734 1509.09 548.513 1527.45 548.335C1539.05 548.222 1551.08 553.248 1559.24 561.482C1567.35 569.654 1571.63 581.221 1571.41 592.683C1571.18 604.351 1565.79 615.775 1557.34 623.751Q1556.58 624.478 1555.78 625.165Q1554.98 625.852 1554.15 626.499Q1553.32 627.145 1552.46 627.748Q1551.59 628.352 1550.7 628.911Q1549.81 629.47 1548.89 629.983Q1547.97 630.496 1547.02 630.963Q1546.08 631.429 1545.11 631.847Q1544.15 632.265 1543.16 632.633Q1542.17 633.002 1541.17 633.32Q1540.17 633.638 1539.15 633.906Q1538.13 634.173 1537.1 634.388Q1536.07 634.604 1535.03 634.767Q1533.99 634.93 1532.94 635.041Q1531.89 635.151 1530.84 635.209Q1529.79 635.266 1528.73 635.271Q1527.68 635.275 1526.63 635.226C1516.05 634.761 1503.84 629.928 1496.67 621.936C1491.73 616.431 1485.87 601.2 1482.35 598.338L1483.92 597.266C1484.29 596.292 1484.58 595.333 1484.72 594.296C1485.03 591.853 1484.54 589.411 1482.93 587.532Z"/>
	<path fill="#71D5A7" d="M1181.63 214.315C1188.54 208.048 1179.57 131.385 1186.11 114.97C1188.34 109.37 1192.33 104.756 1197.97 102.441C1201.94 100.812 1206.44 100.356 1210.7 100.187C1228.29 99.4885 1246.17 100.45 1263.79 100.409L1388.7 100.252L1493.08 100.367C1512.09 100.362 1531.38 99.6975 1550.37 100.543C1555.41 100.767 1561.76 101.198 1566.33 103.327C1571.07 105.538 1574.67 112.106 1576.31 116.82C1578.99 124.542 1579.7 201.413 1576.86 207.126C1579.22 211.92 1579.29 243.985 1577.5 249.309C1577.33 249.809 1577.12 250.294 1576.93 250.783C1578.42 254.217 1578.96 258.592 1577.58 262.174C1577.34 262.797 1577.03 263.319 1576.68 263.889C1579.41 268.217 1579.18 282.05 1577.88 287.162C1577.75 287.672 1577.47 288.309 1577.29 288.774C1580.06 294.874 1580.35 324.302 1578.2 330.385C1577.98 330.997 1577.96 331.009 1577.73 331.528C1579.9 336.711 1579.3 404.621 1578.71 413.915C1578.49 417.406 1577.96 420.868 1576.66 424.134C1574.02 430.801 1569 435.579 1562.38 438.267C1548.56 443.88 1506.87 440.809 1489.53 441.22C1490.34 439.814 1490.83 438.507 1490.96 436.89C1491.74 427.781 1492.36 361.756 1490.78 355.807C1490.58 355.055 1490.31 354.363 1490.03 353.636L1488.96 354.431C1489.98 355.754 1490.24 356.84 1490.32 358.493C1491.36 380.652 1490.12 403.209 1490.26 425.421C1490.36 442.054 1492.38 460.299 1490.39 476.722C1490.11 479.032 1489.6 480.789 1488 482.549C1488.53 486.78 1484.96 492.26 1482.45 495.483C1475.74 504.08 1465.2 510.232 1454.37 511.476C1441.71 512.928 1428.38 512.098 1415.65 512.071C1382.87 512.002 1349.34 510.433 1316.66 511.942C1310.37 507.699 1249.28 515.498 1240.94 509.084C1239.89 508.275 1239.46 507.357 1239.43 506.007C1239.4 504.323 1240.02 502.81 1241.14 501.594C1245.63 496.77 1304.75 499.015 1315.93 498.617C1316.01 498.513 1316.09 498.408 1316.17 498.307C1318.95 494.857 1316.85 447.874 1316.83 440.874C1306.94 435.894 1218.49 445.048 1199.42 437.315C1193.63 434.967 1188.5 430.898 1185.95 425.078C1180.96 413.702 1183.36 370.98 1183.54 356.068C1183.6 350.898 1184.48 343.109 1182.39 338.383C1182.31 338.213 1182.23 338.05 1182.14 337.883C1182.66 336.809 1182.97 335.911 1183.16 334.726C1184.29 327.557 1184.36 219.472 1183.21 216.473C1182.96 215.827 1182.06 214.906 1181.63 214.315Z"/>
	<path fill="#FEFEFE" d="M1239.2 176.444C1258.71 176.167 1278.24 176.356 1297.75 176.345C1307.78 176.339 1318.63 175.464 1328.56 176.562C1331.23 176.857 1332.11 177.034 1334.13 178.798C1334.79 181.191 1334.98 181.744 1334.34 184.108C1331.95 185.891 1330.75 185.971 1327.88 186.38C1316.31 187.189 1242.25 187.747 1236.53 185.164C1235.05 182.911 1234.92 182.625 1234.97 179.939C1236.44 177.826 1236.86 177.533 1239.2 176.444Z"/>
	<path fill="#FEFEFE" d="M1385.92 176.444C1414.93 175.665 1444.17 176.219 1473.2 176.431C1487.42 176.535 1502.26 175.652 1516.39 176.547C1518.88 176.705 1522.62 176.874 1524.62 178.527C1525.94 179.61 1525.7 180.281 1525.77 181.806C1524.14 184.592 1523.55 184.759 1520.72 185.984C1518.71 186.861 1389.83 187.341 1385.97 185.681C1384.48 185.04 1384.29 183.983 1383.69 182.633C1383.74 179.856 1384.17 178.607 1385.92 176.444Z"/>
	<path fill="#FEFEFE" d="M1236.11 236.886C1245.02 235.003 1256.21 236.099 1265.36 236.099L1322.72 236.184L1458.7 236.497C1476.43 236.537 1494.22 235.917 1511.92 236.303C1516.5 236.403 1522.89 236.288 1526.18 239.848C1526.73 240.432 1526.49 240.834 1526.45 241.591C1524.92 243.199 1523.48 244.374 1521.58 245.521C1518.27 247.532 1468.43 246.225 1461.43 246.223L1270.55 246.171C1262.46 246.1 1254.34 247.056 1246.27 246.9C1242.55 246.828 1238.52 246.606 1235.81 243.764C1234.9 240.725 1235.27 239.838 1236.11 236.886Z"/>
	<path fill="#FEFEFE" d="M1411.96 294.095Q1448.83 294.338 1485.7 294.132C1496.51 294.112 1508.44 293.028 1519.09 294.298C1521.85 294.627 1522.81 295.216 1524.94 296.934C1525.81 299.03 1525.73 299.062 1525 301.227C1522.6 303.662 1521.16 305.011 1517.55 305.067Q1516.72 305.075 1515.9 305.047C1495.72 303.895 1475.04 304.9 1454.79 304.92L1321.41 304.91C1296.66 305.028 1271.21 306.421 1246.53 305.31C1242.48 305.127 1237.66 304.705 1234.76 301.536C1234.27 299.178 1234.46 298.954 1235.48 296.737C1237.17 295.199 1238.55 294.417 1240.83 294.154C1251.7 292.899 1272.79 294.234 1284.95 294.233C1327.11 294.231 1369.86 295.738 1411.96 294.095Z"/>
	<path fill="#13C19E" d="M1411.96 294.095C1417.4 290.084 1524.92 273.011 1541.02 270.315C1552.39 268.411 1565.82 267.516 1576.68 263.889C1579.41 268.217 1579.18 282.05 1577.88 287.162C1577.75 287.672 1577.47 288.309 1577.29 288.774C1580.06 294.874 1580.35 324.302 1578.2 330.385C1577.98 330.997 1577.96 331.009 1577.73 331.528C1579.9 336.711 1579.3 404.621 1578.71 413.915C1578.49 417.406 1577.96 420.868 1576.66 424.134C1574.02 430.801 1569 435.579 1562.38 438.267C1548.56 443.88 1506.87 440.809 1489.53 441.22C1490.34 439.814 1490.83 438.507 1490.96 436.89C1491.74 427.781 1492.36 361.756 1490.78 355.807C1490.58 355.055 1490.31 354.363 1490.03 353.636L1488.96 354.431C1489.98 355.754 1490.24 356.84 1490.32 358.493C1491.36 380.652 1490.12 403.209 1490.26 425.421C1490.36 442.054 1492.38 460.299 1490.39 476.722C1490.11 479.032 1489.6 480.789 1488 482.549C1488.53 486.78 1484.96 492.26 1482.45 495.483C1475.74 504.08 1465.2 510.232 1454.37 511.476C1441.71 512.928 1428.38 512.098 1415.65 512.071C1382.87 512.002 1349.34 510.433 1316.66 511.942C1310.37 507.699 1249.28 515.498 1240.94 509.084C1239.89 508.275 1239.46 507.357 1239.43 506.007C1239.4 504.323 1240.02 502.81 1241.14 501.594C1245.63 496.77 1304.75 499.015 1315.93 498.617C1316.01 498.513 1316.09 498.408 1316.17 498.307C1318.95 494.857 1316.85 447.874 1316.83 440.874C1306.94 435.894 1218.49 445.048 1199.42 437.315C1193.63 434.967 1188.5 430.898 1185.95 425.078C1180.96 413.702 1183.36 370.98 1183.54 356.068C1183.6 350.898 1184.48 343.109 1182.39 338.383C1182.31 338.213 1182.23 338.05 1182.14 337.883C1195.78 336.716 1210.16 332.406 1223.71 329.88C1253.37 324.349 1283.09 319.321 1312.71 313.516C1325.73 310.965 1339.22 306.887 1352.45 305.931C1367.56 304.839 1383.2 305.768 1398.37 305.806L1480.8 305.75C1489.99 305.736 1507.84 307.347 1515.9 305.047Q1516.72 305.075 1517.55 305.067C1521.16 305.011 1522.6 303.662 1525 301.227C1525.73 299.062 1525.81 299.03 1524.94 296.934C1522.81 295.216 1521.85 294.627 1519.09 294.298C1508.44 293.028 1496.51 294.112 1485.7 294.132Q1448.83 294.338 1411.96 294.095Z"/>
	<path fill="#D4D76C" d="M1476.86 354.702C1475.96 352.413 1473.99 350.778 1473.49 348.198C1472.89 345.139 1473.6 340.342 1475.5 337.83C1476.93 335.93 1479.16 335.004 1481.5 334.914C1485.15 334.774 1488.82 336.354 1491.36 338.949C1493.3 340.937 1494.31 343.41 1494.09 346.203C1493.83 349.518 1492.35 351.492 1490.03 353.636L1488.96 354.431C1484.77 356.774 1481.28 355.671 1476.86 354.702Z"/>
	<path fill="#FEFEFE" d="M1239.99 350.666C1279.01 350.022 1318.14 350.586 1357.17 350.585C1368.79 350.585 1380.43 350.864 1392.05 350.732C1401.07 350.629 1410.38 349.9 1419.37 350.578C1422.75 350.832 1425.92 351.269 1428.52 353.621C1429.09 355.778 1429.19 356.519 1428.01 358.593C1426.84 360.639 1424.12 361.064 1422.02 361.584C1391.4 363.216 1357.16 361.781 1326.17 361.793L1274.11 361.659C1264.75 361.705 1255.16 362.456 1245.83 361.892C1242.55 361.694 1239.69 361.26 1236.84 359.535C1235.43 357.502 1235.42 357.229 1235.44 354.742C1236.56 352.454 1237.74 351.762 1239.99 350.666Z"/>
	<path fill="#118A95" d="M1488.96 354.431C1489.98 355.754 1490.24 356.84 1490.32 358.493C1491.36 380.652 1490.12 403.209 1490.26 425.421C1490.36 442.054 1492.38 460.299 1490.39 476.722C1490.11 479.032 1489.6 480.789 1488 482.549C1488.53 486.78 1484.96 492.26 1482.45 495.483C1475.74 504.08 1465.2 510.232 1454.37 511.476C1441.71 512.928 1428.38 512.098 1415.65 512.071C1382.87 512.002 1349.34 510.433 1316.66 511.942C1310.37 507.699 1249.28 515.498 1240.94 509.084C1239.89 508.275 1239.46 507.357 1239.43 506.007C1239.4 504.323 1240.02 502.81 1241.14 501.594C1245.63 496.77 1304.75 499.015 1315.93 498.617C1316.01 498.513 1316.09 498.408 1316.17 498.307C1318.95 494.857 1316.85 447.874 1316.83 440.874L1317.57 440.945C1340.54 438.376 1469.26 443.704 1476.71 440.126C1476.78 439.993 1476.86 439.862 1476.92 439.726C1479 435.416 1479.06 361.349 1476.86 354.702C1481.28 355.671 1484.77 356.774 1488.96 354.431Z"/>
	<path fill="#71D5A7" d="M1316.83 440.874L1317.57 440.945C1317.69 449.34 1319.72 476.626 1316.34 483.112C1316.27 483.259 1316.19 483.409 1316.12 483.557L1421.06 483.424C1437.18 483.407 1454.47 482.071 1470.47 483.489C1471.51 483.582 1472.46 483.785 1473.25 484.499C1472.65 488.194 1470.04 490.751 1467 492.882C1463.06 495.654 1458.68 497.293 1453.93 497.944C1437.65 500.17 1419.5 498.585 1403.01 498.595C1374.02 498.613 1344.91 499.182 1315.93 498.617C1316.01 498.513 1316.09 498.408 1316.17 498.307C1318.95 494.857 1316.85 447.874 1316.83 440.874Z"/>
	<path fill="#06487C" d="M1488.96 354.431C1489.98 355.754 1490.24 356.84 1490.32 358.493C1491.36 380.652 1490.12 403.209 1490.26 425.421C1490.36 442.054 1492.38 460.299 1490.39 476.722C1490.11 479.032 1489.6 480.789 1488 482.549C1488.53 486.78 1484.96 492.26 1482.45 495.483C1475.74 504.08 1465.2 510.232 1454.37 511.476C1441.71 512.928 1428.38 512.098 1415.65 512.071C1382.87 512.002 1349.34 510.433 1316.66 511.942C1310.37 507.699 1249.28 515.498 1240.94 509.084C1239.89 508.275 1239.46 507.357 1239.43 506.007C1239.4 504.323 1240.02 502.81 1241.14 501.594C1245.63 496.77 1304.75 499.015 1315.93 498.617C1344.91 499.182 1374.02 498.613 1403.01 498.595C1419.5 498.585 1437.65 500.17 1453.93 497.944C1458.68 497.293 1463.06 495.654 1467 492.882C1470.04 490.751 1472.65 488.194 1473.25 484.499C1475.08 482.962 1476.19 481.594 1476.94 479.283C1479.21 472.308 1479.79 445.984 1476.71 440.126C1476.78 439.993 1476.86 439.862 1476.92 439.726C1479 435.416 1479.06 361.349 1476.86 354.702C1481.28 355.671 1484.77 356.774 1488.96 354.431Z"/>
	<path fill="#FEFEFE" d="M1119.93 214.189Q1150.78 214.538 1181.63 214.315C1182.06 214.906 1182.96 215.827 1183.21 216.473C1184.36 219.472 1184.29 327.557 1183.16 334.726C1182.97 335.911 1182.66 336.809 1182.14 337.883C1182.23 338.05 1182.31 338.213 1182.39 338.383C1184.48 343.109 1183.6 350.898 1183.54 356.068C1183.36 370.98 1180.96 413.702 1185.95 425.078C1188.5 430.898 1193.63 434.967 1199.42 437.315C1218.49 445.048 1306.94 435.894 1316.83 440.874C1316.85 447.874 1318.95 494.857 1316.17 498.307C1316.09 498.408 1316.01 498.513 1315.93 498.617C1304.75 499.015 1245.63 496.77 1241.14 501.594C1240.02 502.81 1239.4 504.323 1239.43 506.007C1239.46 507.357 1239.89 508.275 1240.94 509.084C1249.28 515.498 1310.37 507.699 1316.66 511.942C1318.65 518.192 1318.76 582.853 1316.83 587.619L1317.67 587.897C1317.65 591.464 1317.44 595.161 1317.73 598.71L1317.15 598.966C1318.74 621.912 1317.55 645.68 1317.57 668.711C1317.57 679.113 1319.21 700.279 1317 709.295L1317.34 710.998C1317.8 714.594 1318.21 717.482 1316.64 720.904C1318.5 725.167 1318.67 790.554 1316.94 794.548C1316.83 794.798 1316.7 795.041 1316.58 795.288C1308.38 797.91 1195.27 796.104 1176.33 796.223L1175.45 796.289C1163 797.171 1149.55 794.732 1137.35 796.867C1136.71 799.928 1136.43 803.281 1135.58 806.254L1265.02 806.273C1277.03 806.274 1305.49 804.641 1316.05 806.873L1316.64 807.48C1318.73 812.791 1317.78 820.517 1317.76 826.204C1317.67 845.27 1318.67 863.702 1310.98 881.619C1303.51 899.021 1288.56 912.697 1270.96 919.467C1263.7 922.257 1255.54 923.689 1247.81 924.272C1235.35 925.213 1222.5 924.652 1210 924.634L1143.97 924.537L916.059 924.396L901.289 924.366L670.017 924.414L608.41 924.495C593.257 924.514 577.215 925.623 562.286 922.717C545.904 919.527 530.025 910.926 518.221 899.133C494.634 875.569 495.915 845.589 495.991 814.635C487.94 814.597 468.445 815.992 461.857 814.104C458.853 813.242 457.231 810.797 455.696 808.283C455.53 806.318 455.466 806.229 456.586 804.458C465.827 798.365 485.095 801.125 495.944 801.383L495.977 723.513C490.681 723.541 485.46 723.726 480.262 722.54C479.942 721.827 479.634 721.115 479.387 720.372C478.26 716.977 479.358 714.75 480.821 711.755C485.863 711.15 490.986 711.206 496.059 711.114L496.004 594.482L496.551 594.633C495.884 575.337 495.719 555.42 496.617 536.136L496.132 535.956C496.599 532.278 496.152 528.18 496.066 524.462L496.583 524.3C493.924 515.115 497.751 469.543 496.618 454.689Q496.414 445.577 496.649 436.465L496.486 435.717L496.345 425.729C495.534 405.705 495.887 385.318 496.172 365.274L496.089 347.561C530.041 347.235 564.035 347.627 597.991 347.64C613.318 347.645 630.783 349.454 645.744 346.561C650.867 345.57 655.073 343.034 658.735 339.355C662.778 335.294 665.812 330.226 666.989 324.587C669.666 311.761 668.208 296.796 668.21 283.649L668.324 214.391C772.431 213.342 876.634 214.385 980.75 214.475C1023.35 214.511 1066.08 215.098 1108.66 214.195C1112.26 214.254 1116.39 214.712 1119.93 214.189Z"/>
	<path fill="#25CBD0" d="M1316.83 587.619L1317.67 587.897C1317.65 591.464 1317.44 595.161 1317.73 598.71L1317.15 598.966C1308.41 596.505 1280.15 598.278 1269.93 598.334C1270.39 597.796 1270.83 597.253 1271.22 596.656C1272.95 593.939 1272.45 591.236 1271.82 588.304C1286.72 587.067 1301.86 588.252 1316.83 587.619Z"/>
	<path fill="#25CBD0" d="M496.583 524.3L547.548 524.394C547.432 528.244 547.193 532.136 547.561 535.975Q522.088 535.764 496.617 536.136L496.132 535.956C496.599 532.278 496.152 528.18 496.066 524.462L496.583 524.3Z"/>
	<path fill="#25CBD0" d="M496.172 365.274Q496.689 395.602 496.548 425.934C520.07 426.007 543.645 425.784 567.16 426.273C566.932 429.633 566.541 433.035 566.941 436.392C543.531 436.758 520.065 436.449 496.649 436.465L496.486 435.717L496.345 425.729C495.534 405.705 495.887 385.318 496.172 365.274Z"/>
	<path fill="#25CBD0" d="M1230.68 710.159C1242.49 710.177 1312.44 711.794 1317 709.295L1317.34 710.998C1317.8 714.594 1318.21 717.482 1316.64 720.904C1316.59 720.866 1316.55 720.817 1316.5 720.791C1313.73 719.391 1237.58 719.171 1231.66 720.978C1232.31 719.642 1232.74 718.335 1232.89 716.847C1233.17 714.161 1232.39 712.168 1230.68 710.159Z"/>
	<path fill="#13C19E" d="M567.16 426.273C569.796 421.647 572.726 417.786 578.128 416.364C582.915 415.103 589.091 416.172 593.322 418.678C596.474 420.544 598.619 423.406 599.53 426.956Q599.746 427.825 599.874 428.71Q600.003 429.596 600.044 430.49Q600.084 431.384 600.036 432.277Q599.988 433.171 599.852 434.056Q599.716 434.94 599.493 435.807Q599.271 436.674 598.963 437.514Q598.656 438.355 598.267 439.161Q597.878 439.966 597.411 440.73C594.837 444.984 590.237 448.239 585.378 449.287C581.693 450.081 578.262 449.408 575.16 447.243C571.352 444.585 568.574 440.714 566.941 436.392C566.541 433.035 566.932 429.633 567.16 426.273Z"/>
	<path fill="#25CBD0" d="M1269.93 598.334L1269.59 600.696C1266.91 604.333 1264.41 606.139 1259.95 607.167C1255.12 608.282 1250.11 607.896 1245.92 605.092C1242.21 602.616 1239.71 598.572 1238.9 594.206C1238.09 589.829 1239.01 585.161 1241.62 581.525C1244.33 577.753 1248.55 575.597 1253.08 574.914C1257.83 574.197 1262.14 575.106 1265.95 578.123C1269.05 580.574 1271.39 584.364 1271.82 588.304C1272.45 591.236 1272.95 593.939 1271.22 596.656C1270.83 597.253 1270.39 597.796 1269.93 598.334Z"/>
	<path fill="#13C19E" d="M597.182 711.376C600.46 706.436 604.786 701.23 611.003 700.119C615.181 699.372 619.176 700.688 622.528 703.198C626.729 706.343 629.688 711.155 630.381 716.379C630.961 720.751 629.954 725.618 627.225 729.142C624.657 732.458 620.603 734.167 616.502 734.529C611.363 734.984 606.191 734.44 602.158 730.977C599.7 728.867 598.252 726.426 596.813 723.566C595.458 719.141 596.162 715.752 597.182 711.376Z"/>
	<path fill="#13C19E" d="M547.548 524.394C550.773 518.882 554.272 514.557 560.732 512.912Q561.491 512.715 562.267 512.595Q563.042 512.476 563.825 512.434Q564.609 512.393 565.392 512.43Q566.176 512.468 566.952 512.583Q567.728 512.699 568.488 512.892Q569.248 513.085 569.986 513.353Q570.723 513.622 571.429 513.962Q572.136 514.303 572.805 514.713C578.886 518.366 580.883 523.54 582.465 530.117C580.664 536.71 578.607 541.726 572.363 545.187C568.373 547.398 563.819 547.828 559.47 546.495C553.827 544.766 550.431 540.947 547.561 535.975C547.193 532.136 547.432 528.244 547.548 524.394Z"/>
	<path fill="#28A9A6" d="M1231.66 720.978C1231.9 724.199 1231.4 725.913 1229.77 728.72C1227.99 731.767 1224.2 733.712 1220.84 734.439Q1220.34 734.55 1219.84 734.636Q1219.34 734.722 1218.84 734.783Q1218.34 734.844 1217.83 734.88Q1217.32 734.917 1216.82 734.928Q1216.31 734.939 1215.8 734.925Q1215.3 734.911 1214.79 734.872Q1214.28 734.833 1213.78 734.768Q1213.28 734.704 1212.78 734.615Q1212.28 734.526 1211.78 734.413Q1211.29 734.299 1210.8 734.161Q1210.31 734.023 1209.83 733.862Q1209.35 733.7 1208.88 733.514Q1208.4 733.329 1207.94 733.12Q1207.48 732.911 1207.03 732.68Q1206.58 732.449 1206.14 732.195Q1205.7 731.942 1205.27 731.667Q1204.54 731.189 1203.86 730.641Q1203.17 730.092 1202.55 729.478Q1201.93 728.865 1201.37 728.192Q1200.81 727.518 1200.32 726.793Q1199.83 726.067 1199.42 725.297Q1199 724.526 1198.67 723.717Q1198.33 722.909 1198.08 722.072Q1197.83 721.234 1197.66 720.375C1196.79 716.059 1197.81 711.912 1200.32 708.33C1203.49 703.816 1208.6 700.904 1214.03 700.126C1218.24 699.523 1222.59 700.243 1226.01 702.886C1228.15 704.54 1230.37 707.438 1230.68 710.159C1232.39 712.168 1233.17 714.161 1232.89 716.847C1232.74 718.335 1232.31 719.642 1231.66 720.978Z"/>
	<path fill="#25CBD0" d="M496.004 594.482L496.551 594.633C497.478 633.467 496.551 672.409 496.734 711.26C530.135 710.901 563.809 710.263 597.182 711.376C596.162 715.752 595.458 719.141 596.813 723.566Q546.754 723.323 496.696 723.79L496.669 802.344L674.39 802.816L674.733 814.145L495.991 814.635C487.94 814.597 468.445 815.992 461.857 814.104C458.853 813.242 457.231 810.797 455.696 808.283C455.53 806.318 455.466 806.229 456.586 804.458C465.827 798.365 485.095 801.125 495.944 801.383L495.977 723.513C490.681 723.541 485.46 723.726 480.262 722.54C479.942 721.827 479.634 721.115 479.387 720.372C478.26 716.977 479.358 714.75 480.821 711.755C485.863 711.15 490.986 711.206 496.059 711.114L496.004 594.482Z"/>
	<path fill="#06487C" d="M674.39 802.816C677.106 789.561 682.629 778.014 694.235 770.228C704.334 763.454 717.955 761.55 729.733 764.115C741.171 766.606 751.59 773.659 757.774 783.639C764.041 793.752 765.918 806.796 762.998 818.303C760.198 829.341 752.617 838.802 742.838 844.512Q741.849 845.089 740.833 845.615Q739.816 846.141 738.775 846.616Q737.733 847.091 736.669 847.512Q735.605 847.934 734.521 848.302Q733.438 848.67 732.337 848.984Q731.236 849.297 730.121 849.554Q729.006 849.812 727.879 850.014Q726.752 850.215 725.617 850.36Q724.481 850.504 723.34 850.592Q722.199 850.68 721.055 850.71Q719.911 850.74 718.767 850.713Q717.622 850.686 716.481 850.601Q715.339 850.517 714.204 850.375Q713.068 850.234 711.941 850.036Q710.813 849.837 709.698 849.583Q708.582 849.328 707.48 849.018Q706.373 848.714 705.282 848.355Q704.191 847.997 703.12 847.583Q702.048 847.17 700.999 846.703Q699.95 846.237 698.925 845.718Q697.901 845.199 696.904 844.63Q695.907 844.06 694.94 843.441Q693.972 842.822 693.037 842.156Q692.102 841.489 691.202 840.776Q690.302 840.063 689.438 839.306Q688.575 838.549 687.75 837.749Q686.926 836.95 686.143 836.11Q685.36 835.27 684.62 834.391Q683.88 833.513 683.185 832.599Q682.49 831.685 681.842 830.736Q681.194 829.788 680.594 828.809Q679.995 827.829 679.445 826.821C677.325 822.931 675.773 818.444 674.733 814.145L674.39 802.816Z"/>
	<path fill="#71D5A7" d="M1135.58 806.254C1135.82 807.474 1135.72 808.555 1135.53 809.764C1133.82 820.632 1127.73 829.958 1118.8 836.269C1108.65 843.447 1095.98 845.89 1083.81 843.601C1071.79 841.343 1060.76 834.475 1053.98 824.213C1047.2 813.927 1045.63 801.845 1048.14 789.901C1050.61 778.196 1056.78 767.495 1067.04 761.023Q1068 760.429 1068.99 759.882Q1069.98 759.336 1070.99 758.839Q1072.01 758.341 1073.05 757.894Q1074.08 757.447 1075.14 757.051Q1076.2 756.655 1077.28 756.312Q1078.35 755.968 1079.44 755.678Q1080.54 755.387 1081.64 755.15Q1082.75 754.913 1083.86 754.731Q1084.98 754.548 1086.1 754.421Q1087.22 754.293 1088.35 754.22Q1089.48 754.148 1090.61 754.13Q1091.74 754.113 1092.87 754.151Q1093.99 754.189 1095.12 754.282Q1096.25 754.375 1097.37 754.523Q1098.49 754.671 1099.6 754.874Q1100.71 755.076 1101.81 755.333C1113.68 758.139 1124.47 766.268 1130.79 776.678C1133.64 781.372 1137.03 789.804 1135.6 795.312C1135.54 795.508 1135.48 795.7 1135.42 795.893C1148.88 795.831 1162.94 795.026 1176.33 796.223L1175.45 796.289C1163 797.171 1149.55 794.732 1137.35 796.867C1136.71 799.928 1136.43 803.281 1135.58 806.254Z"/>
	<path fill="#25CBD0" d="M915.557 327.056C927.086 309.318 942.407 296.757 963.402 292.321Q965.191 291.944 966.997 291.657Q968.803 291.37 970.62 291.174Q972.438 290.977 974.264 290.871Q976.089 290.765 977.917 290.751Q979.746 290.736 981.573 290.813Q983.399 290.889 985.22 291.057Q987.041 291.224 988.851 291.482Q990.661 291.74 992.456 292.088Q994.251 292.436 996.026 292.873Q997.802 293.31 999.553 293.835Q1001.3 294.36 1003.03 294.971Q1004.75 295.583 1006.44 296.28Q1008.13 296.977 1009.79 297.757Q1011.44 298.537 1013.05 299.398Q1014.67 300.26 1016.23 301.201Q1017.8 302.142 1019.32 303.16C1035.59 313.878 1045.81 329.396 1049.7 348.508C1050.12 350.558 1050.4 352.34 1050.2 354.434C1075.76 352.065 1098.41 355.241 1118.76 372.152Q1120.21 373.379 1121.61 374.676Q1123 375.973 1124.33 377.336Q1125.66 378.699 1126.92 380.125Q1128.18 381.551 1129.37 383.037Q1130.55 384.523 1131.67 386.065Q1132.79 387.607 1133.82 389.202Q1134.86 390.797 1135.82 392.44Q1136.78 394.083 1137.66 395.771Q1138.54 397.46 1139.34 399.188Q1140.13 400.917 1140.84 402.683Q1141.55 404.449 1142.18 406.247Q1142.8 408.045 1143.33 409.872Q1143.87 411.698 1144.32 413.548Q1144.76 415.399 1145.12 417.269Q1145.47 419.138 1145.74 421.023Q1146 422.908 1146.17 424.804C1146.75 431.268 1148.13 444.799 1144.94 450.366C1166.91 459.67 1187.61 482.309 1196.52 504.256C1207.58 531.525 1208.01 563.162 1196.48 590.334C1185.29 616.691 1164.78 637.87 1138.07 648.585Q1134.43 650.057 1130.67 651.222Q1126.92 652.387 1123.08 653.238Q1119.24 654.089 1115.35 654.62Q1111.45 655.15 1107.53 655.357C1107.5 663.993 1092.89 679.666 1086.97 685.541C1064.77 707.558 1036.05 718.747 1004.9 718.556C977.88 718.391 948.923 708.919 929.656 689.284C925.045 684.585 920.836 679.455 916.878 674.2C915.791 675.283 915.783 676.846 915.558 678.296C916.68 689.613 916.106 701.349 916.046 712.72L915.789 769.308C915.719 820.972 916.816 872.752 916.059 924.396L901.289 924.366L901.398 845.115C900.319 827.35 901.318 808.824 901.311 790.971L901.027 673.914C890.27 687.822 877.52 699.287 861.702 707.208C835.751 720.203 803.566 722.211 776.076 713.043C743.766 702.268 725.257 680.575 710.396 651.029C703.38 649.849 696.312 648.517 689.516 646.384Q688.26 645.988 687.013 645.563Q685.767 645.137 684.531 644.681Q683.296 644.225 682.072 643.739Q680.847 643.253 679.635 642.738Q678.423 642.223 677.224 641.678Q676.025 641.134 674.839 640.56Q673.654 639.987 672.482 639.385Q671.311 638.783 670.154 638.152Q668.998 637.522 667.857 636.864Q666.716 636.206 665.592 635.52Q664.467 634.834 663.359 634.122Q662.252 633.409 661.162 632.67Q660.072 631.93 659 631.165Q657.928 630.399 656.875 629.608Q655.822 628.816 654.789 628Q653.756 627.183 652.742 626.342Q651.729 625.5 650.736 624.634Q649.744 623.768 648.773 622.879Q647.801 621.989 646.852 621.076Q645.902 620.163 644.975 619.228Q644.048 618.292 643.144 617.334Q642.24 616.376 641.359 615.397Q640.479 614.417 639.622 613.417Q638.765 612.416 637.933 611.395Q637.101 610.374 636.294 609.333Q635.487 608.292 634.705 607.232Q633.924 606.171 633.168 605.093Q632.412 604.014 631.683 602.917Q630.954 601.82 630.251 600.706Q629.549 599.591 628.873 598.46Q628.198 597.329 627.55 596.182Q626.903 595.035 626.283 593.873Q625.691 592.742 625.128 591.597Q624.564 590.451 624.028 589.292Q623.492 588.134 622.985 586.962Q622.478 585.791 622 584.607Q621.521 583.424 621.072 582.229Q620.623 581.034 620.203 579.828Q619.783 578.623 619.392 577.408Q619.002 576.192 618.641 574.968Q618.281 573.743 617.95 572.51Q617.62 571.277 617.319 570.036Q617.019 568.795 616.749 567.548Q616.479 566.3 616.24 565.046Q616 563.792 615.792 562.532Q615.583 561.273 615.406 560.009Q615.228 558.745 615.081 557.477Q614.934 556.208 614.818 554.937Q614.703 553.666 614.618 552.392Q614.533 551.118 614.48 549.843Q614.426 548.567 614.404 547.291Q614.381 546.014 614.39 544.738Q614.399 543.461 614.439 542.185Q614.479 540.909 614.551 539.635Q614.622 538.36 614.724 537.088Q614.827 535.815 614.96 534.545Q615.094 533.276 615.258 532.01Q615.422 530.744 615.618 529.482Q615.813 528.221 616.039 526.964Q616.265 525.708 616.522 524.457Q616.779 523.207 617.066 521.963Q617.353 520.719 617.671 519.483Q617.988 518.246 618.336 517.018Q618.683 515.789 619.061 514.57C627.961 486.517 646.887 466.275 672.741 452.908C670.925 443.997 670.199 435.187 671.085 426.111Q671.271 424.175 671.552 422.25Q671.833 420.326 672.207 418.417Q672.582 416.509 673.049 414.621Q673.517 412.733 674.076 410.87Q674.636 409.007 675.285 407.174Q675.935 405.341 676.674 403.542Q677.413 401.742 678.239 399.982Q679.065 398.221 679.976 396.503Q680.887 394.784 681.882 393.113Q682.876 391.441 683.951 389.82Q685.025 388.2 686.178 386.633Q687.331 385.067 688.559 383.559Q689.787 382.051 691.088 380.605Q692.388 379.159 693.758 377.778Q695.128 376.398 696.563 375.086Q697.999 373.774 699.497 372.534C719.057 356.584 741.681 352.452 766.268 354.983C771.298 333.291 781.328 316.051 800.055 303.394Q801.54 302.394 803.073 301.469Q804.605 300.544 806.182 299.696Q807.758 298.847 809.375 298.078Q810.992 297.309 812.644 296.621Q814.297 295.932 815.981 295.327Q817.666 294.721 819.379 294.199Q821.091 293.678 822.827 293.241Q824.563 292.805 826.319 292.455Q828.075 292.105 829.846 291.843Q831.616 291.58 833.398 291.406Q835.18 291.231 836.968 291.145Q838.756 291.058 840.546 291.061Q842.336 291.063 844.124 291.154Q845.912 291.244 847.693 291.424Q849.474 291.603 851.244 291.87Q853.014 292.137 854.769 292.491C875.66 296.702 891.545 309.469 903.025 327.009L915.557 327.056Z"/>
	<path fill="#016F96" d="M840.697 595.191C843.575 595.811 847.929 600.725 850.237 602.76C840.945 611.777 832.297 621.392 822.863 630.294L822.856 661.7L810.353 661.662L810.333 631.695C801.078 631.64 783.309 629.977 775.128 632.557C769.369 637.509 764.244 643.559 758.956 649.031C755.987 646.217 753.228 643.12 750.405 640.158Q760.884 629.847 771.075 619.252L816.182 619.459C824.538 611.6 832.546 603.271 840.697 595.191Z"/>
	<path fill="#016F96" d="M980.203 595.26C986.766 598.828 998.482 613.367 1004.16 619.408L1052.85 619.546C1053.13 619.667 1053.41 619.782 1053.69 619.911C1058.48 622.152 1071.19 634.676 1072.94 639.352C1072.89 639.497 1072.86 639.644 1072.81 639.787C1071.53 643.53 1067.59 645.676 1064.31 647.429C1064.28 647.273 1064.28 647.112 1064.23 646.961C1063.09 643.205 1052.67 634.258 1049.07 632.426C1041.39 630.169 1017.69 631.911 1008.56 632.016C1008.5 640.037 1010.25 649.979 1008.05 657.685C1007.22 660.559 1005.84 661.677 1003.35 663.047C1001.07 663.043 999.754 663.208 997.933 661.573C993.072 657.211 995.266 635.013 995.385 628.022C988.658 619.204 979.586 611.344 971.974 603.199L980.203 595.26Z"/>
	<path fill="#016F96" d="M1056.32 411.082C1060.09 410.159 1064.22 410.545 1068.07 410.635C1068.24 411.057 1068.4 411.483 1068.54 411.916C1070.21 417.194 1070.49 438.948 1068.18 443.437C1073.49 446.039 1100.1 471.969 1102.03 477.409C1101.99 477.59 1101.98 477.777 1101.91 477.95C1100.76 481.039 1095.8 483.766 1093.09 485.342C1093.05 485.087 1093.03 484.83 1092.97 484.577C1092.31 481.424 1068.76 459.004 1065.04 456.542C1063.86 460.538 1057.69 465.338 1054.22 467.492C1054.18 467.671 1054.16 467.857 1054.1 468.029C1052.49 472.64 1040.4 482.51 1036.14 485.112C1036.4 485.511 1036.43 485.533 1036.67 486.016C1038.88 490.385 1037.89 506.034 1036.32 510.771C1032.27 510.384 1028.08 510.438 1024.01 510.295C1024.4 509.653 1024.73 509 1025 508.299C1027.01 503.062 1026.51 484.536 1024.3 479.719C1024.51 479.614 1024.72 479.513 1024.93 479.403C1029.64 476.911 1054.73 452.062 1056.27 447.117C1056.58 446.581 1056.84 446.038 1057.06 445.456C1058.51 441.6 1058.1 415.365 1056.32 411.082Z"/>
	<path fill="#016F96" d="M747.655 410.911L760.554 410.936L760.58 446.297C771.411 458.2 783.475 469.32 794.871 480.706L795.05 509.276L782.932 509.284L782.985 486.526Q776.879 480.312 770.6 474.274C764.633 468.575 759.1 462.6 753.61 456.442C743.312 465.585 733.084 475.323 723.785 485.479L715.014 476.403C725.684 465.694 736.379 455.082 747.535 444.876L747.655 410.911Z"/>
	<path fill="#016F96" d="M1110.17 520.439C1112.99 520.088 1115.9 519.994 1118.74 519.886C1128.46 519.516 1151.47 516.604 1158.8 523.394C1159.68 525.772 1159.6 526.014 1158.92 528.474C1151.93 535.771 1122.75 530.582 1111.58 533.142C1073.78 541.808 1093.64 579.421 1085.41 592.78L1105.29 592.753C1111.87 592.625 1121.41 591.37 1127.59 593.371C1129.89 594.116 1130.4 594.696 1131.44 596.728C1131.44 599.171 1131.32 600.575 1129.91 602.612C1124.66 606.799 1083.28 604.59 1073.47 604.526C1073.55 604.374 1073.62 604.221 1073.7 604.07C1080.17 591.63 1069.59 561.653 1079.96 542.387C1086.39 530.436 1097.58 524.113 1110.17 520.439Z"/>
	<path fill="#016F96" d="M668.211 518.175L716.975 518.108C726.566 528.479 737.052 538.003 746.695 548.344C746.116 566.062 746.511 583.899 746.493 601.631L701.804 601.652L689.474 601.637L689.546 589.236L733.954 589.155L734.013 553.45C726.822 545.719 719.658 538.013 712.031 530.704L668.199 530.671L668.211 518.175Z"/>
	<path fill="#016F96" d="M903.025 327.009L915.557 327.056C915.231 371.318 914.974 415.681 915.498 459.939C933.178 441.334 950.884 430.815 977.075 430.158L978.554 430.126L978.494 364.169L1008.09 334.366L1017.55 343.548C1008.25 351.873 999.34 360.374 990.788 369.482C990.81 393.561 990.219 417.846 991.122 441.898C966.407 441.994 943.739 446.461 925.758 464.839C921.874 468.808 918.457 473.548 916.967 478.969C913.647 491.043 915.582 548.562 915.582 564.434C929.814 548.677 945.41 537.828 967.43 536.787C986.455 535.887 1004.87 542.121 1019.01 555.046C1024.37 559.948 1034.11 569.415 1034.71 576.768C1034.72 576.922 1034.72 577.077 1034.73 577.232C1032.88 579.646 1028.27 583.02 1025.42 584.114C1022.5 573.507 1008.85 561.31 999.566 556.045C986.719 548.761 970.865 546.41 956.595 550.46C936.71 556.103 925.403 570.294 915.508 587.246L915.481 644.136C915.505 654.91 916.16 666.121 915.139 676.839C914.212 676.918 913.286 676.992 912.355 677.018C908.267 677.132 906.156 675.475 903.326 672.849C904.503 663.27 903.702 652.733 903.709 643.041L903.727 585.628C896.938 573.066 886.736 561.818 873.954 555.201C860.01 547.983 842.667 547.165 827.832 552.058C811.76 557.359 800.568 568.715 793.082 583.533C789.296 581.572 785.676 578.918 782.076 576.616C787.161 568.768 792.301 561.106 799.263 554.769Q800.544 553.595 801.882 552.486Q803.219 551.378 804.611 550.337Q806.002 549.297 807.444 548.327Q808.885 547.357 810.373 546.46Q811.861 545.564 813.392 544.742Q814.923 543.921 816.493 543.177Q818.063 542.433 819.668 541.769Q821.273 541.104 822.91 540.52Q824.546 539.936 826.209 539.435Q827.873 538.933 829.559 538.516Q831.245 538.098 832.95 537.765Q834.655 537.431 836.375 537.184Q838.094 536.936 839.824 536.774Q841.554 536.613 843.289 536.538Q845.025 536.463 846.762 536.474Q848.5 536.486 850.234 536.584C872.271 537.685 888.838 548.426 903.196 564.402C903.64 535.166 903.109 505.854 903.011 476.611C900.15 473.396 897.292 470.163 894.315 467.053C875.864 447.771 854.168 442.199 828.15 441.61C828.592 417.059 828.238 392.438 828.259 367.879C819.892 358.634 810.383 350.473 801.919 341.287L810.493 332.849L841.394 363.563C840.512 385.624 840.923 407.897 840.831 429.984C865.163 430.905 885.027 442.272 903.216 457.534C903.969 414.107 903.511 370.444 903.025 327.009Z"/>
</svg>
