<?xml version="1.0" encoding="utf-8" ?>
<svg xmlns="http://www.w3.org/2000/svg" xmlns:xlink="http://www.w3.org/1999/xlink" width="1820" height="1024">
	<path fill="#09355D" d="M0 0L1818.44 0C1820.58 3.35778 1819.99 8.22266 1820 12.0828L1820 742.336L1820.01 943.951L1820 997.417C1819.99 1004.76 1820.98 1013.76 1819.75 1020.9C1819.56 1022.02 1819.05 1023.05 1818.44 1024L0 1024L0 0Z"/>
	<path fill="#1379B2" d="M1342.59 677.243Q1368.55 677.45 1394.52 677.28C1403.67 677.247 1413.45 676.562 1422.54 677.467C1411.62 680.264 1357.73 678.201 1342.61 678.304C1343.61 682.682 1341.51 686.848 1339.47 690.604C1319.03 690.666 1298.53 691.059 1278.1 690.535C1279.14 685.925 1279.17 681.859 1277.45 677.415C1299.16 677.183 1320.88 677.692 1342.59 677.243Z"/>
	<path fill="#16A1C0" d="M1634.88 676.566C1639.21 668.762 1642.93 662.488 1652.2 659.819C1656.84 658.482 1661.56 658.772 1665.78 661.209C1670.73 664.059 1674.61 669.364 1676.05 674.867C1677.52 680.497 1676.33 686.756 1673.39 691.721C1671.02 695.743 1667.44 698.357 1662.89 699.415C1657.39 700.692 1649.99 699.69 1645.27 696.497C1643 694.963 1640.98 692.947 1638.69 691.495C1639.06 688.101 1635.38 680.62 1634.88 676.566Z"/>
	<path fill="#CA3D6F" d="M1111.7 119.674C1116.48 122.379 1136.54 140.889 1137.74 145.016C1135.64 149.685 1115.28 169.319 1110.84 171.523C1108.16 167.874 1104.12 164.38 1100.04 162.418C1099.01 158.432 1088.65 148.641 1084.89 146.506C1084.59 146.337 1084.28 146.188 1083.97 146.043C1088.56 143.492 1109.88 124.304 1111.55 120.226C1111.63 120.05 1111.65 119.858 1111.7 119.674Z"/>
	<path fill="#16A1C0" d="M1070.74 78.6405L1073.3 78.4424C1079.76 81.165 1097.06 98.174 1101.08 104.196C1100.73 106.312 1077.45 128.28 1074.75 130.438L1074.14 130.943C1068.89 129.58 1052.27 108.62 1044.61 104.408C1049.19 101.959 1068.86 83.63 1070.74 78.6405Z"/>
	<path fill="#FCFDFE" d="M183.178 424.264C180.544 430.053 175.942 435.484 169.962 437.961C164.904 440.056 159.182 439.87 154.151 437.792Q153.61 437.566 153.08 437.314Q152.551 437.061 152.035 436.783Q151.519 436.504 151.018 436.2Q150.516 435.896 150.031 435.567Q149.545 435.238 149.077 434.885Q148.608 434.533 148.158 434.157Q147.708 433.781 147.277 433.383Q146.846 432.986 146.436 432.567Q146.025 432.148 145.636 431.709Q145.247 431.27 144.881 430.812Q144.514 430.354 144.171 429.879Q143.828 429.403 143.509 428.911Q143.19 428.419 142.896 427.911Q142.602 427.404 142.334 426.882Q142.066 426.361 141.824 425.826Q141.583 425.292 141.368 424.746C139.276 419.391 139.017 413.165 141.421 407.868C143.893 402.421 149.075 398.548 154.601 396.553C159.984 394.608 166.555 394.75 171.726 397.29C178.452 400.593 181.586 406.538 183.829 413.375C183.88 417.071 184.02 420.643 183.178 424.264Z"/>
	<path fill="#FCFDFE" d="M1645.3 435.11C1651.62 434.221 1657.29 434.752 1662.78 438.311Q1663.26 438.62 1663.72 438.953Q1664.19 439.285 1664.63 439.641Q1665.08 439.997 1665.51 440.374Q1665.94 440.752 1666.34 441.151Q1666.75 441.55 1667.14 441.969Q1667.53 442.388 1667.89 442.826Q1668.26 443.264 1668.6 443.72Q1668.95 444.175 1669.27 444.648Q1669.58 445.121 1669.88 445.609Q1670.18 446.097 1670.45 446.599Q1670.72 447.102 1670.96 447.617Q1671.21 448.133 1671.43 448.66Q1671.65 449.187 1671.84 449.725Q1672.03 450.262 1672.19 450.809Q1672.36 451.355 1672.49 451.909Q1672.63 452.464 1672.74 453.024C1673.85 458.855 1672.61 465.195 1669.16 470.054C1665.33 475.438 1660.32 477.763 1654 478.906C1649.81 479.337 1646.25 479.324 1642.24 477.865C1636.87 475.908 1632.82 472.223 1630.44 467.006C1627.91 461.434 1627.57 454.666 1629.84 448.95C1632.9 441.258 1637.96 438.199 1645.3 435.11Z"/>
	<path fill="#14C7D4" d="M1030.72 117.148C1035.33 119.745 1057.08 141.022 1058.57 145.729C1057.85 150.03 1052.55 153.869 1049.29 156.458C1045.46 161.737 1035.81 172.028 1030.13 174.941C1028.82 169.621 1018.54 161.428 1014.44 157.475C1010.37 154.096 1006.86 149.974 1003.26 146.105C1009.46 138.171 1027.32 123.827 1030.72 117.148Z"/>
	<path fill="#FCFDFE" d="M431.328 495.199C445.942 495.159 570.333 493.529 574.758 496.161L575.5 498.351C574.462 500.316 573.869 500.849 571.719 501.539C563.109 504.303 546.251 502.104 536.698 502.1C507.032 502.087 477.099 501.29 447.474 502.347C432.875 501.677 417.991 502.229 403.364 502.225L317.495 502.254C313.868 503.197 310.477 504.281 307.255 506.246C290.315 516.571 291.596 533.548 292.343 550.93C292.508 554.763 293.098 559.042 292.038 562.762C291.377 565.081 290.4 566.258 288.336 567.442L286.991 567.067C286.522 566.418 286.148 565.895 285.912 565.118C283.685 557.816 284.633 532.924 286.165 525.258Q286.491 523.543 286.971 521.865Q287.452 520.187 288.083 518.56Q288.714 516.933 289.491 515.37Q290.267 513.807 291.183 512.321C296.694 503.431 305.252 498.293 315.276 495.918C326.392 493.256 341.635 495.053 353.208 495.067L431.328 495.199Z"/>
	<path fill="#0E86A3" d="M183.829 413.375L432.951 413.343C440.5 413.266 460.443 411.644 466.679 413.936L466.747 423.369C456.224 425.935 441.326 424.19 430.285 424.024L183.178 424.264C184.02 420.643 183.88 417.071 183.829 413.375Z"/>
	<path fill="#095191" d="M1642.87 597.395C1644.4 606.57 1635.66 621.392 1630.36 628.771Q1629.26 630.293 1628.09 631.758Q1626.92 633.223 1625.67 634.628Q1624.43 636.034 1623.12 637.376Q1621.8 638.717 1620.43 639.992Q1619.05 641.267 1617.61 642.473Q1616.17 643.678 1614.68 644.81Q1613.18 645.942 1611.63 646.999Q1610.08 648.055 1608.48 649.034Q1606.87 650.012 1605.23 650.91Q1603.58 651.807 1601.89 652.622Q1600.2 653.437 1598.47 654.167Q1596.74 654.896 1594.98 655.54Q1593.21 656.183 1591.42 656.738Q1589.63 657.293 1587.81 657.758Q1585.99 658.223 1584.15 658.598Q1582.31 658.972 1580.46 659.255C1574.9 660.134 1568.59 660.671 1563.03 659.71C1565.31 659.701 1567.08 659.58 1569.22 658.754C1570.19 650.752 1570.94 603.342 1568.03 598.293C1580.74 597.65 1635.76 599.949 1642.87 597.395Z"/>
	<path fill="#1379B2" d="M1489.33 597.488C1501.9 597.473 1514.47 597.891 1527.05 597.839C1537.44 597.796 1558.91 596.198 1568.03 598.293C1570.94 603.342 1570.19 650.752 1569.22 658.754C1567.08 659.58 1565.31 659.701 1563.03 659.71C1558.12 659.286 1553.38 658.635 1548.61 657.356C1527.86 651.78 1508.11 635.952 1500.71 615.376C1499.14 611.011 1498.5 602.836 1496.03 599.318C1495.04 597.921 1491.03 597.785 1489.33 597.488Z"/>
	<path fill="#0E86A3" d="M1634.88 676.566C1635.38 680.62 1639.06 688.101 1638.69 691.495C1631.65 689.283 1574.99 690.851 1561.91 690.872C1487.81 690.989 1413.55 691.915 1339.47 690.604C1341.51 686.848 1343.61 682.682 1342.61 678.304C1357.73 678.201 1411.62 680.264 1422.54 677.467C1446.21 676.61 1630.26 678.982 1634.88 676.566Z"/>
	<path fill="#B2E1E7" d="M1495.3 820.419C1496.97 820.101 1498.77 820.242 1499.7 818.615C1501.11 816.124 1500.83 811.659 1501.87 808.718C1506.5 795.673 1517.91 783.715 1530.91 778.845C1543.27 774.217 1557.86 774.988 1569.74 780.65Q1570.82 781.157 1571.88 781.718Q1572.93 782.278 1573.96 782.89Q1574.98 783.502 1575.98 784.165Q1576.97 784.827 1577.93 785.538Q1578.89 786.249 1579.82 787.007Q1580.74 787.765 1581.62 788.568Q1582.51 789.37 1583.35 790.216Q1584.2 791.062 1585 791.949Q1585.8 792.835 1586.55 793.761Q1587.31 794.686 1588.02 795.648Q1588.73 796.61 1589.39 797.606Q1590.05 798.602 1590.66 799.629Q1591.27 800.657 1591.83 801.713Q1592.38 802.77 1592.89 803.853Q1593.39 804.936 1593.84 806.042Q1594.29 807.149 1594.69 808.277Q1595.06 809.368 1595.38 810.477Q1595.7 811.585 1595.97 812.708Q1596.23 813.831 1596.44 814.966Q1596.65 816.101 1596.8 817.245Q1596.95 818.389 1597.04 819.539Q1597.14 820.689 1597.17 821.842Q1597.21 822.995 1597.19 824.149Q1597.17 825.302 1597.09 826.454Q1597.01 827.605 1596.87 828.75Q1596.74 829.896 1596.54 831.033Q1596.35 832.171 1596.1 833.297Q1595.85 834.424 1595.54 835.536Q1595.24 836.649 1594.88 837.745Q1594.52 838.84 1594.1 839.917Q1593.69 840.993 1593.22 842.048Q1592.75 843.102 1592.23 844.132C1586.43 855.52 1575.63 864.008 1563.53 867.852Q1562.38 868.224 1561.22 868.54Q1560.05 868.855 1558.88 869.113Q1557.7 869.371 1556.51 869.57Q1555.32 869.769 1554.12 869.909Q1552.92 870.05 1551.72 870.131Q1550.51 870.212 1549.31 870.233Q1548.1 870.255 1546.9 870.217Q1545.69 870.179 1544.49 870.082Q1543.29 869.985 1542.09 869.828Q1540.89 869.672 1539.71 869.457Q1538.52 869.242 1537.34 868.968Q1536.17 868.695 1535.01 868.364Q1533.85 868.033 1532.71 867.645Q1531.56 867.257 1530.44 866.813Q1529.32 866.37 1528.22 865.871Q1527.12 865.373 1526.05 864.821C1513.07 858.077 1505.72 848.937 1501.44 835.076C1500.81 833.062 1500.42 827.924 1498.95 826.616L1385.5 826.71C1366.36 826.721 1346.54 827.723 1327.46 826.527C1342.79 824.521 1360.03 825.937 1375.51 825.978L1458.95 825.894C1467.67 825.936 1489.82 827.648 1497.04 824.911C1497.31 822.963 1496.3 822.028 1495.3 820.419Z"/>
	<path fill="#14C7D4" d="M1568.29 517.374Q1570.09 517.312 1571.9 517.339Q1573.7 517.366 1575.5 517.481Q1577.3 517.597 1579.1 517.802Q1580.89 518.006 1582.67 518.299Q1584.45 518.591 1586.21 518.971Q1587.98 519.352 1589.72 519.818Q1591.46 520.285 1593.18 520.837Q1594.9 521.389 1596.59 522.025Q1598.28 522.661 1599.93 523.38Q1601.59 524.098 1603.2 524.897Q1604.82 525.697 1606.4 526.575Q1607.97 527.453 1609.5 528.408Q1611.04 529.363 1612.52 530.392Q1614 531.421 1615.43 532.522Q1616.86 533.623 1618.23 534.793Q1619.61 535.964 1620.92 537.2C1632.56 547.949 1643.12 566.298 1643.81 582.343C1643.88 583.965 1643.62 585.305 1643.02 586.8C1644.38 588.726 1645.02 590.498 1644.64 592.899C1644.41 594.425 1643.71 596.101 1642.87 597.395C1635.76 599.949 1580.74 597.65 1568.03 598.293C1558.91 596.198 1537.44 597.796 1527.05 597.839C1514.47 597.891 1501.9 597.473 1489.33 597.488C1479.3 596.94 1458.52 595.423 1450.38 588.905C1449.77 588.416 1449.94 587.626 1449.86 586.882C1455.78 579.746 1486.27 576.294 1496.11 574.849C1500.53 570.675 1502.75 560.53 1505.83 554.86C1509.09 548.863 1513.65 543.299 1518.57 538.582C1531.12 526.535 1550.64 516.969 1568.29 517.374Z"/>
	<path fill="#1379B2" d="M1568.29 517.374Q1570.09 517.312 1571.9 517.339Q1573.7 517.366 1575.5 517.481Q1577.3 517.597 1579.1 517.802Q1580.89 518.006 1582.67 518.299Q1584.45 518.591 1586.21 518.971Q1587.98 519.352 1589.72 519.818Q1591.46 520.285 1593.18 520.837Q1594.9 521.389 1596.59 522.025Q1598.28 522.661 1599.93 523.38Q1601.59 524.098 1603.2 524.897Q1604.82 525.697 1606.4 526.575Q1607.97 527.453 1609.5 528.408Q1611.04 529.363 1612.52 530.392Q1614 531.421 1615.43 532.522Q1616.86 533.623 1618.23 534.793Q1619.61 535.964 1620.92 537.2C1632.56 547.949 1643.12 566.298 1643.81 582.343C1643.88 583.965 1643.62 585.305 1643.02 586.8C1634.83 586.195 1626.22 586.687 1617.99 586.674L1568.42 586.601C1568.81 585.992 1569.14 585.48 1569.32 584.769C1570.36 580.828 1570.77 522.505 1569.7 519.603C1569.44 518.901 1568.7 518.028 1568.29 517.374Z"/>
	<path fill="#16A1C0" d="M293.704 170.974C298.994 170.773 304.644 171.317 309.706 172.888C323.105 177.049 331.01 187.337 337.392 199.172C341.394 198.15 345.567 197.278 349.702 197.114Q350.606 197.075 351.51 197.083Q352.415 197.09 353.318 197.142Q354.221 197.195 355.121 197.293Q356.02 197.391 356.914 197.534Q357.807 197.677 358.692 197.865Q359.577 198.053 360.451 198.286Q361.325 198.518 362.187 198.794Q363.049 199.07 363.895 199.389Q364.742 199.708 365.571 200.07Q366.4 200.431 367.211 200.834Q368.021 201.237 368.81 201.68Q369.599 202.123 370.364 202.605Q371.13 203.087 371.87 203.607Q372.61 204.127 373.324 204.684Q374.037 205.24 374.721 205.832Q375.405 206.424 376.059 207.05Q376.669 207.638 377.25 208.255Q377.83 208.872 378.379 209.517Q378.929 210.162 379.445 210.834Q379.962 211.505 380.445 212.201Q380.929 212.897 381.377 213.616Q381.825 214.335 382.237 215.075Q382.65 215.815 383.025 216.575Q383.4 217.335 383.737 218.112Q384.075 218.889 384.373 219.682Q384.672 220.475 384.931 221.282Q385.191 222.088 385.41 222.907Q385.629 223.725 385.807 224.554Q385.986 225.382 386.123 226.218Q386.261 227.054 386.357 227.896Q386.453 228.738 386.508 229.583Q386.562 230.429 386.575 231.276Q386.593 232.077 386.57 232.877Q386.547 233.678 386.484 234.476Q386.421 235.275 386.319 236.069Q386.216 236.863 386.073 237.651Q385.931 238.439 385.749 239.219Q385.567 239.999 385.346 240.769Q385.125 241.538 384.865 242.296Q384.606 243.054 384.309 243.798Q384.012 244.541 383.678 245.269Q383.344 245.997 382.974 246.707Q382.604 247.417 382.199 248.108Q381.794 248.799 381.354 249.468Q380.915 250.138 380.442 250.784Q379.97 251.431 379.465 252.053Q378.961 252.675 378.426 253.271Q377.891 253.867 377.327 254.435C362.202 269.442 331.25 264.604 311.257 264.371C293.385 264.242 255.059 267.011 239.786 263.508C233.791 262.132 228.274 259.324 223.884 254.971C217.571 248.713 214.342 240.152 214.503 231.306C214.664 222.467 218.058 213.743 224.517 207.612C232.711 199.835 242.244 198.448 253.048 198.711C255.358 195.209 257.719 191.77 260.4 188.537C269.375 177.713 279.874 172.349 293.704 170.974Z"/>
	<path fill="#25BE92" d="M346.151 899.741L235.491 899.698C218.588 899.718 199.504 901.381 182.889 899.494C176.881 898.811 170.6 897.711 166.165 893.332C162.478 889.693 158.408 884.409 157.442 879.19C154.606 863.873 156.478 828.754 156.475 811.403L156.749 658.472C156.812 646.501 155.33 630.541 164.672 621.537C172.004 614.471 180.941 613.36 190.606 613.533C208.238 615.153 226.816 614.129 244.537 614.147L347.462 614.26C347.457 625.446 348.926 639.276 346.941 650.132C344.594 650.632 342.276 651.086 339.893 651.395L347.198 651.332C347.246 657.87 347.216 664.422 347.458 670.954C347.569 675.952 348.848 684.512 345.911 688.745L345.685 689.506C346.052 707.312 347.914 726.317 346.267 744.003L345.266 744.172C347.155 746.652 346.55 750.598 346.4 753.609L346.977 753.848C344.647 765.215 345.836 793.536 345.748 806.401L346.029 807.145C346.837 810.826 347.725 822.533 345.829 825.657C345.738 825.808 345.608 825.931 345.497 826.068L346.426 826.253C346.478 830.988 345.304 838.584 347.211 842.692C349.938 844.965 352.287 844.426 355.765 844.536C352.483 845.02 349.37 845.392 346.048 845.335L346.151 899.741Z"/>
	<path fill="#09355D" d="M339.893 651.395L347.198 651.332C347.246 657.87 347.216 664.422 347.458 670.954C324.175 671.291 303.908 677.212 287.252 694.263C273.253 708.595 264.928 728.721 265.238 748.815C265.552 769.154 275.286 789.159 289.864 803.127C305.285 817.903 324.416 824.734 345.497 826.068L346.426 826.253C346.478 830.988 345.304 838.584 347.211 842.692C349.938 844.965 352.287 844.426 355.765 844.536C352.483 845.02 349.37 845.392 346.048 845.335C319.623 843.177 297.914 836.994 277.775 818.912Q276.891 818.104 276.027 817.274Q275.164 816.444 274.321 815.593Q273.478 814.743 272.656 813.871Q271.834 813 271.034 812.109Q270.234 811.218 269.457 810.307Q268.679 809.396 267.924 808.466Q267.168 807.537 266.436 806.589Q265.704 805.641 264.996 804.675Q264.287 803.709 263.603 802.727Q262.919 801.744 262.259 800.744Q261.599 799.745 260.963 798.729Q260.328 797.714 259.718 796.683Q259.108 795.652 258.524 794.607Q257.939 793.562 257.381 792.502Q256.822 791.442 256.29 790.369Q255.758 789.296 255.252 788.211Q254.746 787.125 254.268 786.027Q253.789 784.929 253.337 783.82Q252.886 782.71 252.462 781.59Q252.038 780.47 251.641 779.34Q251.245 778.209 250.876 777.07Q250.508 775.93 250.168 774.781Q249.828 773.633 249.516 772.476Q249.204 771.32 248.921 770.156Q248.637 768.992 248.383 767.822Q248.128 766.651 247.903 765.475Q247.677 764.299 247.481 763.117Q247.284 761.935 247.117 760.75Q246.949 759.563 246.811 758.374Q246.673 757.184 246.564 755.991Q246.456 754.798 246.376 753.603Q246.297 752.408 246.247 751.211Q246.179 750.046 246.139 748.879Q246.1 747.713 246.09 746.546Q246.08 745.379 246.099 744.212Q246.119 743.045 246.167 741.879Q246.215 740.713 246.293 739.548Q246.37 738.383 246.477 737.221Q246.584 736.059 246.719 734.9Q246.855 733.741 247.019 732.585Q247.184 731.43 247.377 730.279Q247.571 729.128 247.793 727.982Q248.015 726.836 248.266 725.696Q248.517 724.556 248.796 723.423Q249.075 722.29 249.382 721.164Q249.69 720.038 250.025 718.92Q250.361 717.802 250.724 716.693Q251.087 715.584 251.478 714.485Q251.869 713.385 252.287 712.295Q252.706 711.206 253.151 710.127Q253.597 709.048 254.069 707.981Q254.541 706.914 255.04 705.859Q255.539 704.804 256.064 703.761Q256.589 702.719 257.14 701.69Q257.691 700.661 258.267 699.647Q258.844 698.632 259.445 697.632Q260.047 696.632 260.674 695.647Q261.3 694.663 261.951 693.694Q262.602 692.726 263.277 691.774Q263.952 690.822 264.65 689.887Q265.349 688.952 266.071 688.035Q266.792 687.118 267.537 686.219Q268.281 685.32 269.048 684.44Q269.815 683.56 270.603 682.7C288.881 662.667 313.041 652.634 339.893 651.395Z"/>
	<path fill="#14C7D4" d="M345.497 826.068C324.416 824.734 305.285 817.903 289.864 803.127C275.286 789.159 265.552 769.154 265.238 748.815C264.928 728.721 273.253 708.595 287.252 694.263C303.908 677.212 324.175 671.291 347.458 670.954C347.569 675.952 348.848 684.512 345.911 688.745L345.685 689.506C346.052 707.312 347.914 726.317 346.267 744.003L345.266 744.172C347.155 746.652 346.55 750.598 346.4 753.609L346.977 753.848C344.647 765.215 345.836 793.536 345.748 806.401L346.029 807.145C346.837 810.826 347.725 822.533 345.829 825.657C345.738 825.808 345.608 825.931 345.497 826.068Z"/>
	<path fill="#095191" d="M346.4 753.609L346.977 753.848C344.647 765.215 345.836 793.536 345.748 806.401C334.387 791.985 332.095 771.34 330.257 753.739L346.4 753.609Z"/>
	<path fill="#09355D" d="M330.136 744.424C330.327 725.378 333.528 704.781 345.685 689.506C346.052 707.312 347.914 726.317 346.267 744.003L345.266 744.172L330.136 744.424Z"/>
	<path fill="#09355D" d="M275.285 753.315L294.029 753.187C294.094 767.289 298.547 784.448 305.327 796.84C307.274 800.4 314.125 807.19 314.523 810.561C297.993 801.586 285.112 788.51 278.109 770.89C276.508 766.864 273.515 757.476 275.285 753.315Z"/>
	<path fill="#09355D" d="M309.902 687.893C310.73 689.374 310.746 689.014 309.867 690.504C299.867 707.443 295.043 724.597 294.009 744.276L275.52 744.353C275.329 744.116 275.094 743.909 274.948 743.643C273.417 740.847 276.342 730.132 277.264 726.869C282.01 710.078 294.972 696.323 309.902 687.893Z"/>
	<path fill="#09355D" d="M302.67 753.495L321.588 753.42C322.325 769.995 325.511 785.08 332.319 800.23C334.396 804.851 337.16 809.14 339.045 813.839L339.292 814.464C338.484 814.651 337.683 814.825 336.86 814.934C333.127 815.429 329.91 813.211 327.038 811.069C310.411 798.668 305.546 772.57 302.67 753.495Z"/>
	<path fill="#09355D" d="M336.054 682.611L337.862 682.977C337.903 687.624 330.837 695.139 329.083 700.207C324.044 714.77 321.748 729.041 321.26 744.42L305.485 744.744C304.7 744.671 304.041 744.279 303.326 743.962C300.85 736.015 307.934 711.545 311.774 703.46C317.179 692.08 324.486 686.64 336.054 682.611Z"/>
	<path fill="#29A163" d="M190.606 613.533C250.524 612.13 310.812 613.379 370.753 613.921C404.617 614.228 438.522 613.396 472.379 614.103C486.47 614 516.409 610.254 526.639 620.373C530.177 623.873 532.792 628.472 533.762 633.367C536.33 646.326 534.588 662.69 534.597 676L534.804 763.618C579.052 763.69 623.518 762.857 667.743 763.881Q630.86 784.957 593.323 804.843L534.194 837.656C534.354 854.305 538.254 878.803 525.758 891.664C517.092 900.584 505.704 900.025 494.188 900.07L346.151 899.741L346.048 845.335C349.37 845.392 352.483 845.02 355.765 844.536C352.287 844.426 349.938 844.965 347.211 842.692C345.304 838.584 346.478 830.988 346.426 826.253L345.497 826.068C345.608 825.931 345.738 825.808 345.829 825.657C347.725 822.533 346.837 810.826 346.029 807.145L345.748 806.401C345.836 793.536 344.647 765.215 346.977 753.848L346.4 753.609C346.55 750.598 347.155 746.652 345.266 744.172L346.267 744.003C347.914 726.317 346.052 707.312 345.685 689.506L345.911 688.745C348.848 684.512 347.569 675.952 347.458 670.954C347.216 664.422 347.246 657.87 347.198 651.332L339.893 651.395C342.276 651.086 344.594 650.632 346.941 650.132C348.926 639.276 347.457 625.446 347.462 614.26L244.537 614.147C226.816 614.129 208.238 615.153 190.606 613.533Z"/>
	<path fill="#092051" d="M347.198 651.332C372.228 651.526 397.52 663.027 415.022 680.844C433.143 699.291 444.486 724.708 444.139 750.747Q444.125 751.92 444.081 753.091Q444.038 754.263 443.965 755.434Q443.892 756.604 443.79 757.773Q443.689 758.941 443.558 760.106Q443.427 761.272 443.267 762.433Q443.108 763.595 442.919 764.753Q442.731 765.91 442.513 767.062Q442.296 768.215 442.05 769.362Q441.804 770.508 441.53 771.648Q441.256 772.788 440.953 773.921Q440.65 775.054 440.32 776.179Q439.989 777.305 439.631 778.421Q439.272 779.538 438.886 780.645Q438.5 781.752 438.086 782.849Q437.673 783.947 437.232 785.033Q436.791 786.12 436.323 787.196Q435.856 788.271 435.361 789.334Q434.867 790.398 434.347 791.448Q433.826 792.499 433.28 793.537Q432.733 794.574 432.161 795.598Q431.589 796.621 430.991 797.63Q430.394 798.64 429.772 799.633Q429.149 800.627 428.503 801.605Q427.856 802.583 427.185 803.545Q426.514 804.507 425.819 805.452Q425.124 806.396 424.406 807.323Q423.689 808.25 422.948 809.159Q422.207 810.068 421.444 810.959Q420.681 811.849 419.896 812.72Q419.111 813.591 418.304 814.442Q417.498 815.293 416.67 816.124Q415.843 816.955 414.995 817.765C399.949 832.278 377.216 844.741 355.765 844.536C352.287 844.426 349.938 844.965 347.211 842.692C345.304 838.584 346.478 830.988 346.426 826.253C365.852 825.056 382.293 820.448 397.511 807.788C413.405 794.567 423.473 776.278 425.313 755.591Q425.475 753.763 425.546 751.928Q425.617 750.094 425.598 748.259Q425.579 746.424 425.47 744.591Q425.36 742.759 425.161 740.935Q424.962 739.11 424.673 737.297Q424.384 735.485 424.006 733.689Q423.628 731.893 423.162 730.117Q422.697 728.342 422.144 726.592Q421.592 724.841 420.954 723.12Q420.315 721.399 419.593 719.712Q418.871 718.024 418.067 716.375Q417.263 714.725 416.379 713.117Q415.494 711.508 414.532 709.946Q413.569 708.383 412.531 706.869Q411.493 705.356 410.381 703.895Q409.27 702.435 408.088 701.031C392.26 682.321 371.709 672.919 347.458 670.954C347.216 664.422 347.246 657.87 347.198 651.332Z"/>
	<path fill="#1379B2" d="M347.458 670.954C371.709 672.919 392.26 682.321 408.088 701.031Q409.27 702.435 410.381 703.896Q411.493 705.356 412.531 706.869Q413.569 708.383 414.532 709.946Q415.494 711.508 416.379 713.117Q417.263 714.725 418.067 716.375Q418.871 718.024 419.593 719.712Q420.315 721.399 420.953 723.12Q421.592 724.841 422.144 726.592Q422.697 728.342 423.162 730.117Q423.628 731.893 424.006 733.689Q424.384 735.485 424.673 737.297Q424.962 739.11 425.161 740.935Q425.36 742.759 425.47 744.591Q425.579 746.424 425.598 748.259Q425.617 750.094 425.546 751.928Q425.475 753.763 425.313 755.591C423.473 776.278 413.405 794.567 397.511 807.788C382.293 820.448 365.852 825.056 346.426 826.253L345.497 826.068C345.608 825.931 345.738 825.808 345.829 825.657C347.725 822.533 346.837 810.826 346.029 807.145L345.748 806.401C345.836 793.536 344.647 765.215 346.977 753.848L346.4 753.609C346.55 750.598 347.155 746.652 345.266 744.172L346.267 744.003C347.914 726.317 346.052 707.312 345.685 689.506L345.911 688.745C348.848 684.512 347.569 675.952 347.458 670.954Z"/>
	<path fill="#092051" d="M346.977 753.848L359.918 753.771C358.661 764.757 354.198 800.612 346.029 807.145L345.748 806.401C345.836 793.536 344.647 765.215 346.977 753.848Z"/>
	<path fill="#092051" d="M345.911 688.745C356.746 699.481 359.076 729.821 359.957 744.636C355.555 744.555 350.557 744.935 346.267 744.003C347.914 726.317 346.052 707.312 345.685 689.506L345.911 688.745Z"/>
	<path fill="#092051" d="M379.751 689.356C382.83 690.413 385.943 692.339 388.61 694.179C405.543 705.861 413.497 724.596 417.175 744.111L396.302 744.133C393.343 722.108 390.556 709.124 379.751 689.356Z"/>
	<path fill="#092051" d="M396.636 753.363C403.016 753.329 409.325 753.384 415.691 753.824C416.963 755.43 417.194 756.61 417.121 758.686C416.648 772.066 401.533 792.203 392.189 800.972C387.431 804.71 382.584 807.883 377.378 810.957C389.138 791.584 393.925 775.733 396.636 753.363Z"/>
	<path fill="#092051" d="M368.393 753.096L387.671 753.036C386.788 773.553 381.313 793.046 366.946 808.25C364.163 810.627 360.363 813.503 356.788 814.416C354.818 814.92 354.726 814.887 352.991 813.833C352.825 812.015 359.881 799.501 360.971 796.222C365.609 782.271 367.64 767.729 368.393 753.096Z"/>
	<path fill="#092051" d="M351.492 679.639C357.183 681.092 362.204 684.114 366.659 687.909C382.596 701.484 386.459 724.701 387.895 744.425L367.962 744.54C366.881 720.15 362.303 701.554 351.492 679.639Z"/>
	<path fill="#25BE92" d="M1199.27 221.435C1202.6 215.064 1200.91 186.106 1200.92 177.874C1200.95 160.949 1200.49 146.726 1213.64 133.902C1218.62 129.045 1224.45 125.649 1231.27 124.23C1249.44 120.455 1272.93 122.708 1291.69 122.712L1400.31 122.851L1483.64 122.747C1498.76 122.756 1516.07 121.172 1530.87 124.192C1538.18 125.685 1543.36 128.294 1548.71 133.513C1553.91 138.584 1557.01 144.524 1559.41 151.298C1561.85 158.184 1561.81 316.536 1560.53 332.901C1560.14 337.861 1558.79 342.543 1556.63 347.028C1552.29 356.037 1544.96 362.497 1535.49 365.73C1523.45 369.839 1509.54 368.552 1496.98 368.415C1499.24 372.928 1499.61 410.705 1497.66 415.878C1497.37 416.643 1497.05 417.299 1496.62 417.99C1493.9 412.032 1440.46 371.913 1432.6 368.71C1415.85 368.529 1399.05 368.927 1382.32 368.596C1379.62 368.645 1376.9 368.959 1374.21 369.176C1372.07 368.387 1369.62 368.935 1367.39 369.165C1364.1 366.954 1333.41 368.699 1327.31 368.879C1302.13 366.061 1244.54 373.552 1224.45 365.718C1214.68 361.91 1206.79 354.325 1203.17 344.423C1197.97 330.219 1200.7 262.964 1200.73 243.738C1200.75 237.571 1202.06 227.407 1199.52 221.936C1199.44 221.766 1199.35 221.602 1199.27 221.435Z"/>
	<path fill="#FCFDFE" d="M1400.84 286.928C1406.84 286.854 1416.85 285.785 1421.56 290.469C1421.82 290.724 1422 291.051 1422.2 291.349C1421.48 293.434 1420.56 293.767 1418.58 294.688C1413.59 297.015 1407.38 295.987 1402 296.181C1371.79 295.548 1341.5 296.008 1311.28 296.004C1299.51 296.003 1286.58 297.253 1275 295.993C1271.73 295.639 1269.75 295.081 1267.67 292.486C1267.8 290.399 1267.96 290.126 1269.2 288.428C1274.69 285.495 1383.62 287.284 1400.84 286.928Z"/>
	<path fill="#FCFDFE" d="M1401.1 259.413Q1430.92 259.767 1460.75 259.613C1468.89 259.604 1477.67 258.773 1485.73 259.449C1487.78 259.62 1489.06 259.956 1490.55 261.408C1491.09 263.676 1491.11 263.913 1490.25 266.074C1484.98 269.759 1414.19 267.332 1402.05 267.757C1383.48 266.539 1275.24 269.854 1269.2 266.529C1268.22 264.465 1268.28 263.946 1268.49 261.645C1269.96 260.213 1270.59 259.646 1272.75 259.368C1281.57 258.232 1298.68 259.537 1308.32 259.541C1339.24 259.553 1370.19 259.839 1401.1 259.413Z"/>
	<path fill="#FCFDFE" d="M1413.61 231.367C1426.38 231.555 1484.42 228.553 1490.94 234.806C1491.53 235.377 1491.37 236.52 1491.43 237.331C1490.31 239.021 1490.08 239.63 1487.95 240.039C1480.79 241.415 1471.75 240.515 1464.39 240.533C1443.1 240.586 1421.27 239.565 1400.03 240.79C1393.45 239.268 1384.25 240.333 1377.33 240.317Q1344.96 240.206 1312.6 240.544C1301.09 240.648 1288.57 241.745 1277.15 240.424C1273.37 239.986 1270.07 239.176 1266.88 237.053L1266.76 235.155C1269.55 233.087 1274.01 232.442 1277.37 232.127C1288.76 231.059 1300.84 231.832 1312.3 231.828C1345.8 231.819 1380.21 233.404 1413.61 231.367Z"/>
	<path fill="#29A163" d="M1400.31 122.851L1483.64 122.747C1498.76 122.756 1516.07 121.172 1530.87 124.192C1538.18 125.685 1543.36 128.294 1548.71 133.513C1553.91 138.584 1557.01 144.524 1559.41 151.298C1561.85 158.184 1561.81 316.536 1560.53 332.901C1560.14 337.861 1558.79 342.543 1556.63 347.028C1552.29 356.037 1544.96 362.497 1535.49 365.73C1523.45 369.839 1509.54 368.552 1496.98 368.415C1499.24 372.928 1499.61 410.705 1497.66 415.878C1497.37 416.643 1497.05 417.299 1496.62 417.99C1493.9 412.032 1440.46 371.913 1432.6 368.71C1415.85 368.529 1399.05 368.927 1382.32 368.596C1388.31 367.736 1394.87 368.053 1400.93 367.938C1404.05 362.898 1402.65 305.901 1402 296.181C1407.38 295.987 1413.59 297.015 1418.58 294.688C1420.56 293.767 1421.48 293.434 1422.2 291.349C1422 291.051 1421.82 290.724 1421.56 290.469C1416.85 285.785 1406.84 286.854 1400.84 286.928C1403.45 282.207 1402.22 273.116 1402.05 267.757C1414.19 267.332 1484.98 269.759 1490.25 266.074C1491.11 263.913 1491.09 263.676 1490.55 261.408C1489.06 259.956 1487.78 259.62 1485.73 259.449C1477.67 258.773 1468.89 259.604 1460.75 259.613Q1430.92 259.767 1401.1 259.413C1401.96 254.501 1402.29 245.287 1400.03 240.79C1421.27 239.565 1443.1 240.586 1464.39 240.533C1471.75 240.515 1480.79 241.415 1487.95 240.039C1490.08 239.63 1490.31 239.021 1491.43 237.331C1491.37 236.52 1491.53 235.377 1490.94 234.806C1484.42 228.553 1426.38 231.555 1413.61 231.367C1409.58 230.506 1404.46 231.063 1400.3 231.042C1402.65 227.108 1401.96 217.148 1401.27 212.601C1389.17 211.672 1343.63 215.405 1336.32 209.584L1336.18 207.916C1336.44 207.598 1336.56 207.445 1336.89 207.14C1342.32 202.047 1391.92 204.341 1402.21 204.227C1402.73 195.781 1403.43 128.363 1401.93 124.972C1401.63 124.304 1400.77 123.457 1400.31 122.851Z"/>
	<path fill="#FCFDFE" d="M1402.21 204.227L1460.16 204.206C1468.74 204.186 1478.37 203.277 1486.85 204.293C1488.1 204.443 1489.08 204.985 1490.07 205.731C1491.22 207.932 1491.26 208.014 1490.76 210.444C1489.16 211.77 1488.79 212.117 1486.68 212.421C1479.38 213.474 1470.5 212.551 1463.05 212.547C1442.49 212.535 1421.8 211.995 1401.27 212.601C1389.17 211.672 1343.63 215.405 1336.32 209.584L1336.18 207.916C1336.44 207.598 1336.56 207.445 1336.89 207.14C1342.32 202.047 1391.92 204.341 1402.21 204.227Z"/>
	<path fill="#092051" d="M464.622 198.17Q464.606 196.669 464.648 195.169Q464.69 193.668 464.791 192.171Q464.891 190.673 465.05 189.18Q465.209 187.688 465.426 186.202Q465.643 184.717 465.918 183.242Q466.193 181.766 466.525 180.302Q466.857 178.838 467.246 177.389Q467.635 175.939 468.08 174.505Q468.526 173.072 469.026 171.657Q469.527 170.242 470.083 168.848Q470.638 167.453 471.248 166.081Q471.857 164.71 472.52 163.363Q473.182 162.016 473.896 160.696Q474.611 159.376 475.376 158.085Q476.142 156.794 476.957 155.534Q477.772 154.273 478.636 153.046C492.785 133.313 512.5 123.897 535.902 120.007L542.242 119.962C565.064 121.773 584.285 129.033 599.426 146.856C604.405 152.717 608.207 159.162 611.833 165.916C630.619 162.346 649.69 159.046 668.734 157.261C718.038 152.638 767.918 154.643 817.365 154.903C865.776 155.158 914.169 154.271 962.58 155.122C979.914 155.427 997.137 157.054 1014.44 157.475C1018.54 161.428 1028.82 169.621 1030.13 174.941C1035.81 172.028 1045.46 161.737 1049.29 156.458C1066.05 156.44 1082.17 157.389 1098.37 162.203C1098.94 162.372 1099.45 162.417 1100.04 162.418C1104.12 164.38 1108.16 167.874 1110.84 171.523C1123.5 179.342 1196.33 214.546 1199.27 221.435C1199.35 221.602 1199.44 221.766 1199.52 221.936C1202.06 227.407 1200.75 237.571 1200.73 243.738C1200.7 262.964 1197.97 330.219 1203.17 344.423C1206.79 354.325 1214.68 361.91 1224.45 365.718C1244.54 373.552 1302.13 366.061 1327.31 368.879C1333.41 368.699 1364.1 366.954 1367.39 369.165C1369.62 368.935 1372.07 368.387 1374.21 369.176C1377.15 373.856 1376.43 465.75 1374.27 475.174C1372.43 483.171 1365.74 492.127 1358.74 496.362C1357.87 496.89 1356.96 497.331 1356.03 497.74L1358.64 498.659C1361.08 504.792 1360.93 513.255 1361.38 519.855C1364.51 565.836 1359.76 614.196 1349.08 659.025C1347.96 663.735 1347 670.607 1344.86 674.785C1344.36 675.772 1343.75 676.262 1342.93 676.938C1342.81 677.034 1342.71 677.141 1342.59 677.243C1320.88 677.692 1299.16 677.183 1277.45 677.415C1279.17 681.859 1279.14 685.925 1278.1 690.535C1284.6 693.268 1327.9 691.333 1338.45 691.522C1339.34 696.382 1334.91 704.979 1333.05 709.747C1320.09 742.961 1304.3 773.96 1284.02 803.333C1281.36 807.178 1275.36 817.294 1271.22 819.113C1269.98 819.657 1268.05 819.892 1266.71 820.222L1427.98 819.867C1450.05 819.949 1473.37 818.566 1495.3 820.419C1496.3 822.028 1497.31 822.963 1497.04 824.911C1489.82 827.648 1467.67 825.936 1458.95 825.894L1375.51 825.978C1360.03 825.937 1342.79 824.521 1327.46 826.527Q1286.65 826.847 1245.84 826.671C1230.76 826.684 1215.25 826.23 1200.23 827.405C1220.17 829.652 1241.21 827.311 1261.31 827.6C1260.48 836.722 1231.34 861.573 1223.67 867.97Q1221.6 869.699 1219.49 871.386Q1217.38 873.073 1215.24 874.718Q1213.1 876.363 1210.93 877.964Q1208.76 879.565 1206.55 881.122Q1204.35 882.679 1202.11 884.192Q1199.88 885.705 1197.61 887.172Q1195.34 888.639 1193.05 890.061Q1190.76 891.482 1188.43 892.858Q1186.11 894.233 1183.76 895.561Q1181.41 896.889 1179.04 898.17Q1176.66 899.451 1174.26 900.684Q1171.86 901.917 1169.43 903.101Q1167.01 904.285 1164.56 905.421Q1162.11 906.556 1159.64 907.642Q1157.17 908.728 1154.67 909.764Q1152.18 910.8 1149.67 911.786Q1147.16 912.771 1144.62 913.706Q1142.09 914.641 1139.54 915.526Q1136.99 916.41 1134.42 917.242Q1131.86 918.075 1129.27 918.856Q1126.69 919.637 1124.09 920.365Q1121.49 921.094 1118.88 921.771Q1116.27 922.447 1113.64 923.071Q1111.01 923.695 1108.38 924.266Q1105.74 924.837 1103.09 925.355Q1100.44 925.872 1097.78 926.337Q1095.12 926.802 1092.46 927.213Q1089.79 927.624 1087.11 927.981Q1084.44 928.338 1081.76 928.642Q1079.07 928.945 1076.39 929.195Q1073.7 929.444 1071.01 929.64Q1068.32 929.836 1065.62 929.977C1054.27 930.496 1042.82 929.523 1031.47 929.287Q1004.29 928.925 977.115 929.103C947.11 929.336 916.963 933.063 887.002 930.322Q867.692 928.469 848.754 924.264C836.66 921.54 744.508 896.144 739.476 890.424C739.008 889.892 738.624 889.325 738.247 888.729C721.917 888.206 705.485 888.594 689.144 888.623Q687.222 892.099 684.844 895.279C681.166 900.11 675.54 904.167 669.396 904.88C663.853 905.523 658.323 903.575 654.042 900.075Q653.579 899.697 653.135 899.297Q652.69 898.896 652.267 898.474Q651.843 898.053 651.44 897.61Q651.038 897.168 650.658 896.707Q650.277 896.245 649.92 895.765Q649.564 895.286 649.231 894.789Q648.898 894.292 648.59 893.779Q648.282 893.267 648 892.74Q647.718 892.212 647.462 891.672Q647.206 891.131 646.977 890.579Q646.748 890.026 646.547 889.463Q646.346 888.9 646.172 888.328Q645.999 887.755 645.854 887.175Q645.709 886.595 645.593 886.008Q645.477 885.422 645.391 884.83Q645.304 884.238 645.246 883.643C644.758 878.126 646.314 872.524 649.924 868.278C654.879 862.449 662.229 860.517 669.546 859.932C661.397 858.178 624.732 831.256 616.238 824.456C608.386 818.172 601.122 811.193 593.323 804.843Q630.86 784.957 667.743 763.881C623.518 762.857 579.052 763.69 534.804 763.618L534.597 676C534.588 662.69 536.33 646.326 533.762 633.367C532.792 628.472 530.177 623.873 526.639 620.373C516.409 610.254 486.47 614 472.379 614.103Q470.168 613.553 467.962 612.979C453.595 598.482 434.88 524.108 433.513 503.085C438.222 503.055 442.79 502.938 447.474 502.347C477.099 501.29 507.032 502.087 536.698 502.1C546.251 502.104 563.109 504.303 571.719 501.539C573.869 500.849 574.462 500.316 575.5 498.351L574.758 496.161C570.333 493.529 445.942 495.159 431.328 495.199C429.582 471.157 428.516 448.142 430.285 424.024C441.326 424.19 456.224 425.935 466.747 423.369L466.679 413.936C460.443 411.644 440.5 413.266 432.951 413.343C433.274 403.975 435.217 394.404 437.193 385.269C445.388 347.372 459.806 312.802 480.606 280.081C485.004 273.163 490.903 263.248 497.89 258.75C494.816 256.436 491.653 254.104 488.833 251.484C473.497 237.24 465.552 218.938 464.622 198.17Z"/>
	<path fill="#FCFDFE" d="M542.468 271.173C542.526 273.507 542.258 276.66 542.776 278.891L542.609 348.957C542.592 362.87 544.136 379.106 541.009 392.577C539.483 399.152 536.084 404.753 531.308 409.49C511.223 429.41 490.149 418.035 466.747 423.369L466.679 413.936Q471.712 414.322 476.759 414.37C492.985 414.66 513.225 417.351 525.829 404.888C530.15 400.614 532.986 395.095 534.377 389.205C537.838 374.545 535.662 334.601 535.576 317.639C536.194 302.346 534.509 286.653 536.09 271.441L542.468 271.173Z"/>
	<path fill="#DAA41C" d="M1233.3 658.22C1239.64 657.195 1245.63 657.156 1251.34 660.374Q1251.84 660.654 1252.32 660.959Q1252.8 661.263 1253.27 661.592Q1253.74 661.921 1254.19 662.272Q1254.64 662.624 1255.07 662.998Q1255.51 663.372 1255.92 663.767Q1256.33 664.162 1256.72 664.578Q1257.12 664.993 1257.49 665.428Q1257.86 665.862 1258.21 666.315Q1258.56 666.768 1258.88 667.238Q1259.21 667.707 1259.51 668.193Q1259.81 668.678 1260.09 669.178Q1260.36 669.679 1260.61 670.192Q1260.87 670.705 1261.09 671.231Q1261.32 671.756 1261.52 672.292Q1261.71 672.828 1261.88 673.373Q1262.06 673.919 1262.2 674.472C1263.53 679.69 1263.03 685.385 1260.22 690.046C1257.18 695.072 1251.79 698.676 1246.15 700.012C1241.95 701.489 1238.16 701.437 1233.87 700.233C1228.64 698.766 1224.8 695.262 1222.22 690.548Q1221.94 690.028 1221.68 689.494Q1221.42 688.96 1221.19 688.414Q1220.96 687.869 1220.76 687.312Q1220.55 686.755 1220.38 686.189Q1220.2 685.623 1220.05 685.049Q1219.91 684.474 1219.79 683.894Q1219.67 683.313 1219.58 682.727Q1219.49 682.141 1219.43 681.551Q1219.37 680.961 1219.34 680.369Q1219.31 679.778 1219.31 679.185Q1219.31 678.592 1219.34 678Q1219.37 677.408 1219.43 676.818Q1219.49 676.228 1219.57 675.642Q1219.66 675.056 1219.78 674.475Q1219.89 673.894 1220.04 673.319Q1220.19 672.745 1220.36 672.178C1222.64 664.895 1226.73 661.615 1233.3 658.22Z"/>
	<path fill="#1379B2" d="M1070.88 159.537L1073.55 159.586C1077.78 162.55 1098.29 182.64 1099.41 186.74C1099.37 186.952 1099.36 187.171 1099.29 187.376C1098.1 190.879 1076.53 212.001 1072.86 214.222C1062.86 207.587 1055.41 192.93 1043.41 186.637C1049.47 183.556 1068.65 165.385 1070.88 159.537Z"/>
	<path fill="#FCFDFE" d="M1367.39 369.165C1369.62 368.935 1372.07 368.387 1374.21 369.176C1377.15 373.856 1376.43 465.75 1374.27 475.174C1372.43 483.171 1365.74 492.127 1358.74 496.362C1357.87 496.89 1356.96 497.331 1356.03 497.74C1351.43 500.759 1346.22 502.353 1340.79 503.052C1324.49 505.151 1306.9 503.253 1290.4 503.185C1275.87 503.125 1259.49 504.765 1245.22 502.641C1244.37 501.351 1244.51 500.835 1244.49 499.323C1246.15 497.409 1247.65 496.695 1250.17 496.241C1257.11 494.989 1265.32 495.903 1272.38 496.012C1287.61 496.249 1336.06 498.347 1348.31 493.845C1351.35 492.731 1354.64 491.016 1356 488.038C1356.29 487.935 1356.59 487.844 1356.88 487.729C1360.67 486.216 1363.6 481.199 1365.07 477.604C1366.66 473.711 1367.45 469.655 1367.77 465.474C1368.63 454.217 1369.8 374.865 1367.39 369.165Z"/>
	<path fill="#09355D" d="M1327.31 368.879C1333.41 368.699 1364.1 366.954 1367.39 369.165C1369.8 374.865 1368.63 454.217 1367.77 465.474C1367.45 469.655 1366.66 473.711 1365.07 477.604C1363.6 481.199 1360.67 486.216 1356.88 487.729C1356.59 487.844 1356.29 487.935 1356 488.038C1356.62 485.937 1357.06 483.692 1357.1 481.498C1357.43 466.821 1335.41 377.27 1327.31 368.879Z"/>
	<path fill="#FCFDFE" d="M721.179 194.467L832.333 194.582C847.59 194.56 871.71 192.653 886.16 195.7C892.208 196.975 897.851 200.655 902.146 205.016C906.445 209.382 909.847 215.005 911.288 220.996C913.955 232.085 912.915 277.434 912.686 291.426C912.632 294.679 912.442 297.832 911.057 300.824L909.557 301.629Q909.146 301.428 908.759 301.185Q908.372 300.942 908.012 300.658Q907.653 300.375 907.326 300.055Q906.999 299.736 906.708 299.383Q906.417 299.03 906.165 298.649Q905.913 298.267 905.703 297.861Q905.493 297.454 905.327 297.028Q905.161 296.602 905.042 296.16C903.745 291.538 904.685 285.182 904.776 280.382C905.034 266.773 906.711 233.278 903.453 222.075C901.569 215.595 897.661 209.816 891.908 206.197C887.47 203.405 882.562 202.401 877.4 201.97C867.751 201.165 857.682 201.73 847.991 201.741L793.976 201.789L617.838 201.624C617.788 199.302 617.614 197.337 618.604 195.17C628.08 192.785 641.243 194.491 651.174 194.511Q686.177 194.722 721.179 194.467Z"/>
	<path fill="#095191" d="M838.544 489.731C838.849 470.686 838.779 451.622 838.83 432.574C838.861 421.008 840.173 407.722 837.788 396.465C833.337 375.456 809.926 386.256 793.808 375.492Q792.967 374.928 792.156 374.322Q791.344 373.716 790.564 373.071Q789.784 372.425 789.037 371.742Q788.29 371.058 787.578 370.338Q786.866 369.618 786.191 368.863Q785.516 368.109 784.879 367.321Q784.243 366.534 783.646 365.715Q783.05 364.897 782.495 364.05Q781.94 363.203 781.428 362.329Q780.916 361.456 780.448 360.558Q779.98 359.659 779.558 358.739Q779.135 357.819 778.76 356.878Q778.384 355.938 778.055 354.98Q777.726 354.022 777.446 353.049Q777.166 352.076 776.934 351.09Q776.703 350.104 776.521 349.108Q776.358 348.252 776.239 347.388Q776.119 346.524 776.043 345.656Q775.967 344.787 775.934 343.916Q775.902 343.045 775.913 342.173Q775.925 341.302 775.98 340.432Q776.035 339.562 776.133 338.695Q776.232 337.829 776.374 336.969Q776.516 336.109 776.701 335.257Q776.886 334.405 777.113 333.563Q777.341 332.722 777.61 331.893Q777.88 331.064 778.19 330.249Q778.501 329.435 778.852 328.637Q779.203 327.839 779.594 327.06Q779.985 326.28 780.414 325.522Q780.844 324.763 781.311 324.027Q781.778 323.291 782.281 322.579C782.298 322.717 782.322 322.854 782.333 322.992C782.694 327.256 779.296 333.018 778.143 337.227C775.093 348.367 781.852 363.18 790.197 370.531C806.988 385.32 828.699 373.045 839.354 393.795C841.516 398.006 839.11 476.919 840.304 490.555C827.258 491.026 800.537 492.487 788.613 490.019C784.006 489.065 779.657 487.134 776.2 483.9C768.935 477.105 766.94 466.392 766.748 456.876C766.446 441.858 769.462 423.691 757.701 412.059C753.766 408.167 748.431 405.528 743.05 404.349C732.025 401.933 701.258 404.033 687.686 403.899L686.57 404.563C687.958 406.396 690.224 410.588 692.335 410.925C712.049 414.075 741.162 402.227 755.748 420.376C757.282 422.285 758.544 424.271 759.699 426.425C759.458 428.081 758.733 430.346 759.553 431.754C760.758 433.822 760.199 437.868 760.147 440.256C759.652 462.889 758.501 487.237 784.729 495.953C795.252 499.45 834.756 494.402 839.498 499.057C841.38 526.949 839.827 555.877 839.795 583.881C792.403 586.35 744.487 581.886 697.117 584.396C690.671 577.002 683.142 570.803 676.423 563.706C674.739 561.929 673.432 558.896 671.506 557.526C670.861 557.067 669.244 556.504 668.468 556.401C666.466 556.136 665.584 557.022 664.276 558.256C664.151 560.924 664.715 562.181 666.502 564.217C670.869 569.193 676.407 573.189 681.25 577.684C685.95 582.046 690.174 586.812 695.232 590.785C743.19 592.704 791.758 591.034 839.789 591.111C840.291 607.001 838.7 695.109 840.834 701.61C842.54 702.799 842.648 703.246 844.779 702.941C846.67 700.43 846.782 697.387 846.882 694.335C847.317 681.004 846.741 667.55 846.787 654.204L846.584 529.485L846.72 459.072C846.729 448.019 847.776 435.862 846.281 424.929C845.513 419.318 843.78 413.134 843.998 407.478C844.487 394.782 850.615 394.763 839.851 382.982C837.965 380.917 836.126 377.914 833.824 376.339C823.401 369.209 794.259 379.619 786.942 353.485C784.995 346.532 784.721 337.743 788.125 331.223L789.581 330.776C787.126 340.012 785.597 349.379 790.742 358.146C794.507 364.563 801.463 368.458 808.525 370.176C821.691 373.378 835.732 370.779 843.987 384.259C847.243 389.576 848.08 395.072 848.397 401.197C849.739 427.166 848.601 453.775 848.61 479.799L848.683 629.764C848.671 641.24 849.957 696.078 848.327 701.267C847.579 703.646 846.244 703.94 844.175 704.937C841.613 704.724 841.332 704.781 839.432 703.094C836.948 692.25 838.403 678.433 838.394 667.22C838.375 642.345 838.672 617.436 838.308 592.565C790.566 593.392 742.792 592.597 695.043 592.817C685.041 584.693 669.005 571.725 662.386 560.9C662.378 558.525 662.403 557.185 664.382 555.462C665.363 554.608 666.778 554.113 668.047 554.331C672.2 555.045 694.298 578.383 698.519 582.926C745.191 581.746 791.915 582.659 838.602 582.422C838.629 554.795 838.298 527.119 838.737 499.499C818.194 499.651 784.898 504.228 769.401 488.996C759.925 479.682 758.105 466.795 758.136 454.109C758.163 442.964 760.591 427.277 752.105 418.626C745.298 411.687 734.453 411.971 725.444 412.045C713.154 412.146 690.334 414.25 679.135 412.003C681.087 411.078 684.241 411.116 686.426 410.853C687.429 408.252 686.09 405.175 685.479 402.466C700.873 402.3 716.376 401.775 731.763 402.135C792.144 403.548 752.998 457.295 776.564 481.348C788.731 493.767 822.112 489.778 838.544 489.731Z"/>
	<path fill="#FCFDFE" d="M1200.23 827.405C1190.21 825.838 1172.37 827.301 1161.36 827.313L1060.26 827.438C1043.28 827.485 1024.05 829.286 1007.29 826.749C998.069 825.352 990.648 821.665 985.144 813.955C976.129 801.328 976.686 773.977 979.155 758.905L980.819 757.929C982.899 758.021 983.708 757.695 985.267 759.147C986.393 769.089 985.239 779.27 985.258 789.26C985.275 798.162 987.43 806.401 993.961 812.773C998.035 816.748 1003.28 819.066 1008.89 819.807C1018.88 821.128 1029.72 820.348 1039.83 820.339L1096.46 820.282C1153.19 820.224 1209.99 821.002 1266.71 820.222L1427.98 819.867C1450.05 819.949 1473.37 818.566 1495.3 820.419C1496.3 822.028 1497.31 822.963 1497.04 824.911C1489.82 827.648 1467.67 825.936 1458.95 825.894L1375.51 825.978C1360.03 825.937 1342.79 824.521 1327.46 826.527Q1286.65 826.847 1245.84 826.671C1230.76 826.684 1215.25 826.23 1200.23 827.405Z"/>
	<path fill="#FCFDFE" d="M689.981 881.488C709.531 880.468 729.365 881.244 748.945 881.335Q793.053 881.51 837.16 881.191C851.111 881.127 871.849 882.768 884.954 880.712C890.675 879.814 896.23 877.113 900.135 872.77C903.559 868.962 905.154 862.604 905.855 857.662C908.609 838.236 903.089 722.694 907.298 717.456C909.602 717.503 911.067 717.169 912.988 718.602C915.299 738.058 913.559 770.497 913.53 791.449L913.453 835.617C913.423 844.124 913.937 853.131 912.756 861.559C911.971 867.157 909.445 872.622 905.912 877.008C900.425 883.821 893.017 887.474 884.413 888.364C869.982 889.855 854.577 888.661 840.02 888.661C806.129 888.66 772.126 888.111 738.247 888.729C721.917 888.206 705.485 888.594 689.144 888.623Q687.222 892.099 684.844 895.279C681.166 900.11 675.54 904.167 669.396 904.88C663.853 905.523 658.323 903.575 654.042 900.075Q653.579 899.697 653.135 899.297Q652.69 898.896 652.267 898.474Q651.843 898.053 651.44 897.61Q651.038 897.168 650.658 896.707Q650.277 896.245 649.92 895.765Q649.564 895.286 649.231 894.789Q648.898 894.292 648.59 893.779Q648.282 893.267 648 892.74Q647.718 892.212 647.462 891.672Q647.206 891.131 646.977 890.579Q646.748 890.026 646.547 889.463Q646.346 888.9 646.172 888.328Q645.999 887.755 645.854 887.175Q645.709 886.595 645.593 886.008Q645.477 885.422 645.391 884.83Q645.304 884.238 645.246 883.643C644.758 878.126 646.314 872.524 649.924 868.278C654.879 862.449 662.229 860.517 669.546 859.932C676.797 861.873 682.296 864.278 686.082 871.1C687.835 874.259 688.874 878.05 689.981 881.488Z"/>
	<path fill="#095191" d="M542.242 119.962C565.064 121.773 584.285 129.033 599.426 146.856C604.405 152.717 608.207 159.162 611.833 165.916C615.31 175.176 616.91 183.951 617.731 193.808L686.123 193.799C697.254 193.794 710.277 192.565 721.179 194.467Q686.177 194.722 651.174 194.511C641.243 194.491 628.08 192.785 618.604 195.17C617.614 197.337 617.788 199.302 617.838 201.624C615.156 223.067 606.649 241.269 589.37 254.774C581.495 260.929 572.106 265.957 562.473 268.706C559.083 269.673 544.941 270.819 543.389 272.802L542.776 278.891C542.258 276.66 542.526 273.507 542.468 271.173C541.104 220.866 542.694 170.313 542.242 119.962Z"/>
	<path fill="#14C7D4" d="M464.622 198.17Q464.606 196.669 464.648 195.169Q464.69 193.668 464.791 192.171Q464.891 190.673 465.05 189.18Q465.209 187.688 465.426 186.202Q465.643 184.717 465.918 183.242Q466.193 181.766 466.525 180.302Q466.857 178.838 467.246 177.389Q467.635 175.939 468.08 174.505Q468.526 173.072 469.026 171.657Q469.527 170.242 470.083 168.848Q470.638 167.453 471.248 166.081Q471.857 164.71 472.52 163.363Q473.182 162.016 473.896 160.696Q474.611 159.376 475.376 158.085Q476.142 156.794 476.957 155.534Q477.772 154.273 478.636 153.046C492.785 133.313 512.5 123.897 535.902 120.007L542.242 119.962C542.694 170.313 541.104 220.866 542.468 271.173L536.09 271.441C534.509 286.653 536.194 302.346 535.576 317.639C534.873 302.294 535.304 286.758 535.258 271.389C521.697 270.991 509.418 265.393 497.89 258.75C494.816 256.436 491.653 254.104 488.833 251.484C473.497 237.24 465.552 218.938 464.622 198.17Z"/>
	<path fill="#0E86A3" d="M464.622 198.17Q464.606 196.669 464.648 195.169Q464.69 193.668 464.791 192.171Q464.891 190.673 465.05 189.18Q465.209 187.688 465.426 186.202Q465.643 184.717 465.918 183.242Q466.193 181.766 466.525 180.302Q466.857 178.838 467.246 177.389Q467.635 175.939 468.08 174.505Q468.526 173.072 469.026 171.657Q469.527 170.242 470.083 168.848Q470.638 167.453 471.248 166.081Q471.857 164.71 472.52 163.363Q473.182 162.016 473.896 160.696Q474.611 159.376 475.376 158.085Q476.142 156.794 476.957 155.534Q477.772 154.273 478.636 153.046C492.785 133.313 512.5 123.897 535.902 120.007C535.192 146.028 535.47 172.359 535.838 198.396L464.622 198.17Z"/>
	<path fill="#092051" d="M432.951 413.343C433.274 403.975 435.217 394.404 437.193 385.269C445.388 347.372 459.806 312.802 480.606 280.081C485.004 273.163 490.903 263.248 497.89 258.75C509.418 265.393 521.697 270.991 535.258 271.389C535.304 286.758 534.873 302.294 535.576 317.639C535.662 334.601 537.838 374.545 534.377 389.205C532.986 395.095 530.15 400.614 525.829 404.888C513.225 417.351 492.985 414.66 476.759 414.37Q471.712 414.322 466.679 413.936C460.443 411.644 440.5 413.266 432.951 413.343Z"/>
	<path fill="#FCFDFE" d="M685.479 402.466C685.671 397.038 686.5 391.259 687.609 385.946Q687.826 384.899 688.07 383.857Q688.313 382.816 688.583 381.78Q688.852 380.745 689.147 379.717Q689.441 378.689 689.762 377.668Q690.082 376.648 690.427 375.635Q690.772 374.623 691.143 373.619Q691.513 372.616 691.908 371.622Q692.303 370.628 692.723 369.644Q693.143 368.66 693.587 367.687Q694.031 366.714 694.499 365.752Q694.966 364.79 695.458 363.841Q695.95 362.891 696.465 361.953Q696.98 361.016 697.518 360.091Q698.056 359.167 698.617 358.256Q699.177 357.346 699.761 356.449Q700.344 355.552 700.949 354.671Q701.555 353.789 702.182 352.922Q702.809 352.056 703.457 351.205Q704.105 350.354 704.774 349.52Q705.443 348.686 706.133 347.868Q706.823 347.051 707.533 346.251Q708.242 345.45 708.972 344.668Q709.701 343.886 710.449 343.122Q711.198 342.358 711.965 341.613Q712.732 340.868 713.518 340.142Q714.303 339.416 715.106 338.71Q715.91 338.003 716.73 337.317Q717.551 336.631 718.388 335.966Q719.225 335.3 720.078 334.656Q720.932 334.011 721.801 333.388Q722.67 332.765 723.555 332.164Q724.439 331.562 725.338 330.983C740.864 320.914 765.329 313.49 783.828 317.407L784.517 318.654L782.281 322.579Q781.778 323.291 781.311 324.027Q780.844 324.763 780.414 325.522Q779.985 326.28 779.594 327.06Q779.203 327.839 778.852 328.637Q778.501 329.435 778.19 330.249Q777.88 331.064 777.61 331.893Q777.341 332.722 777.113 333.563Q776.886 334.405 776.701 335.257Q776.516 336.109 776.374 336.969Q776.232 337.829 776.133 338.695Q776.035 339.562 775.98 340.432Q775.925 341.302 775.913 342.173Q775.902 343.045 775.934 343.916Q775.967 344.787 776.043 345.656Q776.119 346.524 776.239 347.388Q776.358 348.252 776.521 349.108Q776.703 350.104 776.934 351.09Q777.166 352.076 777.446 353.049Q777.726 354.022 778.055 354.98Q778.384 355.938 778.76 356.878Q779.135 357.819 779.558 358.739Q779.98 359.659 780.448 360.558Q780.916 361.456 781.428 362.329Q781.94 363.203 782.495 364.05Q783.05 364.897 783.646 365.715Q784.243 366.534 784.879 367.321Q785.516 368.109 786.191 368.863Q786.866 369.618 787.578 370.338Q788.29 371.058 789.037 371.742Q789.784 372.425 790.564 373.071Q791.344 373.716 792.156 374.322Q792.967 374.928 793.808 375.492C809.926 386.256 833.337 375.456 837.788 396.465C840.173 407.722 838.861 421.008 838.83 432.574C838.779 451.622 838.849 470.686 838.544 489.731C822.112 489.778 788.731 493.767 776.564 481.348C752.998 457.295 792.144 403.548 731.763 402.135C716.376 401.775 700.873 402.3 685.479 402.466Z"/>
	<path fill="#25BE92" d="M1039.16 316.883C1051.98 315.888 1064.85 316.547 1077.2 320.345Q1078.19 320.647 1079.17 320.974Q1080.15 321.301 1081.12 321.652Q1082.09 322.003 1083.06 322.378Q1084.02 322.753 1084.97 323.151Q1085.93 323.55 1086.87 323.973Q1087.81 324.395 1088.75 324.841Q1089.68 325.287 1090.6 325.755Q1091.52 326.224 1092.43 326.716Q1093.34 327.207 1094.24 327.721Q1095.13 328.235 1096.02 328.771Q1096.9 329.307 1097.77 329.865Q1098.64 330.423 1099.5 331.003Q1100.35 331.582 1101.2 332.182Q1102.04 332.783 1102.86 333.404Q1103.69 334.025 1104.5 334.667Q1105.31 335.308 1106.11 335.97Q1106.9 336.631 1107.68 337.312Q1108.46 337.993 1109.22 338.693Q1109.98 339.393 1110.72 340.112Q1111.46 340.831 1112.19 341.568Q1112.91 342.305 1113.62 343.06Q1114.33 343.815 1115.01 344.587Q1115.7 345.359 1116.37 346.148Q1117.04 346.937 1117.68 347.742Q1118.33 348.548 1118.96 349.369Q1119.59 350.19 1120.2 351.027Q1120.8 351.863 1121.39 352.715Q1121.98 353.566 1122.54 354.432Q1123.11 355.297 1123.65 356.177Q1124.19 357.056 1124.71 357.949Q1125.24 358.842 1125.73 359.747Q1126.23 360.652 1126.71 361.57C1131.97 371.57 1139.09 390.264 1135.58 401.474C1119.65 401.467 1088.45 398.502 1074.75 402.935C1040.38 414.06 1059.73 454.539 1052.09 468.483C1052 468.639 1051.9 468.786 1051.81 468.938L1052.4 471.469C1051.34 475.004 1050.52 478.548 1047.85 481.243C1036.14 493.095 999.999 489.142 983.681 489.061L983.418 427.853C983.351 417.483 982.491 406.373 983.534 396.09C983.807 393.389 984.361 390.995 986.028 388.778C991.608 381.358 1004.8 383.021 1013.04 381.695C1022.77 380.127 1032.05 374.942 1037.72 366.769C1044.22 357.378 1047.23 342.97 1043.15 332.021C1041.42 327.387 1038.5 322.816 1037.65 317.939L1039.16 316.883Z"/>
	<path fill="#25BE92" d="M960.263 290.96C963.176 290.476 966.467 290.517 969.424 290.441C986.677 290 1004.64 297.481 1017.01 309.339C1025.98 317.934 1034.73 330.254 1034.88 343.067C1034.94 349.13 1032.82 354.905 1029.22 359.747C1013.63 380.736 994.911 364.068 979.844 380.208C975.824 384.515 973.756 389.628 973.2 395.457C971.771 410.445 972.882 426.401 972.921 441.502L972.973 528.081L972.99 643.502C972.991 661.812 971.932 680.728 972.988 698.954C973.14 701.585 973.251 701.684 975.164 703.336C977.513 703.968 978.75 704.09 981.027 703.168C982.704 701.166 982.87 700.023 983.159 697.43C984.428 686.052 983.494 673.63 983.492 662.153L983.447 593.439Q1054.05 593.147 1124.65 593.607C1129.21 591.637 1157.57 564.268 1159.59 559.601C1159.54 559.422 1159.52 559.236 1159.45 559.065C1158.2 556.01 1153.43 553.642 1150.7 552.157C1150.67 552.367 1150.66 552.583 1150.6 552.787C1149.09 557.747 1125.57 580.459 1119.9 583.304C1074.39 582.762 1028.8 583.16 983.282 583.23L983.502 499.32C1002.49 499.316 1040.15 503.615 1054.07 489.667C1066.96 476.744 1063.85 456.822 1063.75 440.281C1063.7 432.244 1064.1 422.786 1070.25 416.783C1079.22 408.041 1116.34 411.168 1128.95 411.208C1149.14 411.272 1167.08 412.666 1182.16 428.111C1195.04 441.302 1199.96 460.108 1199.83 478.131C1199.75 487.762 1198.44 506.627 1191.34 513.609C1190.44 510.221 1186.43 507.186 1183.73 505.093C1169.66 494.155 1151.1 492.171 1133.99 494.223Q1132.22 494.679 1130.48 495.211C1118.22 498.957 1104.74 507.991 1101 521.002C1100.22 523.683 1100.89 527.485 1099.5 529.821C1099.34 530.088 1099.16 530.344 1099 530.606C1087.34 530.694 1075.6 531.059 1063.95 530.559C1060.18 530.397 1057.14 529.915 1054.23 532.582C1053.84 535.191 1053.92 537.392 1054.21 539.981C1062.69 541.863 1100.75 540.302 1112.25 540.277C1114.11 534.685 1109.39 527.852 1112.69 520.502C1115.79 513.591 1122.23 508.229 1129.2 505.541C1141.13 500.935 1156.17 502.002 1167.76 507.141C1185.06 514.815 1201.04 535.68 1207.56 553.358C1217.05 579.095 1208.88 607.836 1189 626.198C1185.78 629.165 1174.82 636.054 1173.13 638.503C1172.41 639.55 1171.98 641.788 1171.39 643.077C1159.42 644.779 1146.03 643.576 1133.91 643.565L1060.79 643.671C1052.35 643.702 1043.01 642.372 1034.75 643.639C1031.62 644.118 1030.06 645.072 1028.2 647.559C1028.17 650.123 1028.07 650.341 1029.62 652.349C1031.09 653.024 1032.52 653.499 1034.14 653.611C1048.89 654.634 1064.55 653.517 1079.37 653.478L1170.98 653.486C1171.94 655.641 1171.99 657.451 1171.78 659.75C1169.63 683.882 1155.88 706.828 1137.64 722.269C1106.61 748.538 1062.59 758.378 1022.74 755.04C982.745 751.689 941.385 733.438 915.231 702.376L914.953 312.357C928.801 300.762 942.283 293.497 960.263 290.96Z"/>
	<path fill="#FCFDFE" d="M789.581 330.776C800.279 311.643 813.399 298.393 834.834 292.401C852.387 287.495 870.703 290.293 886.426 299.21C893.157 303.028 899.253 307.891 905.096 312.936C903.398 442.72 905.951 572.547 904.753 702.328C870.816 737.22 831.375 756.033 782.162 756.791C745.053 757.362 706.347 745.994 679.346 719.584C660.765 701.41 651.731 680.102 649.538 654.398C649.58 649.346 649.043 644.229 648.713 639.187C644.856 637.145 641.286 634.965 637.831 632.306C622.525 620.53 612.833 604.163 610.393 584.911C607.256 560.167 616.829 539.344 631.661 520.188C630.106 516.865 628.662 512.708 625.911 510.232C622.812 502.384 620.273 494.702 619.367 486.265Q619.201 484.592 619.117 482.912Q619.033 481.233 619.032 479.552Q619.031 477.87 619.113 476.191Q619.194 474.511 619.358 472.838Q619.521 471.164 619.767 469.501Q620.013 467.838 620.34 466.189Q620.667 464.539 621.075 462.908Q621.482 461.277 621.969 459.667Q622.457 458.058 623.022 456.475Q623.588 454.891 624.23 453.338Q624.873 451.784 625.591 450.264Q626.309 448.743 627.101 447.26Q627.893 445.777 628.757 444.335Q629.621 442.892 630.554 441.494Q631.488 440.096 632.489 438.745Q633.49 437.394 634.556 436.094C645.953 422.219 661.186 413.832 679.135 412.003C690.334 414.25 713.154 412.146 725.444 412.045C734.453 411.971 745.298 411.687 752.105 418.626C760.591 427.277 758.163 442.964 758.136 454.109C758.105 466.795 759.925 479.682 769.401 488.996C784.898 504.228 818.194 499.651 838.737 499.499C838.298 527.119 838.629 554.795 838.602 582.422C791.915 582.659 745.191 581.746 698.519 582.926C694.298 578.383 672.2 555.045 668.047 554.331C666.778 554.113 665.363 554.608 664.382 555.462C662.403 557.185 662.378 558.525 662.386 560.9C669.005 571.725 685.041 584.693 695.043 592.817C742.792 592.597 790.566 593.392 838.308 592.565C838.672 617.436 838.375 642.345 838.394 667.22C838.403 678.433 836.948 692.25 839.432 703.094C841.332 704.781 841.613 704.724 844.175 704.937C846.244 703.94 847.579 703.646 848.327 701.267C849.957 696.078 848.671 641.24 848.683 629.764L848.61 479.799C848.601 453.775 849.739 427.166 848.397 401.197C848.08 395.072 847.243 389.576 843.987 384.259C835.732 370.779 821.691 373.378 808.525 370.176C801.463 368.458 794.507 364.563 790.742 358.146C785.597 349.379 787.126 340.012 789.581 330.776Z"/>
	<path fill="#095191" d="M648.713 639.187C652.082 640.755 655.646 642.551 659.329 643.177C671.85 645.304 685.961 644.032 698.656 643.931L762.519 643.554C769.569 643.524 780.438 642.162 786.992 644.536C789.468 645.433 789.662 646.257 790.705 648.5C790.28 650.264 790.317 650.875 788.713 651.941C782.242 656.241 669.042 652.67 649.538 654.398C649.58 649.346 649.043 644.229 648.713 639.187Z"/>
	<path fill="#095191" d="M625.911 510.232C626.051 510.172 626.193 510.117 626.332 510.054C632.325 507.327 638.015 500.703 643.394 496.693C655.247 487.856 675.403 486.086 688.958 490.775C702.211 495.359 712.612 505.722 718.521 518.303C720.733 523.014 722.145 528.029 723.26 533.102C735.724 532.95 754.632 530.954 766.439 533.319C767.82 534.74 767.705 536.782 767.722 538.746C767.733 539.892 767.593 541.05 767.462 542.187C763.939 544.278 722.33 543.336 714.977 543.096C711.901 527.934 707.481 514.228 693.93 505.1Q693.133 504.565 692.309 504.071Q691.486 503.576 690.639 503.124Q689.793 502.671 688.924 502.261Q688.056 501.851 687.168 501.486Q686.28 501.12 685.375 500.799Q684.47 500.478 683.55 500.203Q682.63 499.928 681.698 499.699Q680.765 499.47 679.822 499.288Q678.88 499.106 677.929 498.971Q676.978 498.837 676.022 498.75Q675.066 498.663 674.106 498.624Q673.147 498.585 672.187 498.594Q671.227 498.604 670.268 498.661Q669.31 498.718 668.355 498.823Q667.401 498.928 666.453 499.081Q665.505 499.233 664.566 499.433C651.561 502.098 640.572 510.722 631.661 520.188C630.106 516.865 628.662 512.708 625.911 510.232Z"/>
</svg>
