<?xml version="1.0" encoding="utf-8" ?>
<svg xmlns="http://www.w3.org/2000/svg" xmlns:xlink="http://www.w3.org/1999/xlink" width="1820" height="1024">
	<path fill="#0A2A56" d="M0 0L1818.44 0C1820.58 3.35778 1819.99 8.22266 1820 12.0828L1820 742.336L1820.01 943.951L1820 997.417C1819.99 1004.76 1820.98 1013.76 1819.75 1020.9C1819.56 1022.02 1819.05 1023.05 1818.44 1024L0 1024L0 0Z"/>
	<path fill="#FCFDFC" d="M1645.26 339.803C1649.92 330.661 1643.75 297.406 1647.09 284.36L1648.49 283.598L1650.07 284.401C1652.19 289.346 1652.57 433.469 1650.14 440.13L1648.84 440.958L1645.43 439.965C1645.64 439.496 1645.86 439.072 1646 438.579C1647.75 432.522 1647.05 354.373 1646.38 343.653C1646.29 342.256 1645.87 341.058 1645.26 339.803Z"/>
	<path fill="#06A57E" d="M512.698 127.212C515.38 127.103 518.358 127.166 520.936 128.013C525.31 129.451 529.262 132.748 531.337 136.871C533.292 140.756 533.548 145.082 532.108 149.179C530.101 154.882 525.808 157.449 520.625 159.961C517.734 160.13 514.398 160.546 511.609 159.609C507.027 158.071 503.141 154.41 501.253 149.978Q500.93 149.223 500.684 148.439Q500.438 147.655 500.271 146.851Q500.104 146.047 500.019 145.23Q499.933 144.413 499.929 143.592Q499.925 142.77 500.003 141.952Q500.081 141.135 500.241 140.329Q500.4 139.523 500.638 138.737Q500.877 137.951 501.193 137.193C503.428 131.836 507.53 129.302 512.698 127.212Z"/>
	<path fill="#FCFDFC" d="M1134.81 856.799L1137.22 858.42C1137.19 860.566 1136.86 860.657 1135.55 862.257C1081.37 862.157 1026.99 863.331 972.835 861.786L971.366 860.453L971.374 857.215C1008.48 856.755 1045.62 856.967 1082.73 856.953C1100.01 856.947 1117.58 857.622 1134.81 856.799Z"/>
	<path fill="#06A57E" d="M734.141 289.792C737.267 289.563 740.45 289.241 743.467 290.297C747.875 291.841 751.827 295.07 753.833 299.336Q754.188 300.073 754.466 300.842Q754.745 301.611 754.945 302.405Q755.145 303.198 755.264 304.007Q755.383 304.817 755.42 305.634Q755.458 306.451 755.413 307.268Q755.368 308.085 755.241 308.893Q755.114 309.701 754.906 310.492Q754.699 311.284 754.413 312.05C752.336 317.592 748.302 320.37 743.123 322.744C739.924 323.111 737.028 323.274 733.9 322.344Q733.111 322.114 732.349 321.805Q731.588 321.497 730.861 321.113Q730.134 320.729 729.45 320.274Q728.765 319.819 728.13 319.298Q727.495 318.776 726.915 318.193Q726.336 317.61 725.818 316.972Q725.3 316.334 724.849 315.646Q724.398 314.959 724.019 314.23Q723.643 313.479 723.342 312.694Q723.041 311.91 722.819 311.099Q722.597 310.289 722.456 309.461Q722.315 308.632 722.257 307.794Q722.198 306.956 722.222 306.116Q722.247 305.276 722.353 304.442Q722.46 303.609 722.649 302.79Q722.837 301.971 723.105 301.175C725.022 295.383 728.9 292.462 734.141 289.792Z"/>
	<path fill="#06A57E" d="M168.038 319.234C171.23 319.009 174.766 318.953 177.835 319.939C182.606 321.473 186.761 324.81 188.941 329.358C190.977 333.606 191.072 338.421 189.377 342.794C186.998 348.933 182.588 351.685 176.849 354.313C173.652 354.643 170.613 354.608 167.538 353.602C162.836 352.062 158.853 348.907 156.618 344.453C154.439 340.111 154.26 335.238 155.926 330.7C158.16 324.619 162.408 321.878 168.038 319.234Z"/>
	<path fill="#06A57E" d="M544.998 591.246C548.191 591.134 551.66 591.493 554.612 592.771Q555.018 592.945 555.415 593.139Q555.812 593.334 556.198 593.548Q556.584 593.763 556.959 593.997Q557.334 594.23 557.696 594.483Q558.059 594.736 558.408 595.006Q558.757 595.277 559.092 595.565Q559.427 595.854 559.747 596.158Q560.067 596.463 560.371 596.784Q560.674 597.105 560.962 597.441Q561.249 597.777 561.518 598.127Q561.788 598.477 562.039 598.84Q562.291 599.203 562.523 599.579Q562.756 599.955 562.969 600.342Q563.182 600.729 563.376 601.126Q563.569 601.524 563.742 601.93Q563.914 602.337 564.066 602.752Q564.228 603.195 564.367 603.646Q564.507 604.097 564.623 604.554Q564.74 605.012 564.833 605.474Q564.926 605.937 564.996 606.404Q565.066 606.87 565.112 607.34Q565.158 607.81 565.181 608.281Q565.203 608.753 565.202 609.224Q565.201 609.696 565.175 610.168Q565.15 610.639 565.101 611.108Q565.052 611.578 564.98 612.044Q564.907 612.51 564.811 612.973Q564.715 613.435 564.596 613.891Q564.477 614.348 564.335 614.798Q564.193 615.248 564.028 615.69Q563.864 616.133 563.677 616.566Q563.49 617 563.282 617.423C560.504 623.075 556.235 625.728 550.448 627.669C547.376 627.697 544.448 627.466 541.617 626.214C536.849 624.105 532.925 620.336 531.052 615.429Q530.733 614.607 530.499 613.756Q530.266 612.906 530.119 612.036Q529.972 611.166 529.914 610.286Q529.856 609.406 529.887 608.525Q529.918 607.643 530.039 606.769Q530.159 605.895 530.367 605.038Q530.575 604.181 530.868 603.349Q531.162 602.518 531.538 601.72C534.333 595.741 539.057 593.377 544.998 591.246Z"/>
	<path fill="#06A57E" d="M368.122 544.29C371.14 544.487 373.944 545.037 376.628 546.471C381.397 549.017 384.908 553.021 386.387 558.263Q386.516 558.714 386.623 559.171Q386.729 559.628 386.813 560.09Q386.897 560.552 386.958 561.017Q387.018 561.482 387.056 561.95Q387.093 562.418 387.107 562.887Q387.121 563.356 387.112 563.825Q387.102 564.294 387.069 564.762Q387.037 565.23 386.981 565.696Q386.925 566.162 386.846 566.625Q386.766 567.087 386.664 567.545Q386.562 568.003 386.437 568.456Q386.313 568.908 386.165 569.354Q386.018 569.799 385.849 570.237Q385.68 570.675 385.489 571.103Q385.298 571.532 385.086 571.951Q384.875 572.369 384.642 572.777C381.33 578.689 376.603 580.712 370.339 582.541C365.999 581.868 362.019 581.189 358.34 578.645Q357.946 578.377 357.566 578.09Q357.185 577.803 356.82 577.497Q356.455 577.191 356.105 576.868Q355.755 576.544 355.422 576.203Q355.089 575.862 354.773 575.505Q354.458 575.148 354.16 574.776Q353.863 574.404 353.585 574.017Q353.306 573.63 353.048 573.23Q352.789 572.83 352.55 572.417Q352.312 572.005 352.094 571.581Q351.877 571.157 351.681 570.722Q351.485 570.288 351.311 569.844Q351.137 569.401 350.985 568.949Q350.833 568.497 350.704 568.038Q350.575 567.58 350.469 567.115Q350.364 566.65 350.281 566.181Q350.121 565.285 350.05 564.377Q349.979 563.469 349.998 562.559Q350.017 561.648 350.126 560.744Q350.235 559.84 350.432 558.951Q350.63 558.062 350.915 557.197Q351.199 556.333 351.568 555.5Q351.936 554.667 352.385 553.875Q352.834 553.083 353.359 552.339C357.092 547.133 362.013 545.265 368.122 544.29Z"/>
	<path fill="#FCFDFC" d="M1068.37 86.6611C1075.89 85.5286 1083.28 86.6689 1089.64 91.0105Q1090.21 91.3964 1090.75 91.8097Q1091.3 92.2231 1091.82 92.663Q1092.35 93.1028 1092.85 93.5681Q1093.35 94.0333 1093.83 94.5228Q1094.31 95.0124 1094.77 95.525Q1095.22 96.0376 1095.65 96.572Q1096.08 97.1064 1096.48 97.6614Q1096.88 98.2163 1097.26 98.7905Q1097.63 99.3646 1097.98 99.9565Q1098.32 100.548 1098.64 101.157Q1098.95 101.765 1099.24 102.388Q1099.52 103.011 1099.77 103.647Q1100.03 104.284 1100.25 104.932Q1100.47 105.58 1100.66 106.238Q1100.85 106.896 1101.01 107.563Q1101.17 108.23 1101.29 108.904Q1101.42 109.582 1101.51 110.266Q1101.61 110.95 1101.67 111.638Q1101.73 112.326 1101.76 113.016Q1101.78 113.706 1101.78 114.397Q1101.77 115.087 1101.73 115.777Q1101.69 116.466 1101.61 117.152Q1101.54 117.839 1101.43 118.521Q1101.32 119.202 1101.17 119.878Q1101.03 120.554 1100.86 121.221Q1100.68 121.889 1100.47 122.547Q1100.26 123.206 1100.02 123.853Q1099.78 124.5 1099.51 125.134Q1099.23 125.769 1098.93 126.389Q1098.63 127.009 1098.29 127.613Q1097.96 128.217 1097.6 128.805Q1097.23 129.392 1096.84 129.96C1092.53 136.118 1086.07 139.674 1078.77 140.896C1073.24 141.859 1067.25 141.255 1062.09 138.985C1055.69 136.169 1050.97 130.368 1048.56 123.905Q1048.32 123.257 1048.11 122.598Q1047.9 121.939 1047.72 121.271Q1047.54 120.602 1047.4 119.926Q1047.25 119.25 1047.14 118.567Q1047.03 117.884 1046.95 117.197Q1046.87 116.51 1046.83 115.819Q1046.78 115.129 1046.77 114.437Q1046.76 113.746 1046.78 113.054Q1046.81 112.363 1046.87 111.674Q1046.92 110.984 1047.01 110.299Q1047.1 109.613 1047.23 108.932Q1047.35 108.252 1047.51 107.578Q1047.67 106.905 1047.86 106.24Q1048.05 105.575 1048.27 104.92Q1048.49 104.265 1048.75 103.622Q1049 102.979 1049.29 102.349C1053.34 93.5228 1059.71 89.9207 1068.37 86.6611Z"/>
	<path fill="#FCFDFC" d="M128.032 467.99C127.774 456.516 125.6 440.704 131.926 430.649C135.918 424.305 142.489 420.348 149.738 418.841C160.783 416.544 178.87 416.338 188.458 422.811C194.952 427.194 198.223 432.838 199.741 440.412C199.111 449.573 199.403 458.844 199.438 468.024C175.663 468.059 151.793 467.533 128.032 467.99Z"/>
	<path fill="#0A2A56" d="M141.675 435.522C142.166 435.472 142.656 435.415 143.149 435.384C149.721 434.966 183.161 433.906 186.607 437.027L186.417 439.562C179.999 440.474 148.895 441.596 143.704 439.064C142.279 438.369 142.193 436.948 141.675 435.522Z"/>
	<path fill="#0A2A56" d="M139.455 450.734C147.627 450.622 182.362 448.864 187.349 451.831C188.031 452.237 188.181 454.198 188.362 455.011C181.01 455.738 144.708 456.922 139.999 453.758L139.455 450.734Z"/>
	<path fill="#11C0CB" d="M1134.81 856.799C1134.89 856.697 1134.97 856.595 1135.05 856.494C1138.52 852.237 1136.23 839.955 1138 833.898C1140.6 825 1146.97 819.002 1151.18 811.105C1151.27 810.952 1151.34 810.797 1151.42 810.643C1151.54 810.79 1151.66 810.936 1151.78 811.086C1164.25 827.298 1161.62 839.048 1183.46 849.707C1184.09 850.013 1183.85 849.85 1184.28 850.225C1187.31 849.553 1194.33 847.247 1197.03 848.346C1198.42 857.232 1199.4 899.661 1196.42 905.69C1195.73 905.778 1195.08 905.854 1194.38 905.867C1176.02 906.195 1152.57 897.787 1144.16 880.085C1141.85 875.208 1139.82 866.055 1135.95 862.589C1135.82 862.472 1135.68 862.368 1135.55 862.257C1136.86 860.657 1137.19 860.566 1137.22 858.42L1134.81 856.799Z"/>
	<path fill="#11C0CB" d="M220.222 898.234Q274.922 898.008 329.621 898.538L329.655 900.937C329.763 911.377 328.594 921.752 320.798 929.491C310.598 939.618 296.433 938.22 283.276 938.015L232.573 937.913C221.631 937.929 208.981 939.097 198.318 936.779C192.963 935.615 187.867 933.122 183.997 929.195C175.681 920.755 175.751 909.579 175.878 898.576L220.222 898.234Z"/>
	<path fill="#0BBBAD" d="M1620.58 180.423C1641.63 182.442 1665.22 198.653 1678.41 214.577C1690.92 229.664 1705.37 261.335 1703.01 281.315C1702.9 282.249 1702.62 282.85 1702.23 283.697C1691.93 283.629 1658.4 281.739 1650.07 284.401L1648.49 283.598L1647.09 284.36C1643.75 297.406 1649.92 330.661 1645.26 339.803C1645.55 339.183 1645.58 339.187 1645.78 338.405C1647.29 332.628 1646.74 287.295 1644.44 283.591L1620.85 283.563C1622.47 273.66 1620.93 253.457 1620.89 242.593C1620.82 222.178 1622.31 200.719 1620.58 180.423Z"/>
	<path fill="#FCFDFC" d="M1151.42 810.643C1167.58 796.65 1181.04 793.257 1202.23 794.688C1216.28 795.636 1228.63 801.91 1237.83 812.569Q1238.75 813.634 1239.61 814.742Q1240.48 815.85 1241.28 816.999Q1242.09 818.148 1242.85 819.335Q1243.6 820.522 1244.29 821.744Q1244.98 822.967 1245.62 824.221Q1246.25 825.476 1246.82 826.76Q1247.39 828.044 1247.9 829.355Q1248.4 830.665 1248.85 831.999Q1249.29 833.333 1249.67 834.686Q1250.04 836.04 1250.36 837.41Q1250.67 838.781 1250.91 840.165Q1251.15 841.549 1251.33 842.943Q1251.5 844.337 1251.61 845.739Q1251.72 847.14 1251.76 848.544Q1251.8 849.949 1251.77 851.354Q1251.74 852.759 1251.64 854.161Q1251.55 855.521 1251.39 856.874Q1251.23 858.228 1251 859.571Q1250.77 860.915 1250.48 862.246Q1250.19 863.577 1249.83 864.892Q1249.47 866.207 1249.05 867.503Q1248.63 868.799 1248.14 870.072Q1247.66 871.346 1247.11 872.593Q1246.56 873.841 1245.95 875.061Q1245.34 876.28 1244.68 877.468Q1244.01 878.656 1243.28 879.809Q1242.56 880.963 1241.78 882.079Q1240.99 883.195 1240.16 884.271Q1239.32 885.348 1238.43 886.381Q1237.55 887.415 1236.61 888.404Q1235.67 889.393 1234.69 890.334Q1233.7 891.276 1232.67 892.167C1222.6 900.799 1209.72 905.875 1196.42 905.69C1199.4 899.661 1198.42 857.232 1197.03 848.346C1194.33 847.247 1187.31 849.553 1184.28 850.225C1183.85 849.85 1184.09 850.013 1183.46 849.707C1161.62 839.048 1164.25 827.298 1151.78 811.086C1151.66 810.936 1151.54 810.79 1151.42 810.643Z"/>
	<path fill="#105895" d="M199.741 440.412C201.729 454.554 200.053 472.169 200.044 486.665C200.033 503.543 201.683 529.376 199.43 545.442C198.625 551.179 197.357 555.511 193.803 560.167C187.285 568.708 178.275 571.969 168.014 573.383C165.946 573.415 164.752 573.164 162.96 574.364C160.31 596.953 164.989 623.576 161.908 645.646C160.985 637.549 161.547 628.769 161.576 620.613L161.907 573.587C153.352 573.127 145.982 569.564 139.899 563.493C134.895 558.5 131.319 552.46 129.604 545.586C126.196 531.921 128.165 484.73 128.032 467.99C151.793 467.533 175.663 468.059 199.438 468.024C199.403 458.844 199.111 449.573 199.741 440.412Z"/>
	<path fill="#FCFDFC" d="M162.135 516.192C164.364 516.184 166.831 516.171 168.681 517.625C170.3 518.897 171.228 520.47 171.193 522.557C171.151 525.113 169.359 526.839 167.671 528.495C166.099 528.324 163.898 528.155 162.516 527.415C160.78 526.486 159.53 524.746 159.332 522.784C159.074 520.24 160.72 518.112 162.135 516.192Z"/>
	<path fill="#FCFDFC" d="M163.468 497.387C165.39 497.595 167.612 498.027 169.11 499.355C170.736 500.797 171.525 502.649 171.327 504.817C171.107 507.219 169.303 508.937 167.647 510.481C165.351 510.208 162.729 509.842 160.931 508.225C159.402 506.85 158.736 505.263 158.945 503.228C159.209 500.647 161.63 498.929 163.468 497.387Z"/>
	<path fill="#FCFDFC" d="M164.243 534.024C166.228 534.493 168.623 535.033 169.957 536.731C171.337 538.489 171.832 540.365 171.267 542.544C170.587 545.164 168.361 546.606 166.245 547.981C164.622 547.385 162.499 546.559 161.305 545.271C159.798 543.644 159.071 541.604 159.484 539.411C159.966 536.846 162.255 535.382 164.243 534.024Z"/>
	<path fill="#0BBBAD" d="M970.767 871.524C970.51 869.406 970.262 868.173 968.666 866.636C967.879 865.878 967.795 864.798 967.932 863.72C968.225 861.411 969.381 859.124 969.743 856.772C970.479 851.988 970.924 842.013 969.281 837.758L967.819 838.263C967.565 837.74 967.222 837.14 967.18 836.541C966.896 832.462 969.902 834.968 970.214 830.939C970.73 824.279 968.162 805.952 971.396 801.134C972.238 814.562 973.15 844.789 971.374 857.215L971.366 860.453L972.835 861.786C970.654 864.221 971.416 869.117 971.547 872.343Q971.786 904.687 971.68 937.031L843.167 936.953C842.792 900.776 840.765 863.358 843.212 827.297C845.456 848.676 844.338 870.492 844.569 891.979L845.346 892.518C846.395 891.043 846.14 888.81 846.167 887.044L847.632 886.948C847.662 884.987 847.679 883.033 847.843 881.077C850.971 878.143 857.627 878.404 861.623 878.499C862.885 878.528 864.059 878.706 865.28 879.033C869.275 875.544 873.196 871.851 877.652 868.953L877.858 869.592C877.963 869.911 878.083 870.224 878.179 870.545C878.232 870.725 878.259 870.912 878.306 871.093C878.921 873.507 881.832 876.5 884.059 877.596C891.324 881.174 900.752 883.166 908.537 885.67C911.347 884.261 912.862 882.058 915.982 881.479C917.279 882.257 920.945 885.003 922.26 885.248C929.671 886.624 929.714 881.682 937.505 888.427C943.31 889.16 958.515 889.8 963.374 886.688C966.026 884.989 966.668 881.169 966.991 878.284C967.284 875.67 966.962 873.049 967.41 870.456C968.424 870.849 969.686 871.553 970.767 871.524Z"/>
	<path fill="#DC5D7F" d="M355.417 822.223L425.491 822.211L425.643 937.043L355.508 936.981L355.417 822.223Z"/>
	<path fill="#0BBBAD" d="M1595.83 487.058C1600.31 483.017 1601.5 464.37 1614.77 453.637C1620.43 449.051 1628.32 445.259 1635.34 443.176C1638.02 442.381 1642.58 441.93 1644.79 440.425C1645 440.277 1645.21 440.119 1645.43 439.965L1648.84 440.958L1650.14 440.13C1669.22 444.633 1681.97 447.992 1693.09 465.82C1700.01 476.931 1702.75 490.346 1699.75 503.171C1696.6 516.629 1688.16 528.794 1676.3 535.968C1664.38 543.177 1650.04 544.781 1636.61 541.44C1623.76 538.243 1612.35 531.355 1605.64 519.748C1602.72 514.711 1597.15 494.328 1595.03 492.644C1597.16 492.73 1599.3 492.816 1601.42 492.779C1603.99 492.735 1605.64 492.135 1607.41 490.257L1606.88 488.781C1603.68 486.551 1599.56 487.031 1595.83 487.058Z"/>
	<path fill="#FCFDFC" d="M1647.3 468C1654 467.593 1660.86 469.613 1665.88 474.155Q1666.32 474.56 1666.74 474.986Q1667.16 475.413 1667.55 475.859Q1667.95 476.306 1668.33 476.771Q1668.7 477.237 1669.05 477.72Q1669.4 478.204 1669.73 478.704Q1670.06 479.204 1670.36 479.72Q1670.66 480.236 1670.94 480.766Q1671.21 481.296 1671.46 481.839Q1671.71 482.382 1671.94 482.937Q1672.16 483.492 1672.35 484.057Q1672.55 484.622 1672.72 485.196Q1672.88 485.77 1673.02 486.351Q1673.16 486.933 1673.27 487.52Q1673.38 488.108 1673.46 488.7Q1673.54 489.293 1673.59 489.888Q1673.64 490.484 1673.66 491.081C1673.92 497.41 1671.79 503.745 1667.42 508.384C1662.78 513.308 1656.67 515.477 1650.04 515.692C1645.79 515.89 1641.91 514.804 1638.18 512.8C1632.7 509.851 1629.05 504.68 1627.44 498.734C1625.69 492.304 1626.36 485.38 1629.83 479.631C1633.95 472.828 1639.77 469.735 1647.3 468Z"/>
	<path fill="#0BBBAD" d="M684.412 141.963Q684.384 143.007 684.313 144.049Q684.241 145.092 684.128 146.13Q684.014 147.169 683.857 148.201Q683.701 149.234 683.502 150.26Q683.303 151.285 683.062 152.302Q682.822 153.318 682.539 154.324Q682.257 155.33 681.934 156.323Q681.61 157.317 681.247 158.296Q680.883 159.275 680.479 160.238Q680.075 161.202 679.632 162.148Q679.188 163.094 678.707 164.02Q678.225 164.947 677.706 165.854Q677.187 166.76 676.63 167.644Q676.074 168.529 675.482 169.389Q674.89 170.25 674.263 171.085Q673.637 171.921 672.976 172.73C664.003 183.684 650.339 190.715 636.282 192.094C622.165 193.48 608.099 188.567 597.222 179.604C586.551 170.812 580.197 158.287 579.074 144.521C577.939 130.604 582.546 116.014 591.752 105.486Q592.641 104.487 593.579 103.533Q594.517 102.58 595.501 101.675Q596.486 100.77 597.514 99.9147Q598.542 99.0599 599.612 98.2576Q600.682 97.4554 601.791 96.7077Q602.9 95.96 604.045 95.2687Q605.189 94.5775 606.367 93.9444Q607.545 93.3113 608.754 92.738Q609.962 92.1647 611.197 91.6526Q612.432 91.1404 613.692 90.6908Q614.951 90.2412 616.231 89.8552Q617.512 89.4692 618.81 89.1478Q620.108 88.8263 621.42 88.5703Q622.733 88.3142 624.056 88.1242Q625.38 87.9342 626.711 87.8107Q628.043 87.6872 629.379 87.6305C643.436 86.9217 657.602 91.3961 668.002 101.035C677.381 109.728 683.789 122.966 684.162 135.817L684.183 136.762L684.412 141.963Z"/>
	<path fill="#FCFDFC" d="M624.978 117.541C631.1 116.889 635.82 117.033 641.486 119.697C647.421 122.488 652.242 127.631 654.408 133.849Q654.598 134.4 654.76 134.959Q654.923 135.518 655.057 136.085Q655.192 136.651 655.299 137.224Q655.406 137.796 655.484 138.373Q655.562 138.95 655.612 139.531Q655.662 140.111 655.683 140.693Q655.705 141.275 655.697 141.857Q655.69 142.439 655.654 143.021Q655.618 143.602 655.553 144.181Q655.488 144.759 655.395 145.334Q655.302 145.909 655.181 146.479Q655.06 147.049 654.911 147.611Q654.762 148.174 654.585 148.729Q654.408 149.284 654.205 149.83Q654.001 150.375 653.771 150.91Q653.54 151.445 653.284 151.968C649.666 159.323 643.701 162.686 636.254 165.296C630.603 165.688 625.284 165.995 619.974 163.684C613.914 161.047 609.095 156.373 606.73 150.144Q606.522 149.596 606.34 149.039Q606.159 148.482 606.005 147.916Q605.852 147.351 605.726 146.778Q605.601 146.206 605.504 145.628Q605.406 145.05 605.338 144.468Q605.269 143.886 605.229 143.302Q605.189 142.717 605.178 142.131Q605.167 141.545 605.185 140.959Q605.202 140.374 605.249 139.789Q605.296 139.205 605.371 138.624Q605.446 138.043 605.55 137.466Q605.654 136.889 605.786 136.318Q605.918 135.747 606.078 135.184Q606.238 134.62 606.425 134.065Q606.613 133.51 606.827 132.964Q607.042 132.419 607.283 131.885C610.849 124.148 617.26 120.318 624.978 117.541Z"/>
	<path fill="#0BBBAD" d="M519.912 782.658Q554.42 782.388 588.928 782.541C588.933 796.857 590.615 932.953 587.999 936.565L518.989 936.723C518.932 919.24 516.615 787.987 519.912 782.658Z"/>
	<path fill="#06A57E" d="M656.111 734.669L670.234 734.51L670.253 936.814L612.288 936.727L599.442 936.735C600.194 869.437 599.41 802.056 599.157 734.754C618.136 734.922 637.131 734.71 656.111 734.669Z"/>
	<path fill="#FCFDFC" d="M633.13 759.18C636.592 759.251 639.778 759.414 642.953 760.934C646.923 762.836 650.186 766.167 651.61 770.377C653.044 774.614 652.648 779.112 650.635 783.085C647.872 788.539 643.385 790.826 637.818 792.71C634.436 792.66 631.146 792.523 628.058 791.004C623.943 788.98 620.638 785.455 619.238 781.052C617.861 776.723 618.345 772.167 620.51 768.187C623.312 763.033 627.729 760.838 633.13 759.18Z"/>
	<path fill="#0A2A56" d="M631.102 765.366C632.517 765.278 633.937 765.205 635.356 765.233C638.576 765.296 641.508 766.888 643.631 769.283C645.466 771.352 646.249 774.091 645.931 776.826C645.404 781.361 642.49 783.601 639.085 786.077C637.531 786.329 635.647 786.656 634.072 786.501C631.291 786.229 628.363 784.658 626.664 782.426C625.002 780.244 624.46 777.599 624.752 774.91C625.247 770.349 627.746 768.089 631.102 765.366Z"/>
	<path fill="#FCFDFC" d="M630.993 866.69C634.281 866.571 637.487 866.44 640.609 867.64C645.088 869.363 648.693 872.685 650.635 877.09Q650.977 877.875 651.24 878.689Q651.502 879.504 651.684 880.34Q651.865 881.176 651.963 882.026Q652.062 882.876 652.076 883.732Q652.09 884.588 652.02 885.441Q651.95 886.294 651.796 887.135Q651.642 887.977 651.406 888.8Q651.171 889.623 650.855 890.418C648.487 896.269 644.437 898.62 638.827 900.909C635.965 900.955 633.05 901.038 630.284 900.198C625.708 898.807 621.69 895.596 619.557 891.295Q619.189 890.54 618.899 889.751Q618.61 888.962 618.403 888.148Q618.195 887.334 618.072 886.503Q617.948 885.672 617.91 884.832Q617.872 883.993 617.919 883.154Q617.967 882.315 618.1 881.486Q618.233 880.656 618.449 879.844Q618.666 879.032 618.964 878.247C621.172 872.309 625.407 869.202 630.993 866.69Z"/>
	<path fill="#0A2A56" d="M630.905 872.925C633.075 872.746 635.308 872.62 637.453 873.096C640.361 873.74 643.346 875.955 644.853 878.53C646.335 881.061 646.759 883.773 645.977 886.615C644.826 890.8 641.961 892.605 638.47 894.657C637.531 894.794 636.637 894.849 635.686 894.863C632.371 894.913 629.064 894.095 626.701 891.592C624.653 889.423 623.82 886.567 624.05 883.623C624.442 878.601 627.23 875.837 630.905 872.925Z"/>
	<path fill="#99DBE5" d="M435.194 734.627C459.273 734.648 483.564 733.664 507.606 734.868Q508.468 835.87 507.625 936.873L435.282 936.819L434.712 785.313C434.688 775.313 432.981 742.767 435.194 734.627Z"/>
	<path fill="#0A2A56" d="M1620.85 283.563L1644.44 283.591C1646.74 287.295 1647.29 332.628 1645.78 338.405C1645.58 339.187 1645.55 339.183 1645.26 339.803C1645.87 341.058 1646.29 342.256 1646.38 343.653C1647.05 354.373 1647.75 432.522 1646 438.579C1645.86 439.072 1645.64 439.496 1645.43 439.965C1645.21 440.119 1645 440.277 1644.79 440.425C1642.58 441.93 1638.02 442.381 1635.34 443.176C1628.32 445.259 1620.43 449.051 1614.77 453.637C1601.5 464.37 1600.31 483.017 1595.83 487.058C1599.56 487.031 1603.68 486.551 1606.88 488.781L1607.41 490.257C1605.64 492.135 1603.99 492.735 1601.42 492.779C1599.3 492.816 1597.16 492.73 1595.03 492.644C1581.18 491.95 1568.31 494.58 1555.12 488.775C1550.59 484.868 1545.57 480.398 1543.22 474.775C1535.11 455.34 1545.08 374.789 1539.14 362.949C1542.02 358.323 1539.83 350.961 1540.64 345.665C1540.92 343.827 1540.78 343.477 1542.24 342.356L1544.18 343.138C1555.25 339.287 1583.45 344.139 1597.92 341.241C1605.45 339.733 1612.41 336.062 1616.63 329.458C1622.76 319.868 1623.11 294.501 1620.85 283.563Z"/>
	<path fill="#FCFDFC" d="M1553.2 482.605C1566.42 488.587 1581.5 488.448 1595.83 487.058C1599.56 487.031 1603.68 486.551 1606.88 488.781L1607.41 490.257C1605.64 492.135 1603.99 492.735 1601.42 492.779C1599.3 492.816 1597.16 492.73 1595.03 492.644C1581.18 491.95 1568.31 494.58 1555.12 488.775L1555.38 487.004L1552.05 483.299L1553.2 482.605Z"/>
	<path fill="#FCFDFC" d="M1539.14 362.949C1542.02 358.323 1539.83 350.961 1540.64 345.665C1540.92 343.827 1540.78 343.477 1542.24 342.356L1544.18 343.138C1544.25 343.331 1544.33 343.523 1544.39 343.719C1547.04 351.858 1545.26 436.752 1545.26 452.734C1545.26 457.784 1544.65 464.325 1545.97 469.201C1547.06 473.189 1553.23 479.134 1553.2 482.605L1552.05 483.299L1555.38 487.004L1555.12 488.775C1550.59 484.868 1545.57 480.398 1543.22 474.775C1535.11 455.34 1545.08 374.789 1539.14 362.949Z"/>
	<path fill="#0BBBAD" d="M185.584 153.822C186.239 141.002 188.528 128.821 195.553 117.808C206.458 100.711 223.338 90.8324 242.822 86.5084C245.207 91.1386 244.786 225.343 242.463 238.193C235.861 231.246 228.985 222.408 221.273 216.86C219.259 217.169 219.207 217.422 217.848 218.822C218.147 223.892 247.575 250.123 252.42 256.605L252.428 278.124L200.626 278.295C189.973 278.321 178.738 279.026 168.18 277.461C150.968 274.911 135.463 266.132 125.151 251.985Q124.21 250.693 123.334 249.356Q122.459 248.019 121.651 246.64Q120.843 245.261 120.105 243.843Q119.366 242.426 118.7 240.973Q118.033 239.521 117.44 238.036Q116.846 236.552 116.328 235.04Q115.809 233.529 115.366 231.993Q114.923 230.457 114.558 228.901Q114.192 227.345 113.905 225.773Q113.617 224.201 113.408 222.616Q113.199 221.031 113.069 219.438Q112.94 217.845 112.89 216.247Q112.839 214.65 112.869 213.052Q112.898 211.454 113.008 209.859Q113.117 208.264 113.305 206.677Q113.494 205.09 113.761 203.514Q113.998 202.028 114.309 200.555Q114.621 199.082 115.006 197.628Q115.391 196.173 115.849 194.739Q116.307 193.305 116.836 191.896Q117.366 190.487 117.966 189.107Q118.566 187.727 119.234 186.378Q119.903 185.03 120.639 183.717Q121.375 182.404 122.176 181.13Q122.977 179.856 123.841 178.623Q124.705 177.391 125.63 176.204Q126.555 175.017 127.539 173.878Q128.522 172.739 129.562 171.651Q130.602 170.563 131.695 169.529Q132.789 168.495 133.933 167.517Q135.077 166.539 136.269 165.62Q137.46 164.702 138.697 163.844C152.704 154.128 168.91 150.711 185.584 153.822Z"/>
	<path fill="#0BBBAD" d="M258.313 85.663C279.246 87.9446 297.418 94.5924 311.045 111.682C320.491 123.529 325.712 136.992 327.417 152.023C347.262 150.673 365.62 155.118 380.916 168.258C393.431 179.008 401.297 195.209 402.432 211.633C403.442 226.241 398.446 232.302 394.707 245.166C390.87 249.514 387.692 254.326 383.64 258.504C372.181 270.32 355.536 276.994 339.279 277.997C326.119 278.809 312.781 277.45 299.626 278.301L257.57 278.333C258.184 270.778 257.717 262.859 257.719 255.263C269.851 245.536 284.371 231.607 292.849 218.583L292.389 217.368L290.178 217.152C281.185 221.025 265.325 240.065 257.758 247.907C257.852 193.864 257.167 139.688 258.313 85.663Z"/>
	<path fill="#FCFDFC" d="M819.154 136.206C841.704 111.831 868.917 96.7533 902.644 95.4105Q904.065 95.3508 905.487 95.3261Q906.909 95.3014 908.332 95.3116Q909.754 95.3219 911.176 95.3671Q912.598 95.4123 914.018 95.4924Q915.438 95.5725 916.856 95.6875Q918.273 95.8025 919.688 95.9523Q921.102 96.1021 922.513 96.2866Q923.923 96.4711 925.329 96.6902Q926.734 96.9093 928.134 97.1629Q929.534 97.4165 930.927 97.7044Q932.319 97.9923 933.705 98.3144Q935.09 98.6364 936.468 98.9924Q937.845 99.3484 939.213 99.7381Q940.581 100.128 941.939 100.551Q943.297 100.974 944.644 101.431Q945.991 101.887 947.327 102.377Q948.662 102.866 949.986 103.388Q951.309 103.91 952.619 104.465Q953.929 105.019 955.225 105.606Q956.521 106.192 957.802 106.811Q959.083 107.429 960.348 108.078Q961.614 108.728 962.863 109.408Q964.112 110.088 965.344 110.799Q966.577 111.51 967.791 112.251Q969.005 112.992 970.201 113.763Q971.397 114.533 972.573 115.333Q973.75 116.133 974.906 116.961Q976.062 117.789 977.198 118.646Q978.334 119.502 979.448 120.387Q980.563 121.271 981.655 122.182Q982.747 123.093 983.817 124.031Q984.887 124.969 985.933 125.933C1008.83 147.107 1021.85 175.2 1023.05 206.363Q1023.09 207.599 1023.1 208.836C1068.55 208.694 1114.36 210.137 1159.76 208.79L1161.79 210.392C1161.69 212.46 1161.42 212.61 1160.2 214.182L1023.05 214.023C1020.62 246.361 1008.94 276.559 983.912 298.184C962.544 316.646 937.397 324.935 909.588 326.943L909.407 382.443C909.408 392.879 909.998 403.704 909.154 414.095C908.336 420.4 911.322 425.704 911.38 432.014L911.491 493.133C911.547 505.577 912.241 518.373 911.52 530.783C908.989 530.883 906.83 530.896 904.34 530.268C902.098 523.34 903.116 432.845 903.834 417.817C904.702 387.592 903.998 357.194 903.93 326.951C874.585 324.5 849.13 315.647 827.238 295.218C803.842 273.387 792.567 243.983 791.442 212.503L725.378 212.439C714.132 212.41 702.415 211.664 691.246 212.77Q690.044 212.878 688.859 213.107Q687.675 213.337 686.52 213.686Q685.364 214.034 684.251 214.499Q683.137 214.963 682.076 215.538Q681.55 215.817 681.039 216.122Q680.528 216.428 680.034 216.76Q679.539 217.092 679.063 217.448Q678.586 217.805 678.129 218.186Q677.671 218.567 677.234 218.972Q676.797 219.376 676.381 219.802Q675.966 220.228 675.573 220.676Q675.18 221.123 674.81 221.59Q674.441 222.057 674.096 222.542Q673.751 223.028 673.432 223.531Q673.113 224.033 672.82 224.552Q672.528 225.07 672.262 225.603Q671.997 226.136 671.759 226.682Q671.522 227.228 671.313 227.786Q671.104 228.343 670.924 228.911Q670.744 229.479 670.594 230.055C667.799 240.749 669.748 257.378 669.786 268.876L669.994 367.681C670.037 383.041 672.226 423.99 668.471 436.134C666.292 443.182 660.872 449.219 654.334 452.513C650.875 454.256 647.068 455.314 643.238 455.835C636.525 456.748 610.653 457.462 604.578 455.53L604.007 453.955L604.871 452.503C612.637 448.364 629.277 450.99 638.276 450.854C648.356 450.703 658.541 445.609 662.666 435.987C666.879 426.163 664.808 404.434 664.787 393.435L664.851 287.525C664.773 270.745 662.78 247.764 665.163 231.871C666.085 225.728 668.156 220.843 672.592 216.397Q673.349 215.629 674.16 214.918Q674.971 214.208 675.832 213.559Q676.693 212.91 677.6 212.326Q678.506 211.742 679.453 211.226Q680.4 210.711 681.382 210.266Q682.365 209.821 683.377 209.45Q684.389 209.079 685.426 208.783Q686.463 208.488 687.519 208.269C697.748 206.209 710.483 207.656 720.98 207.651L791.652 207.589C792.364 182.897 801.242 161.906 814.828 141.618Q749.621 142.157 684.412 141.963L684.183 136.762Q751.67 136.89 819.154 136.206Z"/>
	<path fill="#105895" d="M903.134 124.885C913.058 125.955 906.865 127.136 910.433 130.665C911.283 131.505 927.41 134.591 930.547 135.486C937.668 137.52 944.695 140.541 950.829 144.704C972.971 159.735 981.727 179.938 986.567 205.329C987.866 206.199 989.184 206.994 990.54 207.773C990.91 209.751 991.183 209.936 990.118 211.739C988.805 212.038 986.441 212.327 985.817 213.764C984.874 215.935 985.024 221.338 984.572 224.001Q984.165 226.333 983.616 228.637Q983.068 230.94 982.379 233.205Q981.691 235.471 980.865 237.69Q980.039 239.909 979.08 242.073Q978.12 244.237 977.03 246.339Q975.939 248.44 974.723 250.471Q973.506 252.502 972.167 254.455Q970.828 256.408 969.373 258.275C953.678 278.749 933.053 286.141 908.254 289.373C906.8 291.785 907.401 295.691 907.418 298.553C906.111 300.011 905.417 300.443 903.499 300.871L901.891 299.587C900.463 296.29 900.571 293.092 900.534 289.564C895.361 288.601 890.232 287.564 885.184 286.061C859.01 278.271 838.267 258.144 831.031 231.615C829.627 226.468 829.992 217.305 827.728 213.119C825.779 212.581 824.327 212.279 822.893 210.796L823.018 207.927C824.492 205.892 825.725 206.078 828.047 205.592C830.177 201.504 829.789 195.9 830.66 191.386C835.652 165.526 859.059 142.705 883.557 135.25C887.926 133.92 898.932 133.223 901.868 130.723C902.736 129.985 902.935 126.135 903.134 124.885Z"/>
	<path fill="#FCFDFC" d="M834.481 212.512L854.791 212.461C856.067 224.16 859.238 235.038 866.643 244.433C874.933 254.952 887.727 261.739 900.972 263.327L901.038 282.84C884.885 280.344 870.368 275.71 857.956 264.518C842.491 250.573 835.565 233.155 834.481 212.512Z"/>
	<path fill="#FCFDFC" d="M897.239 137.954C899.502 137.763 900.273 137.326 902.179 138.656C903.986 144.255 903.007 150.914 902.855 156.764C893.515 158.715 884.704 162.186 876.926 167.771C863.453 177.445 857.327 190.294 854.833 206.281L841.35 206.302C839.612 206.371 838.199 206.23 836.511 205.805C836.109 205.199 835.784 204.714 835.615 203.994C833.27 193.989 841.614 177.689 847.104 169.399C859.184 151.158 876.225 142.165 897.239 137.954Z"/>
	<path fill="#FCFDFC" d="M909.559 136.888C926.945 138.945 941.982 144.104 955.28 155.805C970.489 169.188 978.362 186.301 979.672 206.315L959.929 206.369C958.943 197.45 956.809 189.499 951.823 181.906C941.624 166.371 926.787 160.554 909.434 156.868L909.559 136.888Z"/>
	<path fill="#FCFDFC" d="M959.972 212.496L979.783 212.515C979.156 224.259 976.558 234.578 970.933 244.929C960.804 263.565 945.1 274.537 925.099 280.534C919.131 281.735 913.418 282.355 907.351 282.745L907.37 263.049C918.14 261.822 927.755 259.645 936.923 253.435C951.8 243.359 956.749 229.306 959.972 212.496Z"/>
	<path fill="#FCFDFC" d="M900.206 164.581L901.526 164.638C903.731 166.64 903.346 172.064 903.525 175.077C904.719 176.894 904.738 176.883 906.841 177.448L908.289 176.496C909.868 172.608 909.515 168.093 909.551 163.955C918.22 165.885 925.779 168.068 933.19 173.282C941.316 179 949.658 189.055 951.29 199.125C951.613 201.12 951.959 204.224 950.74 205.909L945.908 206.589C944.441 208.391 944.794 208.641 944.998 210.868C947.09 212.898 948.936 212.062 951.575 212.981C952.744 215.818 952.48 218.765 951.651 221.656C947.917 234.691 937.43 245.456 925.817 251.804C916.122 255.985 905.604 257.049 895.337 254.362Q894.263 254.091 893.203 253.767Q892.144 253.442 891.102 253.065Q890.06 252.688 889.039 252.259Q888.017 251.829 887.019 251.349Q886.02 250.87 885.047 250.34Q884.073 249.811 883.128 249.233Q882.182 248.655 881.267 248.031Q880.352 247.406 879.469 246.737Q878.586 246.067 877.738 245.354Q876.89 244.641 876.079 243.886Q875.268 243.131 874.496 242.336Q873.723 241.542 872.992 240.709Q872.261 239.877 871.572 239.009Q870.883 238.141 870.239 237.239Q869.595 236.337 868.997 235.405Q868.399 234.472 867.848 233.51C864.963 228.488 860.87 218.81 862.438 213.005C863.802 212.753 865.064 212.564 866.207 211.721C867.341 210.884 867.188 209.737 867.425 208.4C866.099 205.506 864.579 206.903 862.403 204.91C862.207 198.731 864.476 192.745 867.682 187.549C875.145 175.453 886.592 167.909 900.206 164.581Z"/>
	<path fill="#105895" d="M902.763 182.369C909.57 181.821 915.807 182.532 921.777 186.107C928.426 190.089 933.045 196.874 934.799 204.38Q934.97 205.12 935.105 205.868Q935.24 206.615 935.338 207.369Q935.435 208.122 935.496 208.879Q935.556 209.637 935.579 210.396Q935.603 211.155 935.588 211.915Q935.574 212.674 935.522 213.432Q935.47 214.19 935.381 214.945Q935.292 215.699 935.166 216.448Q935.04 217.197 934.877 217.939Q934.714 218.681 934.514 219.414Q934.315 220.147 934.08 220.87Q933.845 221.592 933.574 222.302Q933.304 223.012 932.998 223.707Q932.693 224.403 932.354 225.083Q932.015 225.763 931.643 226.425Q931.27 227.087 930.866 227.73C925.912 235.541 918.869 239.559 910.043 241.611C903.515 242.111 897.427 241.016 891.714 237.687Q891.088 237.319 890.48 236.92Q889.873 236.521 889.286 236.093Q888.699 235.664 888.134 235.207Q887.568 234.751 887.026 234.267Q886.484 233.783 885.967 233.273Q885.449 232.762 884.957 232.227Q884.466 231.692 884.001 231.134Q883.536 230.575 883.099 229.994Q882.663 229.413 882.255 228.812Q881.847 228.21 881.47 227.589Q881.093 226.968 880.746 226.329Q880.4 225.69 880.085 225.035Q879.771 224.38 879.489 223.71Q879.207 223.04 878.959 222.357Q878.71 221.674 878.496 220.98Q878.281 220.285 878.101 219.581Q877.914 218.876 877.763 218.163Q877.611 217.45 877.496 216.73Q877.38 216.01 877.3 215.286Q877.221 214.561 877.177 213.833Q877.134 213.106 877.127 212.377Q877.12 211.648 877.149 210.919Q877.178 210.191 877.243 209.465Q877.309 208.739 877.411 208.017Q877.512 207.295 877.65 206.579Q877.787 205.863 877.96 205.155Q878.133 204.446 878.341 203.748Q878.549 203.049 878.791 202.361Q879.034 201.674 879.31 200.999Q879.587 200.325 879.897 199.665Q880.206 199.005 880.549 198.361Q880.891 197.718 881.265 197.092C886.239 188.728 893.606 184.747 902.763 182.369Z"/>
	<path fill="#FCFDFC" d="M903.497 189.405C908.198 189.272 912.16 189.497 916.45 191.584C921.951 194.259 925.932 198.916 927.79 204.739Q927.958 205.275 928.098 205.818Q928.239 206.362 928.353 206.912Q928.466 207.462 928.553 208.016Q928.639 208.571 928.697 209.13Q928.756 209.688 928.787 210.248Q928.817 210.809 928.82 211.371Q928.823 211.932 928.798 212.493Q928.773 213.054 928.72 213.613Q928.667 214.172 928.587 214.727Q928.506 215.283 928.398 215.834Q928.29 216.385 928.155 216.93Q928.02 217.475 927.858 218.012Q927.696 218.55 927.507 219.079Q927.318 219.608 927.104 220.126Q926.889 220.645 926.649 221.153Q926.409 221.66 926.144 222.155C922.714 228.541 917.512 231.761 910.774 233.884C905.522 233.859 901.03 233.88 896.238 231.464C890.927 228.786 886.831 224.23 884.973 218.56Q884.804 218.045 884.661 217.523Q884.519 217 884.402 216.471Q884.286 215.942 884.197 215.408Q884.107 214.873 884.045 214.335Q883.982 213.797 883.947 213.257Q883.912 212.716 883.904 212.175Q883.896 211.633 883.915 211.092Q883.934 210.55 883.98 210.01Q884.027 209.471 884.1 208.934Q884.174 208.397 884.274 207.865Q884.375 207.333 884.502 206.806Q884.629 206.28 884.782 205.76Q884.936 205.24 885.115 204.729Q885.294 204.218 885.499 203.717Q885.704 203.215 885.934 202.725Q886.164 202.234 886.418 201.756C890.148 194.797 896.206 191.588 903.497 189.405Z"/>
	<path fill="#105895" d="M903.809 201.619C904.54 201.621 905.267 201.631 905.996 201.696C909.178 201.982 912.26 203.495 914.213 206.071C916.004 208.435 916.358 211.106 915.781 213.957C914.929 218.167 912.132 220.023 908.786 222.171C907.612 222.228 906.29 222.337 905.129 222.106C902.553 221.593 899.893 219.872 898.422 217.685C896.928 215.467 896.684 212.605 897.203 210.036C898.058 205.814 900.502 203.923 903.809 201.619Z"/>
	<path fill="#FCFDFC" d="M252.926 85.6083L258.313 85.663C257.167 139.688 257.852 193.864 257.758 247.907C265.325 240.065 281.185 221.025 290.178 217.152L292.389 217.368L292.849 218.583C284.371 231.607 269.851 245.536 257.719 255.263C257.717 262.859 258.184 270.778 257.57 278.333C254.838 386.306 258.577 494.525 257.226 602.519C290.702 606.009 319.375 618.277 341.095 644.952Q341.962 646.024 342.802 647.117Q343.642 648.209 344.455 649.322Q345.268 650.435 346.054 651.568Q346.839 652.7 347.597 653.852Q348.354 655.003 349.084 656.173Q349.813 657.343 350.513 658.53Q351.213 659.717 351.884 660.921Q352.555 662.125 353.197 663.346Q353.838 664.566 354.449 665.801Q355.06 667.037 355.641 668.287Q356.222 669.537 356.772 670.801Q357.322 672.065 357.84 673.342Q358.359 674.619 358.847 675.908Q359.334 677.198 359.79 678.499Q360.245 679.8 360.669 681.111Q361.092 682.423 361.484 683.745Q361.875 685.067 362.234 686.398Q362.593 687.728 362.919 689.068Q363.245 690.407 363.538 691.754Q363.832 693.101 364.092 694.455Q364.352 695.808 364.579 697.168Q364.806 698.528 364.999 699.892Q365.193 701.257 365.353 702.626Q365.513 703.996 365.639 705.368Q365.765 706.741 365.858 708.116Q365.951 709.491 366.01 710.869Q366.069 712.246 366.094 713.624Q366.119 715.002 366.111 716.381Q366.102 717.759 366.06 719.137Q366.018 720.515 365.942 721.891Q365.866 723.268 365.756 724.642Q365.646 726.016 365.503 727.387C362.998 751.347 353.417 775.718 336.322 793.006C326.089 803.355 315.55 811.996 310.307 826.122C305.08 840.204 305.421 854.994 305.553 869.779L199.903 870.02C199.974 845.304 199.94 823.192 181.111 804.253C175.121 798.228 168.554 792.643 163.051 786.16C146.24 766.357 137.88 740.135 137.951 714.366C138.014 691.466 145.687 670.23 158.606 651.516C159.563 650.13 162.409 647.065 161.908 645.646C164.989 623.576 160.31 596.953 162.96 574.364C164.752 573.164 165.946 573.415 168.014 573.383L167.76 640.438Q169.675 638.213 171.702 636.09C193.098 613.776 222.081 603.199 252.58 602.438L252.428 278.124L252.42 256.605C247.575 250.123 218.147 223.892 217.848 218.822C219.207 217.422 219.259 217.169 221.273 216.86C228.985 222.408 235.861 231.246 242.463 238.193C244.786 225.343 245.207 91.1386 242.822 86.5084L252.926 85.6083Z"/>
	<path fill="#06A57E" d="M242.822 86.5084L252.926 85.6083L252.794 248.526L242.463 238.193C244.786 225.343 245.207 91.1386 242.822 86.5084Z"/>
	<path fill="#DC5D7F" d="M258.953 796.145C263.229 795.633 267.491 794.897 271.749 794.244C271.514 802.962 273.36 839.319 268.817 844.276C267.788 845.398 265.839 845.537 264.359 845.591C258.805 845.794 239.631 847.009 236.157 843.698C232.376 833.63 234.769 806.499 234.908 794.592Q241.449 795.733 248.053 796.43C251.684 796.466 255.324 796.275 258.953 796.145Z"/>
	<path fill="#11C0CB" d="M234.908 794.592C211.268 787.285 192.883 774.544 181.173 752.332Q180.274 750.657 179.459 748.94Q178.644 747.223 177.915 745.467Q177.186 743.711 176.545 741.922Q175.904 740.133 175.352 738.314Q174.8 736.495 174.339 734.651Q173.878 732.807 173.508 730.942Q173.139 729.077 172.862 727.197Q172.585 725.316 172.402 723.424Q172.219 721.532 172.129 719.633Q172.039 717.734 172.044 715.833Q172.048 713.932 172.147 712.034Q172.245 710.136 172.438 708.245Q172.63 706.354 172.916 704.474Q173.201 702.595 173.579 700.732Q173.958 698.869 174.428 697.027Q174.898 695.185 175.458 693.369Q175.747 692.412 176.06 691.464Q176.373 690.515 176.71 689.574Q177.046 688.633 177.407 687.701Q177.767 686.769 178.15 685.846Q178.534 684.924 178.941 684.011Q179.348 683.098 179.777 682.196Q180.207 681.294 180.659 680.403Q181.111 679.512 181.586 678.633Q182.06 677.753 182.556 676.886Q183.053 676.019 183.571 675.165Q184.089 674.31 184.629 673.469Q185.168 672.628 185.729 671.801Q186.289 670.974 186.87 670.161Q187.451 669.348 188.053 668.55Q188.654 667.752 189.275 666.97Q189.896 666.187 190.537 665.42Q191.178 664.654 191.838 663.904Q192.498 663.153 193.176 662.42Q193.855 661.687 194.552 660.97Q195.248 660.254 195.963 659.556Q196.678 658.858 197.41 658.178Q198.142 657.498 198.89 656.836Q199.639 656.175 200.405 655.532Q201.17 654.89 201.951 654.267Q202.732 653.644 203.529 653.041Q204.325 652.438 205.137 651.856Q205.948 651.273 206.774 650.711Q207.6 650.149 208.44 649.607Q209.28 649.066 210.133 648.546Q210.986 648.027 211.852 647.528Q212.718 647.03 213.597 646.554Q214.475 646.078 215.365 645.624Q216.254 645.171 217.155 644.739Q218.055 644.308 218.965 643.899Q219.876 643.49 220.796 643.103Q221.717 642.716 222.646 642.353Q223.576 641.989 224.514 641.647Q225.452 641.306 226.398 640.988Q227.344 640.67 228.298 640.376Q229.252 640.081 230.213 639.81Q231.173 639.539 232.14 639.291Q233.107 639.044 234.08 638.82Q235.053 638.596 236.031 638.396Q237.009 638.197 237.992 638.021Q238.974 637.845 239.961 637.693Q240.948 637.542 241.938 637.414Q242.928 637.287 243.921 637.184Q244.913 637.081 245.909 637.002Q246.904 636.923 247.9 636.869Q248.897 636.815 249.895 636.785Q250.893 636.755 251.891 636.75Q252.889 636.745 253.887 636.764Q254.885 636.783 255.882 636.827Q256.88 636.87 257.875 636.938Q258.871 637.007 259.865 637.099Q260.859 637.192 261.85 637.308Q262.842 637.425 263.83 637.566Q264.818 637.707 265.803 637.873Q266.787 638.038 267.767 638.228Q268.747 638.417 269.722 638.63Q270.698 638.844 271.667 639.081Q272.637 639.318 273.6 639.579Q274.564 639.84 275.521 640.125Q276.477 640.409 277.427 640.717Q278.361 641.018 279.288 641.342Q280.214 641.666 281.132 642.013Q282.051 642.36 282.96 642.73Q283.869 643.1 284.769 643.492Q285.668 643.885 286.558 644.299Q287.448 644.714 288.327 645.151Q289.206 645.588 290.074 646.046Q290.942 646.505 291.798 646.985Q292.654 647.465 293.498 647.966Q294.342 648.467 295.173 648.989Q296.004 649.511 296.822 650.054Q297.64 650.596 298.444 651.159Q299.249 651.722 300.039 652.305Q300.828 652.888 301.604 653.49Q302.379 654.092 303.139 654.714Q303.899 655.335 304.643 655.975Q305.387 656.615 306.115 657.274Q306.843 657.932 307.554 658.609Q308.266 659.285 308.96 659.979Q309.654 660.673 310.331 661.384Q311.008 662.095 311.667 662.823Q312.326 663.55 312.966 664.294Q313.607 665.038 314.228 665.798Q314.85 666.557 315.453 667.332Q316.056 668.107 316.639 668.897Q317.222 669.686 317.785 670.49Q318.349 671.294 318.892 672.112Q319.435 672.93 319.957 673.761Q320.48 674.592 320.982 675.436Q321.483 676.28 321.964 677.136Q322.445 677.992 322.904 678.859Q323.363 679.727 323.8 680.606Q324.247 681.489 324.671 682.383Q325.096 683.277 325.499 684.181Q325.901 685.085 326.281 685.999Q326.661 686.913 327.018 687.836Q327.376 688.759 327.71 689.69Q328.044 690.622 328.355 691.561Q328.667 692.501 328.954 693.448Q329.242 694.395 329.506 695.349Q329.771 696.302 330.011 697.262Q330.252 698.222 330.469 699.188Q330.685 700.154 330.878 701.124Q331.071 702.095 331.239 703.07Q331.408 704.046 331.552 705.025Q331.697 706.004 331.817 706.986Q331.937 707.969 332.033 708.954Q332.129 709.939 332.2 710.926Q332.272 711.913 332.319 712.902Q332.366 713.89 332.388 714.88Q332.411 715.869 332.409 716.859Q332.407 717.849 332.38 718.838Q332.354 719.828 332.303 720.816Q332.252 721.804 332.176 722.791Q332.101 723.778 332.001 724.763Q331.901 725.747 331.777 726.729Q331.653 727.711 331.504 728.69Q331.356 729.668 331.183 730.643Q331.01 731.617 330.814 732.587Q330.617 733.557 330.396 734.522Q330.176 735.487 329.931 736.446Q329.687 737.405 329.418 738.358Q329.15 739.31 328.859 740.256Q328.567 741.202 328.252 742.14C321.468 762.455 305.822 779.225 286.76 788.678C281.964 791.056 276.908 792.835 271.749 794.244C267.491 794.897 263.229 795.633 258.953 796.145C255.324 796.275 251.684 796.466 248.053 796.43Q241.45 795.733 234.908 794.592Z"/>
	<path fill="#0A2A56" d="M248.059 737.546C248.156 727.682 245.758 705.27 250.04 697.797C251.234 695.713 252.753 694.071 255.129 693.458L256.987 694.604C261.673 703.623 259.338 727.491 259.307 738.277C263.91 733.518 274.889 719.593 279.726 717.127C281.631 716.156 283.268 716.477 285.167 717.211C286.927 719.096 287.052 719.371 287.452 721.92C285.828 728.466 265.039 745.043 259.241 751.706L258.953 796.145C255.324 796.275 251.684 796.466 248.053 796.43L248.079 751.304C241.327 743.803 221.149 729.727 220.461 719.646C221.448 717.51 221.74 717.596 223.766 716.609C230.668 717.386 242.436 732.289 248.059 737.546Z"/>
	<path fill="#FCFDFC" d="M1455.37 117.255C1484.66 118.458 1514.29 117.464 1543.6 117.328C1555.48 117.273 1570.05 115.65 1581.64 118.136C1585.29 118.917 1588.16 121.053 1590.62 123.779C1592.18 125.513 1594.01 127.971 1593.9 130.387C1596.36 134.613 1596.06 170.354 1594.66 175.595C1594.54 176.045 1594.4 176.489 1594.25 176.93C1602.03 178.52 1613.84 176.146 1620.58 180.423C1622.31 200.719 1620.82 222.178 1620.89 242.593C1620.93 253.457 1622.47 273.66 1620.85 283.563C1623.11 294.501 1622.76 319.868 1616.63 329.458C1612.41 336.062 1605.45 339.733 1597.92 341.241C1583.45 344.139 1555.25 339.287 1544.18 343.138L1542.24 342.356C1540.78 343.477 1540.92 343.827 1540.64 345.665C1539.83 350.961 1542.02 358.323 1539.14 362.949C1540.45 358.056 1541.29 347.045 1538.76 342.637C1538.68 342.501 1538.59 342.371 1538.51 342.238L1484.26 342.207C1487.36 347.074 1486.99 368.812 1485.46 374.859C1485.24 375.718 1484.87 376.525 1484.45 377.299C1486.19 372.382 1486.42 350.334 1484.99 345.315C1484.4 343.251 1484.13 343.01 1482.27 342.023C1478.42 345.202 1481.6 360.437 1479.38 365.988C1479.3 366.18 1479.21 366.366 1479.13 366.555C1479.29 366.162 1479.53 365.615 1479.64 365.182C1481 359.917 1480.92 346.936 1478.49 342.179C1441.97 342.213 1405.31 342.932 1368.8 342.003C1371.38 336.746 1371.16 308.39 1369.19 302.079C1369.53 301.327 1369.85 300.532 1370.01 299.717C1371.82 290.227 1370.07 253.609 1370.02 241.997C1369.88 202.431 1371.6 162.291 1369.62 122.811C1369.51 120.731 1369.31 119.338 1368.19 117.552C1397.25 117.228 1426.32 117.714 1455.37 117.255Z"/>
	<path fill="#99DBE5" d="M1400.15 155.111C1412.31 154.419 1425 155.272 1437.22 155.329L1511.19 155.362C1522.38 155.337 1554.13 153.28 1562.93 154.948C1564.87 155.315 1566.37 156.437 1567.35 158.159C1568.38 159.973 1568.25 162.944 1567.42 164.804C1566.28 167.354 1564.96 167.664 1562.55 168.643C1553.05 169.637 1542.56 168.64 1532.98 168.539Q1504.59 168.211 1476.19 168.232Q1452.79 168.171 1429.39 168.586C1420.72 168.73 1411.07 169.621 1402.47 168.72C1400.35 168.497 1398.35 167.704 1397.03 165.942C1395.85 164.353 1395.69 162.337 1396.02 160.435C1396.47 157.803 1398.14 156.592 1400.15 155.111Z"/>
	<path fill="#99DBE5" d="M1401.22 201.333C1436.83 200.925 1472.48 201.299 1508.1 201.271Q1523.31 201.298 1538.51 201.154C1544.56 201.038 1550.77 200.365 1556.8 200.888C1560.1 201.175 1564.65 202.07 1567.14 204.462C1568.89 206.145 1568.88 207.394 1569.04 209.645C1567.34 212.989 1566.13 214.453 1562.55 215.784C1554.29 216.978 1405.17 216.599 1401.01 215.738C1399.16 215.354 1397.46 214.128 1396.54 212.469C1395.45 210.49 1395.68 207.939 1396.39 205.867C1397.21 203.442 1399.07 202.447 1401.22 201.333Z"/>
	<path fill="#99DBE5" d="M1400.26 248.443C1408.45 247.212 1557.21 247.255 1562.58 248.543C1565.21 249.175 1566.64 250.067 1568.04 252.422C1568.5 254.353 1568.57 255.892 1567.91 257.8C1566.88 260.776 1565.08 261.435 1562.46 262.667C1553.36 264.386 1400.57 262.986 1398.87 262.123C1397.33 261.341 1396.02 258.837 1395.9 257.159C1395.65 253.69 1398.18 250.895 1400.26 248.443Z"/>
	<path fill="#06A57E" d="M1594.25 176.93C1602.03 178.52 1613.84 176.146 1620.58 180.423C1622.31 200.719 1620.82 222.178 1620.89 242.593C1620.93 253.457 1622.47 273.66 1620.85 283.563C1623.11 294.501 1622.76 319.868 1616.63 329.458C1612.41 336.062 1605.45 339.733 1597.92 341.241C1583.45 344.139 1555.25 339.287 1544.18 343.138L1542.24 342.356C1540.78 343.477 1540.92 343.827 1540.64 345.665C1539.83 350.961 1542.02 358.323 1539.14 362.949C1540.45 358.056 1541.29 347.045 1538.76 342.637C1538.68 342.501 1538.59 342.371 1538.51 342.238L1484.26 342.207C1487.36 347.074 1486.99 368.812 1485.46 374.859C1485.24 375.718 1484.87 376.525 1484.45 377.299C1486.19 372.382 1486.42 350.334 1484.99 345.315C1484.4 343.251 1484.13 343.01 1482.27 342.023C1478.42 345.202 1481.6 360.437 1479.38 365.988C1479.3 366.18 1479.21 366.366 1479.13 366.555C1479.29 366.162 1479.53 365.615 1479.64 365.182C1481 359.917 1480.92 346.936 1478.49 342.179C1441.97 342.213 1405.31 342.932 1368.8 342.003C1371.38 336.746 1371.16 308.39 1369.19 302.079L1515.1 302.214C1530.74 302.21 1573.42 304.186 1586.37 300.459C1589.46 299.571 1591.64 297.065 1593.07 294.277C1594.52 291.436 1594.86 288.291 1595.04 285.145C1595.76 272.407 1596.46 183.65 1594.25 176.93Z"/>
	<path fill="#0A2A56" d="M1023.05 214.023L1160.2 214.182C1160.97 215.359 1161.52 216.48 1161.62 217.897C1162.72 234.42 1161.7 251.568 1161.92 268.163Q1162.31 292.976 1162.31 317.792C1162.31 324.619 1163.08 332.432 1162 339.11C1161.83 340.121 1161.43 341.065 1160.94 341.958L1236.38 341.796C1238.97 346.534 1238.86 399.506 1237.47 406.222C1242.59 414.937 1244.97 422.731 1254.92 427.082C1256.95 427.972 1259.98 428.551 1261.54 430.088C1264.92 439.276 1262.8 454.966 1258.77 463.675C1253.71 474.587 1244.24 482.454 1233 486.436C1227.06 488.542 1221.72 488.933 1215.52 489.1C1204.62 487.856 1192.33 488.888 1181.27 488.915L1108.38 489.193C1108.65 488.568 1108.85 488.075 1108.9 487.387C1109.46 478.863 1099.75 464.563 1094.26 458.709C1081.52 445.122 1060.9 438.995 1042.56 441.824C1038.07 442.517 1033.28 444.915 1028.76 444.69C1028.61 444.683 1028.46 444.666 1028.31 444.654C1028.89 439.755 1027.04 433.82 1025.3 429.287C1019.51 414.301 1006.76 401.445 992.132 395.005C981.712 388.112 965.009 387.429 953.223 389.777C936.226 393.164 922.389 402.728 912.965 417.079C912.046 418.479 911.855 418.724 910.258 419.423C909.507 417.604 909.316 416.049 909.154 414.095C909.998 403.704 909.408 392.879 909.407 382.443L909.588 326.943C937.397 324.935 962.544 316.646 983.912 298.184C1008.94 276.559 1020.62 246.361 1023.05 214.023Z"/>
	<path fill="#06A57E" d="M1041.09 303.53C1045.85 302.823 1049.91 302.802 1054.14 305.417C1058.14 307.886 1060.98 312.174 1061.91 316.757C1062.86 321.419 1062.15 326.363 1059.37 330.294C1056.41 334.473 1052.8 335.986 1047.92 336.857C1046.05 337.066 1043.88 336.984 1042.03 336.611C1037.88 335.775 1033.81 333.564 1031.47 329.97C1028.99 326.145 1028.77 321.004 1029.83 316.693C1031.51 309.912 1035.3 307.017 1041.09 303.53Z"/>
	<path fill="#06A57E" d="M1170.78 390.664C1175.78 389.803 1179.88 389.5 1184.49 391.948Q1184.9 392.167 1185.31 392.406Q1185.71 392.645 1186.1 392.904Q1186.49 393.163 1186.87 393.441Q1187.24 393.72 1187.61 394.017Q1187.97 394.313 1188.31 394.628Q1188.66 394.942 1188.99 395.274Q1189.32 395.606 1189.64 395.953Q1189.95 396.301 1190.25 396.664Q1190.54 397.027 1190.82 397.404Q1191.1 397.782 1191.36 398.173Q1191.62 398.563 1191.85 398.966Q1192.09 399.37 1192.31 399.784Q1192.53 400.199 1192.72 400.624Q1192.92 401.049 1193.1 401.484Q1193.27 401.918 1193.43 402.361Q1193.58 402.803 1193.71 403.253C1194.89 407.365 1194.59 412.042 1192.43 415.786C1189.83 420.282 1186.11 422.703 1181.18 423.986C1178.55 425.048 1175.5 424.645 1172.75 424.213C1169.18 423.653 1166.19 421.653 1164.13 418.737C1160.95 414.247 1160.09 408.459 1161.17 403.132C1162.41 397 1165.75 393.988 1170.78 390.664Z"/>
	<path fill="#105895" d="M1160.16 87.3684L1351.52 87.5098C1374.54 87.5632 1397.84 86.3593 1420.81 87.2695C1425.12 87.4403 1429.77 87.7106 1433.83 89.2453C1442.07 92.3537 1450.49 100.178 1454.06 108.242C1455.29 111.026 1456.49 114.269 1455.37 117.255C1426.32 117.714 1397.25 117.228 1368.19 117.552C1369.31 119.338 1369.51 120.731 1369.62 122.811C1371.6 162.291 1369.88 202.431 1370.02 241.997C1370.07 253.609 1371.82 290.227 1370.01 299.717C1369.85 300.532 1369.53 301.327 1369.19 302.079C1371.16 308.39 1371.38 336.746 1368.8 342.003C1366.3 342.252 1363.6 342.322 1361.17 342.986C1358.28 340.823 1314.62 341.797 1308.62 342.58C1303.35 341.603 1297.69 342.048 1292.35 342.101C1295.38 347.114 1294.43 395.431 1293.62 403.937L1291.99 406.304C1292.83 409.561 1291.82 412.165 1290.21 414.991C1286.45 421.621 1278.48 426.612 1271.25 428.534Q1269.1 429.097 1266.92 429.552C1264.82 429.044 1263.55 429.388 1261.54 430.088C1259.98 428.551 1256.95 427.972 1254.92 427.082C1244.97 422.731 1242.59 414.937 1237.47 406.222C1238.86 399.506 1238.97 346.534 1236.38 341.796L1160.94 341.958C1161.43 341.065 1161.83 340.121 1162 339.11C1163.08 332.432 1162.31 324.619 1162.31 317.792Q1162.31 292.976 1161.92 268.163C1161.7 251.568 1162.72 234.42 1161.62 217.897C1161.52 216.48 1160.97 215.359 1160.2 214.182C1161.42 212.61 1161.69 212.46 1161.79 210.392L1159.76 208.79C1160.46 208.139 1160.85 207.662 1161.2 206.753C1162.51 203.362 1161.98 103.379 1161.41 92.1359C1161.32 90.3918 1160.91 88.953 1160.16 87.3684Z"/>
	<path fill="#FCFDFC" d="M1212.55 250.222C1222.3 250.139 1262.01 247.807 1267.62 252.735C1266.18 254.409 1265.05 255.202 1263 256.028C1254.58 256.497 1215.59 257.889 1211.14 254.018C1211.13 251.818 1211.25 251.834 1212.55 250.222Z"/>
	<path fill="#FCFDFC" d="M1211.38 139.11Q1211.93 139.033 1212.48 138.978C1220.49 138.14 1264.81 137.261 1268.89 140.524L1268.94 142.308L1266.69 144.446C1259.98 146.181 1221.56 145.303 1212.83 144.563C1211.04 142.358 1211.31 142.004 1211.38 139.11Z"/>
	<path fill="#FCFDFC" d="M1210.97 291.109C1215.43 290.531 1220.02 290.735 1224.51 290.715C1232.64 290.68 1272.51 289.242 1277.6 290.991C1277.92 291.101 1278.81 292.2 1279.11 292.495C1278.64 294.589 1277.85 294.839 1276.23 296.177C1269.54 297.21 1218.58 297.289 1211.58 295.759C1210.25 293.792 1210.65 293.389 1210.97 291.109Z"/>
	<path fill="#0BBBAD" d="M1210.5 196.888Q1211.95 196.762 1213.41 196.731C1222.81 196.615 1280.91 195.236 1285.94 197.516C1286.4 197.727 1287.21 198.739 1287.62 199.131C1287.41 201.225 1286.78 201.564 1285.43 203.113C1276.74 204.951 1222.56 204.045 1211.88 203.228C1210.15 200.898 1210.49 199.708 1210.5 196.888Z"/>
	<path fill="#FCFDFC" d="M1210.55 270.662C1211.65 270.423 1212.77 270.202 1213.9 270.095C1230.77 268.491 1249.03 269.917 1265.99 269.994C1278.94 270.053 1292.73 268.918 1305.58 269.734C1307.56 269.86 1308.94 270.004 1310.53 271.28C1310.58 273.53 1310.19 273.516 1308.74 275.114C1305.77 276.759 1221.08 276.486 1212.25 275.508C1210.71 273.841 1210.87 272.872 1210.55 270.662Z"/>
	<path fill="#FCFDFC" d="M1297.89 178.222C1305.89 178.115 1314.67 177.206 1322.57 177.875C1324.8 178.064 1326.36 179.179 1327.77 180.832L1327.61 182.065C1322.26 185.124 1249.79 183.522 1237.7 183.519C1230.5 183.652 1219.11 185.146 1212.57 182.525C1211.26 181.998 1211.3 181.768 1210.71 180.506L1211.76 179.339C1219.03 177.141 1284.19 178.43 1297.89 178.222Z"/>
	<path fill="#FCFDFC" d="M1210.88 159.554C1222.59 158.312 1323.42 158.127 1327.33 160.539C1327.2 162.833 1327.03 162.684 1325.43 164.15Q1324.33 164.322 1323.22 164.432C1312.95 165.479 1213.78 164.935 1212.3 164.151C1211.76 163.868 1211.36 163.389 1210.88 163.007L1210.88 159.554Z"/>
	<path fill="#0BBBAD" d="M1237.18 342.197L1291.58 342.244C1294.11 346.294 1294.36 398.341 1292.67 404.546C1292.51 405.157 1292.26 405.736 1291.99 406.304C1292.83 409.561 1291.82 412.165 1290.21 414.991C1286.45 421.621 1278.48 426.612 1271.25 428.534Q1269.1 429.097 1266.92 429.552C1264.82 429.044 1263.55 429.388 1261.54 430.088C1259.98 428.551 1256.95 427.972 1254.92 427.082C1244.97 422.731 1242.59 414.937 1237.47 406.222C1239.41 401.537 1239.77 348.429 1238.11 343.932C1237.88 343.305 1237.55 342.748 1237.18 342.197Z"/>
	<path fill="#FCFDFC" d="M394.707 245.166L515.124 244.977C534.942 244.897 561.942 243.266 581.02 245.471C585.109 245.943 587.921 246.564 590.936 249.523C593.855 252.389 596.285 256.173 596.883 260.286C597.984 267.853 597.28 276.39 597.283 284.066L597.293 330.082L597.332 487.403C597.327 496.242 598.134 503.485 591.502 510.318C588.295 513.622 582.602 514.508 578.222 515.021C564.509 516.629 549.68 515.538 535.868 515.542L454.809 515.524L454.616 623.507C454.596 638.419 452.84 661.426 455.504 675.555C456.21 679.303 458.59 682.753 461.264 685.389C464.629 688.707 469.071 691.281 473.766 692.071C485.778 694.091 517.184 692.481 531.07 692.478L667.436 692.38C669.637 673.094 676.804 658.827 691.776 646.398C676.948 638.412 666.114 627.218 661.216 610.729C658.439 601.381 658.219 591.989 659.691 582.386L660.885 583.094C659.664 598.552 661.921 613.39 672.316 625.588C679.8 634.371 689.316 639.415 700.066 643.017C703.383 641.711 707.104 640.035 710.648 639.572C719.976 638.355 780.403 637.997 786.574 640.218C787.12 640.415 787.649 640.726 788.138 641.034L788.602 642.681C787.449 644.502 786.719 645.53 784.461 646.141C778.945 647.632 769.09 646.181 763.127 646.132C743.965 645.975 724.536 645.476 705.396 646.141C698.137 650.709 691.541 654.99 686.277 661.948C676.154 672.827 672.469 687.252 672.979 701.811C673.375 713.088 679.533 725.604 679.704 732.52C672.634 722.047 668.851 710.357 667.627 697.857L532.873 697.699C516.714 697.687 489.875 699.566 474.941 697.58C468.605 696.737 462.697 694.509 458.08 689.985C454.443 686.421 451.175 681.454 450.15 676.403C447.503 663.365 449.276 638.741 449.3 624.794L449.47 515.558L361.894 515.491C347.481 515.488 331.239 517.139 317.125 514.63C313.325 513.955 310.128 512.201 307.377 509.506C303.387 505.598 301.322 500.548 300.536 495.087C297.737 475.647 299.78 447.112 299.767 426.908L299.626 278.301C312.781 277.45 326.119 278.809 339.279 277.997C355.536 276.994 372.181 270.32 383.64 258.504C387.692 254.326 390.87 249.514 394.707 245.166Z"/>
	<path fill="#11C0CB" d="M518.431 396.473L541.039 396.513C539.512 407.892 536.53 417.606 531.703 428C530.485 430.992 529.488 434.929 526.678 436.715C524.219 437.093 521.508 437.882 519.145 436.909C517.923 423.626 518.505 409.827 518.431 396.473Z"/>
	<path fill="#11C0CB" d="M460.888 360.922L538.436 361.025C540.788 370.496 541.233 380.027 541.504 389.744Q527.057 389.636 512.61 389.78C512.579 406.872 511.59 424.577 512.988 441.59C515.243 443.03 517.934 442.719 520.584 442.884L521.427 443.94C517.304 454.356 500.75 464.866 491.51 470.401L491.543 385.691L468.374 385.494L461.063 378.143L460.888 360.922Z"/>
	<path fill="#11C0CB" d="M440.351 289.235C450.541 288.362 460.547 289.546 470.433 291.978C464.201 298.054 458.075 304.353 451.276 309.798C450.038 309.984 448.456 310.095 447.295 310.557C445.38 311.32 444.936 312.45 444.035 314.135C444.313 316.503 444.516 317.955 446.392 319.705C448.293 321.479 449.503 321.51 451.886 321.378C453.409 320.276 454.358 319.891 455.09 318.141C455.324 317.583 455.581 317.034 455.785 316.464C458.499 308.872 470.568 299.53 476.55 293.579C493.659 299.89 505.702 308.758 518.333 321.78C509.952 321.715 501.372 321.991 493.048 320.975C490.754 320.695 489.632 319.122 488.287 317.387L487.872 316.843C485.749 316.109 484.643 316.227 482.523 316.917C480.596 318.781 479.323 320.012 478.685 322.739C479.043 323.831 479.055 324.335 479.931 325.152C484.907 329.792 515.062 327.729 523.144 327.61C528.167 336.571 532.687 345.61 536.271 355.248C509.252 355.026 482.205 355.341 455.183 355.397L455.053 379.767C458.032 383.915 461.48 387.795 464.733 391.735C471.783 391.51 478.866 391.588 485.92 391.531C485.904 418.865 486.556 446.327 485.657 473.641C472.324 479.824 459.123 481.448 444.604 481.602C444.623 474.762 444.312 467.705 444.957 460.901C447.463 459.229 451.641 462.272 455.198 461.217C456.181 460.508 457.194 459.833 457.722 458.704C458.55 456.93 458.218 456.535 457.59 454.802C455.621 453.098 453.517 452.341 450.916 452.274C447.367 452.183 443.212 452.834 440.63 455.478C437.148 459.042 438.894 475.592 438.947 481.173C419.166 476.95 401.206 467.649 386.976 453.294L422.805 453.381C429.888 445.454 437.634 438.06 445.14 430.534C452.245 430.404 459.891 432.119 466.776 431.282C468.992 431.013 470.441 430.428 471.837 428.674C471.957 426.373 471.842 425.929 470.79 423.874C465.671 420.557 460.355 424.118 454.993 424.781C451.877 425.166 448.539 424.959 445.403 424.829L445.427 399.711C438.6 392.212 431.427 384.553 423.801 377.872C416.822 378.626 409.716 378.655 402.7 378.885C400.842 376.834 399.557 375.148 396.671 374.659C394.261 375.405 394.123 375.475 392.669 377.532C392.488 380.262 392.585 380.736 393.839 383.166C394.32 383.432 395.241 384.118 395.737 384.214C397.577 384.567 402.233 383.203 404.271 382.926C409.604 382.204 414.83 382.172 420.196 382.306C426.779 389.094 433.364 395.833 439.446 403.082L439.659 426.215C433.759 433.774 426.777 440.636 419.961 447.358L382.18 447.264C380.17 445.179 378.615 442.574 376.972 440.193Q388.564 429 399.501 417.166C405.971 417.977 413.254 418.255 419.745 417.597C421.291 416.356 421.407 416.057 422.074 414.29L421.318 413.134C415.639 409.958 403.843 411.45 397.21 411.526C389.606 419.35 381.831 426.978 374.315 434.893C367.33 425.29 363.938 414.673 360.813 403.364C365.083 403.103 373.081 403.795 376.689 401.529C378.637 400.305 378.843 399.379 379.371 397.311C378.722 394.782 378.63 393.827 376.676 391.976C371.904 391.828 368.981 396.633 364.526 397.326C362.827 397.591 362.37 396.94 361.127 396.018C357.232 388.705 360.203 373.112 361.232 365.067C376.407 365.297 391.601 365.21 406.778 365.274C406.69 367.967 406.106 372.388 407.401 374.754C408.323 376.44 408.558 376.723 410.367 377.204C414.097 373.12 412.637 363.734 412.477 358.547Q387.618 358.907 362.757 358.96C363.593 355.384 364.497 351.837 365.743 348.379C373.635 326.494 389.293 306.882 410.57 296.949L410.629 331.421C406.56 331.432 400.634 330.763 396.975 332.672C394.807 333.804 394.732 334.666 394.169 336.858C394.683 339.131 395.207 340.477 397.128 341.892C399.036 343.297 476.81 343.569 483.627 342.606L484.897 340.663C481.586 336.208 415.615 341.049 404.721 338.918C408.567 337.403 412.594 337.706 416.65 337.77L416.764 294.461C424.596 291.501 432.064 290.081 440.351 289.235Z"/>
	<defs>
		<linearGradient id="gradient_0" gradientUnits="userSpaceOnUse" x1="935.255" y1="895.64276" x2="958.04333" y2="387.92813">
			<stop offset="0" stop-color="#00B6A3"/>
			<stop offset="1" stop-color="#B2E0F1"/>
		</linearGradient>
	</defs>
	<path fill="url(#gradient_0)" d="M841.566 388.498C859.975 386.965 876.465 392.03 890.622 404.021C895.51 408.16 899.774 412.877 903.834 417.817C903.116 432.845 902.098 523.34 904.34 530.268C906.83 530.896 908.989 530.883 911.52 530.783C912.241 518.373 911.547 505.577 911.491 493.133L911.38 432.014C911.322 425.704 908.336 420.4 909.154 414.095C909.316 416.049 909.507 417.604 910.258 419.423C911.855 418.724 912.046 418.479 912.965 417.079C922.389 402.728 936.226 393.164 953.223 389.777C965.009 387.429 981.712 388.112 992.132 395.005C1006.76 401.445 1019.51 414.301 1025.3 429.287C1027.04 433.82 1028.89 439.755 1028.31 444.654C1028.46 444.666 1028.61 444.683 1028.76 444.69C1033.28 444.915 1038.07 442.517 1042.56 441.824C1060.9 438.995 1081.52 445.122 1094.26 458.709C1099.75 464.563 1109.46 478.863 1108.9 487.387C1108.85 488.075 1108.65 488.568 1108.38 489.193L1181.27 488.915C1192.33 488.888 1204.62 487.856 1215.52 489.1C1215.22 489.201 1214.92 489.308 1214.62 489.401C1209.64 490.932 1200.74 489.784 1195.41 489.784C1183.64 489.783 1116.49 488.246 1110.51 490.702L1110.15 491.957C1111.78 493.274 1112.41 493.446 1114.56 493.65C1123.4 494.491 1133.09 493.6 1142.02 493.568C1168.98 493.472 1196.55 492.179 1223.43 493.494C1217.11 495.854 1123.17 494.219 1108.62 494.208C1111.23 499.3 1110.52 506.526 1108.87 511.85C1107.36 516.699 1099.37 530.477 1099.1 533.161C1113.38 534.46 1129.77 544.397 1138.92 555.344C1141.58 558.526 1145.49 563.491 1145.38 567.726C1149.77 570.621 1151.74 578.968 1152.8 583.979C1153.59 587.719 1155.44 596.384 1153.3 599.767C1153.15 599.997 1152.68 600.602 1152.56 600.757L1152.85 598.084C1147.99 613.089 1138.86 629.974 1124.08 637.461C1123.43 637.79 1122.77 638.076 1122.09 638.337C1107.73 638.358 1023.2 636.664 1017.48 639.832C1018.43 642.237 1018.7 643.493 1020.8 645.111C1030.73 646.133 1040.95 645.569 1050.94 645.513L1097.76 645.33C1104.83 645.305 1114.3 643.972 1120.99 645.998C1121.81 647.852 1121.15 649.657 1120.73 651.55C1122.15 653.694 1124.35 654.839 1125.69 656.832C1133.7 661.238 1138.85 672.243 1141.34 680.623C1142.87 685.746 1144.03 691.555 1143.55 696.901C1145.9 705.881 1140.47 720.017 1135.82 727.851C1134.93 729.351 1134.03 730.6 1132.64 731.678C1165.82 731.888 1199.13 730.914 1232.28 731.737C1225 733.817 1206.93 732.356 1198.59 732.368L1088.79 731.772C1075.4 731.77 1061.13 730.584 1047.86 731.577C1045.28 731.77 1043.82 731.938 1041.74 733.472L1041.09 735.688C1042.41 737.356 1043 737.643 1045.17 737.918C1051.63 738.735 1059.22 737.868 1065.77 737.823C1086.32 737.681 1107.92 736.489 1128.39 737.813C1127.15 744.114 1116.18 751.749 1110.79 755.363C1097.29 764.422 1080.43 768.819 1064.29 765.779C1060.14 764.997 1056 763.525 1051.99 762.201C1053.85 766.072 1051.75 773.197 1050.36 777.102C1046.5 787.925 1036.56 797.094 1026.34 801.874C1015.31 807.035 1003.26 807.906 991.779 803.676C983.919 800.781 977.357 796.057 971.663 789.973L971.396 801.134C968.162 805.952 970.73 824.279 970.214 830.939C969.902 834.968 966.896 832.462 967.18 836.541C967.222 837.14 967.565 837.74 967.819 838.263L969.281 837.758C970.924 842.013 970.479 851.988 969.743 856.772C969.381 859.124 968.225 861.411 967.932 863.72C967.795 864.798 967.879 865.878 968.666 866.636C970.262 868.173 970.51 869.406 970.767 871.524C969.686 871.553 968.424 870.849 967.41 870.456C966.962 873.049 967.284 875.67 966.991 878.284C966.668 881.169 966.026 884.989 963.374 886.688C958.515 889.8 943.31 889.16 937.505 888.427C929.714 881.682 929.671 886.624 922.26 885.248C920.945 885.003 917.279 882.257 915.982 881.479C912.862 882.058 911.347 884.261 908.537 885.67C900.752 883.166 891.324 881.174 884.059 877.596C881.832 876.5 878.921 873.507 878.306 871.093C878.259 870.912 878.232 870.725 878.179 870.545C878.083 870.224 877.963 869.911 877.858 869.592L877.652 868.953C873.196 871.851 869.275 875.544 865.28 879.033C864.059 878.706 862.885 878.528 861.623 878.499C857.627 878.404 850.971 878.143 847.843 881.077C847.679 883.033 847.662 884.987 847.632 886.948L846.167 887.044C846.14 888.81 846.395 891.043 845.346 892.518L844.569 891.979C844.338 870.492 845.456 848.676 843.212 827.297C841.465 814.196 843.024 799.173 843.182 785.878C832.173 795.004 820.036 802.902 805.112 802.486C793.44 802.16 782.096 797.473 774.047 788.937C764.78 779.11 762.101 767.739 762.607 754.667C762.155 754.996 761.706 755.331 761.237 755.636C749.571 763.233 736.068 765.284 722.524 762.336C705.457 758.621 689.24 747.137 679.704 732.52C679.533 725.604 673.375 713.088 672.979 701.811C672.469 687.252 676.154 672.827 686.277 661.948C691.541 654.99 698.137 650.709 705.396 646.141C724.536 645.476 743.965 645.975 763.127 646.132C769.09 646.181 778.945 647.632 784.461 646.141C786.719 645.53 787.449 644.502 788.602 642.681L788.138 641.034C787.649 640.726 787.12 640.415 786.574 640.218C780.403 637.997 719.976 638.355 710.648 639.572C707.104 640.035 703.383 641.711 700.066 643.017C689.316 639.415 679.8 634.371 672.316 625.588C661.921 613.39 659.664 598.552 660.885 583.094L659.691 582.386C660.082 576.518 663.58 568.955 666.869 564.128C669.03 560.207 671.442 556.69 674.422 553.338Q675.386 552.271 676.401 551.252Q677.417 550.233 678.481 549.266Q679.545 548.299 680.656 547.385Q681.766 546.471 682.92 545.613Q684.075 544.755 685.27 543.955Q686.465 543.155 687.698 542.415Q688.931 541.675 690.199 540.997Q691.467 540.318 692.767 539.703Q694.067 539.088 695.395 538.538Q696.724 537.987 698.078 537.503Q699.432 537.019 700.809 536.602Q702.185 536.185 703.58 535.837Q704.975 535.488 706.386 535.209Q707.797 534.93 709.219 534.72Q710.642 534.511 712.073 534.371Q713.505 534.232 714.941 534.164Q711.876 530.172 709.475 525.749C702.352 512.59 700.379 496.511 704.743 482.154C709.35 466.996 720.5 454.304 734.413 446.914C750.547 438.344 765.943 438.848 782.918 443.911C785.257 432.068 789.364 420.785 797.09 411.323C808.24 397.669 824.264 390.176 841.566 388.498Z"/>
	<path fill="#0BBBAD" d="M951.02 837.159C952.596 840.52 953.987 846.172 952.63 849.773C952.195 850.931 951.296 851.868 950.429 852.719C948.327 853.452 946.83 854.109 944.616 853.1C942.766 852.257 941.539 850.586 941.122 848.631C940.646 846.4 941.444 841.204 942.942 839.35C943.13 839.117 943.342 838.903 943.542 838.679C943.395 842.005 942.767 846.205 945.076 848.925C945.975 849.984 946.202 849.816 947.576 849.931C948.074 849.569 948.537 849.206 948.969 848.764C951.825 845.845 951.103 840.938 951.02 837.159Z"/>
	<path fill="#11C0CB" d="M1124.83 657.183C1118.27 653.424 1121.78 652.927 1119.26 647.909C1117.06 643.538 1035.48 652.185 1019.08 645.971C1017.23 643.924 1017.61 642.505 1017.48 639.832C1018.43 642.237 1018.7 643.493 1020.8 645.111C1030.73 646.133 1040.95 645.569 1050.94 645.513L1097.76 645.33C1104.83 645.305 1114.3 643.972 1120.99 645.998C1121.81 647.852 1121.15 649.657 1120.73 651.55C1122.15 653.694 1124.35 654.839 1125.69 656.832L1124.83 657.183Z"/>
	<path fill="#FCFDFC" d="M903.647 538.394L910.882 538.388L910.955 584.949L903.47 585.051L903.647 538.394Z"/>
	<path fill="#FCFDFC" d="M666.869 564.128C669.03 560.207 671.442 556.69 674.422 553.338Q675.386 552.271 676.401 551.252Q677.417 550.233 678.481 549.266Q679.545 548.299 680.656 547.385Q681.766 546.471 682.92 545.613Q684.075 544.755 685.27 543.955Q686.465 543.155 687.698 542.415Q688.931 541.675 690.199 540.997Q691.467 540.318 692.767 539.703Q694.067 539.088 695.395 538.538Q696.724 537.987 698.078 537.503Q699.432 537.019 700.809 536.602Q702.185 536.185 703.58 535.837Q704.975 535.488 706.386 535.209Q707.797 534.93 709.219 534.72Q710.642 534.511 712.073 534.371Q713.505 534.232 714.941 534.164C722.906 538.231 733.826 539.858 742.744 538.943L743.261 540.891C738.258 543.458 722.529 541.129 715.943 541.402C709.309 541.678 702.779 542.388 696.378 544.235C689.189 546.309 682.107 549.74 676.373 554.599C673.631 556.922 670.019 563.191 666.869 564.128Z"/>
	<path fill="#FCFDFC" d="M1084.4 542.212C1089.1 540.182 1094.44 533.539 1099.1 533.161C1113.38 534.46 1129.77 544.397 1138.92 555.344C1141.58 558.526 1145.49 563.491 1145.38 567.726Q1142.32 564.359 1139.14 561.108C1122.77 544.425 1106.71 542.424 1084.4 542.212Z"/>
	<path fill="#FCFDFC" d="M992.132 395.005C1006.76 401.445 1019.51 414.301 1025.3 429.287C1027.04 433.82 1028.89 439.755 1028.31 444.654C1029.39 449.992 1030.74 460.614 1028.64 465.644C1027.92 467.368 1027.57 467.38 1025.85 468.061C1022.93 465.554 1022.45 436.773 1019.42 429.565Q1018.39 427.101 1017.19 424.719Q1015.98 422.338 1014.6 420.053Q1013.22 417.768 1011.67 415.592Q1010.12 413.416 1008.42 411.361C1005.09 407.387 993.36 398.407 992.132 395.005Z"/>
	<path fill="#105895" d="M972.51 496.873C967.901 494.894 964.32 493.037 962.001 488.333C959.947 484.168 960.663 479.123 962.228 474.93C963.581 471.305 965.895 467.995 969.617 466.526C973.468 465.006 977.986 465.79 981.609 467.597Q982.041 467.813 982.461 468.051Q982.882 468.289 983.29 468.548Q983.698 468.807 984.093 469.086Q984.487 469.365 984.867 469.663Q985.247 469.962 985.612 470.279Q985.976 470.596 986.324 470.931Q986.672 471.267 987.003 471.619Q987.334 471.971 987.646 472.339Q987.959 472.708 988.253 473.091Q988.547 473.475 988.821 473.873Q989.095 474.271 989.349 474.682Q989.603 475.094 989.835 475.517Q990.068 475.94 990.279 476.375Q990.49 476.81 990.68 477.254Q990.869 477.699 991.035 478.153Q991.202 478.607 991.345 479.068C992.393 482.445 992.442 485.878 990.602 489.023C988.348 492.874 983.756 495.453 979.549 496.503L973.875 496.729C971.543 502.325 974.537 523.374 972.871 531.351C971.825 520.008 972.463 508.267 972.51 496.873Z"/>
	<path fill="#FCFDFC" d="M980.32 592.174L983.873 591.809L986.982 593.259C988.33 601.622 987.453 611.144 987.438 619.647L987.371 681.924C987.365 692.209 986.376 703.658 987.903 713.785C987.364 713.972 986.819 714.159 986.266 714.302C983.823 714.937 982.683 714.863 980.62 713.631C978.649 701.947 980.13 687.753 980.142 675.834L980.32 592.174Z"/>
	<path fill="#FCFDFC" d="M864.955 634.109C867.65 634.46 869.388 634.54 871.334 636.467C873.054 646.627 872.518 804.857 870.875 810.084C868.375 809.899 866.528 810.069 864.693 808.27C863.657 798.859 864.224 788.919 864.197 779.445L864.11 727.937L864.269 667.528C864.327 656.521 863.741 645.048 864.955 634.109Z"/>
	<path fill="#FCFDFC" d="M823.761 591.935L831.236 591.965C831.264 632.858 832.062 674.005 831.002 714.871C820.718 715.271 741.025 715.95 737.58 713.407L737.034 711.266C738.353 709.153 739.442 708.483 741.946 707.887C751.683 705.569 765.083 707.428 775.29 707.528L823.449 707.547L823.505 692.216L823.761 591.935Z"/>
	<path fill="#FCFDFC" d="M943.46 591.99L951.301 592.041L950.912 760.389L950.914 811.285C950.917 819.803 950.416 828.677 951.02 837.159C951.103 840.938 951.825 845.845 948.969 848.764C948.537 849.206 948.074 849.569 947.576 849.931C946.202 849.816 945.975 849.984 945.076 848.925C942.767 846.205 943.395 842.005 943.542 838.679L943.46 591.99Z"/>
	<path fill="#FCFDFC" d="M903.809 592.119L911.301 592.097C910.57 653.085 911.015 714.13 911.186 775.12L911.431 828.632C911.479 836.437 912.361 845.357 911.445 853.067C911.208 855.063 910.205 856.479 908.836 857.874C906.609 858.441 906.732 858.277 904.868 857.183C903.34 854.817 903.287 852.331 903.16 849.584C902.66 838.701 903.224 827.546 903.306 816.642L903.482 756.399C903.421 701.711 902.414 646.779 903.809 592.119Z"/>
	<path fill="#105895" d="M784.596 592.111C782.844 595.333 781.183 597.931 778.334 600.289C775.421 602.7 771.985 604.737 768.036 604.168C764.209 603.616 760.866 600.948 758.657 597.877C755.93 594.085 754.745 589.357 755.641 584.742C756.308 581.308 758.108 578.23 761.107 576.319C764.497 574.159 769.431 573.749 773.28 574.74C778.721 576.141 781.597 580.494 784.267 585.071L903.47 585.051L910.955 584.949L1045.6 585.619C1045.85 585.416 1046.1 585.219 1046.34 585.011C1052.62 579.613 1051.83 573.831 1063.13 574.143C1066.69 574.241 1069.87 575.754 1072.24 578.445C1075.22 581.846 1076.63 586.597 1076.21 591.08C1075.81 595.365 1073.81 599.631 1070.4 602.336C1067.48 604.648 1063.71 605.222 1060.12 604.673C1055.11 603.908 1051.94 601.916 1049.02 597.794C1048 596.349 1046.84 593.02 1045.41 592.231C1025.24 592.201 1003.9 593.574 983.873 591.809L980.32 592.174C970.757 591.592 960.897 592.062 951.301 592.041L943.46 591.99L911.301 592.097L903.809 592.119C879.687 592.713 855.376 592.023 831.236 591.965L823.761 591.935L784.596 592.111Z"/>
	<path fill="#0A2A56" d="M833.365 496.886C829.626 495.326 826.848 493.576 824.366 490.349C821.858 487.089 819.876 483.36 820.651 479.112C821.4 475.011 824.509 471.48 827.96 469.31C832.032 466.749 836.9 465.825 841.605 466.908C845.253 467.748 848.346 469.689 850.27 472.984C852.441 476.705 852.297 482.146 851.15 486.167C849.61 491.563 845.192 494.531 840.557 497.137L840.422 531.262C864.165 531.025 887.915 531.561 911.659 531.384C931.86 530.294 952.631 531.096 972.871 531.351C974.537 523.374 971.543 502.325 973.875 496.729L979.549 496.503L979.433 530.985L1032.18 530.855C1039.34 530.841 1047.37 529.988 1054.42 530.721C1057 530.99 1060.92 531.68 1062.85 533.558C1063.28 533.979 1063.39 534.216 1063.74 534.752C1063.41 536.012 1063.55 536.307 1062.38 536.934C1060.3 538.051 1057.79 538.369 1055.46 538.502C1037.55 539.528 1018.79 538.419 1000.79 538.448C970.877 538.496 940.775 539.195 910.882 538.388L903.647 538.394C868.916 539.011 834.103 538.318 799.36 538.4C782.977 538.439 757.597 540.158 742.796 538.116C742.832 535.364 742.566 533.821 743.935 531.399C752.93 528.999 818.774 530.797 833.457 530.827L833.365 496.886Z"/>
	<path fill="#99DBE5" d="M841.566 388.498C859.975 386.965 876.465 392.03 890.622 404.021C895.51 408.16 899.774 412.877 903.834 417.817C903.116 432.845 902.098 523.34 904.34 530.268C906.83 530.896 908.989 530.883 911.52 530.783L911.659 531.384C887.915 531.561 864.165 531.025 840.422 531.262L840.557 497.137C845.192 494.531 849.61 491.563 851.15 486.167C852.297 482.146 852.441 476.705 850.27 472.984C848.346 469.689 845.253 467.748 841.605 466.908C836.9 465.825 832.032 466.749 827.96 469.31C824.509 471.48 821.4 475.011 820.651 479.112C819.876 483.36 821.858 487.089 824.366 490.349C826.848 493.576 829.626 495.326 833.365 496.886L833.457 530.827C818.774 530.797 752.93 528.999 743.935 531.399C742.566 533.821 742.832 535.364 742.796 538.116L742.744 538.943C733.826 539.858 722.906 538.231 714.941 534.164Q711.876 530.172 709.475 525.749C702.352 512.59 700.379 496.511 704.743 482.154C709.35 466.996 720.5 454.304 734.413 446.914C750.547 438.344 765.943 438.848 782.918 443.911C785.257 432.068 789.364 420.785 797.09 411.323C808.24 397.669 824.264 390.176 841.566 388.498Z"/>
	<path fill="#FCFDFC" d="M782.918 443.911C785.257 432.068 789.364 420.785 797.09 411.323C808.24 397.669 824.264 390.176 841.566 388.498C841.419 388.578 841.273 388.661 841.125 388.74C835.294 391.812 828.477 393.104 822.416 395.764C808.452 401.893 796.971 416.935 792.282 431.121C790.915 435.255 789.877 439.75 789.605 444.107C789.188 450.799 791.805 462.336 787.632 467.819L785.891 467.962C783.999 466.296 782.802 464.42 782.588 461.858C782.103 456.064 782.614 449.735 782.918 443.911Z"/>
	<path fill="#FCFDFC" d="M1308.62 342.58C1314.62 341.797 1358.28 340.823 1361.17 342.986C1363.6 342.322 1366.3 342.252 1368.8 342.003C1405.31 342.932 1441.97 342.213 1478.49 342.179C1480.92 346.936 1481 359.917 1479.64 365.182C1479.53 365.615 1479.29 366.162 1479.13 366.555C1479.21 366.366 1479.3 366.18 1479.38 365.988C1481.6 360.437 1478.42 345.202 1482.27 342.023C1484.13 343.01 1484.4 343.251 1484.99 345.315C1486.42 350.334 1486.19 372.382 1484.45 377.299C1485.12 378.815 1485.39 380.075 1485.44 381.718C1486.01 399.871 1486.71 558.818 1484.99 563.607C1484.77 564.222 1484.44 564.782 1484.08 565.324C1496.5 565.347 1558.37 563.317 1565.93 566.952L1566.71 568.196L1566.04 569.314C1552.01 572.682 1501.54 570.485 1483.76 570.414C1486.32 574.578 1486.34 603.557 1485.21 609.297C1485.02 610.252 1484.7 610.827 1484.23 611.669L1625.52 611.751C1625.73 611.512 1625.95 611.277 1626.15 611.034C1632.44 603.593 1630.74 596.865 1643.39 595.468Q1643.92 595.413 1644.45 595.385Q1644.98 595.358 1645.51 595.357Q1646.05 595.356 1646.58 595.383Q1647.11 595.409 1647.64 595.463Q1648.17 595.516 1648.7 595.597Q1649.22 595.677 1649.74 595.784Q1650.26 595.891 1650.78 596.024Q1651.29 596.158 1651.8 596.317Q1652.31 596.477 1652.81 596.662Q1653.31 596.847 1653.8 597.058Q1654.29 597.268 1654.76 597.503Q1655.24 597.738 1655.71 597.997Q1656.17 598.256 1656.62 598.538Q1657.07 598.821 1657.51 599.126Q1657.95 599.431 1658.37 599.758Q1658.79 600.084 1659.19 600.432Q1659.55 600.735 1659.9 601.055Q1660.24 601.376 1660.57 601.714Q1660.9 602.051 1661.21 602.405Q1661.52 602.759 1661.81 603.128Q1662.11 603.497 1662.38 603.88Q1662.65 604.263 1662.91 604.66Q1663.16 605.056 1663.4 605.465Q1663.63 605.874 1663.84 606.294Q1664.06 606.714 1664.25 607.144Q1664.44 607.575 1664.61 608.014Q1664.78 608.453 1664.93 608.901Q1665.08 609.348 1665.2 609.803Q1665.33 610.257 1665.43 610.717Q1665.53 611.177 1665.61 611.641Q1665.69 612.106 1665.74 612.574Q1665.8 613.042 1665.83 613.512Q1665.86 614.04 1665.87 614.569Q1665.87 615.098 1665.85 615.627Q1665.83 616.156 1665.78 616.683Q1665.73 617.21 1665.66 617.733Q1665.58 618.257 1665.48 618.776Q1665.38 619.296 1665.25 619.809Q1665.12 620.323 1664.97 620.829Q1664.82 621.335 1664.64 621.833Q1664.46 622.331 1664.25 622.819Q1664.05 623.307 1663.82 623.784Q1663.59 624.261 1663.34 624.726Q1663.09 625.19 1662.81 625.642Q1662.53 626.093 1662.23 626.53Q1661.94 626.967 1661.61 627.388Q1661.29 627.808 1660.95 628.213Q1660.61 628.617 1660.25 629.003C1656.81 632.724 1651.98 635.275 1646.86 635.418C1641.1 635.578 1636.16 632.555 1632.16 628.666C1628.48 625.09 1627.4 621.007 1624.67 616.926L1484.16 616.76C1486.47 621.478 1486.98 661.333 1484.99 666.492C1484.7 667.26 1484.36 667.928 1483.92 668.62L1575.83 668.561C1591.06 668.552 1608.92 666.646 1623.8 669.692C1628.59 670.675 1633.49 673.5 1636.92 676.972C1640.62 680.712 1643.98 686.4 1644.72 691.652C1645.82 699.397 1645.1 708.148 1645.09 715.998L1645.09 762.548C1645.09 809.442 1646.11 856.504 1645.1 903.375C1644.88 913.738 1643.44 922.887 1635.61 930.471C1630.76 935.162 1624 936.709 1617.49 937.425C1605.22 938.774 1591.93 937.846 1579.55 937.844L1505.37 937.722L1390.81 937.717C1371.31 937.75 1351.68 938.336 1332.2 937.778C1322.69 937.505 1312.99 935.701 1306.25 928.541C1301.75 923.757 1298.79 917.865 1297.85 911.341C1296.63 902.809 1297.2 893.559 1297.15 884.942L1296.99 837.48C1296.94 792.503 1295.62 744.352 1297.47 699.739C1297.87 690.276 1299.01 682.861 1306.27 676.076C1310.83 671.823 1315.12 670.212 1321.26 669.249C1337.7 666.671 1356.69 668.451 1373.43 668.461L1478.93 668.468C1481.56 664.128 1481.67 624.678 1480.13 619.02C1479.91 618.204 1479.51 617.452 1479.06 616.741L1336.03 616.747L1295.39 616.773C1287.46 616.778 1279.07 616.189 1271.23 617.339C1266.48 618.035 1262.02 620.117 1258.59 623.504C1251.68 630.306 1251.68 639.453 1251.75 648.482L1252.12 693.506C1252.17 701.666 1253.01 710.839 1251.51 718.852C1250.69 723.274 1248.9 727.489 1245.74 730.748C1238.32 738.4 1226.91 737.572 1217.11 737.576C1187.71 737.59 1157.69 736.062 1128.39 737.813C1107.92 736.489 1086.32 737.681 1065.77 737.823C1059.22 737.868 1051.63 738.735 1045.17 737.918C1043 737.643 1042.41 737.356 1041.09 735.688L1041.74 733.472C1043.82 731.938 1045.28 731.77 1047.86 731.577C1061.13 730.584 1075.4 731.77 1088.79 731.772L1198.59 732.368C1206.93 732.356 1225 733.817 1232.28 731.737C1199.13 730.914 1165.82 731.888 1132.64 731.678C1134.03 730.6 1134.93 729.351 1135.82 727.851C1140.47 720.017 1145.9 705.881 1143.55 696.901C1144.03 691.555 1142.87 685.746 1141.34 680.623C1138.85 672.243 1133.7 661.238 1125.69 656.832C1124.35 654.839 1122.15 653.694 1120.73 651.55C1121.15 649.657 1121.81 647.852 1120.99 645.998C1114.3 643.972 1104.83 645.305 1097.76 645.33L1050.94 645.513C1040.95 645.569 1030.73 646.133 1020.8 645.111C1018.7 643.493 1018.43 642.237 1017.48 639.832C1023.2 636.664 1107.73 638.358 1122.09 638.337C1122.77 638.076 1123.43 637.79 1124.08 637.461C1138.86 629.974 1147.99 613.089 1152.85 598.084L1152.56 600.757C1152.68 600.602 1153.15 599.997 1153.3 599.767C1155.44 596.384 1153.59 587.719 1152.8 583.979C1151.74 578.968 1149.77 570.621 1145.38 567.726C1145.49 563.491 1141.58 558.526 1138.92 555.344C1129.77 544.397 1113.38 534.46 1099.1 533.161C1099.37 530.477 1107.36 516.699 1108.87 511.85C1110.52 506.526 1111.23 499.3 1108.62 494.208C1123.17 494.219 1217.11 495.854 1223.43 493.494C1196.55 492.179 1168.98 493.472 1142.02 493.568C1133.09 493.6 1123.4 494.491 1114.56 493.65C1112.41 493.446 1111.78 493.274 1110.15 491.957L1110.51 490.702C1116.49 488.246 1183.64 489.783 1195.41 489.784C1200.74 489.784 1209.64 490.932 1214.62 489.401C1214.92 489.308 1215.22 489.201 1215.52 489.1C1221.72 488.933 1227.06 488.542 1233 486.436C1244.24 482.454 1253.71 474.587 1258.77 463.675C1262.8 454.966 1264.92 439.276 1261.54 430.088C1263.55 429.388 1264.82 429.044 1266.92 429.552Q1269.1 429.097 1271.25 428.534C1278.48 426.612 1286.45 421.621 1290.21 414.991C1291.82 412.165 1292.83 409.561 1291.99 406.304L1293.62 403.937C1294.43 395.431 1295.38 347.114 1292.35 342.101C1297.69 342.048 1303.35 341.603 1308.62 342.58Z"/>
	<path fill="#0A2A56" d="M1143.55 696.901C1159.19 696.935 1182.98 700.793 1194.86 688.802C1214.81 668.669 1192.79 595.969 1208.47 577.893C1213.76 571.794 1221.7 570.991 1229.33 570.824C1288.13 569.533 1347.24 570.642 1406.07 570.633L1452.86 570.616C1461.34 570.609 1470.37 571.172 1478.78 570.133C1481.23 574.048 1481.39 603.878 1480.14 609.272C1479.91 610.233 1479.57 610.803 1479.06 611.638L1335.82 611.609L1295.49 611.527C1287.01 611.517 1278 610.953 1269.61 612.294C1264.15 613.165 1258.4 616.348 1254.53 620.251C1250.58 624.231 1248.49 629.901 1247.51 635.317C1244.89 649.78 1246.94 682.968 1247.07 699.026C1247.14 707.232 1248.3 716.667 1244.39 724.187C1241.98 728.807 1237.32 731.217 1232.28 731.737C1199.13 730.914 1165.82 731.888 1132.64 731.678C1134.03 730.6 1134.93 729.351 1135.82 727.851C1140.47 720.017 1145.9 705.881 1143.55 696.901Z"/>
	<path fill="#11C0CB" d="M1325.98 698.721Q1469.11 700.172 1612.24 698.803C1613.15 700.342 1613.45 701.509 1613.5 703.29C1613.89 717.49 1613.99 861.366 1612.78 865.261C1612.55 866.015 1612.26 866.733 1611.92 867.442C1612.09 867.835 1612.25 868.232 1612.38 868.636C1614.01 873.455 1614.11 899.364 1611.78 904.167Q1468.97 902.69 1326.16 903.821C1326.23 903.681 1326.29 903.54 1326.36 903.402C1326.67 902.807 1326.61 902.984 1326.9 902.286C1328.66 897.996 1328.2 870.64 1326.35 865.847C1327.84 861.754 1327.69 857.544 1326.58 853.384C1328.86 847.598 1328.54 703.891 1326.66 699.891C1326.41 699.36 1326.32 699.267 1325.98 698.721Z"/>
	<path fill="#DC5D7F" d="M1551.33 727.555C1555.07 726.896 1558.81 726.319 1562.37 727.953C1565.74 729.493 1568.61 732.917 1569.65 736.471C1570.66 739.92 1570.31 743.612 1568.52 746.742C1566.44 750.388 1563.4 752.29 1559.42 753.334C1558.07 753.69 1556.77 753.716 1555.37 753.607C1551.77 753.326 1548.11 751.927 1545.89 748.972C1543.55 745.872 1542.86 741.048 1543.63 737.287C1544.63 732.38 1547.47 730.231 1551.33 727.555Z"/>
	<path fill="#F9C5C3" d="M1433.33 756.888C1437.36 756.347 1440.64 756.327 1444.25 758.554Q1444.93 758.977 1445.56 759.465Q1446.18 759.954 1446.76 760.503Q1447.34 761.053 1447.86 761.657Q1448.38 762.262 1448.83 762.916Q1449.29 763.571 1449.67 764.267Q1450.06 764.964 1450.38 765.696Q1450.69 766.428 1450.93 767.188Q1451.17 767.949 1451.33 768.729C1452.15 772.633 1451.49 776.803 1449.2 780.106C1446.68 783.749 1443.45 785.387 1439.2 786.223C1436.73 786.968 1433.97 786.253 1431.56 785.481C1428.62 784.539 1426.27 782.328 1424.86 779.612C1422.79 775.611 1422.51 770.542 1423.92 766.276C1425.52 761.433 1429.02 759.167 1433.33 756.888Z"/>
	<path fill="#105895" d="M1514.32 770.883Q1515.25 771.3 1516.13 771.83C1520.24 774.297 1537.94 790.95 1539.06 795.652C1518.04 815.43 1498.34 836.873 1478.12 857.477C1469.65 866.102 1456.43 882.437 1446.03 887.762C1445.7 886.645 1445.46 885.831 1444.64 884.96C1431.65 871.106 1417.41 858.053 1403.92 844.647C1395.57 836.344 1386.51 825.246 1376.97 818.506C1371.19 824.801 1332.19 864.59 1326.35 865.847C1327.84 861.754 1327.69 857.544 1326.58 853.384C1326.92 853.278 1327.27 853.172 1327.6 853.045C1331.42 851.589 1387.1 795.915 1388.51 792.75C1388.79 792.91 1389.08 793.065 1389.36 793.231C1394.98 796.536 1439.79 841.027 1440.91 845.311C1441.6 844.986 1441.72 844.95 1442.33 844.589C1447.2 841.691 1513.15 775.647 1514.32 770.883Z"/>
	<path fill="#0A2A56" d="M1539.06 795.652C1542.23 797.227 1611.2 865.8 1611.92 867.442C1612.09 867.835 1612.25 868.232 1612.38 868.636C1614.01 873.455 1614.11 899.364 1611.78 904.167Q1468.97 902.69 1326.16 903.821C1326.23 903.681 1326.29 903.54 1326.36 903.402C1326.67 902.807 1326.61 902.984 1326.9 902.286C1328.66 897.996 1328.2 870.64 1326.35 865.847C1332.19 864.59 1371.19 824.801 1376.97 818.506C1386.51 825.246 1395.57 836.344 1403.92 844.647C1417.41 858.053 1431.65 871.106 1444.64 884.96C1445.46 885.831 1445.7 886.645 1446.03 887.762C1456.43 882.437 1469.65 866.102 1478.12 857.477C1498.34 836.873 1518.04 815.43 1539.06 795.652Z"/>
	<path fill="#0A2A56" d="M1308.62 342.58C1314.62 341.797 1358.28 340.823 1361.17 342.986C1363.6 342.322 1366.3 342.252 1368.8 342.003C1405.31 342.932 1441.97 342.213 1478.49 342.179C1480.92 346.936 1481 359.917 1479.64 365.182C1479.53 365.615 1479.29 366.162 1479.13 366.555C1480.03 368.326 1480.28 369.724 1480.34 371.675C1481.81 416.758 1480.45 462.422 1480.44 507.564C1480.43 518.83 1481.93 555.075 1479.96 563.415C1479.78 564.191 1479.42 564.744 1479 565.406L1304.65 565.562L1252.3 565.571C1241.78 565.581 1230.77 564.975 1220.33 566.425C1215.01 567.164 1210.2 569.279 1206.35 573.071C1202.33 577.021 1200.2 581.969 1199.09 587.424C1196.44 600.449 1198.39 636.209 1198.41 651.061C1198.44 676.468 1197.49 691.989 1167.45 692.166L1145.13 692.135C1147.34 688.3 1145.62 681.298 1144.48 677.239C1141.18 665.453 1133.14 652.721 1123.22 645.562C1134.51 641.875 1143.45 630.973 1148.59 620.635C1150.95 615.91 1154.67 606.44 1152.74 601.181C1152.68 601.038 1152.62 600.899 1152.56 600.757C1152.68 600.602 1153.15 599.997 1153.3 599.767C1155.44 596.384 1153.59 587.719 1152.8 583.979C1151.74 578.968 1149.77 570.621 1145.38 567.726C1145.49 563.491 1141.58 558.526 1138.92 555.344C1129.77 544.397 1113.38 534.46 1099.1 533.161C1099.37 530.477 1107.36 516.699 1108.87 511.85C1110.52 506.526 1111.23 499.3 1108.62 494.208C1123.17 494.219 1217.11 495.854 1223.43 493.494C1196.55 492.179 1168.98 493.472 1142.02 493.568C1133.09 493.6 1123.4 494.491 1114.56 493.65C1112.41 493.446 1111.78 493.274 1110.15 491.957L1110.51 490.702C1116.49 488.246 1183.64 489.783 1195.41 489.784C1200.74 489.784 1209.64 490.932 1214.62 489.401C1214.92 489.308 1215.22 489.201 1215.52 489.1C1221.72 488.933 1227.06 488.542 1233 486.436C1244.24 482.454 1253.71 474.587 1258.77 463.675C1262.8 454.966 1264.92 439.276 1261.54 430.088C1263.55 429.388 1264.82 429.044 1266.92 429.552Q1269.1 429.097 1271.25 428.534C1278.48 426.612 1286.45 421.621 1290.21 414.991C1291.82 412.165 1292.83 409.561 1291.99 406.304L1293.62 403.937C1294.43 395.431 1295.38 347.114 1292.35 342.101C1297.69 342.048 1303.35 341.603 1308.62 342.58Z"/>
	<path fill="#105895" d="M1384.3 363.11C1400.23 361.401 1417.56 362.726 1433.64 362.764C1434.59 364.382 1434.75 365.607 1434.91 367.456C1435.29 372.199 1435.9 377.847 1432.75 381.574C1425.37 383.915 1393.37 382.287 1383.43 382.233C1385.9 378.377 1385.19 367.627 1384.3 363.11Z"/>
	<path fill="#105895" d="M1384.33 436.888C1400.67 435.96 1417.24 436.493 1433.62 436.511C1434.09 437.297 1434.41 437.862 1434.64 438.757C1435.59 442.488 1435.85 452.34 1433.59 455.557C1427.91 457.838 1391.69 456.162 1383.4 456.126C1385.94 452.029 1385.05 441.644 1384.33 436.888Z"/>
	<path fill="#105895" d="M1384.25 399.554C1398.23 397.254 1418.99 398.895 1433.67 398.895C1434.19 399.688 1434.58 400.452 1434.81 401.387C1435.93 405.932 1435.87 414.299 1433.39 418.223C1423.6 420.409 1395.1 418.688 1383.63 418.66C1383.77 418.43 1383.91 418.206 1384.04 417.971C1385.91 414.535 1385.35 403.411 1384.25 399.554Z"/>
	<path fill="#105895" d="M1384.1 474.221C1399.07 471.985 1417.78 473.684 1433.15 473.73C1433.98 474.949 1434.48 476.163 1434.68 477.627C1435.25 481.578 1435.79 489.609 1433.35 492.89C1427.57 494.954 1392.47 493.618 1383.35 493.799C1383.5 493.568 1383.67 493.343 1383.8 493.105C1385.82 489.641 1385.14 478.108 1384.1 474.221Z"/>
	<path fill="#105895" d="M1389.87 510.667Q1411.62 510.386 1433.38 510.55C1434.92 513.944 1435.39 519.963 1435.33 523.754C1435.28 526.451 1434.53 528.59 1432.68 530.462L1427.87 530.469L1383.2 530.5C1386.15 525.845 1383.89 518.335 1385.02 512.89C1386.67 510.737 1387.13 511.052 1389.87 510.667Z"/>
	<path fill="#FCFDFC" d="M1308.62 342.58C1314.62 341.797 1358.28 340.823 1361.17 342.986C1364.09 350.257 1363.05 408.747 1359.95 416.299C1357.27 422.849 1350.89 426.922 1344.58 429.47C1342.93 430.137 1341.23 430.692 1339.53 431.232C1342.47 439.82 1340.03 464.264 1336.07 472.413Q1335.65 473.302 1335.18 474.169Q1334.72 475.036 1334.21 475.879Q1333.7 476.722 1333.15 477.538Q1332.6 478.355 1332.01 479.143Q1331.42 479.931 1330.8 480.689Q1330.17 481.447 1329.5 482.173Q1328.84 482.898 1328.14 483.59Q1327.44 484.282 1326.71 484.938Q1325.97 485.594 1325.21 486.213Q1324.44 486.832 1323.65 487.412Q1322.85 487.992 1322.03 488.532Q1321.21 489.072 1320.36 489.57Q1319.51 490.068 1318.64 490.524Q1317.76 490.979 1316.87 491.391Q1315.98 491.802 1315.06 492.169Q1314.15 492.535 1313.22 492.856Q1312.33 493.155 1311.43 493.409Q1310.53 493.662 1309.62 493.87Q1308.71 494.078 1307.79 494.24Q1306.87 494.402 1305.94 494.517Q1305.02 494.632 1304.08 494.7Q1303.15 494.768 1302.22 494.789Q1301.28 494.81 1300.35 494.784Q1299.41 494.758 1298.48 494.684Q1297.55 494.611 1296.62 494.491Q1295.7 494.371 1294.78 494.204Q1293.86 494.037 1292.95 493.824Q1292.04 493.611 1291.14 493.352Q1290.24 493.093 1289.36 492.789Q1288.47 492.485 1287.6 492.137Q1286.74 491.789 1285.89 491.398Q1285.04 491.007 1284.21 490.573C1273.98 485.268 1268.63 476.828 1263.41 466.994C1260.39 476.371 1251.05 483.978 1242.62 488.349C1236.52 491.508 1230.3 493.329 1223.43 493.494C1196.55 492.179 1168.98 493.472 1142.02 493.568C1133.09 493.6 1123.4 494.491 1114.56 493.65C1112.41 493.446 1111.78 493.274 1110.15 491.957L1110.51 490.702C1116.49 488.246 1183.64 489.783 1195.41 489.784C1200.74 489.784 1209.64 490.932 1214.62 489.401C1214.92 489.308 1215.22 489.201 1215.52 489.1C1221.72 488.933 1227.06 488.542 1233 486.436C1244.24 482.454 1253.71 474.587 1258.77 463.675C1262.8 454.966 1264.92 439.276 1261.54 430.088C1263.55 429.388 1264.82 429.044 1266.92 429.552Q1269.1 429.097 1271.25 428.534C1278.48 426.612 1286.45 421.621 1290.21 414.991C1291.82 412.165 1292.83 409.561 1291.99 406.304L1293.62 403.937C1294.43 395.431 1295.38 347.114 1292.35 342.101C1297.69 342.048 1303.35 341.603 1308.62 342.58Z"/>
	<path fill="#0A2A56" d="M1292.35 342.101C1297.69 342.048 1303.35 341.603 1308.62 342.58C1310.65 346.172 1310.26 351.182 1310.34 355.201C1310.66 370.469 1307.19 397.379 1311.05 410.902C1312.72 416.731 1316.3 422.18 1321.13 425.869C1324.9 428.739 1329.55 429.455 1333.88 431.058C1336.38 444.788 1335.99 463.381 1327.9 475.212C1323.15 482.162 1316.05 487.332 1307.69 488.84C1298.64 490.474 1288.6 487.803 1281.18 482.462C1273.92 477.24 1270.47 469.498 1269.16 460.836C1267.94 452.786 1270.45 435.573 1266.92 429.552Q1269.1 429.097 1271.25 428.534C1278.48 426.612 1286.45 421.621 1290.21 414.991C1291.82 412.165 1292.83 409.561 1291.99 406.304L1293.62 403.937C1294.43 395.431 1295.38 347.114 1292.35 342.101Z"/>
</svg>
