<?xml version="1.0" encoding="utf-8" ?>
<svg xmlns="http://www.w3.org/2000/svg" xmlns:xlink="http://www.w3.org/1999/xlink" width="1820" height="1024">
	<path fill="#1B4471" d="M0 0L1818.44 0C1820.58 3.35778 1819.99 8.22266 1820 12.0828L1820 742.336L1820.01 943.951L1820 997.417C1819.99 1004.76 1820.98 1013.76 1819.75 1020.9C1819.56 1022.02 1819.05 1023.05 1818.44 1024L0 1024L0 0Z"/>
	<path fill="#FDFEFE" d="M162.684 611.427C164.382 611.372 166.542 611.135 168.179 611.614C174.303 613.406 170.962 619.96 173.545 624.357C176.628 626.711 179.152 625.516 182.702 626.503C184.592 627.029 186.164 628.152 186.986 629.994C188.001 632.269 187.61 633.664 186.89 635.848C183.307 639.681 178.424 639.617 173.532 639.842C173.066 645.428 172.892 650.019 169.269 654.503C166.48 654.77 163.344 655.102 161.117 652.993C158.027 650.067 158.297 643.335 157.978 639.321C154.959 639.122 151.197 639.602 148.501 637.998C146.213 636.637 145.469 635.223 144.764 632.834C144.981 631.675 145.267 630.637 146.014 629.694C149.131 625.759 153.755 625.965 158.317 625.69C158.81 619.865 158.971 616.097 162.684 611.427Z"/>
	<path fill="#43D2DB" d="M430.283 96.6853C432.565 96.742 434.872 97.0012 436.629 98.6297C440.234 101.972 439.114 110.017 439.075 114.545C443.021 114.208 448.696 113.396 452.303 115.381C454.809 116.76 455.52 118.177 456.17 120.751C455.775 121.911 455.468 122.735 454.563 123.601C450.446 127.536 444.301 126.4 439.067 126.247C439.158 132.49 439.726 137.44 435.852 142.757C434.87 142.945 433.78 143.183 432.779 143.129C430.13 142.984 429.247 142.169 427.461 140.443C425.653 136.305 426.433 130.725 426.536 126.27C422.797 126.327 417.053 127.12 413.719 125.38C411.187 124.058 410.323 122.712 409.563 120.153C409.939 118.973 410.377 118.032 411.325 117.192C415.57 113.433 421.32 114.381 426.574 114.488C426.575 112.576 426.504 110.664 426.482 108.752C426.42 103.441 426.377 100.694 430.283 96.6853Z"/>
	<path fill="#3DF0E8" d="M978.511 83.0757Q979.296 83.0604 980.081 83.0816C982.233 83.1502 984.325 83.5884 985.773 85.3289C988.511 88.6216 987.449 95.5584 987.308 99.627C991.875 99.4534 998.102 98.4715 1001.8 101.789C1003.69 103.486 1003.97 104.547 1004.27 106.902C1003.74 108.122 1003.19 109.295 1002.21 110.217C998.201 113.969 992.423 113.064 987.38 112.922L987.417 114.181C987.577 120.122 988.198 124.24 983.81 128.878C980.159 128.953 978.732 128.607 976.089 126.158C974.236 122.259 975.086 116.863 975.242 112.625C970.268 112.822 963.965 113.788 960.046 110.034C958.363 108.423 958.25 107.408 958.142 105.254C958.671 104.136 959.233 103.103 960.181 102.278C964.313 98.6832 969.884 99.5831 974.952 99.7349C974.864 93.1156 974.623 88.7724 978.511 83.0757Z"/>
	<path fill="#43D2DB" d="M456.656 883.103C458.868 883.557 461.528 884.355 462.996 886.17C466.114 890.023 464.679 897.886 464.418 902.569C469.205 902.407 475.949 901.386 480.068 904.29C482.186 905.783 482.5 906.603 482.846 908.981C482.474 909.786 482.038 910.613 481.402 911.245C476.837 915.783 469.704 914.666 463.853 914.526C464.063 920.868 465.356 927.158 460.757 932.183C458.747 931.889 456.406 931.486 454.959 930.003C451.471 926.425 452.771 919.178 452.947 914.526C448.321 914.66 442.176 915.467 438.06 913.122C435.545 911.689 434.805 910.495 434.159 907.86C434.481 907.035 434.862 906.161 435.467 905.5C439.52 901.073 447.005 902.286 452.38 902.51C452.282 899.183 452.135 895.821 452.219 892.494C452.333 887.929 453.466 886.127 456.656 883.103Z"/>
	<path fill="#FDFEFE" d="M947.424 893.483C950.623 893.378 953.861 893.208 956.938 894.234C961.474 895.744 965.451 899.003 967.528 903.343Q967.905 904.141 968.2 904.972Q968.495 905.803 968.706 906.66Q968.916 907.517 969.039 908.39Q969.162 909.264 969.196 910.145Q969.231 911.026 969.177 911.907Q969.123 912.787 968.981 913.658Q968.839 914.529 968.61 915.381Q968.381 916.232 968.068 917.057C965.856 922.994 961.648 926.093 956.115 928.717C952.855 928.975 949.359 928.974 946.249 927.874Q945.396 927.581 944.575 927.205Q943.755 926.829 942.975 926.374Q942.196 925.919 941.465 925.39Q940.734 924.861 940.059 924.262Q939.384 923.663 938.771 923Q938.158 922.338 937.613 921.618Q937.068 920.898 936.597 920.128Q936.126 919.359 935.733 918.546Q935.355 917.749 935.059 916.918Q934.764 916.087 934.554 915.231Q934.345 914.374 934.223 913.5Q934.101 912.627 934.068 911.745Q934.035 910.864 934.092 909.984Q934.149 909.104 934.294 908.234Q934.44 907.364 934.672 906.513Q934.905 905.663 935.223 904.84C937.508 898.855 941.785 895.96 947.424 893.483Z"/>
	<path fill="#FDFEFE" d="M429.332 191.252C433.202 191.062 436.815 191.154 440.399 192.807Q441.248 193.198 442.055 193.67Q442.861 194.143 443.617 194.693Q444.373 195.243 445.071 195.865Q445.769 196.487 446.402 197.175Q447.035 197.862 447.597 198.609Q448.159 199.356 448.645 200.155Q449.131 200.954 449.535 201.797Q449.94 202.639 450.259 203.518C451.821 207.827 451.699 212.618 449.685 216.763C447.04 222.206 442.565 224.754 437.022 226.585C433.315 226.78 429.623 226.61 426.154 225.17Q425.315 224.825 424.514 224.398Q423.714 223.97 422.961 223.465Q422.207 222.959 421.508 222.381Q420.809 221.802 420.171 221.156Q419.534 220.511 418.964 219.804Q418.395 219.098 417.899 218.338Q417.403 217.578 416.986 216.772Q416.569 215.966 416.235 215.122Q415.926 214.33 415.698 213.512Q415.469 212.694 415.323 211.857Q415.177 211.02 415.115 210.172Q415.053 209.325 415.075 208.475Q415.098 207.626 415.204 206.783Q415.311 205.94 415.501 205.112Q415.692 204.283 415.963 203.478Q416.235 202.673 416.585 201.899C419.177 196.211 423.695 193.386 429.332 191.252Z"/>
	<path fill="#43D2DB" d="M1628.89 621.776C1630.77 621.46 1633.14 621.139 1634.82 622.18C1636.66 623.322 1637.79 625.478 1638.17 627.584C1638.8 631.149 1638.16 636.853 1636.22 639.938C1642.18 639.73 1649.81 638.615 1654.78 642.709C1656.66 644.254 1656.77 644.846 1656.92 647.109C1656.48 647.887 1655.97 648.664 1655.29 649.257C1650.16 653.714 1642.64 652.619 1636.37 652.473C1636.63 652.883 1636.69 652.956 1636.94 653.444C1638.51 656.548 1638.85 662.923 1637.51 666.208C1636.43 668.861 1635.18 669.082 1632.71 670.141C1631.25 670.359 1629.76 669.951 1628.33 669.698C1622.96 665.18 1626.79 659.164 1624.28 653.344C1624.21 653.165 1624.11 652.992 1624.03 652.815C1619.52 652.95 1612.96 653.911 1609.33 650.8C1607.26 649.024 1606.97 648.032 1606.6 645.497C1607.12 644.217 1607.68 643.21 1608.69 642.246C1612.98 638.175 1619.24 639.218 1624.66 639.392C1627.92 634.061 1624.55 627.808 1628.89 621.776Z"/>
	<path fill="#03185A" d="M1352.23 829.363C1352.4 829.235 1352.57 829.098 1352.75 828.979C1355.25 827.334 1358.29 827.936 1360.99 828.541C1364.09 837.496 1360.76 851.855 1356.78 860.002C1351.84 870.112 1343.65 877.57 1332.9 881.044C1328.7 882.399 1324.35 883.089 1319.96 883.431C1312.39 884.022 1267.26 884.876 1262.55 882.656C1265.93 880.989 1269.5 877.897 1271.53 874.712C1284.78 875.513 1318.58 877.126 1329.81 873.338C1339.02 870.233 1346.16 863.175 1350.41 854.539C1353.57 848.139 1354.61 836.208 1352.23 829.363Z"/>
	<path fill="#03185A" d="M1191.52 910.201C1195.41 909.158 1200.06 909.392 1204.09 909.201Q1221.68 909.825 1239.29 909.66C1241.39 914.059 1241.89 936.696 1240.2 941.643C1239.95 942.375 1239.64 943.035 1239.29 943.722C1239.21 943.878 1239.14 944.037 1239.07 944.195C1222.94 944.326 1206.64 944.979 1190.53 944.466C1194.23 936.633 1190.84 919.47 1191.52 910.201Z"/>
	<path fill="#03185A" d="M1160.41 909.188C1166.6 909.326 1175.94 908.4 1181.65 910.423C1181.77 917.535 1183.58 938.931 1180.33 944.236C1163.27 944.69 1146.16 944.463 1129.09 944.469C1129.54 943.62 1129.93 942.834 1130.22 941.912C1131.76 936.985 1131.85 913.815 1129.31 909.251C1139.67 909.357 1150.06 909.659 1160.41 909.188Z"/>
	<path fill="#FDFEFE" d="M1373.69 102.666C1380.73 101.827 1387.23 102.739 1393.11 107.027Q1393.61 107.393 1394.1 107.784Q1394.58 108.175 1395.04 108.59Q1395.51 109.005 1395.95 109.443Q1396.39 109.882 1396.81 110.342Q1397.23 110.802 1397.63 111.282Q1398.02 111.763 1398.39 112.263Q1398.76 112.763 1399.1 113.282Q1399.45 113.8 1399.77 114.335Q1400.08 114.871 1400.37 115.421Q1400.66 115.972 1400.93 116.536Q1401.19 117.101 1401.42 117.678Q1401.65 118.255 1401.85 118.844Q1402.06 119.432 1402.23 120.03Q1402.4 120.628 1402.55 121.233Q1402.69 121.839 1402.8 122.452Q1402.91 123.064 1402.99 123.681Q1403.07 124.293 1403.11 124.908Q1403.16 125.522 1403.18 126.139Q1403.2 126.755 1403.18 127.372Q1403.17 127.988 1403.13 128.603Q1403.08 129.219 1403.01 129.831Q1402.94 130.443 1402.83 131.051Q1402.73 131.659 1402.6 132.261Q1402.46 132.863 1402.3 133.458Q1402.14 134.053 1401.95 134.639Q1401.76 135.226 1401.54 135.802Q1401.32 136.378 1401.07 136.943Q1400.82 137.507 1400.55 138.059Q1400.27 138.611 1399.97 139.149Q1399.67 139.687 1399.34 140.209Q1399.01 140.731 1398.66 141.237Q1398.31 141.742 1397.93 142.23C1393.73 147.585 1387.84 150.45 1381.2 151.317C1377.48 152.376 1372.5 151.298 1368.97 149.88C1363.24 147.579 1358.94 142.755 1356.58 137.11C1353.97 130.876 1353.79 123.694 1356.44 117.437C1359.91 109.249 1365.87 105.861 1373.69 102.666Z"/>
	<path fill="#1B4471" d="M1375.43 115.998C1378.24 115.54 1380.69 115.368 1383.28 116.772Q1383.83 117.071 1384.34 117.426Q1384.86 117.781 1385.33 118.188Q1385.8 118.595 1386.23 119.049Q1386.66 119.504 1387.04 120Q1387.42 120.497 1387.74 121.031Q1388.06 121.565 1388.33 122.129Q1388.6 122.694 1388.8 123.284Q1389.01 123.873 1389.15 124.481Q1389.3 125.089 1389.38 125.71Q1389.46 126.332 1389.48 126.958Q1389.49 127.584 1389.44 128.208Q1389.39 128.833 1389.26 129.447Q1389.14 130.062 1388.95 130.66Q1388.77 131.258 1388.52 131.831Q1388.26 132.405 1387.95 132.948Q1387.64 133.491 1387.27 133.997C1385.27 136.714 1383 137.625 1379.85 138.224C1379.06 138.374 1378.26 138.362 1377.47 138.267C1375 137.974 1371.83 136.787 1370.29 134.775C1368.08 131.878 1367.83 127.778 1368.5 124.295C1369.31 120.039 1372.12 118.305 1375.43 115.998Z"/>
	<path fill="#1B4471" d="M1301.86 827.427Q1326.73 827.66 1351.61 827.549L1352.23 829.363C1354.61 836.208 1353.57 848.139 1350.41 854.539C1346.16 863.175 1339.02 870.233 1329.81 873.338C1318.58 877.126 1284.78 875.513 1271.53 874.712C1286.74 863.546 1294.93 844.286 1301.86 827.427Z"/>
	<path fill="#11A4CC" d="M196.491 866.517C207.258 869.082 220.933 867.557 232.142 867.468L249.778 867.4L264.444 867.524C272.133 867.525 280.024 867.896 287.685 867.366Q300.338 867.457 312.987 867.803C313.218 874.226 314.989 884.938 310.967 890.186C305.861 893.788 290.671 891.393 283.948 891.701L195.883 891.542L182.27 891.41L181.49 882.154C181.145 877.76 180.116 872.229 183.497 868.712C186.583 865.501 192.377 866.443 196.491 866.517Z"/>
	<path fill="#54D088" d="M153.596 790.188C162.663 790.106 171.69 791.073 180.64 792.442C195.988 793.853 210.228 799.629 220.202 811.779C233.821 828.37 232.19 847.457 232.142 867.468C220.933 867.557 207.258 869.082 196.491 866.517C188.466 862.719 180.955 858.062 174.625 851.79C157.737 835.059 153.703 813.002 153.596 790.188Z"/>
	<path fill="#54D088" d="M322.399 790.491C329.619 790.029 336.915 789.332 344.147 789.269C343.084 813.362 339.083 834.48 320.379 851.405C310.778 860.093 299.775 863.724 287.685 867.366C280.024 867.896 272.133 867.525 264.444 867.524C264.456 849.833 262.507 830.356 271.568 814.387C278.961 801.357 292.282 793.517 307.049 792.017C311.834 791.531 317.404 791.987 321.98 790.626C322.121 790.584 322.259 790.536 322.399 790.491Z"/>
	<path fill="#03185A" d="M195.883 891.542L283.948 891.701C289.497 892.46 295.442 892.058 301.046 892.072C295.954 909.234 296.337 933.037 281.04 944.654C262.662 946.601 234.177 946.586 215.835 944.744C214.677 944.105 213.549 943.423 212.488 942.631C200.422 933.623 198.083 905.959 195.883 891.542Z"/>
	<path fill="#11A971" d="M246.13 671.993C252.169 672.166 259.107 673.438 263.384 678.094C266.818 681.833 267.79 687.532 267.426 692.424C266.907 699.397 260.91 709.56 266.081 715.544C267.458 717.137 268.957 717.638 270.952 718.08C274.182 717.743 276.435 716.601 278.443 714.023C283.088 708.059 285.946 691.603 294.686 690.809C299.538 690.369 305.082 693.319 308.509 696.552C311.268 699.156 313.234 702.543 313.276 706.419C313.415 719.362 285.61 738.382 294.482 746.837C296.49 748.751 299.603 749.758 302.331 749.494C311.649 748.593 324.32 729.734 332.585 736.002C335.977 738.575 339.021 745.408 339.428 749.576C339.897 754.369 337.725 759.007 334.688 762.588C328.023 770.45 309.442 775.282 306.815 784.874C307.362 787.105 307.978 787.621 309.969 788.782C313.723 790.972 318.215 790.597 322.399 790.491C322.259 790.536 322.121 790.584 321.98 790.626C317.404 791.987 311.834 791.531 307.049 792.017C292.282 793.517 278.961 801.357 271.568 814.387C262.507 830.356 264.456 849.833 264.444 867.524L249.778 867.4C249.156 843.201 251.981 680.966 249.507 674.421C248.895 672.802 247.641 672.684 246.13 671.993Z"/>
	<path fill="#33CC98" d="M246.13 671.993C247.641 672.684 248.895 672.802 249.507 674.421C251.981 680.966 249.156 843.201 249.778 867.4L232.142 867.468C232.19 847.457 233.821 828.37 220.202 811.779C210.228 799.629 195.988 793.853 180.64 792.442C180.846 792.429 181.052 792.418 181.258 792.401C183.714 792.198 186.584 791.571 188.155 789.47C189.499 787.674 189.701 784.683 189.229 782.559C187.356 774.121 173.536 772.463 167.292 768.022C162.937 764.924 160.382 759.02 159.659 753.87C158.999 749.17 159.403 743.233 162.589 739.443C170.639 729.866 186.914 750.967 199.895 750.318C201.705 749.366 202.857 748.982 203.577 746.903C207.373 735.942 191.413 724.979 187.821 715.254C186.248 710.995 186.352 706.892 188.315 702.775C190.456 698.286 194.306 694.482 199.064 692.88C215.138 687.469 212.556 713.145 223.55 717.678C225.91 718.652 229.143 718.412 231.405 717.25C238.907 713.395 229.596 693.063 233.381 683.367C235.805 677.154 240.269 674.561 246.13 671.993Z"/>
	<path fill="#FDFEFE" d="M1524.23 117.777C1533.39 117.093 1541.65 118.388 1549.9 122.596C1560.8 128.159 1567.66 136.475 1571.46 148.042C1580.75 146.59 1589.15 147.144 1597.74 151.304C1605.96 155.285 1611.26 161.21 1614.27 169.83C1623.14 171.766 1631.44 174.681 1637.68 181.636Q1638.12 182.135 1638.54 182.655Q1638.96 183.175 1639.35 183.715Q1639.74 184.254 1640.11 184.811Q1640.47 185.369 1640.81 185.943Q1641.15 186.517 1641.46 187.107Q1641.77 187.697 1642.06 188.301Q1642.34 188.905 1642.59 189.522Q1642.85 190.138 1643.07 190.767Q1643.29 191.395 1643.49 192.033Q1643.68 192.671 1643.84 193.318Q1644.01 193.965 1644.14 194.618Q1644.27 195.272 1644.37 195.931Q1644.47 196.59 1644.54 197.254Q1644.61 197.917 1644.65 198.583Q1644.69 199.249 1644.69 199.916Q1644.7 200.583 1644.67 201.249C1634.7 203.264 1595.72 201.604 1582.5 201.565C1565.42 201.611 1481.64 204.327 1471.73 199.073C1467.34 196.74 1464.09 192.463 1462.73 187.702Q1462.58 187.185 1462.46 186.661Q1462.35 186.136 1462.25 185.607Q1462.16 185.077 1462.09 184.544Q1462.03 184.01 1461.99 183.474Q1461.95 182.938 1461.94 182.401Q1461.93 181.863 1461.95 181.326Q1461.96 180.789 1462.01 180.253Q1462.05 179.717 1462.12 179.185Q1462.19 178.652 1462.29 178.123Q1462.39 177.595 1462.51 177.072Q1462.64 176.549 1462.79 176.033Q1462.94 175.517 1463.11 175.009Q1463.29 174.502 1463.49 174.004Q1463.7 173.506 1463.92 173.019Q1464.15 172.532 1464.4 172.057Q1464.65 171.582 1464.93 171.121C1469.15 164.012 1476.03 163.941 1483.17 162.197C1484.9 153.716 1486.96 145.696 1491.63 138.311C1499.31 126.183 1510.67 120.752 1524.23 117.777Z"/>
	<path fill="#43D2DB" d="M443.189 591.91Q475.386 592.068 507.579 591.498L507.692 754.173C507.639 779.181 508.018 804.309 507.396 829.304C486.051 828.633 464.467 829.25 443.098 829.245C442.709 771.335 444.504 713.252 443.174 655.372L443.189 591.91Z"/>
	<path fill="#FDFEFE" d="M229.777 92.7409C241.042 91.747 253.013 94.4648 262.925 99.7685C278.549 108.129 287.87 122.069 292.993 138.594C298.452 134.006 306.023 131.604 313.101 131.473C322.605 131.298 331.265 135.423 338.003 141.972C344.781 148.559 349.176 157.288 349.225 166.841C349.268 175.357 346.238 183.859 340.138 189.901C335.924 194.075 330.598 196.832 324.879 198.303C311.028 201.865 282.997 199.788 267.712 199.714L191.217 199.675C181.276 199.673 168.917 201.208 159.252 199.395C154.553 198.513 150.023 196.068 146.573 192.776Q146.113 192.335 145.675 191.871Q145.237 191.408 144.822 190.923Q144.408 190.438 144.018 189.933Q143.629 189.429 143.264 188.905Q142.9 188.382 142.562 187.841Q142.224 187.3 141.914 186.743Q141.603 186.186 141.321 185.614Q141.038 185.043 140.784 184.458Q140.53 183.873 140.306 183.276Q140.081 182.679 139.887 182.071Q139.692 181.464 139.528 180.848Q139.363 180.232 139.23 179.608Q139.096 178.984 138.994 178.355Q138.892 177.725 138.821 177.092Q138.75 176.458 138.71 175.821Q138.671 175.185 138.663 174.547Q138.649 173.924 138.667 173.302Q138.684 172.679 138.732 172.058Q138.78 171.437 138.859 170.82Q138.938 170.202 139.048 169.589Q139.158 168.976 139.297 168.369Q139.437 167.762 139.607 167.163Q139.777 166.564 139.977 165.974Q140.176 165.384 140.404 164.805Q140.633 164.225 140.89 163.658Q141.147 163.091 141.432 162.537Q141.717 161.983 142.029 161.444Q142.341 160.905 142.679 160.383Q143.017 159.86 143.381 159.354Q143.745 158.849 144.134 158.363Q144.522 157.876 144.935 157.409Q145.347 156.943 145.782 156.497C152.881 149.172 161.071 148.294 170.642 148.264C172.647 137.09 176.953 126.188 183.972 117.194C195.496 102.426 211.589 94.9559 229.777 92.7409Z"/>
	<path fill="#43D2DB" d="M398.625 592.15C410.217 591.886 422.993 590.941 434.495 592.09L434.399 829.232C408.398 830.523 381.707 829.254 355.634 829.225L355.617 640.74L368.351 656.472C380.976 635.089 397.504 618.391 398.625 592.15Z"/>
	<path fill="#11A971" d="M1488.55 608.842C1489.47 610.539 1490.24 612.131 1490.85 613.96C1495.25 616.942 1499.16 615.169 1504.19 615.093C1506.48 622.084 1506.29 692.222 1504.12 696.921C1506.22 701.609 1506.52 733.09 1504.62 738.122C1504.36 738.79 1504.35 738.799 1504.07 739.362C1484.86 740.049 1465.52 739.533 1446.3 739.5C1447.3 741.241 1447.57 742.575 1447.66 744.564C1448.35 759.6 1447.78 774.945 1447.78 790.014L1447.81 876.336L1447.84 920.935C1447.84 927.794 1448.82 936.371 1447.35 943.037C1437.72 944.349 1426.25 943.33 1416.44 943.358C1416.98 942.481 1417.41 941.588 1417.69 940.594C1419.22 935.175 1419.03 890.981 1416.72 886.983C1403.11 887.294 1389.44 887.042 1375.83 887.06C1376.42 886.105 1376.9 885.075 1377.12 883.965C1378.06 879.023 1378.27 834.103 1376.96 830.735C1376.71 830.067 1375.94 829.219 1375.53 828.601C1370.74 828.269 1365.79 828.536 1360.99 828.541C1362.52 822.295 1362.05 647.518 1360.59 643.546L1361.19 643.795C1366.36 645.985 1371.12 649.054 1376.25 651.376C1384.21 654.982 1397.99 658.118 1404.35 663.282C1406.3 663.314 1406.21 663.409 1407.63 662.094C1412.67 663.759 1420.21 661.231 1425.01 659.457C1428.06 658.328 1431.23 657.005 1433.91 655.127C1439.51 651.201 1443.67 645.249 1449.09 641.017C1456.67 635.083 1486.79 618.523 1489.74 612.015L1488.55 608.842Z"/>
	<path fill="#43D2DB" d="M1488.55 608.842C1489.47 610.539 1490.24 612.131 1490.85 613.96C1495.25 616.942 1499.16 615.169 1504.19 615.093C1506.48 622.084 1506.29 692.222 1504.12 696.921C1501.31 698.834 1397.23 697.799 1384.75 697.724C1385.8 699.417 1386.12 700.76 1386.24 702.723C1387.81 726.403 1386.1 751.173 1386.07 774.985C1386.05 788.322 1388.22 816.406 1385.77 827.792C1382.34 828.603 1379.04 828.596 1375.53 828.601C1370.74 828.269 1365.79 828.536 1360.99 828.541C1362.52 822.295 1362.05 647.518 1360.59 643.546L1361.19 643.795C1366.36 645.985 1371.12 649.054 1376.25 651.376C1384.21 654.982 1397.99 658.118 1404.35 663.282C1406.3 663.314 1406.21 663.409 1407.63 662.094C1412.67 663.759 1420.21 661.231 1425.01 659.457C1428.06 658.328 1431.23 657.005 1433.91 655.127C1439.51 651.201 1443.67 645.249 1449.09 641.017C1456.67 635.083 1486.79 618.523 1489.74 612.015L1488.55 608.842Z"/>
	<path fill="#33CC98" d="M1504.07 739.362C1560.82 740.762 1617.86 739.458 1674.64 739.387C1675.94 741.384 1676.2 742.993 1676.3 745.324C1676.85 759.719 1676.31 774.308 1676.27 788.729L1676.35 866.034L1676.46 918.908C1676.45 925.655 1677.46 934.198 1675.94 940.635C1675.72 941.583 1675.33 942.331 1674.83 943.156L1520.89 943.223C1496.47 943.18 1471.71 944.118 1447.35 943.037C1448.82 936.371 1447.84 927.794 1447.84 920.935L1447.81 876.336L1447.78 790.014C1447.78 774.945 1448.35 759.6 1447.66 744.564C1447.57 742.575 1447.3 741.241 1446.3 739.5C1465.52 739.533 1484.86 740.049 1504.07 739.362Z"/>
	<path fill="#FDFEFE" d="M1467.24 841.332C1469.61 841.283 1471.73 841.29 1473.87 842.512C1475.91 843.68 1477.52 845.762 1478.08 848.048C1478.63 850.252 1478.24 852.404 1477.01 854.31C1475.28 857.015 1472.98 857.659 1470.03 858.224Q1468.6 858.316 1467.19 858.063Q1466.82 858 1466.46 857.899Q1466.1 857.799 1465.76 857.661Q1465.41 857.523 1465.08 857.35Q1464.75 857.177 1464.44 856.971Q1464.13 856.765 1463.84 856.527Q1463.56 856.29 1463.29 856.023Q1463.03 855.757 1462.8 855.465Q1462.57 855.173 1462.37 854.859C1461.07 852.843 1460.86 850.279 1461.41 847.978C1462.24 844.531 1464.34 842.946 1467.24 841.332Z"/>
	<path fill="#FDFEFE" d="M1557.16 773.778C1566.94 773.726 1576.32 774.912 1585.54 778.229C1604.08 784.892 1618.46 797.935 1626.78 815.808C1630.15 823.038 1635.53 838.246 1632.78 845.741L1647.81 845.677C1650.84 844.028 1652.75 840.221 1656.03 839.266C1658.47 838.558 1661.81 838.772 1663.91 840.238C1665.97 841.684 1667.13 843.932 1667.48 846.397C1667.95 849.688 1666.98 853.367 1664.73 855.849C1663.12 857.625 1661.11 858.564 1658.71 858.555C1653.4 858.534 1651.72 855.005 1648.45 851.73L1631.47 851.787C1631.54 851.959 1631.62 852.127 1631.68 852.302C1633.58 857.481 1630.41 865.966 1628.33 870.931C1623.29 882.962 1612.33 899.299 1599.86 904.445C1593.39 911.584 1576.42 915.353 1566.93 916.244Q1565.15 916.403 1563.37 916.474Q1561.59 916.546 1559.8 916.529Q1558.02 916.512 1556.24 916.406Q1554.45 916.301 1552.68 916.107Q1550.91 915.914 1549.14 915.633Q1547.38 915.352 1545.64 914.984Q1543.89 914.616 1542.16 914.163Q1540.44 913.709 1538.74 913.17Q1537.04 912.632 1535.36 912.009Q1533.69 911.387 1532.05 910.683Q1530.41 909.979 1528.81 909.194Q1527.2 908.41 1525.64 907.547Q1524.08 906.684 1522.56 905.745Q1521.05 904.806 1519.58 903.793Q1518.11 902.78 1516.69 901.696Q1515.27 900.611 1513.91 899.458Q1512.57 898.347 1511.28 897.171Q1509.99 895.995 1508.76 894.756Q1507.53 893.518 1506.37 892.219Q1505.21 890.921 1504.11 889.567Q1503.01 888.213 1501.98 886.805Q1500.95 885.398 1499.99 883.942Q1499.03 882.485 1498.14 880.983Q1497.26 879.48 1496.45 877.935Q1495.64 876.391 1494.9 874.808Q1494.17 873.225 1493.52 871.608Q1492.87 869.99 1492.29 868.343Q1491.72 866.695 1491.23 865.021Q1490.74 863.347 1490.34 861.65Q1489.93 859.954 1489.61 858.24Q1489.29 856.525 1489.06 854.797Q1488.82 853.069 1488.67 851.331C1487.15 832.684 1493.46 812.907 1505.68 798.773C1519.13 783.228 1536.78 775.201 1557.16 773.778Z"/>
	<path fill="#33CC98" d="M1547.38 781.777C1565.12 779.644 1582.71 781.829 1597.84 791.989C1612.03 801.516 1621.8 816.968 1625 833.708Q1625.29 835.25 1625.5 836.804Q1625.71 838.358 1625.85 839.921Q1625.98 841.483 1626.04 843.051Q1626.09 844.618 1626.07 846.186Q1626.05 847.755 1625.95 849.32Q1625.86 850.885 1625.68 852.444Q1625.51 854.003 1625.25 855.551Q1625 857.099 1624.67 858.632Q1624.35 860.166 1623.94 861.682Q1623.54 863.197 1623.06 864.691Q1622.58 866.185 1622.03 867.653Q1621.48 869.121 1620.86 870.561Q1620.23 872 1619.54 873.406Q1618.85 874.813 1618.08 876.184Q1617.32 877.555 1616.49 878.886Q1615.66 880.217 1614.77 881.506C1604.78 895.895 1588.41 905.423 1571.3 908.459C1570.84 908.676 1570.79 908.718 1570.22 908.868C1556.96 912.334 1540.1 907.771 1528.5 901.144Q1527.11 900.351 1525.75 899.491Q1524.4 898.63 1523.09 897.704Q1521.78 896.777 1520.52 895.787Q1519.26 894.797 1518.05 893.746Q1516.84 892.695 1515.68 891.585Q1514.53 890.475 1513.43 889.309Q1512.32 888.143 1511.28 886.924Q1510.24 885.705 1509.26 884.436Q1508.28 883.166 1507.37 881.85Q1506.45 880.534 1505.6 879.174Q1504.75 877.815 1503.97 876.414Q1503.19 875.014 1502.48 873.577Q1501.76 872.14 1501.13 870.669Q1500.49 869.198 1499.92 867.698Q1499.36 866.197 1498.86 864.671Q1498.37 863.144 1497.96 861.595C1493.59 844.884 1496.01 826.171 1504.95 811.345C1514.57 795.382 1529.69 786.14 1547.38 781.777Z"/>
	<path fill="#FDFEFE" d="M1553.82 796.888C1568.13 795.731 1582.36 798.745 1593.59 808.139C1603.27 816.24 1609.49 828.72 1610.43 841.29Q1610.51 842.495 1610.53 843.703Q1610.55 844.91 1610.51 846.117Q1610.48 847.324 1610.38 848.528Q1610.28 849.732 1610.13 850.929Q1609.97 852.127 1609.76 853.316Q1609.55 854.504 1609.28 855.681Q1609 856.858 1608.68 858.02Q1608.35 859.183 1607.96 860.327Q1607.58 861.472 1607.14 862.597Q1606.7 863.722 1606.21 864.824Q1605.71 865.926 1605.17 867.003Q1604.62 868.08 1604.02 869.129Q1603.42 870.177 1602.77 871.196Q1602.13 872.214 1601.43 873.2Q1600.73 874.185 1599.99 875.136Q1599.24 876.086 1598.45 876.999Q1597.65 877.902 1596.81 878.764Q1595.97 879.627 1595.09 880.447Q1594.21 881.267 1593.29 882.043Q1592.37 882.819 1591.41 883.548Q1590.45 884.278 1589.46 884.959Q1588.47 885.641 1587.44 886.273Q1586.42 886.905 1585.36 887.486Q1584.31 888.067 1583.23 888.595Q1582.14 889.123 1581.04 889.598Q1579.93 890.072 1578.8 890.492Q1577.67 890.911 1576.53 891.274Q1575.38 891.638 1574.21 891.945Q1573.05 892.251 1571.87 892.5Q1570.69 892.749 1569.5 892.94Q1568.32 893.131 1567.12 893.263Q1565.92 893.395 1564.72 893.468C1553.93 895.056 1541.67 891.364 1532.72 885.397C1522.07 878.296 1514.09 867.328 1511.7 854.654Q1511.48 853.463 1511.31 852.263Q1511.15 851.062 1511.04 849.855Q1510.93 848.648 1510.89 847.437Q1510.84 846.227 1510.85 845.015Q1510.86 843.803 1510.94 842.594Q1511.01 841.384 1511.14 840.18Q1511.27 838.975 1511.46 837.778Q1511.65 836.581 1511.89 835.395Q1512.14 834.209 1512.45 833.036Q1512.75 831.863 1513.11 830.707Q1513.47 829.551 1513.89 828.413Q1514.31 827.276 1514.78 826.16Q1515.26 825.045 1515.78 823.954Q1516.31 822.863 1516.89 821.799Q1517.47 820.734 1518.1 819.7Q1518.73 818.665 1519.41 817.663C1527.96 805.231 1539.45 799.675 1553.82 796.888Z"/>
	<path fill="#33CC98" d="M1552.78 803.999C1565.51 802.567 1577.51 804.332 1587.76 812.658Q1588.58 813.323 1589.36 814.028Q1590.14 814.734 1590.89 815.477Q1591.64 816.22 1592.35 816.999Q1593.06 817.778 1593.73 818.592Q1594.4 819.405 1595.03 820.251Q1595.66 821.096 1596.25 821.972Q1596.83 822.848 1597.38 823.752Q1597.92 824.656 1598.42 825.586Q1598.91 826.515 1599.36 827.468Q1599.81 828.422 1600.22 829.396Q1600.62 830.37 1600.97 831.363Q1601.33 832.356 1601.63 833.366Q1601.93 834.375 1602.19 835.398Q1602.44 836.422 1602.65 837.456Q1602.85 838.491 1603 839.534Q1603.15 840.577 1603.25 841.627C1604.18 852.36 1600.09 863.593 1593.22 871.773Q1592.56 872.561 1591.86 873.314Q1591.16 874.068 1590.43 874.786Q1589.69 875.504 1588.92 876.184Q1588.15 876.864 1587.34 877.505Q1586.54 878.146 1585.71 878.746Q1584.87 879.346 1584.01 879.903Q1583.14 880.461 1582.25 880.974Q1581.36 881.488 1580.45 881.956Q1579.53 882.424 1578.6 882.847Q1577.66 883.269 1576.7 883.643Q1575.74 884.018 1574.77 884.345Q1573.79 884.671 1572.8 884.948Q1571.81 885.226 1570.81 885.453Q1569.81 885.681 1568.8 885.858Q1567.79 886.035 1566.77 886.161Q1565.75 886.288 1564.72 886.363C1555.81 887.221 1547.64 886.092 1539.7 881.738Q1538.81 881.244 1537.94 880.707Q1537.07 880.169 1536.23 879.589Q1535.38 879.01 1534.57 878.389Q1533.76 877.768 1532.98 877.108Q1532.2 876.448 1531.46 875.75Q1530.71 875.052 1530 874.318Q1529.29 873.584 1528.61 872.816Q1527.94 872.048 1527.3 871.247Q1526.67 870.447 1526.07 869.616Q1525.48 868.785 1524.93 867.925Q1524.37 867.066 1523.86 866.18Q1523.35 865.295 1522.89 864.385Q1522.42 863.475 1522 862.543Q1521.58 861.611 1521.21 860.66Q1520.84 859.709 1520.51 858.74Q1520.19 857.771 1519.91 856.788C1516.82 846.101 1517.86 834.796 1523.29 825.048C1530.03 812.97 1539.95 807.524 1552.78 803.999Z"/>
	<path fill="#FDFEFE" d="M1558.64 837.776C1559.82 837.542 1561.1 837.26 1562.31 837.307C1564.62 837.398 1566.14 838.852 1567.55 840.504C1568.18 842.584 1568.57 843.626 1567.62 845.744C1566.68 847.869 1564.53 848.598 1562.51 849.334C1560.97 849.887 1559.58 849.528 1557.98 849.348C1556.57 847.811 1556.13 847.426 1555.82 845.296C1555.33 841.941 1556.7 840.257 1558.64 837.776Z"/>
	<path fill="#FDFEFE" d="M1553.07 819.999C1561.52 818.929 1567.06 819.346 1574.73 823.257C1579.41 825.647 1584.59 829.062 1586.28 834.284C1586.1 836.163 1586.36 836.724 1584.92 838.025C1574.94 837.866 1574.06 828.901 1565.63 826.1C1560.71 824.467 1555.26 825.98 1550.8 828.235C1546.48 830.415 1543.34 834.391 1541.94 838.998Q1541.8 839.479 1541.68 839.967Q1541.56 840.455 1541.46 840.948Q1541.36 841.441 1541.29 841.938Q1541.22 842.436 1541.17 842.936Q1541.12 843.436 1541.1 843.938Q1541.08 844.44 1541.08 844.942Q1541.08 845.444 1541.1 845.946Q1541.13 846.448 1541.18 846.948Q1541.23 847.448 1541.3 847.944Q1541.38 848.441 1541.48 848.934Q1541.58 849.427 1541.7 849.914Q1541.82 850.401 1541.97 850.882Q1542.11 851.363 1542.28 851.836Q1542.45 852.309 1542.64 852.773Q1542.83 853.237 1543.05 853.691Q1543.26 854.146 1543.5 854.589C1546.04 859.278 1550.09 862.283 1555.18 863.764C1558.59 864.757 1562.84 864.981 1566 863.185C1572.59 861.544 1575.46 856.405 1579.39 851.313C1581.91 851.233 1582.94 851.114 1585.25 852.291L1585.61 854.382C1583.43 860.161 1578.1 864.91 1572.8 867.852Q1572.18 868.187 1571.55 868.491Q1570.91 868.795 1570.26 869.066Q1569.61 869.338 1568.95 869.576Q1568.29 869.814 1567.62 870.019Q1566.94 870.224 1566.26 870.394Q1565.58 870.564 1564.89 870.7Q1564.2 870.836 1563.5 870.937Q1562.8 871.037 1562.1 871.103Q1561.4 871.169 1560.7 871.199Q1560 871.229 1559.29 871.224Q1558.59 871.218 1557.89 871.177Q1557.19 871.137 1556.49 871.061Q1555.79 870.984 1555.09 870.873Q1554.4 870.762 1553.71 870.615Q1553.02 870.469 1552.34 870.289Q1551.66 870.108 1550.99 869.893C1544.95 868.014 1540.58 863.856 1537.74 858.254C1534.47 851.816 1532.88 843.843 1535.26 836.867C1538.13 828.473 1545.48 823.636 1553.07 819.999Z"/>
	<path fill="#0A5D96" d="M1277.64 594.092C1295.01 601.574 1312.84 599.312 1331.28 599.352C1335.08 605.029 1335.2 612.605 1338.84 618.76C1341.37 623.463 1352.91 636.434 1353.42 637.967C1355.79 639.248 1359.65 640.835 1360.59 643.546C1362.05 647.518 1362.52 822.295 1360.99 828.541C1358.29 827.936 1355.25 827.334 1352.75 828.979C1352.57 829.098 1352.4 829.235 1352.23 829.363L1351.61 827.549Q1326.73 827.66 1301.86 827.427C1294.93 844.286 1286.74 863.546 1271.53 874.712C1269.5 877.897 1265.93 880.989 1262.55 882.656C1250.56 896.6 1221.89 906.548 1204.09 909.201C1200.06 909.392 1195.41 909.158 1191.52 910.201L1190.83 910.186C1190.63 918.301 1193.58 935.704 1189.48 942.432C1188.42 944.174 1187.88 944.126 1186.02 944.571L1184.43 943.41C1180.17 935.087 1182.75 919.783 1182.44 910.29L1181.65 910.423C1175.94 908.4 1166.6 909.326 1160.41 909.188C1158.97 906.909 1149.4 904.699 1146.48 903.661C1140.87 901.667 1134.68 899.715 1129.56 896.635C1122.44 892.347 1116.07 886.637 1108.74 882.719L1108.1 882.384L1107.74 881.34C1105.02 878.816 1102.49 876.207 1099.06 874.665C1099.07 874.524 1099.09 874.382 1099.08 874.241C1098.72 870.897 1091.75 865.488 1089.56 862.577C1082.64 853.332 1075.61 833.739 1069.49 827.547C1059.39 827.762 1048.73 827.937 1038.69 826.801C1018.87 826.212 998.927 826.647 979.09 826.629C978.448 814.756 978.847 802.592 978.761 790.688Q978.441 752.719 978.66 714.748C994.82 714.626 1032.89 717.324 1046.25 713.31C1053.16 711.233 1059 706.622 1062.32 700.17C1064.26 696.383 1065.18 692.226 1065.52 688.004C1066.24 679.081 1066.14 599.623 1064.53 594.776C1064.83 594.839 1065.14 594.909 1065.44 594.964C1072.72 596.286 1081.34 595.411 1088.74 595.368L1139.12 594.886C1184.32 594.523 1229.51 595.365 1274.71 594.887C1276.05 594.873 1276.56 594.849 1277.64 594.092Z"/>
	<path fill="#FDFEFE" d="M1180.91 750.983C1181.33 750.354 1182.11 749.48 1182.36 748.801C1184.66 742.727 1181.56 682.695 1182.37 669.999C1182.51 667.706 1182.38 666.346 1184.16 664.79C1186.39 664.786 1187.71 664.529 1189.71 665.697C1191.2 669.632 1192.01 828.929 1189.64 834.94C1189.8 834.86 1189.97 834.784 1190.13 834.698C1195.84 831.702 1235.63 791.092 1243.79 782.88C1247.85 778.797 1252.54 772.657 1257.27 769.524C1258.99 768.386 1259.37 768.371 1261.34 768.418C1261.76 769.13 1262.27 769.494 1262.03 770.331C1261.15 773.409 1259.04 775.936 1256.97 778.308C1243.06 794.239 1226.72 808.876 1211.76 823.878C1205.08 830.574 1197.44 840.749 1189.7 845.73C1192.71 853.414 1190.84 898.92 1190.83 910.186C1190.63 918.301 1193.58 935.704 1189.48 942.432C1188.42 944.174 1187.88 944.126 1186.02 944.571L1184.43 943.41C1180.17 935.087 1182.75 919.783 1182.44 910.29C1182.62 899.043 1184.69 873.485 1181.67 863.348C1181.65 863.191 1181.65 863.031 1181.61 862.879C1180.52 858.835 1121.38 799.998 1115.21 795.275C1115.31 794.979 1115.42 794.687 1115.51 794.388C1116.38 791.472 1115.75 787.708 1114.35 785.093Q1115.42 785.638 1116.43 786.299C1123.34 790.824 1179.47 847.415 1180.5 851.921C1180.57 851.783 1180.64 851.646 1180.71 851.506C1181.46 849.907 1181.95 848.266 1182.09 846.496C1182.87 836.712 1183.74 768.952 1181.63 763.019C1179.46 755.49 1130.91 713.327 1128.98 705.154C1130.34 703.844 1131.25 702.518 1133.15 702.158C1143.39 710.621 1173.74 740.775 1180.91 750.983Z"/>
	<path fill="#4098C7" d="M1189.71 665.697C1209.58 662.919 1243.46 679.106 1259.16 690.996Q1260.36 691.907 1261.54 692.849Q1262.73 693.79 1263.88 694.76Q1265.04 695.73 1266.17 696.729Q1267.31 697.727 1268.41 698.754Q1269.52 699.78 1270.6 700.834Q1271.68 701.887 1272.74 702.968Q1273.79 704.048 1274.82 705.154Q1275.85 706.26 1276.85 707.391Q1277.85 708.522 1278.82 709.678Q1279.79 710.834 1280.74 712.014Q1281.68 713.193 1282.59 714.396Q1283.51 715.598 1284.39 716.823Q1285.27 718.048 1286.13 719.295Q1286.98 720.541 1287.8 721.809Q1288.62 723.076 1289.41 724.363Q1290.2 725.65 1290.96 726.957Q1291.71 728.263 1292.44 729.588Q1293.16 730.913 1293.85 732.256Q1294.55 733.598 1295.2 734.958Q1295.86 736.317 1296.49 737.692Q1297.11 739.067 1297.7 740.458Q1298.29 741.848 1298.84 743.252Q1299.4 744.657 1299.92 746.075Q1300.44 747.493 1300.92 748.923Q1301.41 750.353 1301.86 751.795Q1302.31 753.237 1302.72 754.69Q1303.13 756.143 1303.51 757.605Q1303.89 759.067 1304.23 760.539Q1304.57 762.01 1304.87 763.49Q1305.17 764.969 1305.44 766.455Q1305.71 767.942 1305.94 769.435Q1306.17 770.927 1306.36 772.425C1308.97 791.373 1306.69 809.061 1301.86 827.427C1294.93 844.286 1286.74 863.546 1271.53 874.712C1269.5 877.897 1265.93 880.989 1262.55 882.656C1250.56 896.6 1221.89 906.548 1204.09 909.201C1200.06 909.392 1195.41 909.158 1191.52 910.201L1190.83 910.186C1190.84 898.92 1192.71 853.414 1189.7 845.73C1197.44 840.749 1205.08 830.574 1211.76 823.878C1226.72 808.876 1243.06 794.239 1256.97 778.308C1259.04 775.936 1261.15 773.409 1262.03 770.331C1262.27 769.494 1261.76 769.13 1261.34 768.418C1259.37 768.371 1258.99 768.386 1257.27 769.524C1252.54 772.657 1247.85 778.797 1243.79 782.88C1235.63 791.092 1195.84 831.702 1190.13 834.698C1189.97 834.784 1189.8 834.86 1189.64 834.94C1192.01 828.929 1191.2 669.632 1189.71 665.697Z"/>
	<path fill="#43D2DB" d="M1277.64 594.092C1295.01 601.574 1312.84 599.312 1331.28 599.352C1335.08 605.029 1335.2 612.605 1338.84 618.76C1341.37 623.463 1352.91 636.434 1353.42 637.967C1355.79 639.248 1359.65 640.835 1360.59 643.546C1362.05 647.518 1362.52 822.295 1360.99 828.541C1358.29 827.936 1355.25 827.334 1352.75 828.979C1352.57 829.098 1352.4 829.235 1352.23 829.363L1351.61 827.549Q1326.73 827.66 1301.86 827.427C1306.69 809.061 1308.97 791.373 1306.36 772.425Q1306.17 770.927 1305.94 769.434Q1305.71 767.942 1305.44 766.455Q1305.17 764.969 1304.87 763.49Q1304.57 762.01 1304.23 760.539Q1303.89 759.067 1303.51 757.605Q1303.13 756.143 1302.72 754.69Q1302.31 753.237 1301.86 751.795Q1301.41 750.353 1300.92 748.923Q1300.44 747.493 1299.92 746.075Q1299.4 744.657 1298.84 743.252Q1298.29 741.848 1297.7 740.458Q1297.11 739.067 1296.49 737.692Q1295.86 736.317 1295.2 734.958Q1294.55 733.598 1293.85 732.256Q1293.16 730.913 1292.44 729.588Q1291.71 728.263 1290.96 726.957Q1290.2 725.65 1289.41 724.363Q1288.62 723.076 1287.8 721.808Q1286.98 720.541 1286.13 719.295Q1285.27 718.048 1284.39 716.823Q1283.51 715.598 1282.59 714.396Q1281.68 713.193 1280.74 712.014Q1279.79 710.834 1278.82 709.678Q1277.85 708.522 1276.85 707.391Q1275.85 706.26 1274.82 705.154Q1273.79 704.048 1272.74 702.968Q1271.68 701.887 1270.6 700.834Q1269.52 699.78 1268.41 698.754Q1267.31 697.727 1266.17 696.729Q1265.04 695.73 1263.88 694.76Q1262.73 693.79 1261.54 692.849Q1260.36 691.907 1259.16 690.996C1243.46 679.106 1209.58 662.919 1189.71 665.697C1187.71 664.529 1186.39 664.786 1184.16 664.79C1182.38 666.346 1182.51 667.706 1182.37 669.999C1181.56 682.695 1184.66 742.727 1182.36 748.801C1182.11 749.48 1181.33 750.354 1180.91 750.983C1183.31 746.173 1183.2 671.647 1181.09 665.566C1181.02 665.375 1180.94 665.189 1180.87 665C1171.55 666.239 1161.91 666.698 1152.74 668.842C1129.22 674.346 1106.56 689.814 1091.95 708.91C1072.16 734.792 1061.24 769.559 1065.61 802.123C1066.48 808.61 1070.61 820.751 1068.88 826.705C1058.88 826.697 1048.67 826.242 1038.69 826.801C1018.87 826.212 998.927 826.647 979.09 826.629C978.448 814.756 978.847 802.592 978.761 790.688Q978.441 752.719 978.66 714.748C994.82 714.626 1032.89 717.324 1046.25 713.31C1053.16 711.233 1059 706.622 1062.32 700.17C1064.26 696.383 1065.18 692.226 1065.52 688.004C1066.24 679.081 1066.14 599.623 1064.53 594.776C1064.83 594.839 1065.14 594.909 1065.44 594.964C1072.72 596.286 1081.34 595.411 1088.74 595.368L1139.12 594.886C1184.32 594.523 1229.51 595.365 1274.71 594.887C1276.05 594.873 1276.56 594.849 1277.64 594.092Z"/>
	<path fill="#1B4471" d="M1351.61 827.549C1352.47 826.457 1353.08 825.671 1353.21 824.253C1354.73 807.624 1353.19 789.577 1353.11 772.832L1353.15 675.313C1353.11 664.96 1351.42 647.537 1353.42 637.967C1355.79 639.248 1359.65 640.835 1360.59 643.546C1362.05 647.518 1362.52 822.295 1360.99 828.541C1358.29 827.936 1355.25 827.334 1352.75 828.979C1352.57 829.098 1352.4 829.235 1352.23 829.363L1351.61 827.549Z"/>
	<path fill="#4098C7" d="M507.414 262.144C507.39 273.418 505.913 339.675 508.159 344.739C463.509 344.885 418.804 344.253 374.165 345.145C367.668 335.975 360.609 333.081 350.186 329.99L350.094 369.558C361.567 366.231 368.116 363.319 374.193 352.704L507.435 352.682C507.436 370.589 507.185 388.532 507.452 406.434C489.245 406.599 458.452 402.465 444.998 415.967Q444.424 416.552 443.881 417.165Q443.337 417.777 442.825 418.417Q442.312 419.056 441.832 419.72Q441.353 420.384 440.907 421.072Q440.461 421.759 440.05 422.468Q439.639 423.176 439.264 423.905Q438.889 424.633 438.551 425.379Q438.213 426.126 437.913 426.888Q437.613 427.65 437.351 428.427Q437.089 429.203 436.866 429.992Q436.644 430.78 436.461 431.579Q436.278 432.377 436.136 433.184Q435.993 433.991 435.891 434.804Q435.789 435.617 435.727 436.434Q435.666 437.251 435.646 438.07Q435.625 438.889 435.646 439.708C435.827 448.38 439.346 457.103 445.696 463.083C459.674 476.246 489.683 471.903 507.538 471.641C507.5 479.56 506.224 524.614 508.263 527.808C490.228 527.53 457.494 523.239 444.02 535.986C436.257 543.33 434.3 553.479 434.128 563.732C433.97 573.178 434.26 582.646 434.495 592.09C422.993 590.941 410.217 591.886 398.625 592.15C397.504 618.391 380.976 635.089 368.351 656.472L355.617 640.74C353.415 634.538 346.879 627.032 343.199 621.308Q337.403 621.44 331.606 621.505C281.164 622.016 235.449 600.539 199.832 565.477Q198.295 563.978 196.795 562.441Q195.296 560.905 193.835 559.332Q192.373 557.759 190.951 556.151Q189.529 554.542 188.147 552.899Q186.765 551.256 185.424 549.58Q184.083 547.903 182.783 546.194Q181.484 544.485 180.227 542.744Q178.97 541.003 177.756 539.232Q176.543 537.461 175.373 535.661Q174.203 533.86 173.078 532.032Q171.953 530.203 170.874 528.347Q169.794 526.491 168.76 524.609Q167.727 522.727 166.74 520.82Q165.753 518.914 164.813 516.983Q163.874 515.052 162.982 513.099Q162.09 511.146 161.247 509.172Q160.403 507.197 159.609 505.202Q158.814 503.208 158.069 501.194Q157.324 499.18 156.629 497.149Q155.933 495.117 155.288 493.069Q154.643 491.021 154.049 488.958Q153.454 486.895 152.911 484.818Q152.367 482.74 151.875 480.65Q151.383 478.56 150.943 476.459Q150.502 474.357 150.114 472.246Q149.725 470.134 149.389 468.013Q149.052 465.892 148.768 463.764Q148.484 461.636 148.252 459.501Q148.021 457.366 147.842 455.227Q147.663 453.087 147.536 450.944Q147.41 448.8 147.337 446.654Q147.263 444.508 147.243 442.361Q147.22 440.176 147.252 437.992Q147.283 435.808 147.369 433.625Q147.454 431.442 147.594 429.261Q147.733 427.081 147.926 424.905Q148.12 422.729 148.367 420.558Q148.614 418.388 148.915 416.224Q149.216 414.06 149.57 411.904Q149.924 409.749 150.332 407.602Q150.739 405.456 151.2 403.32Q151.66 401.185 152.174 399.061Q152.687 396.938 153.252 394.828Q153.818 392.718 154.436 390.622Q155.053 388.527 155.723 386.447Q156.392 384.367 157.113 382.305Q157.833 380.243 158.605 378.199Q159.376 376.155 160.198 374.131Q161.02 372.107 161.891 370.104Q162.763 368.1 163.684 366.12Q164.605 364.139 165.574 362.181Q166.544 360.223 167.562 358.29Q168.58 356.357 169.645 354.45Q170.71 352.543 171.823 350.663Q172.935 348.783 174.093 346.931Q175.252 345.079 176.456 343.256Q177.659 341.433 178.908 339.641Q180.157 337.848 181.449 336.087Q182.742 334.326 184.078 332.598Q185.414 330.869 186.792 329.174Q188.17 327.479 189.59 325.819Q191.009 324.159 192.47 322.535Q193.93 320.91 195.43 319.322Q196.93 317.734 198.469 316.184C220.604 293.879 247.73 276.809 278.162 268.447C314.817 258.375 355.707 262.283 393.446 262.304L507.414 262.144Z"/>
	<path fill="#EF4A58" d="M350.094 369.558Q348.433 369.69 346.766 369.692C339.394 369.684 331.64 367.531 326.36 362.144C322.888 358.601 320.82 354.009 320.902 349.014C320.979 344.326 323.156 339.953 326.515 336.739C333.069 330.468 341.591 329.7 350.186 329.99L350.094 369.558Z"/>
	<path fill="#11A4CC" d="M343.199 621.308C339.217 614.643 335.876 607.994 334.462 600.268C332.967 592.099 334.02 583.44 338.94 576.567C343.797 569.782 351.446 565.496 359.628 564.206C368.799 562.76 378.99 564.844 386.52 570.381C393.805 575.738 397.323 583.382 398.625 592.15C397.504 618.391 380.976 635.089 368.351 656.472L355.617 640.74C353.415 634.538 346.879 627.032 343.199 621.308Z"/>
	<path fill="#FDFEFE" d="M362.538 582.328C364.633 582.359 366.711 582.422 368.739 583.002C372.991 584.219 376.714 586.94 378.768 590.915Q379.09 591.529 379.347 592.172Q379.605 592.815 379.797 593.481Q379.988 594.147 380.111 594.829Q380.234 595.511 380.288 596.202Q380.341 596.893 380.325 597.586Q380.308 598.279 380.221 598.966Q380.135 599.654 379.979 600.329Q379.823 601.004 379.6 601.66C377.84 606.862 374.013 609.506 369.267 611.789C366.674 611.815 363.83 611.972 361.359 611.083C357.629 609.74 354.337 606.876 352.623 603.29C350.902 599.691 350.783 595.737 352.198 592.015C354.138 586.915 357.763 584.487 362.538 582.328Z"/>
	<path fill="#FDFEFE" d="M313.02 389.641C315.279 389.514 317.484 389.554 319.742 389.637C322.626 391.939 322.121 394.53 323.655 397.7C325 400.478 328.62 400.787 331.34 401.631L336.459 392.756C339.024 393.911 341.367 394.834 343.204 397.07C344.167 399.912 342.619 402.77 341.602 405.418L349.81 411.188L355.656 404.317C358.513 406.559 361.222 409.046 363.972 411.421L357.499 418.182C359.527 420.688 361.386 423.366 363.303 425.96C364.821 425.27 366.39 424.506 367.98 424.006C370.14 423.328 371.668 424.244 373.571 425.24C375.085 427.358 374.964 427.638 374.875 430.276C372.965 433.346 371.157 433.941 368.032 435.672C368.883 439.04 369.82 442.333 370.913 445.631C373.617 446.807 375.87 445.34 378.792 445.136L379.949 446.582C380.382 449.475 380.862 452.131 380.334 455.046C378.106 456.779 373.732 456.192 370.849 456.259L370.003 467.634L379.527 470.167L375.882 480.123L367.279 476.978L361.79 486.168C364.414 488.384 366.912 490.789 369.451 493.104L361.493 502.29C359.555 499.493 357.406 496.829 355.322 494.138C352.616 496.786 349.468 498.978 346.44 501.241L351.202 508.939L342.374 514.194L337.559 506.301C334.228 507.495 330.752 508.317 327.332 509.224C327.542 511.448 327.916 513.914 327.765 516.138C327.612 518.394 325.691 519.708 324.054 521C321.717 521.303 321.579 521.179 319.526 519.986C317.602 516.65 318.082 514.421 318.102 510.615C315.23 510.259 312.197 509.562 309.464 510.793C307.043 513.23 306.61 517.757 305.877 521.069C303.267 520.564 300.743 520.326 298.632 518.592C297.261 515.711 298.713 511.292 299.309 508.212C296.095 507.367 293.238 505.716 290.315 504.178L285.638 513.66C282.756 511.616 279.98 509.384 277.169 507.24C279.127 504.847 280.828 502.233 282.591 499.693C280.304 497.582 278.247 495.13 276.149 492.829L268.144 499.572L262.433 491.673L269.758 485.13L264.161 476.112C262.5 477.056 260.501 478.406 258.64 478.829C256.442 479.328 255.707 478.785 253.905 477.725C253.528 476.945 253.223 476.341 253.103 475.474C251.975 467.333 258.083 471.109 261.274 467.066L260.258 458.549C258.452 456.995 257.66 457.794 255.43 457.803C252.731 457.814 252.248 457.904 250.378 456.102C249.884 453.303 250.259 451.296 250.9 448.602C252.649 446.808 257.004 447.438 259.731 446.582C262.351 444.666 263.214 440.051 264.16 437.027C262.399 436.076 260.183 435.146 258.67 433.844C256.963 432.376 256.77 430.511 256.741 428.387C258.178 426.535 259.035 426.294 261.222 425.345C263.882 425.351 266.179 426.423 268.607 427.386L274.581 418.956L268.784 411.489C271.375 409.131 274.14 406.922 276.818 404.659L283.177 411.055C286.037 408.965 289.222 407.315 292.308 405.586L289.038 395.63L298.711 391.996C300.233 395.016 301.275 398.375 302.44 401.552C305.337 400.849 308.235 400.296 310.825 398.756C312.981 396.354 312.786 392.708 313.02 389.641Z"/>
	<path fill="#4098C7" d="M312.336 417.133C321.317 416.328 331.12 418.27 338.568 423.503C346.819 429.3 352.091 438.765 353.665 448.637Q353.825 449.587 353.937 450.544Q354.049 451.5 354.114 452.462Q354.179 453.423 354.197 454.386Q354.214 455.349 354.184 456.312Q354.154 457.275 354.076 458.235Q353.998 459.195 353.873 460.15Q353.748 461.105 353.576 462.053Q353.404 463.001 353.185 463.939Q352.966 464.877 352.701 465.803Q352.436 466.729 352.126 467.641Q351.815 468.553 351.46 469.449Q351.105 470.344 350.707 471.221Q350.308 472.098 349.866 472.954Q349.424 473.81 348.941 474.643Q348.457 475.476 347.933 476.284Q347.409 477.093 346.846 477.874C340.062 487.196 331.234 491.331 320.134 493.194C310.902 493.838 302.022 491.827 294.328 486.569Q293.519 486.007 292.739 485.404Q291.959 484.802 291.21 484.161Q290.461 483.521 289.745 482.844Q289.029 482.166 288.348 481.454Q287.667 480.742 287.023 479.996Q286.378 479.251 285.772 478.474Q285.165 477.697 284.598 476.891Q284.032 476.085 283.506 475.251Q282.98 474.418 282.497 473.559Q282.013 472.7 281.574 471.818Q281.134 470.936 280.739 470.033Q280.344 469.13 279.994 468.209Q279.645 467.287 279.342 466.349Q279.039 465.411 278.784 464.46Q278.528 463.508 278.321 462.544Q278.113 461.581 277.954 460.608Q277.791 459.682 277.674 458.749Q277.558 457.816 277.488 456.878Q277.419 455.94 277.397 455Q277.375 454.06 277.4 453.12Q277.425 452.18 277.498 451.242Q277.571 450.305 277.69 449.372Q277.81 448.439 277.977 447.514Q278.143 446.588 278.356 445.672Q278.569 444.756 278.828 443.852Q279.087 442.948 279.391 442.058Q279.695 441.169 280.043 440.295Q280.392 439.422 280.784 438.567Q281.176 437.712 281.611 436.878Q282.045 436.045 282.521 435.234Q282.997 434.423 283.513 433.637Q284.03 432.851 284.585 432.092C291.751 422.417 300.86 418.841 312.336 417.133Z"/>
	<path fill="#3DF0E8" d="M288.444 441.403C291.014 437.147 294.337 433.189 298.332 430.202C306.258 424.276 314.546 423.913 323.989 425.291C328.648 426.828 332.777 428.6 337.134 430.845C329.686 437.529 322.295 444.248 315.844 451.924C313.121 450.896 310.321 449.602 307.457 449.064L295.747 445.538L295.45 446.695C296.538 455.069 308.693 466.83 314.158 472.956C323.511 461.43 334.219 450.585 344.542 439.909C347.426 449.167 349.263 458.55 345.337 467.863C342.217 475.265 335.732 480.808 328.376 483.774C320.312 487.025 311.488 487.168 303.489 483.664C295.994 480.38 289.766 474.254 286.838 466.558C283.642 458.156 284.87 449.446 288.444 441.403Z"/>
	<path fill="#FDFEFE" d="M507.468 535.908L655.406 535.844L655.427 640.176C655.446 654.591 653.669 673.679 656.409 687.686C657.682 694.193 661.231 700.426 665.941 705.061C670.283 709.332 675.729 712.588 681.775 713.608C690.421 715.068 699.704 714.505 708.452 714.505L750.452 714.461Q825.754 714.046 901.055 714.638L901.085 826.67C899.574 859.548 889.584 890.106 864.739 912.82Q863.433 914.01 862.09 915.156Q860.746 916.303 859.366 917.405Q857.987 918.508 856.572 919.565Q855.157 920.622 853.708 921.633Q852.26 922.644 850.78 923.608Q849.3 924.571 847.789 925.486Q846.278 926.401 844.739 927.267Q843.199 928.132 841.632 928.948Q840.066 929.763 838.473 930.527Q836.881 931.291 835.265 932.003Q833.648 932.715 832.01 933.375Q830.372 934.034 828.713 934.64Q827.054 935.246 825.376 935.798Q823.698 936.35 822.004 936.848Q820.309 937.345 818.599 937.787Q816.889 938.229 815.166 938.616C797.728 942.573 779.361 941.665 761.582 941.723L699.777 941.775C670.676 941.763 641.087 943.065 612.061 941.735C582.861 940.398 556.41 927.572 536.864 905.909C518.264 885.294 506.643 857.25 507.396 829.304C508.018 804.309 507.639 779.181 507.692 754.173L507.579 591.498C507.018 573.02 507.477 554.402 507.468 535.908Z"/>
	<path fill="#DE8F62" d="M569.466 593.883C571.537 593.745 573.604 593.625 575.658 593.995C579.677 594.718 583.615 596.986 585.86 600.451C587.723 603.328 588.309 606.7 587.49 610.048C586.192 615.355 582.479 618.281 578.081 621.074C575.519 621.345 573.159 621.536 570.615 620.966C566.848 620.121 563.3 617.618 561.405 614.254C559.677 611.186 559.343 607.564 560.269 604.193C561.63 599.239 565.228 596.378 569.466 593.883Z"/>
	<path fill="#33CC98" d="M604.503 592.917C607.017 592.924 609.403 592.967 611.792 593.839C615.597 595.228 618.796 598.12 620.379 601.872C621.926 605.537 621.768 609.641 620.209 613.274C618.08 618.236 614.359 620.04 609.603 621.949C607.611 621.951 605.766 621.817 603.846 621.279C599.93 620.18 596.22 617.716 594.254 614.077C592.45 610.737 592.277 606.895 593.466 603.324C595.309 597.787 599.546 595.371 604.503 592.917Z"/>
	<path fill="#11A4CC" d="M556.27 673.748C559.34 673.645 563.022 673.065 565.77 674.652C568.089 678.598 567.216 683.839 567.167 688.38C570.268 688.248 576.718 687.133 579.548 688.228C581.138 688.843 581.989 689.889 582.414 691.565C582.977 693.784 582.428 695.735 581.268 697.616C577.894 699.961 570.996 698.904 566.852 698.862L566.689 712.52C563.462 713.011 559.768 712.686 556.483 712.694L556.459 699.34L541.824 698.928L541.642 688.183L556.381 688.042L556.27 673.748Z"/>
	<path fill="#CEF2F7" d="M618.234 754.146C628.904 752.932 640.431 753.706 651.212 753.694L720.22 753.946C741.609 754.024 775.281 751.714 795.433 754.523C806.572 756.076 817.684 759.871 826.874 766.434C843.019 777.964 855.147 798.154 858.201 817.716C861.308 837.615 855.255 857.726 843.475 873.818C830.512 891.525 812.557 901.421 791.119 904.762Q789.592 904.973 788.057 905.114C762.658 907.521 735.664 905.753 710.07 905.804L657.219 905.972C642.639 906.011 627.511 906.894 613.148 903.97Q610.626 903.445 608.142 902.765Q605.658 902.085 603.22 901.253Q600.782 900.421 598.401 899.44Q596.019 898.459 593.702 897.333Q591.385 896.207 589.142 894.941Q586.899 893.674 584.739 892.271Q582.578 890.869 580.508 889.335Q578.438 887.802 576.467 886.144C560.908 873.196 551.91 854.613 550.161 834.542C548.507 815.564 554.366 794.48 566.773 779.899C580.226 764.089 597.637 755.814 618.234 754.146Z"/>
	<path fill="#1B4471" d="M762.131 794.062C773.697 793.954 786.714 792.758 798.122 794.305C799.303 797.072 798.862 800.569 798.842 803.541C787.648 803.573 773.993 805.088 763.051 803.112C761.711 800.39 762.122 797.041 762.131 794.062Z"/>
	<path fill="#1B4471" d="M611.322 864.951C653.704 864.798 696.469 863.787 738.809 865.272C740.007 867.169 739.458 871.998 739.442 874.353Q697.325 873.992 655.207 874.207C641.071 874.221 626.277 875.112 612.22 873.792C610.778 871.385 611.313 867.702 611.322 864.951Z"/>
	<path fill="#1B4471" d="M610.686 793.912L738.033 793.773L738.089 803.52L649.359 803.411C639.475 803.399 620.286 805.07 611.601 802.679C610.12 800.048 610.612 796.849 610.686 793.912Z"/>
	<path fill="#1B4471" d="M611.412 829.701L735.36 829.868C755.24 829.804 778.584 827.97 797.847 829.885C799.525 832.523 798.906 836.208 798.833 839.242C763.883 840.166 728.659 839.102 693.673 839.078C666.641 839.06 639.055 840.361 612.1 838.97C610.814 836.22 611.342 832.687 611.412 829.701Z"/>
	<path fill="#FDFEFE" d="M1316.8 262.086C1327.18 259.378 1372.03 261.242 1385.34 261.263C1421.76 261.32 1458.69 259.937 1495.04 261.476Q1506.53 262.009 1517.86 263.987Q1522.18 264.714 1526.47 265.637Q1530.75 266.56 1534.99 267.677Q1539.23 268.794 1543.41 270.102Q1547.6 271.411 1551.72 272.909Q1555.84 274.406 1559.88 276.09Q1563.93 277.773 1567.9 279.639Q1571.86 281.505 1575.74 283.55Q1579.62 285.594 1583.4 287.813C1624.17 311.79 1656.92 352.635 1668.75 398.674Q1669.27 400.667 1669.75 402.672Q1670.22 404.677 1670.65 406.694Q1671.07 408.71 1671.45 410.736Q1671.82 412.762 1672.15 414.797Q1672.48 416.831 1672.75 418.873Q1673.03 420.915 1673.25 422.964Q1673.48 425.012 1673.65 427.065Q1673.83 429.118 1673.95 431.175Q1674.08 433.232 1674.15 435.291Q1674.23 437.35 1674.25 439.411Q1674.28 441.471 1674.25 443.532Q1674.22 445.592 1674.15 447.651Q1674.07 449.71 1673.94 451.767Q1673.81 453.824 1673.64 455.876Q1673.46 457.929 1673.23 459.977Q1673 462.025 1672.72 464.067Q1672.44 466.109 1672.12 468.143Q1671.79 470.177 1671.41 472.203Q1671.03 474.228 1670.6 476.244Q1670.18 478.26 1669.7 480.264Q1669.22 482.269 1668.7 484.261Q1668.17 486.254 1667.6 488.232Q1667.02 490.211 1666.4 492.175Q1665.78 494.139 1665.1 496.088Q1664.43 498.036 1663.71 499.967Q1663 501.898 1662.23 503.811Q1661.46 505.724 1660.65 507.618Q1659.84 509.511 1658.98 511.385Q1658.12 513.258 1657.22 515.109Q1656.31 516.961 1655.36 518.789Q1654.42 520.618 1653.42 522.423Q1652.43 524.228 1651.39 526.008C1626.47 567.916 1584.38 597.156 1537.39 608.929C1526.5 611.657 1515.29 613.48 1504.19 615.093C1499.16 615.169 1495.25 616.942 1490.85 613.96C1490.24 612.131 1489.47 610.539 1488.55 608.842L1489.74 612.015C1486.79 618.523 1456.67 635.083 1449.09 641.017C1443.67 645.249 1439.51 651.201 1433.91 655.127C1431.23 657.005 1428.06 658.328 1425.01 659.457C1420.21 661.231 1412.67 663.759 1407.63 662.094C1406.21 663.409 1406.3 663.314 1404.35 663.282C1397.99 658.118 1384.21 654.982 1376.25 651.376C1371.12 649.054 1366.36 645.985 1361.19 643.795L1360.59 643.546C1359.65 640.835 1355.79 639.248 1353.42 637.967C1352.91 636.434 1341.37 623.463 1338.84 618.76C1335.2 612.605 1335.08 605.029 1331.28 599.352C1312.84 599.312 1295.01 601.574 1277.64 594.092C1276.56 594.849 1276.05 594.873 1274.71 594.887C1229.51 595.365 1184.32 594.523 1139.12 594.886L1088.74 595.368C1081.34 595.411 1072.72 596.286 1065.44 594.964C1065.14 594.909 1064.83 594.839 1064.53 594.776C1064.74 594.179 1064.87 593.884 1065.01 593.295C1066.29 587.772 1066.56 564.336 1063.84 559.983L1111.27 559.99C1120.74 559.982 1130.75 560.597 1140.14 559.207C1145.46 558.421 1150.81 556.796 1155.55 554.241C1164.18 549.58 1169.64 541.657 1172.25 532.298C1176.47 517.145 1173.95 473.916 1174.01 456.239C1174.1 432.731 1175.6 408.544 1174.14 385.101C1174.04 383.496 1173.67 382.299 1172.88 380.882C1182.37 380.738 1191.49 379.665 1200.76 377.654C1239.69 369.216 1275.54 345.523 1297.15 311.846C1302.99 302.748 1319.06 272.548 1316.8 262.086Z"/>
	<path fill="#1B4471" d="M1455.5 329.332C1456.74 329.185 1458.09 328.958 1459.34 328.988C1462.26 329.058 1461.32 333.59 1463.15 335.671C1465.06 335.807 1466.62 335.973 1468.42 336.659C1469.21 341.717 1464.46 341.513 1462.51 344.907C1461.78 346.175 1461.01 347.421 1460.27 348.682L1457.76 349.464C1455.05 347.793 1456.63 344.924 1454.7 342.489L1450.33 341.992C1448.93 340.557 1449.09 339.847 1448.81 337.903C1450.39 335.967 1452.54 336.046 1454.93 335.526C1456.08 333.262 1455.67 331.776 1455.5 329.332Z"/>
	<path fill="#43D2DB" d="M1373.34 317.777C1377.34 316.999 1381.17 316.513 1385 318.288C1389.03 320.155 1392.33 323.799 1393.72 328.017C1394.78 331.217 1394.61 334.655 1392.97 337.645C1391.03 341.192 1387.63 343.257 1383.83 344.217C1382.37 345.167 1380.87 345.062 1379.2 345.055C1375.45 345.042 1372.37 343.953 1369.79 341.119C1366.97 338.007 1365.9 333.602 1366.17 329.481C1366.52 324.226 1369.63 321.072 1373.34 317.777Z"/>
	<path fill="#1B4471" d="M1416.13 363.109C1418.28 362.584 1420.53 362.26 1422.74 362.614C1425.47 363.052 1426.74 365.074 1428.2 367.165L1480.08 367.164C1486.86 367.17 1496.1 366.108 1502.57 367.536C1504.71 368.007 1504.7 368.279 1505.88 370.021C1505.56 370.939 1505.17 371.567 1504.51 372.283C1501.85 375.136 1498.02 374.304 1494.52 374.257C1474.75 374.205 1446.2 372.441 1427.33 374.816C1425.55 376.343 1424.04 377.524 1421.88 378.5C1419.62 378.496 1417.27 378.078 1415.44 376.632C1414.18 375.633 1413.44 374.417 1413.17 372.867C1412.48 368.83 1413.96 366.282 1416.13 363.109Z"/>
	<path fill="#CEF2F7" d="M1536.09 524.888C1541.18 523.899 1545.21 523.936 1549.62 526.82Q1550.32 527.275 1550.97 527.797Q1551.62 528.32 1552.22 528.904Q1552.81 529.488 1553.35 530.129Q1553.88 530.77 1554.35 531.46Q1554.82 532.151 1555.22 532.885Q1555.62 533.618 1555.94 534.388Q1556.26 535.158 1556.51 535.956Q1556.75 536.754 1556.92 537.572C1557.69 541.468 1557.04 545.527 1554.74 548.809C1551.92 552.819 1548.47 554.09 1543.82 554.919C1542.38 555.527 1540.77 555.398 1539.24 555.171C1535.1 554.556 1531.94 553.034 1529.49 549.518C1526.77 545.6 1526.1 540.521 1527.05 535.911C1528.19 530.451 1531.7 527.788 1536.09 524.888Z"/>
	<path fill="#43D2DB" d="M1408.06 522.22C1417.44 521.218 1436.2 526.678 1443.6 532.562C1443.55 532.8 1443.52 533.039 1443.46 533.275C1442.66 536.719 1428.36 549.499 1425.02 551.528C1423.75 555.493 1411.14 566.787 1407.35 568.829C1410.66 562.559 1409.86 529.511 1408.06 522.22Z"/>
	<path fill="#1B4471" d="M1377.96 397.775C1379.38 397.421 1380.88 397.181 1382.34 397.136C1385.48 397.039 1387.45 398.907 1389.64 400.845L1540.6 401.105C1551.42 401.115 1587.7 399.236 1595.46 401.607C1596.34 403.844 1596.25 405.628 1596.14 407.981C1594.12 409.413 1588.64 408.71 1586.06 408.666Q1518.41 407.864 1450.75 408.288C1432.5 408.351 1409.41 407.055 1391.77 408.337C1390.46 408.432 1389.4 408.903 1388.27 409.555C1386.88 410.358 1385.35 411.393 1383.79 411.841C1381.68 412.45 1378.77 411.333 1377.11 410.044C1375.73 408.975 1375.05 407.744 1374.79 406.056C1374.27 402.677 1376.08 400.321 1377.96 397.775Z"/>
	<path fill="#1B4471" d="M1449.05 536.458C1449.18 536.502 1449.32 536.542 1449.45 536.59C1461.92 541.184 1476.62 563.749 1481.84 575.562C1485.28 583.339 1491.74 600.659 1488.55 608.842L1489.74 612.015C1486.79 618.523 1456.67 635.083 1449.09 641.017C1443.67 645.249 1439.51 651.201 1433.91 655.127C1431.23 657.005 1428.06 658.328 1425.01 659.457C1420.21 661.231 1412.67 663.759 1407.63 662.094C1407.7 661.949 1407.78 661.807 1407.84 661.66C1410.04 656.59 1409.54 633.803 1407.6 628.86C1407.79 628.766 1407.98 628.677 1408.17 628.578C1412.08 626.55 1440.55 598.441 1441.56 594.907C1441.91 593.655 1441.45 593.386 1440.79 592.299C1434.46 590.685 1414.51 615.91 1407.41 619.92C1407.17 620.056 1406.93 620.184 1406.68 620.317C1407.22 619.437 1407.74 618.526 1408.08 617.551C1409.74 612.799 1409.72 582.426 1407.58 578.242C1412.09 575.673 1447.64 540.251 1449.05 536.458Z"/>
	<path fill="#03185A" d="M1277.64 594.092C1277.56 593.977 1277.48 593.859 1277.39 593.745C1271.3 585.733 1266.18 585.135 1261.94 574.058Q1260.48 570.356 1259.59 566.479Q1258.7 562.601 1258.39 558.634C1256.93 540.638 1258.44 521.518 1258.45 503.415C1258.45 491.072 1256.85 477.723 1258.33 465.517C1259.41 456.581 1263.27 448.826 1270.48 443.294C1276.19 438.913 1281.26 437.555 1288.33 437.012C1315.06 434.956 1345.66 436.756 1372.9 436.72Q1453.33 436.368 1533.75 436.843C1541.21 436.932 1553.69 433.556 1559.77 434.629C1561.84 434.995 1563.27 435.954 1564.45 437.738C1564.93 438.45 1565.34 439.207 1565.76 439.954L1591.87 439.988C1595.82 437.48 1597.81 434.506 1603.1 435.526C1604.93 435.879 1606.47 436.77 1607.44 438.391C1608.58 440.283 1608.7 442.683 1608.08 444.768C1607.44 446.882 1606.07 448.803 1604.01 449.733C1602.09 450.606 1599.94 450.169 1598.1 449.309C1595.55 448.116 1593.12 446.656 1590.37 445.964C1584.94 444.596 1568.51 443.629 1563.45 445.591C1562.27 446.049 1561.09 446.919 1560.05 447.632C1555.14 448.257 1550.81 444.032 1545.76 444.042L1371.6 444.38L1317.92 444.301C1308.3 444.286 1298.08 443.618 1288.52 444.794C1281.29 445.684 1276.12 446.695 1271.4 452.68C1268.39 456.482 1266.76 461.025 1266.06 465.785C1264.34 477.503 1265.9 490.5 1265.83 502.389C1265.73 520.14 1263.75 543.504 1265.94 560.668C1267.15 570.169 1271.79 579.612 1279.47 585.517C1292.67 595.665 1315.98 591.918 1331.81 591.915C1331.91 591.792 1332.02 591.673 1332.11 591.546C1335.7 586.73 1335.99 576.819 1338.22 570.986C1348.99 542.853 1373.5 528.299 1401.44 521.975C1403.68 529.223 1403.09 649.626 1401.26 653.352C1401.18 653.502 1401.1 653.647 1401.02 653.794C1400.89 653.722 1400.76 653.647 1400.63 653.577C1396.26 651.237 1390.85 650.182 1386.18 648.43C1370.46 642.53 1359.66 634.839 1348.34 622.488C1347.13 621.165 1344.96 618.62 1343.07 618.567C1341.61 618.527 1340.28 618.546 1338.84 618.76C1335.2 612.605 1335.08 605.029 1331.28 599.352C1312.84 599.312 1295.01 601.574 1277.64 594.092Z"/>
	<path fill="#03185A" d="M1023.75 261.428C1023.78 261.248 1023.81 261.069 1023.83 260.888C1024.97 251.424 1020.88 239.195 1021.06 228.983C1021.9 181.47 1041.83 139.305 1078.78 109.221Q1080.2 108.089 1081.64 106.992Q1083.08 105.894 1084.55 104.832Q1086.02 103.77 1087.52 102.744Q1089.01 101.718 1090.53 100.728Q1092.05 99.7387 1093.59 98.7862Q1095.14 97.8338 1096.7 96.919Q1098.27 96.0042 1099.85 95.1277Q1101.44 94.2511 1103.05 93.4133Q1104.66 92.5755 1106.28 91.7769Q1107.91 90.9783 1109.56 90.2195Q1111.2 89.4606 1112.87 88.7418Q1114.53 88.0231 1116.21 87.3449Q1117.9 86.6668 1119.59 86.0296Q1121.29 85.3923 1123 84.7965Q1124.72 84.2006 1126.44 83.6464Q1128.17 83.0923 1129.91 82.5801Q1131.65 82.0679 1133.4 81.5981Q1135.15 81.1282 1136.91 80.701Q1138.67 80.2737 1140.44 79.8893Q1142.22 79.5049 1144 79.1635Q1145.78 78.8222 1147.57 78.5241Q1149.35 78.2261 1151.15 77.9714Q1152.94 77.7168 1154.74 77.5058Q1156.54 77.2947 1158.35 77.1274Q1160.16 76.9601 1161.96 76.8366Q1163.77 76.7131 1165.58 76.6335Q1167.4 76.5539 1169.21 76.5182Q1171.02 76.4826 1172.83 76.4908Q1174.65 76.4991 1176.46 76.5514Q1178.27 76.6036 1180.08 76.6998Q1181.89 76.7959 1183.7 76.936Q1185.51 77.076 1187.31 77.2598C1227.96 81.6222 1263.83 103.506 1289.19 135.177C1313.09 165.03 1325.18 207.897 1320.89 245.876C1320.4 250.223 1319.71 258.846 1316.8 262.086C1319.06 272.548 1302.99 302.748 1297.15 311.846C1275.54 345.523 1239.69 369.216 1200.76 377.654C1191.49 379.665 1182.37 380.738 1172.88 380.882C1173.67 382.299 1174.04 383.496 1174.14 385.101C1175.6 408.544 1174.1 432.731 1174.01 456.239C1173.95 473.916 1176.47 517.145 1172.25 532.298C1169.64 541.657 1164.18 549.58 1155.55 554.241C1150.81 556.796 1145.46 558.421 1140.14 559.207C1130.75 560.597 1120.74 559.982 1111.27 559.99L1063.84 559.983C1066.56 564.336 1066.29 587.772 1065.01 593.295C1064.87 593.884 1064.74 594.179 1064.53 594.776C1066.14 599.623 1066.24 679.081 1065.52 688.004C1065.18 692.226 1064.26 696.383 1062.32 700.17C1059 706.622 1053.16 711.233 1046.25 713.31C1032.89 717.324 994.82 714.626 978.66 714.748Q978.441 752.718 978.761 790.688C978.847 802.592 978.448 814.756 979.09 826.629C998.927 826.647 1018.87 826.212 1038.69 826.801C1048.73 827.937 1059.39 827.762 1069.49 827.547C1075.61 833.739 1082.64 853.332 1089.56 862.577C1091.75 865.488 1098.72 870.897 1099.08 874.241C1099.09 874.382 1099.07 874.524 1099.06 874.665C1102.49 876.207 1105.02 878.816 1107.74 881.34L1108.1 882.384C1102.04 884.16 1041.16 882.93 1028.1 882.936C1011.5 882.944 996.103 880.818 983.833 868.341C972.393 856.709 970.337 842.298 970.442 826.737L901.085 826.67L901.055 714.638Q825.754 714.046 750.452 714.461L708.452 714.505C699.704 714.505 690.421 715.068 681.775 713.608C675.729 712.588 670.283 709.332 665.941 705.061C661.231 700.426 657.682 694.193 656.409 687.686C653.669 673.679 655.446 654.591 655.427 640.176L655.406 535.844L507.468 535.908C507.477 554.402 507.018 573.02 507.579 591.498Q475.386 592.068 443.189 591.91L443.174 655.372C440.316 659.905 442.198 774.981 442.263 791.043C442.305 801.211 444.084 819.728 441.663 828.751C439.137 829.182 436.96 829.311 434.399 829.232L434.495 592.09C434.26 582.646 433.97 573.178 434.128 563.732C434.3 553.479 436.257 543.33 444.02 535.986C457.494 523.239 490.228 527.53 508.263 527.808C506.224 524.614 507.5 479.56 507.538 471.641C489.683 471.903 459.674 476.246 445.696 463.083C439.346 457.103 435.827 448.38 435.646 439.708Q435.625 438.889 435.646 438.07Q435.666 437.251 435.727 436.434Q435.789 435.617 435.891 434.804Q435.993 433.991 436.136 433.184Q436.278 432.377 436.461 431.579Q436.644 430.78 436.866 429.992Q437.089 429.203 437.351 428.427Q437.613 427.65 437.913 426.888Q438.213 426.126 438.551 425.379Q438.889 424.633 439.264 423.905Q439.639 423.176 440.05 422.467Q440.461 421.759 440.907 421.071Q441.353 420.384 441.832 419.72Q442.312 419.056 442.825 418.417Q443.337 417.777 443.881 417.165Q444.424 416.552 444.998 415.967C458.452 402.465 489.245 406.599 507.452 406.434C507.185 388.532 507.436 370.589 507.435 352.682L374.193 352.704C368.116 363.319 361.567 366.231 350.094 369.558L350.186 329.99C360.609 333.081 367.668 335.975 374.165 345.145C418.804 344.253 463.509 344.885 508.159 344.739C505.913 339.675 507.39 273.418 507.414 262.144L507.448 80.6443Q608.566 79.7391 709.687 80.1585L777.621 80.0707C796.894 80.0591 816.441 79.116 835.421 83.0799Q837.609 83.5347 839.78 84.0658Q841.95 84.5969 844.101 85.2036Q846.252 85.8103 848.38 86.4918Q850.508 87.1733 852.611 87.9289Q854.714 88.6844 856.79 89.5131Q858.865 90.3418 860.91 91.2425Q862.956 92.1432 864.968 93.115Q866.98 94.0867 868.957 95.1282Q870.935 96.1697 872.874 97.2798Q874.814 98.3898 876.714 99.567Q878.613 100.744 880.47 101.987Q882.328 103.23 884.14 104.537Q885.953 105.844 887.719 107.214Q889.485 108.584 891.202 110.014Q892.919 111.445 894.584 112.935Q896.25 114.425 897.863 115.972C924.355 141.547 938.77 175.136 939.277 211.964C939.513 229.034 935.904 245.758 930.329 261.815Q977.038 261.209 1023.75 261.428Z"/>
	<path fill="#FDFEFE" d="M897.304 624.668C900.748 624.796 903.407 625.008 906.032 627.576C907.662 629.17 908.598 631.137 908.417 633.448C908.135 637.041 905.83 639.014 903.218 641.075C899.844 641.032 897.05 640.826 894.476 638.397C893.044 637.045 892.353 635.449 892.358 633.475C892.368 629.548 894.67 627.175 897.304 624.668Z"/>
	<path fill="#FDFEFE" d="M933.992 624.756C937.506 624.66 940.508 624.759 943.169 627.462Q943.418 627.713 943.64 627.988Q943.863 628.264 944.055 628.56Q944.248 628.857 944.41 629.172Q944.572 629.486 944.7 629.816Q944.829 630.146 944.923 630.487Q945.018 630.828 945.077 631.176Q945.136 631.525 945.159 631.878Q945.182 632.231 945.169 632.585C945.038 636.274 942.803 638.502 940.261 640.796C939.386 640.85 938.513 640.899 937.636 640.894C934.878 640.879 932.551 640.088 930.666 637.987C929.309 636.476 928.861 634.588 929.053 632.595C929.402 628.969 931.465 627.051 933.992 624.756Z"/>
	<path fill="#FDFEFE" d="M1008.35 624.854Q1009.76 624.766 1011.18 624.757C1014.12 624.753 1016.67 625.547 1018.72 627.772C1020.02 629.192 1020.69 631.055 1020.54 632.983C1020.22 636.839 1017.74 638.827 1014.96 641.05C1011.6 641.106 1008.49 640.701 1005.96 638.269C1004.57 636.933 1003.71 635.153 1003.7 633.21C1003.67 629.482 1005.84 627.213 1008.35 624.854Z"/>
	<path fill="#FDFEFE" d="M969.522 624.891C973.039 624.54 975.977 624.05 978.992 626.352C980.888 627.8 981.912 629.525 982.052 631.924C982.273 635.699 980.646 637.997 978.307 640.658C975.171 641.114 972.138 641.467 969.306 639.665C967.547 638.547 966.304 636.91 965.952 634.831C965.262 630.756 967.137 627.892 969.522 624.891Z"/>
	<path fill="#11A4CC" d="M692.064 524.891Q720.653 524.592 749.243 524.603C749.378 528.451 749.48 532.16 748.988 535.986L691.176 535.82C691.082 532.522 690.43 527.78 692.064 524.891Z"/>
	<path fill="#FDFEFE" d="M691.206 613.7L754.401 613.925L754.428 625.672L691.146 625.676L691.206 613.7Z"/>
	<path fill="#FDFEFE" d="M762.912 614.214L839.396 614.186L839.375 625.505L762.861 625.435L762.912 614.214Z"/>
	<path fill="#FDFEFE" d="M691.293 638.15L797.235 638.246L797.224 649.517L691.348 649.195L691.293 638.15Z"/>
	<path fill="#11A4CC" d="M691.366 496.956L802.36 496.977C802.431 500.556 802.26 504.132 802.13 507.708L691.372 508.282L691.366 496.956Z"/>
	<path fill="#11A4CC" d="M691.117 469.586L847.749 469.737L847.589 480.321L690.912 480.824L691.117 469.586Z"/>
	<path fill="#4098C7" d="M507.611 463.873C492.509 463.987 463.347 467.769 452.024 457.073C446.441 451.799 444.516 445.79 444.444 438.219C444.388 432.291 446.331 426.642 450.595 422.442C462.47 410.746 491.799 414.434 507.501 414.531C507.503 428.498 506.003 450.882 507.611 463.873Z"/>
	<path fill="#54D088" d="M895.806 535.812L944.477 535.787L944.513 602.662L896.031 602.784L895.806 535.812Z"/>
	<path fill="#4098C7" d="M443.189 591.91C443.181 578.275 439.707 552.711 449.496 542.509C458.742 532.872 493.846 536.013 507.468 535.908C507.477 554.402 507.018 573.02 507.579 591.498Q475.386 592.068 443.189 591.91Z"/>
	<path fill="#1B4471" d="M979.09 826.629C998.927 826.647 1018.87 826.212 1038.69 826.801C1048.73 827.937 1059.39 827.762 1069.49 827.547C1075.61 833.739 1082.64 853.332 1089.56 862.577C1091.75 865.488 1098.72 870.897 1099.08 874.241C1099.09 874.382 1099.07 874.524 1099.06 874.665C1087.14 876.161 1073.48 874.855 1061.38 874.904C1047.16 874.961 1032.59 876.145 1018.44 875.268C1006.83 874.55 995.942 870.286 988.239 861.329C979.429 851.085 978.189 839.504 979.09 826.629Z"/>
	<path fill="#54D088" d="M973.879 485.358L1023.41 485.419Q1023.72 543.984 1023.05 602.546C1006.89 603.616 990.349 602.96 974.15 603.002L973.879 485.358Z"/>
	<path fill="#43D2DB" d="M901.055 714.638L970.356 714.703L970.442 826.737L901.085 826.67L901.055 714.638Z"/>
	<path fill="#FDFEFE" d="M507.538 471.641Q581.358 471.259 655.176 471.781Q655.063 499.758 655.449 527.731L508.263 527.808C506.224 524.614 507.5 479.56 507.538 471.641Z"/>
	<path fill="#FDFEFE" d="M707.877 257.675C721.174 257.605 755.163 253.975 764.603 263.549C767.317 266.302 769.313 269.946 769.977 273.769C772.374 287.577 770.533 304.423 770.466 318.512L770.603 407.149L709.998 407.007C698.637 406.991 685.034 405.625 674.008 408.142Q673.188 408.333 672.383 408.581Q671.579 408.83 670.794 409.135Q670.009 409.441 669.248 409.801Q668.487 410.162 667.754 410.576Q667.02 410.99 666.318 411.455Q665.616 411.92 664.949 412.434Q664.282 412.948 663.653 413.508Q663.024 414.068 662.437 414.672C651.345 425.889 655.751 448.863 655.532 463.498C606.244 463.625 556.89 463.182 507.611 463.873C506.003 450.882 507.503 428.498 507.501 414.531L507.452 406.434C507.185 388.532 507.436 370.589 507.435 352.682L588.923 352.326C603.29 352.371 619.58 354.029 633.729 352.014C640.009 351.12 645.403 349.742 649.967 345.134C655.899 339.145 658.51 331.525 658.427 323.152C658.385 318.959 658.125 314.737 657.841 310.553C674.427 307.142 689.123 300.878 698.813 286.173C704.508 277.53 706.997 267.889 707.877 257.675Z"/>
	<path fill="#CEF2F7" d="M582.366 383.217C585.365 383.233 588.27 383.264 591.111 384.341Q591.937 384.66 592.727 385.059Q593.518 385.459 594.264 385.935Q595.011 386.412 595.706 386.96Q596.402 387.508 597.039 388.123Q597.676 388.738 598.249 389.413Q598.822 390.089 599.325 390.818Q599.828 391.547 600.256 392.322Q600.684 393.098 601.032 393.912Q601.369 394.692 601.627 395.501Q601.885 396.31 602.062 397.141Q602.238 397.972 602.331 398.816Q602.425 399.661 602.434 400.51Q602.443 401.359 602.367 402.205Q602.292 403.051 602.133 403.886Q601.974 404.72 601.733 405.535Q601.492 406.349 601.172 407.136C598.828 412.96 594.586 415.357 589.015 417.632C585.337 417.915 581.641 417.576 578.3 415.925Q577.504 415.531 576.752 415.058Q575.999 414.586 575.298 414.041Q574.597 413.496 573.954 412.883Q573.311 412.27 572.732 411.596Q572.154 410.922 571.646 410.193Q571.138 409.464 570.706 408.688Q570.273 407.912 569.921 407.096Q569.569 406.281 569.3 405.434C567.904 401.116 568.24 396.13 570.372 392.105C573.073 387.004 577.032 384.826 582.366 383.217Z"/>
	<path fill="#3DF0E8" d="M1180.69 95.5506C1188.6 93.9757 1202.39 98.2224 1210.02 101.079C1211.14 101.496 1213.79 102.56 1214.26 103.67C1216.67 109.376 1212.99 121.61 1210.86 127.308C1213.86 128.597 1216.85 129.654 1219.14 132.074C1223.75 127.689 1229.59 116.938 1234.44 114.642C1237.65 114.015 1240.12 115.152 1242.86 116.703C1248.22 119.75 1261.53 128.33 1263.2 134.255C1264.1 138.926 1253.99 151.001 1251.3 155.695C1251.54 157.654 1252.14 157.763 1253.58 159.028C1260.75 160.873 1270.69 154.74 1277.15 151.768C1277.26 151.846 1277.38 151.92 1277.49 152.002C1277.68 152.139 1277.86 152.286 1278.04 152.424C1278.77 152.97 1279.52 153.513 1280.11 154.213C1284.54 159.416 1293.71 176.16 1293.2 183.032C1291.67 186.15 1273.8 194.295 1269.62 196.186C1271.34 198.662 1271.75 201.604 1272.02 204.528C1281.15 204.434 1290.47 203.953 1299.57 204.704C1300.08 205.351 1300.5 205.977 1300.9 206.705C1303.84 212.121 1304.21 232.067 1302.28 238.038C1300.09 244.786 1279.11 241.073 1272.97 244.195C1272.69 244.832 1272.39 245.462 1272.32 246.166C1271.32 257.375 1287.17 253.587 1292.61 260.188C1294.34 262.283 1294.73 264.934 1294.43 267.561C1293.58 274.941 1286.91 291.947 1281.01 296.569C1273.67 292.897 1264.42 290.714 1256.53 288.194C1256.53 288.519 1256.55 288.845 1256.53 289.17C1256.4 292.257 1253.42 294.711 1251.21 296.531C1251.71 296.831 1252.22 297.147 1252.68 297.505C1256.71 300.647 1267.56 311.498 1268.11 316.487C1268.05 317.18 1268.01 317.723 1267.69 318.358C1263.9 326.046 1244.45 340.233 1236.58 343.276C1234.87 337.643 1224.19 327.182 1219.55 323.351C1218.53 325.597 1214.63 327.139 1212.5 328.192C1212.92 329.184 1213.31 330.187 1213.61 331.227C1214.98 336.047 1218.9 348.576 1216.42 352.954C1215.71 353.517 1214.97 353.976 1214.17 354.397C1207.81 357.737 1189.49 362.355 1182.79 360.043C1176.97 358.037 1176.64 342.49 1173.81 336.751L1173.46 336.074C1170.14 336.386 1166.76 336.415 1163.43 336.541C1163.69 337.323 1163.9 338.119 1163.96 338.948C1164.28 343.599 1162 354.197 1158.97 357.884C1159.01 359.179 1158.93 359.38 1158.3 360.523C1150.66 362.734 1129.23 355.098 1120.89 352.672C1123.91 347.834 1125.9 332.321 1125.11 326.758C1123.56 324.443 1119.94 323.49 1117.44 322.572C1114.98 328.434 1104.98 339.353 1099.17 342.172C1097.94 339.307 1092.43 335.84 1089.98 333.77C1083 327.854 1076.21 319.733 1070.07 314.72C1075.53 311.425 1084.37 301.835 1087.44 296.274C1087.44 296.129 1087.46 295.983 1087.44 295.84C1087.05 293.122 1084.09 290.984 1082.05 289.463C1076.31 291.573 1068.1 296.279 1062.01 295.224C1052.14 293.518 1049.1 271.133 1043.71 263.479C1043.59 263.315 1043.47 263.157 1043.35 262.996C1047.2 261.27 1065.35 252.292 1067.75 249.66C1067.69 248.379 1067.74 246.898 1067.47 245.646C1066.22 239.858 1046.85 244.518 1041.01 240.201C1039.88 238.079 1039.57 235.979 1039.37 233.616C1038.9 227.855 1037.93 209.468 1041.7 205.554C1046.21 200.874 1060.78 203.196 1066.91 203.312C1067.12 203.105 1067.35 202.923 1067.53 202.692C1068.66 201.257 1069.59 197.665 1069.24 195.897C1061.73 191.235 1052.93 186.819 1044.77 183.433C1047.21 180.697 1059.7 155.45 1060.31 151.863C1066.81 152.697 1084.27 162.337 1088.62 160.975C1088.95 160.189 1089.54 159.28 1089.4 158.431C1088.33 151.742 1078.91 141.32 1073.6 137.42C1078.2 134.601 1097.47 118.652 1100.9 114.638C1107.89 117.256 1112.37 124.773 1117.76 129.64C1119.63 131.337 1121.69 132.676 1124.3 132.533C1130.99 127.271 1121.63 111.881 1124.74 104.794C1131.55 98.5957 1148.05 96.9329 1156.94 95.4167C1161.93 99.8127 1163.91 113.349 1166.57 119.729C1168.98 120.149 1171.06 120.562 1173.5 120.036Q1176.98 107.76 1180.69 95.5506Z"/>
	<path fill="#11A4CC" d="M1185.03 103.553C1191.74 103.651 1199.53 106.328 1206.02 108.044C1207.59 113.299 1204.2 128.077 1201.88 133.129C1208.57 134.625 1215.96 137.908 1221.33 142.172C1225.83 139.47 1235.55 127.405 1236.8 122.486C1241.34 124.5 1251.39 130.828 1253.8 135.136C1253.79 135.378 1253.79 135.622 1253.78 135.864C1253.57 139.084 1242.2 156.137 1239.49 158.505C1240.12 158.85 1240.65 159.168 1241.22 159.601C1244.41 162.043 1249.05 166.71 1249.65 170.736C1256.66 169.122 1268.62 165.001 1274.15 160.569C1274.55 160.847 1274.98 161.123 1275.33 161.463C1278.27 164.328 1284.82 175.694 1284.82 179.706C1281.81 183.129 1264.71 190.842 1259.67 193.309C1260.88 194.366 1261.93 195.506 1262.71 196.917C1264.99 201.022 1266.67 207.851 1265.18 212.406C1274.58 212.444 1283.99 212.219 1293.38 212.105C1293.93 212.93 1294.33 213.731 1294.57 214.702C1295.68 219.115 1295.77 229.899 1293.32 233.852C1284.03 235.196 1274.37 234.89 1264.99 235.031C1265.35 235.916 1265.59 236.534 1265.68 237.496C1266.08 241.993 1264.36 252.742 1261.49 256.246C1269.64 258.457 1278.5 261.792 1285.94 265.746C1286.03 266.161 1286.19 266.769 1286.19 267.221C1286.19 271.915 1280.65 284.579 1277.4 288.044C1273.56 283.634 1259.16 280.236 1253.57 278.473C1253.57 278.678 1253.59 278.886 1253.56 279.09C1252.98 283.383 1244.84 293.632 1241.35 296.339C1246.36 300.402 1256.68 310.75 1258.52 316.619C1258.48 316.754 1258.46 316.897 1258.4 317.026C1256.88 320.464 1241.58 331.552 1237.85 333.294C1237.8 332.929 1237.74 332.336 1237.6 331.959C1235.71 326.66 1225.48 315.987 1220.63 313.27C1220.54 313.43 1220.47 313.601 1220.37 313.748C1217.54 317.678 1206.8 321.529 1202.13 322.55C1202.76 323.367 1203.34 324.219 1203.77 325.158C1206.01 329.972 1209.08 343.02 1207.4 347.939C1201.41 351.348 1191.81 352.66 1185 353.573C1185.2 352.83 1185.38 352.046 1185.4 351.272C1185.56 345.69 1183.1 331.023 1179.35 327.14C1172.48 328.443 1164.9 327.587 1157.96 327.3C1158.15 327.881 1158.33 328.318 1158.4 328.913C1158.98 333.338 1156.07 344.836 1153.53 348.569C1153.85 349.552 1153.9 350.458 1153.99 351.481C1148.7 353.844 1135.74 348.939 1129.79 347.521C1132.82 343.155 1134.84 326.371 1134 321.15C1130.45 317.589 1121.04 314.236 1116.13 312.365C1116.09 312.557 1116.07 312.755 1116.01 312.94C1114.85 316.229 1101.66 329.824 1098.42 331.872C1096.33 327.332 1084.5 318.993 1080.16 316.097C1085.19 313.326 1096.12 301.946 1098.33 296.802C1098.31 296.558 1098.3 296.313 1098.27 296.069C1097.87 292.628 1088.13 280.468 1085.27 278.324C1081.62 281.796 1067.27 286.407 1061.99 287.752C1062.01 287.533 1062.03 287.313 1062.04 287.094C1062.15 283.21 1055.66 269.516 1052.87 266.745C1060.59 263.22 1069.55 259.762 1076.83 255.59C1076.91 255.375 1077 255.164 1077.07 254.945C1078.22 251.107 1073.99 238.147 1071.81 234.737L1045.34 234.548C1045.89 233.728 1046.29 232.933 1046.53 231.964C1047.65 227.408 1048.24 214.755 1045.93 210.704L1072.57 210.606C1072.77 210.386 1072.97 210.173 1073.16 209.946C1075.95 206.571 1078.32 196.209 1077.96 191.867C1075.83 188.273 1058.86 180.534 1054.51 179.136C1055.29 178.569 1055.85 178.147 1056.46 177.394C1059.26 173.912 1063.6 165.394 1063.19 160.825C1070.08 162.881 1083.85 168.022 1088.7 173.16C1092.55 170.549 1098.49 163.655 1100.16 159.342C1100.14 159.036 1100.13 158.729 1100.1 158.424C1099.57 153.757 1087.59 140.024 1083.79 137.134C1088.26 135.4 1098.23 128.314 1100.33 123.812C1104.88 126.318 1116.69 138.833 1118.32 143.537C1123.83 141.522 1131.42 137.924 1135.78 133.964C1135.99 133.382 1136.18 132.77 1136.26 132.155C1136.92 127.192 1134.45 114.272 1131.51 110.213C1138.52 108.556 1145.5 106.299 1152.43 104.272C1153.21 105.14 1153.93 106.07 1154.4 107.149C1156.38 111.707 1160.71 124.471 1158.88 128.944L1179.28 128.835C1182.79 124.202 1185.38 109.359 1185.03 103.553Z"/>
	<path fill="#CEF2F7" d="M1167.88 143.55C1169.86 143.432 1170.89 143.793 1172.61 144.768C1174 146.717 1173.99 148.677 1174.09 150.979C1175.22 178.252 1174.01 206.029 1174.07 233.371C1174.12 257.146 1175.71 282.03 1173.84 305.687C1172.23 307.809 1171.25 307.775 1168.76 308.45C1167.66 307.943 1166.71 307.057 1165.74 306.317C1164.46 303.635 1164.39 301.02 1164.29 298.1C1163.48 273.017 1164.62 247.625 1164.53 222.491C1164.45 198.77 1162.94 174.136 1164.51 150.509C1164.75 146.959 1165.23 145.851 1167.88 143.55Z"/>
	<path fill="#3DF0E8" d="M1151.39 154.22L1153.46 154.631C1155.24 159.876 1154.13 297.704 1152.56 302.359C1148.05 298.964 1139.29 297.429 1133.96 294.656C1128.34 291.728 1123.48 286.57 1118.26 282.902C1117.3 278.907 1103.2 262.322 1099.83 251.308C1093.7 231.284 1094.08 210.788 1104.24 192.05C1114.75 172.662 1130.36 160.531 1151.39 154.22Z"/>
	<path fill="#3DF0E8" d="M1184 153.326C1185.43 153.189 1186.79 153.231 1188.21 153.451C1203.82 155.863 1218.84 168.022 1227.81 180.475Q1228.42 181.32 1229 182.18Q1229.59 183.04 1230.16 183.915Q1230.72 184.789 1231.27 185.677Q1231.81 186.565 1232.33 187.466Q1232.85 188.367 1233.35 189.281Q1233.85 190.195 1234.33 191.121Q1234.81 192.046 1235.26 192.984Q1235.71 193.921 1236.14 194.869Q1236.57 195.817 1236.98 196.776Q1237.39 197.734 1237.77 198.703Q1238.15 199.671 1238.51 200.648Q1238.87 201.626 1239.21 202.612Q1239.54 203.598 1239.85 204.592Q1240.16 205.586 1240.45 206.587Q1240.73 207.588 1241 208.597Q1241.26 209.605 1241.49 210.619Q1241.73 211.633 1241.94 212.653Q1242.15 213.673 1242.34 214.697Q1242.52 215.722 1242.68 216.751Q1242.84 217.78 1242.98 218.812Q1243.11 219.845 1243.22 220.88Q1243.33 221.916 1243.42 222.954Q1243.5 223.992 1243.56 225.031Q1243.62 226.071 1243.65 227.112Q1243.68 228.153 1243.69 229.194Q1243.7 230.236 1243.68 231.277Q1243.66 232.318 1243.61 233.358Q1243.57 234.399 1243.5 235.438Q1243.43 236.477 1243.33 237.514Q1243.24 238.551 1243.12 239.585Q1243 240.619 1242.85 241.65Q1242.7 242.681 1242.53 243.708C1240.29 257.222 1232.93 274.124 1221.53 282.223C1221.32 283.043 1221.43 282.943 1220.99 283.546C1213.18 294.222 1195.49 300.206 1183.03 302.56C1183.79 301.077 1184.23 299.687 1184.33 298.013C1185.97 271.812 1184.54 241.291 1184.58 214.576C1184.6 202.631 1186.3 162.539 1184 153.326Z"/>
	<path fill="#FDFEFE" d="M507.448 80.6443Q608.566 79.7391 709.687 80.1585L777.621 80.0707C796.894 80.0591 816.441 79.116 835.421 83.0799Q837.609 83.5347 839.78 84.0658Q841.95 84.5969 844.101 85.2036Q846.252 85.8103 848.38 86.4918Q850.508 87.1733 852.611 87.9289Q854.714 88.6844 856.79 89.5131Q858.865 90.3418 860.91 91.2425Q862.956 92.1432 864.968 93.115Q866.98 94.0867 868.957 95.1282Q870.935 96.1697 872.874 97.2798Q874.814 98.3898 876.714 99.567Q878.613 100.744 880.47 101.987Q882.328 103.23 884.14 104.537Q885.953 105.844 887.719 107.214Q889.485 108.584 891.202 110.014Q892.919 111.445 894.584 112.935Q896.25 114.425 897.863 115.972C924.355 141.547 938.77 175.136 939.277 211.964C939.513 229.034 935.904 245.758 930.329 261.815Q977.038 261.209 1023.75 261.428C1026.45 264.586 1031.77 286.218 1034.57 292.617C1041.09 307.481 1051.28 321.522 1062.12 333.515C1089.56 363.844 1124.89 378.732 1165.54 380.765C1168.91 387.11 1167.13 489.765 1167.14 503.501C1167.15 517.456 1168.21 533.109 1157.31 543.745C1153 547.949 1147.45 550.182 1141.62 551.344C1132.29 553.203 1121.67 552.274 1112.19 552.244L1063.63 552.059C1064.77 550.071 1065 548.264 1065.04 546.008C1065.45 523.386 1064.72 500.711 1064.84 478.079C1064.92 462.93 1066.75 445.891 1064.59 431.031C1063.78 425.496 1061.84 419.645 1057.83 415.589C1053.88 411.592 1048.74 408.466 1043.12 407.659C1033.3 406.25 1022.73 406.971 1012.82 406.995L961.818 407.055L778.59 407.004L778.687 313.743C778.714 300.66 780.484 282.867 777.962 270.276C777 265.475 774.223 260.861 770.771 257.439C758.74 245.514 723.677 249.535 707.331 249.63L707.259 206.931L706.262 205.897C692.941 203.735 674.546 205.345 660.673 205.342C641.062 205.286 621.322 204.746 601.726 205.351C601.546 234.364 595.906 272.366 617.806 294.444C626.561 303.269 637.584 307.852 649.659 310.04C650.046 320.327 651.91 331.378 644.22 339.547C639.489 344.574 629.83 344.135 623.365 344.214L508.159 344.739C505.913 339.675 507.39 273.418 507.414 262.144L507.448 80.6443Z"/>
	<path fill="#CEF2F7" d="M868.461 225.811C871.228 225.654 874.034 225.898 876.695 226.713C881.085 228.058 885.045 231.399 887.029 235.549Q887.389 236.286 887.671 237.056Q887.953 237.826 888.154 238.621Q888.354 239.416 888.472 240.228Q888.59 241.04 888.623 241.859Q888.656 242.678 888.604 243.497Q888.552 244.315 888.416 245.124Q888.28 245.933 888.061 246.723Q887.842 247.514 887.543 248.277C885.377 253.91 881.371 256.294 876.068 258.617C872.727 258.774 869.772 258.652 866.617 257.417C862.24 255.703 858.452 252.291 856.618 247.926Q856.315 247.215 856.084 246.478Q855.854 245.74 855.697 244.984Q855.54 244.227 855.459 243.459Q855.378 242.69 855.374 241.917Q855.37 241.145 855.442 240.375Q855.514 239.606 855.662 238.848Q855.81 238.089 856.033 237.349Q856.255 236.609 856.55 235.895C858.841 230.259 863.096 228.032 868.461 225.811Z"/>
	<path fill="#11A971" d="M660.143 124.874C674.764 126.566 686.86 133.707 695.993 145.259C711.22 164.519 705.348 184.503 707.259 206.931L706.262 205.897C692.941 203.735 674.546 205.345 660.673 205.342C661.028 198.838 660.861 192.549 660.428 186.052C664.317 183.926 667.335 181.642 669.62 177.757C672.204 173.363 672.977 168.248 671.654 163.314C669.924 156.864 665.788 153.206 660.2 149.951L660.143 124.874Z"/>
	<path fill="#43D2DB" d="M827.519 194.723C822.268 193.997 817.022 193.198 812.214 190.852C804.093 186.89 797.769 180.046 794.85 171.452Q794.586 170.663 794.362 169.861Q794.138 169.06 793.955 168.248Q793.772 167.437 793.629 166.617Q793.487 165.797 793.385 164.971Q793.284 164.145 793.225 163.315Q793.165 162.485 793.147 161.653Q793.129 160.822 793.153 159.99Q793.177 159.158 793.242 158.329Q793.308 157.499 793.415 156.674Q793.522 155.849 793.67 155.03Q793.818 154.211 794.007 153.401Q794.196 152.59 794.426 151.791Q794.655 150.991 794.925 150.204Q795.194 149.416 795.503 148.643Q795.811 147.871 796.158 147.114Q796.505 146.358 796.889 145.62Q797.268 144.873 797.682 144.145Q798.097 143.418 798.548 142.712Q798.998 142.006 799.482 141.323Q799.967 140.64 800.485 139.981Q801.002 139.323 801.552 138.691Q802.101 138.059 802.681 137.455Q803.261 136.851 803.87 136.276Q804.479 135.702 805.116 135.158Q805.753 134.614 806.415 134.102Q807.078 133.59 807.765 133.111Q808.452 132.633 809.162 132.189Q809.872 131.745 810.603 131.336Q811.334 130.928 812.084 130.556Q812.834 130.184 813.602 129.849Q814.37 129.515 815.153 129.218Q815.936 128.922 816.733 128.665C825.703 125.808 836.497 126.548 844.856 130.963C854.004 135.795 858.345 143.915 861.306 153.427C862.494 163.082 860.521 172.731 854.531 180.565C847.813 189.349 838.128 193.113 827.519 194.723Z"/>
	<path fill="#FDFEFE" d="M827.243 171.191C824.539 170.304 821.978 169.495 820.098 167.198C818.305 165.008 817.494 162.289 817.906 159.479Q817.984 158.961 818.114 158.453Q818.244 157.946 818.423 157.454Q818.602 156.961 818.829 156.49Q819.057 156.018 819.33 155.57Q819.602 155.123 819.918 154.705Q820.234 154.288 820.59 153.903Q820.946 153.519 821.338 153.172Q821.73 152.825 822.155 152.518C824.169 151.077 826.604 150.458 829.052 150.926C833.007 151.682 835.006 154.731 837.207 157.764C837.156 161.307 837.178 164.538 834.459 167.225C832.633 169.029 829.914 169.949 827.62 171.018L827.243 171.191Z"/>
	<path fill="#03185A" d="M837.207 157.764C845.286 156.689 853.304 154.969 861.306 153.427C862.494 163.082 860.521 172.731 854.531 180.565C847.813 189.349 838.128 193.113 827.519 194.723C827.028 186.96 827.321 178.98 827.243 171.191L827.62 171.018C829.914 169.949 832.633 169.029 834.459 167.225C837.178 164.538 837.156 161.307 837.207 157.764Z"/>
	<path fill="#33CC98" d="M601.726 205.351C601.641 194.821 601.005 183.913 601.774 173.423C602.813 159.235 609.162 146.313 620.022 137.041C631.579 127.175 645.231 123.784 660.143 124.874L660.2 149.951C665.788 153.206 669.924 156.864 671.654 163.314C672.977 168.248 672.204 173.363 669.62 177.757C667.335 181.642 664.317 183.926 660.428 186.052C660.861 192.549 661.028 198.838 660.673 205.342C641.062 205.286 621.322 204.746 601.726 205.351Z"/>
	<path fill="#FDFEFE" d="M634.083 169.227C635.762 162.578 638.029 155.699 644.057 151.711C649.14 148.349 654.491 148.838 660.2 149.951C665.788 153.206 669.924 156.864 671.654 163.314C672.977 168.248 672.204 173.363 669.62 177.757C667.335 181.642 664.317 183.926 660.428 186.052C655.318 187.246 649.472 187.191 644.74 184.699C638.459 181.391 636.002 175.696 634.083 169.227Z"/>
	<path fill="#43D2DB" d="M859.258 307.884L921.575 308.1C932.056 308.106 943.283 307.06 953.634 308.59C958.416 309.296 963.251 311.075 967.279 313.76C973.16 317.679 977.104 323.534 978.462 330.48Q978.604 331.19 978.711 331.906Q978.818 332.621 978.89 333.342Q978.962 334.062 978.998 334.785Q979.034 335.508 979.034 336.232Q979.035 336.955 978.999 337.678Q978.964 338.401 978.893 339.122Q978.822 339.842 978.716 340.558Q978.609 341.274 978.468 341.984Q978.326 342.693 978.15 343.395Q977.974 344.097 977.763 344.79Q977.552 345.482 977.308 346.163Q977.063 346.845 976.785 347.513Q976.507 348.181 976.197 348.835Q975.886 349.489 975.544 350.126Q975.201 350.764 974.828 351.384Q974.455 352.004 974.051 352.605C968.534 360.704 960.974 364.283 951.632 366.136L887.619 366.159C877.99 366.175 867.541 367.317 858.035 365.91C853.065 365.174 848.397 363.416 844.289 360.504Q843.702 360.085 843.137 359.637Q842.571 359.19 842.028 358.716Q841.484 358.242 840.965 357.741Q840.445 357.241 839.95 356.717Q839.456 356.192 838.987 355.644Q838.518 355.096 838.077 354.525Q837.635 353.955 837.222 353.364Q836.808 352.773 836.424 352.162Q836.04 351.552 835.686 350.924Q835.332 350.295 835.009 349.65Q834.686 349.006 834.395 348.346Q834.103 347.686 833.844 347.013Q833.585 346.34 833.359 345.655Q833.133 344.97 832.941 344.275Q832.748 343.58 832.59 342.876Q832.431 342.172 832.307 341.462Q832.194 340.78 832.116 340.093Q832.037 339.407 831.993 338.717Q831.949 338.027 831.939 337.336Q831.93 336.645 831.954 335.954Q831.979 335.263 832.038 334.575Q832.097 333.886 832.191 333.201Q832.284 332.516 832.412 331.837Q832.539 331.158 832.7 330.486Q832.861 329.814 833.056 329.15Q833.25 328.487 833.478 327.834Q833.705 327.182 833.964 326.541Q834.224 325.901 834.515 325.274Q834.806 324.647 835.128 324.035Q835.45 323.424 835.803 322.829Q836.155 322.234 836.536 321.658Q836.917 321.082 837.327 320.525C842.809 312.981 850.279 309.406 859.258 307.884Z"/>
	<path fill="#FDFEFE" d="M935.441 330.545Q936.092 330.516 936.744 330.51C939.497 330.495 942.624 330.74 944.516 333.035C945.877 334.686 946.202 336.07 946.023 338.141C945.741 341.384 943.605 343.077 941.275 344.981C938.385 344.907 935.269 344.786 933.105 342.578C931.519 340.96 930.96 339.208 931.123 336.964C931.328 334.153 933.522 332.324 935.441 330.545Z"/>
	<path fill="#FDFEFE" d="M901.835 330.581C902.002 330.568 902.169 330.553 902.337 330.541C905.157 330.345 908.799 330.285 910.902 332.521C912.235 333.937 912.693 335.303 912.698 337.203C912.707 340.674 910.538 342.938 908.348 345.323C905.484 345.259 902.362 345.23 900.13 343.131C898.447 341.548 897.663 339.711 897.761 337.401C897.886 334.451 899.891 332.521 901.835 330.581Z"/>
	<path fill="#FDFEFE" d="M868.847 329.785C869.668 329.801 870.487 329.822 871.306 329.898C873.827 330.133 876.432 331.203 877.927 333.358C879.085 335.026 879.423 336.612 879.141 338.584C878.69 341.737 876.334 343.488 873.909 345.154C873.761 345.15 873.614 345.147 873.466 345.14C870.452 345.004 866.932 344.558 864.976 341.964C863.787 340.387 863.51 338.915 863.717 337.003C864.078 333.667 866.444 331.768 868.847 329.785Z"/>
</svg>
